<?xml version="1.0" encoding="UTF-8"?>
<svg id="Calque_1" data-name="Calque 1" xmlns="http://www.w3.org/2000/svg" viewBox="0 0 786.82 661.36">
  <defs>
    <style>
      .cls-1 {
        fill: #fff;
        stroke-width: 0px;
      }
    </style>
  </defs>
  <g id="q5qZT8">
    <g>
      <path class="cls-1" d="M63.07,145.62c-7.68-.52-12.35,2.72-14.8,10.29-2.63,8.13-6.57,15.84-9.3,23.95-.85,2.51.39,5.73.82,10.05-3.23,0-8.51-.4-13.71.11-5.25.51-10.39,2.15-15.64,2.85-2.39.32-4.97-.24-7.34-.86-.56-.14-1.02-3.05-.9-3.1,2.16-.85,4.38-1.84,6.65-2.03,3.71-.32,7.47-.09,9.19-.09-.86-5.57-3.51-11.38-1.91-15.56,1.72-4.5,6.91-8.44,11.52-10.88,6.86-3.64,13.84-6.45,15.78-15.05.27-1.19,1.12-3.16,1.79-3.2,14.93-.92,23.66-14.51,37.18-18.09,5.8-1.54,11.76-2.47,17.68-3.5,3.42-.59,7.76-2.37,10.21-.99,14.15,7.96,27.15-.43,40.44-2.32,16.59-2.36,32.98-6.14,50.56-9.52.56,13.28,9.7,12.76,18.28,12.21,9.9-.64,19.72-2.34,29.62-3,3.57-.24,7.25,1.31,10.9,1.88,3.63.57,7.3.93,12.69,1.59,0-15.69.18-30.18-.05-44.67-.23-14.59,1.8-19.68,17.49-24.59,28.78-9.01,57.1-19.44,85.71-29.02,3.66-1.23,7.85-.89,13.17-1.41-.77.61-.02.32.16-.17C395.53,3.99,407.13-.47,424.73.04c47.66,1.39,95.38.59,143.08.42,7.43-.03,13.63,1.48,18.76,7.24,3.12,3.5,6.73,6.87,12.16,2.65,1.07-.83,4.18.58,6.17,1.39,43.25,17.59,86.42,35.4,129.77,52.73,6.31,2.52,9.02,6.16,9.44,12.48.82,12.65,1.36,25.35,2.95,37.92.56,4.45,3.88,8.54,5.89,12.81,1.8,3.84,4.23,7.55,5.15,11.6,1.89,8.28,2.12,16.85,10.74,22.21,2.13,1.33,3.21,6.89,2.45,9.92-7.34,29.24-15.1,58.38-22.94,87.49-1.87,6.95-18.76,18.65-26.31,18.82-17.69.4-17.26.49-14.21,17.86,2.81,16,7.76,32.82,5.32,48.26-3.48,22.01,3.12,42.49,4.01,63.66,1.25,29.92,6.68,59.76,11.8,89.37,1.28,7.38,8.11,13.85,12.6,20.6,4.7,7.05,7.58,13.86,1.29,21.74-1,1.25-.1,5.77,1.39,6.99,11.93,9.78,16.19,23.05,18.54,37.52,1.59,9.79-.47,12.61-10.6,12.64-3.45.01-6.91,0-10.66,0-.61,7.68,2.53,12,9.34,13.68,8.96,2.21,13.36,7.7,13.03,17.1-.07,2,1.4,4.01,1.95,6.07,1.41,5.3,2.69,10.63,4.47,17.7,3.61,1.26,9.67,3.37,16.49,5.75-7.23,5.62-306.26,6.47-318.68.75,7.82-2.94,13.91-5.24,19.03-7.17,2.38-11.42,3.88-22.51,7.34-32.95,1.11-3.33,7.22-5.42,11.41-7.21,5.45-2.33,9.64-4.95,8.03-13.02-3.41-.16-7.12-.81-10.71-.4-8.29.95-9.96-3.71-9.37-10.38,1.57-17.76,6.81-33.65,21.49-42.43,0-7.71-2.62-16.12.43-19.7,17.8-20.87,18.62-46.38,21.9-71.33.86-6.59,2.05-13.26,1.79-19.84-.43-10.94,3.19-19.71,8.71-29.25,13.3-23,25.09-46.93,36.38-71.01,7.33-15.63,12.73-32.18,19.34-49.21-18.71-4.88-38.29-9.91-57.82-15.15-3.3-.88-7.43-1.76-9.37-4.12-8.63-10.49-20.17-6.86-30.89-7.22-1.18-.04-2.86.28-3.52,1.08-11.54,13.88-28.75,12.08-43.84,15.39-22.29,4.89-44.91,8.27-67.41,12.17-6.6,1.14-8.1,5.57-9.4,11.36-1.23,5.45-2.03,13.71-12.14,8.24-2.72,8.94-5.44,17.71-8.06,26.51-7.89,26.45-22.52,50.49-27.38,78.05-1.68,9.5-4.87,18.74-7.31,28.11-.31,1.18-.8,3.02-.23,3.62,7.83,8.14,15.09,17.09,24.04,23.77,6.07,4.53,14.67,5.57,21.94,8.64,2.44,1.03,5.79,3.29,6.1,5.38,1.33,8.86,7.8,9.67,14.58,11.91,6.77,2.24,12.99,6.49,18.99,10.56,5.13,3.48,6.89,8.17,1.73,13.53-2.58,2.68-4.74,5.75-7.09,8.65.31,1.09.62,2.18.93,3.26,4.63-.6,10.16.19,13.72-2.08,7.73-4.94,13.57-5.11,21.24.66,6.46,4.86,16.27,4.5,20.7,13.62.82,1.69,7.75.44,11.87.49,3.64.04,7.27,0,11.56,2.22-1.49,1.16-2.82,2.97-4.5,3.39-16.82,4.27-25.43,18.14-35.57,30.19-1.14,1.35-2.49,3.63-2.09,4.99,3.43,11.69-7.19,15.75-12.06,22.89-.16.24-.5.43-.79.51-21.24,5.84-29.37,23.56-37.51,41.31-1.14,2.48-2.62,4.79-3.95,7.18-.86-.09-1.73-.19-2.59-.28-.25-4.4-.77-8.8-.68-13.2.11-5.32-.03-9.57-6.51-11.87-3.02-1.07-4.78-5.82-7-8.99-.88-1.25-1.06-3.28-2.18-4.03-10.12-6.75-8.64-15.31-5.09-25.06,1.2-3.31-.95-7.84-1.56-11.82-.88-.12-1.77-.24-2.65-.36-2.37,2.79-4.72,5.6-7.11,8.37-5.65,6.53-9.82,6.75-15.48.11-8-9.37-16.83-18.35-17.71-31.82-.09-1.4-2.28-2.66-5.03-5.66,3.58,13.25,6.7,23.62,9.14,34.16,2.78,12.06,1.07,13.73-11.01,14.32-2.92.14-5.75,2.21-8.63,3.4,2.01,2.95,3.47,7.74,6.11,8.53,10.77,3.19,16.16,9.09,16.59,20.84.23,6.4,3.94,12.68,6.08,19.01-.89.47-1.79.94-2.68,1.41,6.17,2.36,12.34,4.71,18.51,7.07-.21,1.37-.42,2.74-.64,4.11-52.31.69-104.63.56-156.94.01-.18-1.36-.37-2.73-.55-4.09,3.91-1.48,7.77-3.11,11.74-4.41,8.02-2.62,10.56-7.51,8.03-15.87-1.68-5.55,6.64-22.87,12.22-25.11,6.16-2.48,13.19-4.03,11.87-14.41-3.06-.21-6.37-.55-9.68-.64-10.02-.27-11.94-2.93-10.53-13,2.27-16.33,7.26-31.01,23.27-40.43-11.05-12.1-3.9-22.23,3.8-30.48,8.73-9.37,10.79-20.23,12.13-31.87.22-1.89.26-3.85.8-5.66,2.83-9.5,2.29-16.58-7.86-22.78-10.9-6.66-13.98-22.93-8.89-36.31,8.11-21.31,17.13-42.28,25.15-63.63,6.15-16.38,10.96-33.27,17.06-49.67,4.31-11.58,10.37-22.52,14.58-34.13,3.63-10,5.41-20.65,8.63-30.81,2.81-8.87,6.5-17.47,10.15-27.12-8.14,0-16.9-.18-25.66.06-6.42.17-10.56-1.22-12.22-8.65-1.86-8.33-7.64-10.47-16.07-7.61-.6.2-1.15.79-1.72.78-12.33-.14-24.67-.5-37-.46-4.69.01-9.37.9-14.06,1.38.75,3.71,1.48,7.43,2.28,11.13.26,1.19.74,2.34.6,1.91-5.22,4.59-9.36,8.88-14.17,12.22-2.62,1.82-6.34,2.74-9.59,2.81-13.03.31-26.1-.31-39.1.39-3.97.21-8.04,3.13-11.58,5.54-5.81,3.95-10.43,7.98-18.61,3.15-4.48-2.65-11.76-.73-17.77-.6-13.56.28-27.12.87-40.69.9-1.46,0-3.79-2.64-4.23-4.42-1.84-7.46-6.66-8.74-13.53-8.5-11.29.4-22.64.22-33.92-.45-2.81-.17-5.46-3.11-8.18-4.78,1.7-2.26,3.81-6.67,5.04-6.44,12.54,2.41,16.41-5.61,19.43-15.06.17-.54.78-.96,1.25-1.37.2-.17.56-.16,3.2-.84-1.63,6.28-2.97,11.42-4.75,18.29,5.9,0,11.52.55,16.98-.12,9.21-1.14,14.4,2.33,16.08,11.48.5,2.7,1.85,5.24,3.01,8.4,6.25-3.47-1.93-15.84,10.38-14.84.37,4.66.72,8.97,1.07,13.28l1.8.25c.23-2.4-.09-5.04.84-7.12,1.07-2.41,3.24-4.33,4.93-6.47,1.67,2.2,3.81,4.19,4.85,6.65.91,2.15.56,4.82,2.52,7.47.25-2.54.06-5.24.88-7.59.8-2.28,2.63-4.21,4-6.29,1.54,2.19,3.4,4.23,4.49,6.62.71,1.54.29,3.6.46,7.38,2.52-6.29,4.31-10.76,6.1-15.23.78.34,1.57.68,2.35,1.01-1.15,2.76-2.3,5.52-4.29,10.29,19.04-12.86,22.02-14.19,14.19-25.8-7.54,3.84-14.74,8.4-22.57,11.14-4.72,1.65-11.53,2.42-15.51.19-13.59-7.58-27.94-3.19-41.93-5.33,4.15-.21,8.38.03,12.42-.73,4.66-.88,8.84-2.89,5.93-9.03-9.69-20.41-6.81-35.13,9.84-49.9,5.53-1.91,10.94-4.33,16.61-5.63,12.69-2.91,25.51-5.26,38.28-7.84-16.41,1.43-32.54,4.2-48.53,7.59-2.41.51-4.21,3.89-6.29,5.94ZM561.05,510c.43,3.08.77,6.18,1.31,9.24.8,4.59,1.74,9.16,2.63,13.74-1.49,1.54-2.98,3.08-5.74,5.93,12.35,1.62,22.41,2.95,35.01,4.61-7.12-11.12-2.24-24.72-15.29-33.19-.34,11.06.57,20.62-10.04,24.55-.98.36-2.68-1.25-4.06-1.95,1.89-1.62,4.66-2.89,5.49-4.94,1.88-4.66,2.81-9.71,4.13-14.59-4.51-1.08-9.02-2.16-13.53-3.25-4.58-.34-9.77-2.13-13.53-.53-2.53,1.07-4.9,7.49-3.98,10.48,1.17,3.83,5.73,6.62,10.16,11.25,1.08-6.35,1.19-9.88,2.36-13.02,1.11-2.99,3.34-5.56,5.08-8.31ZM690.96,238.7c-9.8-15.66-30.68-19.56-46.4-8.66-16.58,11.49-19.75,33.81-7.09,49.95l2.82,1.17c.95.59,1.89,1.19,2.84,1.78,1.98,2.29,3.52,5.35,6.01,6.73,12.62,7.01,31.74,2.29,41.99-9.97,9.83-11.76,9.76-28.91-.16-41.01ZM74.43,204.75c1.69-7.39-6.57-7.51-8.8-12.04-1.45,1.34-2.9,2.69-5.44,5.05,5.52,2.66,9.93,4.79,14.33,6.91,21.13,5.99,40.48-7.4,39.23-27.76h-16.53c1.88,3.52,3.64,6.1,4.63,8.95.61,1.76.87,4.87-.14,5.77-7.8,6.91-13.66,18.28-27.28,13.13ZM375.98,611.11c2.57,3.11,4.87,6.5,7.77,9.26,10.33,9.86,15.46,8.79,21.49-4.07-2.16-3.03-4.28-6.01-6.41-9,3.46,1.95,6.91,3.89,10.82,6.1,3.03-4.88,10.81-7.85,4.42-15.61-.56-.68,1.44-3.73,2.58-5.47,2.2-3.36,4.63-6.57,6.97-9.85,5.94-3.23,8.38-13.67,18.33-8.88.51.25,1.92-1.37,2.92-2.12,9.03-6.77.64-11.01-2.33-16.03,10.35,5.01,15.18,4.24,18.11-2.89,2.72-6.62-3.57-13.5-17.44-18.69-1.14,6.28-2.25,12.47-3.37,18.66-1.54-.2-3.08-.4-4.62-.6,4.11-7.08,5.54-14.52,3.98-25.49-10.79,13.08-19.84,23.83-28.5,34.88-.81,1.04.84,4.01,1.34,6.08,3.9,5.06,7.79,10.13,11.69,15.19-2.73-.14-5.48-.17-8.2-.43-4.3-.41-8.59-.98-12.89-1.48.39-2.4.79-4.8,1.18-7.21-1.59-.26-2.53-.66-2.74-.42-9.28,10.6-18.59,21.17-27.52,32.06-.66.81,1.55,3.96,2.42,6.03ZM586.38,637.34c-.78,4.26-2.71,8.76-1.92,12.71.54,2.7,4.59,5.91,7.59,6.61,4.28.99,10.49,1.44,10.52-5.62.03-6.72-1.36-13.44-2.12-20.16-1.59-2.5-3.08-7.08-4.79-7.16-12.29-.63-24.64-.49-36.96-.28-4.78.08-6.3,2.55-3.26,6.79-1.64,5.8-3.29,11.6-5,17.63-5.02-7.3-8.89-12.92-13.28-19.31,4.17.98,8.86,2.08,14.23,3.34-.18-3.82-.34-7.38-.46-9.85-3.77.61-6.43,1.39-9.09,1.4-12.38.06-24.77,0-37.16-.21-4.94-.08-8.59,1.52-7.79,6.91,1.31,8.77-7.52,18.71,3,26.37.24.17.63.27.91.21,10.91-2.34,24.11,6.95,32.93-6.51.62-.95,2.92-1.09,4.45-1.11,7.3-.11,14.62-.29,21.91.07,2.21.11,4.28,2.01,6.5,2.88,3.95,1.54,7.97,2.92,11.96,4.37,1.16-3.64,2.94-7.23,3.26-10.94.22-2.57-1.58-5.31-2.48-7.97,2.35-.06,4.7-.11,7.05-.17ZM364.81,231.49c-15.06-13.83-39.69-10.64-48.1,6.22-.39.38-.81.72-1.26,1.03-2.45,6.34-6.66,12.58-6.98,19.03-.78,15.49,10.94,28.86,27.3,33.54,12.89,3.69,28.21-2.68,36.07-14.98,9.2-14.4,7.93-28.35-3.79-41.56-1.08-1.09-2.15-2.18-3.23-3.27ZM696.57,319.21c-.41-3.56-2.48-9.05-.95-10.37,10.31-8.92,5.1-18.9,3.62-28.5-4.06,3.61-8.36,6.8-11.76,10.74-1.61,1.86-2.42,5.34-2.03,7.83,2.26,14.54,4.94,29.02,7.62,43.49.44,2.38,1.59,4.62,2.41,6.93.85-.2,1.71-.4,2.56-.59-.51-9.9-1.03-19.8-1.54-29.7,1.3,8.04,2.41,16.13,4.03,24.11.4,2,2.41,3.68,3.68,5.51,1.07-1.63,3.2-3.37,3.05-4.88-1.21-12.09-2.85-24.13-4.36-36.19-1.08-.15-2.16-.3-3.23-.45-1.03,4.03-2.06,8.05-3.09,12.08ZM641.37,313.54c-.24,2.68-1,5.44-.63,8.04,1.36,9.58,2.94,19.13,4.82,28.62.45,2.25,2.42,4.19,3.68,6.28,1.11-2.26,2.22-4.52,3.33-6.78,2.03,1.57,4.05,3.15,6.08,4.72-.06-2.6.11-5.23-.2-7.8-1.66-13.7-3.45-27.38-5.23-41.34,4.48,0,8.2.23,11.87-.07,3.37-.27,6.69-1.1,10.03-1.69-17.14,7.36-25.32-10.69-40.52-15.11,2.57,9.57,4.67,17.36,6.76,25.15ZM608.77,302.02c3.83-.73,7.66-1.47,11.89-2.28-.36-3.05-.07-6.44-1.25-9.21-1.61-3.81-4.85-7.11-8.22-1.66-4.59,7.43-8.41,15.35-12.56,23.06-.57-.76-1.14-1.52-1.7-2.28,3.94-2.54,7.88-5.08,11.82-7.61-3.23,6.49-6.99,12.78-9.46,19.55-1.07,2.93-.71,8.76,1.14,9.96,11.8,7.64,24.2,14.35,38.99,22.85-1.66-10.44-2.92-17.8-3.98-25.18-2.52-17.46-9.44-24.57-26.67-27.19ZM755.31,632.58c.95-2.47,1.9-4.94,2.85-7.41-2.64-.65-5.27-1.85-7.92-1.86-28.54-.11-57.09.15-85.63-.15-6.92-.07-9.6,2.21-9.87,9.13-.31,8.16-1.69,16.28-2.82,26.36,6.5-1.93,16.49-1.96,18.74-6.15,5.46-10.14-4.08-15.67-12.19-19.8,8.1,1.11,15.63,2.14,23.15,3.17-1.77,1.31-4.74,2.36-5.08,3.97-1.04,4.92-2,10.28-.89,14.98.31,1.32,10.7,2.61,11.63,1.05,5.79-9.74,14.71-6.61,22.72-6.81,6.34-.16,13.32-2.01,17.31,6.19.76,1.57,6.48,1.47,9.62.79,1.42-.31,2.92-3.93,2.96-6.07.07-4.04-.89-8.09-1.43-12.14,2.02-.03,4.03-.07,6.05-.1-.56,3.42-1.73,6.88-1.48,10.24.2,2.82,1.42,7.18,3.32,7.91,3.21,1.24,7.87,1.28,10.94-.2,6.38-3.08,4.71-19.25-1.99-23.09ZM240.82,637.71c-.74,2.4-2.36,4.92-2.04,7.16.57,3.97,2.31,7.78,3.56,11.66,3.95-1.55,7.93-3.02,11.83-4.67,1.65-.7,3.33-2.8,4.66-2.54,10.62,2.12,23.47-6.82,32.01,6.39.81,1.25,4.12,1.15,6.29,1.22,5.07.17,10.22.63,15.19-.08,4.29-.61,11.27-1.85,11.97-4.27,1.71-5.93.47-12.71.42-19.15-.9-.35-1.79-.7-2.69-1.05-12.48,10.29-24.38,7.36-36.08-.41,3.7.72,7.53,1.07,11.09,2.23,9.89,3.23,18.86.66,27.35-9.27-4.36-.65-7.78-1.58-11.2-1.6-23.79-.13-47.59-.06-71.38-.09-23.06-.03-26,3.25-23.77,26.66.03.32-.09.81.08.92,2.86,2.09,5.51,5.22,8.69,5.92,4.16.92,10.34.66,9.39-5.78-.92-6.23-4.25-12.1-6.03-16.83,1.89.63,6.27,2.11,10.66,3.58ZM362.66,189.37c-5.73,1.41-11.43,3.87-17.19,4.03-18.75.51-37.53-.04-56.28.42-2.67.06-5.26,3.43-7.88,5.26,2.68,2.37,5.33,6.78,8.05,6.82,33.38.5,66.78.45,100.17.18,2.29-.02,6.52-3.03,6.47-4.54-.18-5.64-1.33-15.94-2.9-16.09-10.24-.97-21.57-5.33-30.56,4.05l.12-.13ZM599.74,14.09c0,11.91.12,21.7-.02,31.49-.65,44.45-1.29,88.9-2.18,133.34-.15,7.37,2.45,10.28,9.95,10.09,15.26-.38,30.56.46,45.77-.47,5.74-.35,11.26-4.25,16.89-6.49,5.34-2.12,10.62-5.73,16.05-5.98,17.46-.78,34.97-.49,52.46-.22,6.43.1,9.66-1.87,8.85-8.71-.3-2.51.02-5.1-.21-7.62-2.43-26.53-5.6-53.01-7.06-79.59-.6-10.86-7.95-12.36-14.82-14.06-3.04-.75-7.29,3.41-11.54,5.62.3-2.46.75-6.09,1.28-10.35-37.27-15.19-75.39-30.73-115.43-47.05ZM662.44,548.73c-4.87-4.6-4.44-12.24-1.55-20.58,2.64-7.59,6.3-15.48,6.21-23.2-.14-12.25-2.68-24.54-4.86-36.69-2.33-13-5.92-25.77-8.06-38.79-2.66-16.22-4.39-32.59-6.53-48.89-.68-5.16-1.4-10.32-2.1-15.49-3.62,1.97-5.25,4.45-6.67,7.05-8.55,15.58-17.08,31.18-25.56,46.8-2.8,5.17-6.6,10.15-7.91,15.7-4.19,17.79-7.58,35.78-11,53.75-2.51,13.18-2.41,26,3.5,38.73,4.07,8.77,5.7,18.38-2.54,24.43,3.14,11.1,6.23,20.99,8.68,31.04,2.65,10.85.3,13.45-11.17,13.78-3.01.09-6,.41-9,.62-.61,1.07-1.22,2.13-1.84,3.2,3.37,3.22,6.47,6.81,10.19,9.57,3.72,2.76,10.52,3.84,11.65,7.14,3.61,10.46,5.2,21.62,7.89,33.95,3.11.91,8.41,4.04,13.35,3.54,7.36-.74,16.8-1.99,21.03-6.82,4.42-5.03,4.78-14.53,4.98-22.12.25-9.46,5.11-13.53,13.18-15.67,6.11-1.62,9-5.36,7.73-12.68-2.84-.26-5.58-.68-8.33-.74-11.31-.23-13.5-2.5-10.89-13.57,2.57-10.89,6.04-21.56,9.61-34.07ZM382.71,25.99c-1.5-.24-2.18-.58-2.7-.4-31.91,10.69-63.85,21.27-95.59,32.42-2.45.86-4.92,5.73-4.94,8.76-.34,38.47-.1,76.95-.34,115.42-.04,6.82,2.64,8.82,9.04,8.74,19.71-.25,39.43-.02,59.14-.22,3.04-.03,6.97-.39,8.94-2.25,7.21-6.76,15.68-7.67,24.77-6.96,6.4.5,8.51-2.66,7.84-8.67-.77-6.92-1.58-13.87-1.83-20.82-1.52-41.83-2.89-83.66-4.33-126.02ZM438.02,182.31l.22,2.87c41.87,0,83.74.19,125.61-.42,2.81-.04,7.75-6.03,7.92-9.44.82-16.79.69-33.66.03-50.47-.1-2.6-4.72-7.19-7.28-7.21-46.37-.44-92.75-.31-139.13-.32-5.84,0-8.89,2.82-8.91,8.69-.05,16.52-.3,33.04.02,49.55.17,8.79,6.7,11.83,14.55,7.94,3.74-1.86,8.11-3.43,12.21-3.46,33.35-.26,66.71-.13,100.07-.08,2.46,0,4.92.3,7.38.46-.02.63-.04,1.26-.06,1.89h-112.61ZM404.91,107.82c0,27.95,0,55.89,0,83.84,0,17.06-.02,16.95,17.33,16.51,5.06-.13,9.17-.79,8.38-7.15-.65-5.22,3.38-13.15-7.1-13.17-6.65-.01-9.87-3.44-9.86-10.07.01-18.1.03-36.2-.05-54.3-.03-5.92,2.73-8.82,8.61-8.88,6.67-.07,13.34-.43,20-.19,5.61.2,7.96-1.72,7.92-7.63-.19-30.17-.16-60.34-.02-90.5.03-5.69-2.17-8.04-7.88-7.89-8.89.23-17.81.52-26.66-.08-8.45-.57-10.93,2.62-10.81,10.92.43,29.53.17,59.06.16,88.6ZM453.58,110.49c8.16,1.67,13.89,3.91,19.54,3.71,6.69-.24,13.31-2.59,20.7-4.18,0-30.52-.08-62.24.07-93.96.03-5.9-2.57-7.83-8.08-7.68-7.62.21-15.28.45-22.86-.09-8.06-.58-10.37,2.77-10.27,10.49.34,27.95.1,55.9.18,83.86,0,3.36.61,6.72.72,7.84ZM530.99,109.82c2.34,1.32,4.14,2.33,5.95,3.34,1.04-2.1,2.98-4.19,2.99-6.29.17-30.51.23-61.02-.25-91.52-.04-2.32-4.2-6.33-6.71-6.55-9.15-.8-18.43-.72-27.6-.06-2.38.17-6.45,3.66-6.47,5.66-.41,32.28-.29,64.57-.29,95.92,11.51-.06,22.75,10.94,32.38-.5ZM383.92,259.5c-1.23-9.43-2.45-18.87-4.03-30.99,4.2,3.32,6.69,4.88,8.66,6.93,12.58,13.11.5,26.72-.3,41.7,25.2-4.21,49.18-8.22,71.79-12.01-5.39-10.62-10.37-20.53-15.49-30.38-.84-1.61-2.02-3.6-3.53-4.2-15.51-6.22-30.68-14.46-46.83-17.6-17.18-3.34-35.36-2.63-53.02-1.9-6.34.26-12.47,5.74-18.69,8.84.46.83.91,1.66,1.37,2.49,26.9-11.98,57.95,1.37,60.06,37.12ZM639.31,358.22c-14.91-8.24-28.94-16.2-43.27-23.56-1.4-.72-5.81,1.62-6.95,3.61-10.11,17.63-19.82,35.5-29.55,53.34-.63,1.16-.51,2.74-.87,4.9,21.56-4.42,37.71,1.36,46.94,23.64,11.73-21.55,22.45-41.25,33.7-61.93ZM563.99,188.68l.19-.72c-4.11,0-8.29-.44-12.3.18-1.99.31-4.72,2.2-5.34,3.98-3.71,10.78.18,15.91,11.57,15.96,1.91,0,3.85-.25,5.71.03,9.56,1.42,12.48-2.35,12.4-12.12-.46-54.65-.03-109.31-.29-163.97-.13-27.4,4.72-22.92-23.51-23.72-8.74-.25-10.76,3.31-10.64,11.25.37,23.83.13,47.67.13,71.5,0,22.81,0,22.92,22.92,23.33,6.54.12,10.05,2.11,9.94,9.38-.28,18.11.11,36.23-.21,54.33-.24,13.93-9.79,19.02-25.33,11.61,6.37-.44,10.56-.73,14.75-1.02ZM629.48,211.59c-.06-.51-.11-1.02-.17-1.53-16,1.75-32,3.51-46.34,5.08-1.34,2.43-2.1,3.77-2.83,5.13-1.53,2.83-5.04,6.56-4.24,8.36,6.11,13.81,2.27,25.31-8.5,37.2,15.98,3.8,30.59,7.43,45.32,10.48,1.06.22,4.37-3.86,4.28-5.83-.26-5.98-2.04-11.87-2.57-17.86-.74-8.27,6.7-21.29,12.52-20.12,7.8,1.58,10.36-3.85,15.01-6.81,2.89-1.84,5.99-3.66,9.26-4.5,14.3-3.68,27.85-2.31,40.61,6.79-3.66-5.18-7.59-10.72-12.84-12.62-13.82-5.02-28.28-4.34-42.79-2.05-15.68,2.47-31.51,3.96-47.27,5.88-.1-.89-.2-1.77-.29-2.66,13.62-1.65,27.24-3.29,40.86-4.94ZM412.53,213.29c.46.5.77,1.07,1.25,1.33,1.12.6,2.29,1.12,3.48,1.53,17.29,5.88,34.69,11.54,38.08,33.43.24,1.52,3.06,3.7,4.75,3.76,10.48.35,20.98.4,31.45-.12,1.23-.06,2.25-4.26,3.37-6.53-9.6-4.2-6.28-12.82-6.22-19.89.02-2.86,3.16-5.7,4.88-8.54,1.7,2.79,4.61,5.47,4.87,8.38.6,6.92-.43,13.98.02,20.93.13,2.08,2.66,5.2,4.61,5.67,2.76.66,6.1-.42,8.97-1.41.56-.19.66-4.68.04-4.93-9.91-4.05-6.69-12.67-6.5-19.68.08-3.03,3.43-5.96,5.3-8.94,1.61,2.9,4.33,5.71,4.6,8.73.63,6.93-.24,13.98.17,20.94.11,1.9,2.36,4.91,4.03,5.21,2.84.51,6.1-.43,8.94-1.44.62-.22.83-4.59.2-4.9-10.89-5.22-5.3-14.95-6.13-22.72-.19-1.76,2.91-3.88,4.49-5.83,1.79,2.05,4.84,3.94,5.12,6.18.76,5.95-.1,12.09.52,18.07.38,3.69,2.08,10.22,3.55,10.32,7.34.52,18.82,2.08,21.46-1.78,7.4-10.82,11.18-24.13,16.93-37.77h-162.23ZM665.99,206.32s0-.04,0-.06c24.77,0,49.55-.2,74.32.12,7.59.1,10.59-2.55,9.39-10.07-.4-2.49-.39-5.08-.24-7.61.45-7.9-3.33-10.47-10.98-10.3-16.82.37-33.68-.39-50.48.34-5.14.22-10.13,3.8-15.19,5.83-5.9,2.37-11.7,6.43-17.72,6.77-16.46.94-33.01.36-49.53.27-3.14-.02-6.28-.57-9.42-.87-3.16-.3-8.73-1.54-9.07-.7-1.55,3.86-2.57,8.5-1.81,12.47.33,1.74,5.39,3.6,8.33,3.63,24.13.29,48.27.16,72.41.16ZM488.56,208.1v-.04c14.9,0,29.82-.39,44.7.16,8.11.3,10.36-2.82,10.3-10.48-.05-7.26-2.2-10.11-9.83-10.03-30.12.33-60.24.34-90.35,0-7.67-.09-9.65,2.71-9.69,10.02-.04,7.68,2.08,10.8,10.18,10.52,14.88-.51,29.8-.15,44.7-.15ZM166.76,172.17c0,.77,0,1.53,0,2.3-10.69,0-21.41-.53-32.03.3-3.5.27-7.56,3.42-9.86,6.41-2.6,3.39-4.48,7.99-4.88,12.24-.39,4.09.54,9.08,2.82,12.3,1.13,1.6,6.66.54,10.09-.01,10.22-1.64,20.32-4.65,30.58-5.24,16.29-.93,16.55-.27,17.44-16.28.31-5.54,2.58-7.41,7.68-6.74,4.88.64,10.9-2.01,12.23,6.65,1.39,9.05-4.67,11.18-10.52,14.33h12.08v-41.24c-2.02,2.91-4.1,8.81-6.57,8.97-9.56.63-19.25-.56-28.02-1.03,1.51.61,4.33,2.32,7.36,2.86,3.39.61,6.97.17,10.46.18,3.08,0,6.15,0,9.23,0-8.71,1.98-18.84,4.85-25.28,1.2-6.79-3.84-10.05-13.91-14.85-21.26-.21.08-.41.16-.62.25,2.86,6.45,5.71,12.9,9.43,21.29h-39.11v2.52h42.35ZM316.85,453.85c-15.2,3.6-15.63,4.09-18.09,19.04-.72,4.37-2.28,8.67-2.47,13.04-.33,7.94-4.95,9-11.51,8.99-7.24,0-8.55-4.3-8.32-9.91.24-5.66.42-11.4,1.58-16.91,1.65-7.86.9-14.45-6.57-18.86-1.74-1.03-3.72-1.67-5.59-2.49-.61,1.95-1.46,3.85-1.79,5.85-1.67,10.06-2.38,20.37-5.04,30.16-2.42,8.91,1.93,16.83,11.33,17.86,13.3,1.45,26.55,3.25,38.03,4.68,2.99-18.28,5.68-34.66,8.43-51.45ZM543.43,447.09c-.48,6.01-.86,12.46-1.55,18.88-.44,4.05-1.26,8.07-2.07,12.07-.59,2.92-1.12,5.91-2.23,8.65-3.18,7.87-1.11,11.87,7.35,13.57,10.13,2.05,20.26,4.07,30.39,6.13,7.87,1.6,14.18-3.62,13.06-10.71-.39-2.46-.37-4.98-.67-9.62,1.92,2.96,2.41,3.72,3.62,5.59v-31.12c.52,0,1.04.01,1.56.02.36,1.15.71,2.3,1.07,3.45.34-.06.68-.11,1.02-.17-.34-2.71-.68-5.42-1.02-8.16-12.59,2.06-18.22,8.38-17.92,20.26.12,4.64-.43,9.96-2.69,13.78-1.86,3.15-6.8,6.42-10.15,6.2-3.34-.22-7.75-4.14-9.2-7.51-1.43-3.33-.6-8.31.73-12.03,4.83-13.57-.17-22.86-11.3-29.29ZM272.2,607.02c3.81,0,7.62.02,11.44,0,23.68-.18,20.06,2.08,15.52-19.71-.68-3.26-4.92-8.02-7.76-8.21-13.28-.86-26.67-.66-39.98-.07-2.41.11-6.2,3.51-6.68,5.92-1.36,6.85-1.42,13.97-1.59,21,0,.31,4.03.99,6.18,1.03,7.62.13,15.25.05,22.87.05ZM675.83,607.03c15.48,0,29.34-.01,43.21,0,21.17.02,22.34-1.43,15.18-21.78-.96-2.74-4.93-6.11-7.65-6.24-12.98-.65-26.02-.59-39.01-.03-2.58.11-6.46,3.02-7.24,5.44-2.08,6.53-2.8,13.49-4.5,22.61ZM716.54,444.26c-11.31,6.42-15.83,14.94-12.05,27.09.93,3.01,1.48,6.17,1.86,9.3.86,7.14-1.17,12.89-9.1,14.14-7.55,1.19-11.02-3.65-12.4-10.2-.91-4.33-1.58-8.77-1.71-13.18-.31-10.02-4.8-15.89-17-16.96,2.71,17.05,5.33,33.49,7.91,49.72,6.42-.47,12.64-.76,18.83-1.41,6.24-.65,12.63-.99,18.59-2.73,3.57-1.04,7.53-3.9,9.29-7.06,1.85-3.33,2.26-8.17,1.6-12.05-1.64-9.63-4.38-19.06-6.37-28.64-.48-2.3.29-4.86.55-8.01ZM563.78,409.45c-14.6,5.77-17.62,22.24-7.11,33.25,2.55,2.67,4.42,7.34,4.24,10.97-.41,8.49-1.94,16.97-3.63,25.33-1.22,6.03-2.59,12.09,5.54,13.3,7.39,1.09,8.4-4.92,9.2-10.54,3.07-21.57,6.2-43.12,9.37-64.68.72-4.86.56-9-5.66-9.83-5.32-.71-8.25,1.03-8.98,6.84-1.07,8.52-2.82,16.95-4.28,25.42-.76-.12-1.52-.23-2.29-.35,1.19-9.82,2.38-19.63,3.6-29.72ZM111.26,167.63c-4.25-12.84-16.1-23.36-26.21-23.47-15.62-.18-28.61,9.82-31.45,25.35-.89,4.89.92,10.28,1.49,15.44,4.7-.64,9.39-1.28,14.09-1.93,1.8-.25,3.59-.54,5.48-.82-1.62-2.35-3.13-4.52-4.68-6.77,4.89-.68,10.45.03,11.54-1.86,4.65-8.03,12.01-5.13,18.41-5.86,3.7-.42,7.49-.08,11.32-.08ZM582.22,10.05c-.89.43-1.77.87-2.66,1.3v193.86c.85,0,1.7,0,2.55,0,0-10.07-.27-20.15.05-30.21,1.58-50.69,3.44-101.37,4.76-152.06.11-4.26-3.06-8.6-4.7-12.91ZM196.41,113.15c-9.62,1.57-19.32,2.91-28.91,4.84-3.56.72-6.77,3.08-10.29,4.21-3.39,1.08-7.21,2.66-10.44,2.01-7.14-1.43-12.9.22-17.94,3.16,10.41,5.49,20.21,10.66,28.39,14.97,6.84-.4,12.95-1.04,19.06-1.07q26.22-.13,21.55-26.2c-.05-.27-.36-.5-1.42-1.92ZM751.99,131.85c-1.09.22-2.19.45-3.28.67.95,10.61,3.28,21.31,2.52,31.8-1.25,17.31,10.01,34.91-4.75,52.43-7.53,8.93-12.62,22.65-9.47,36.35.62,2.7,2.25,5.17,3.42,7.75,1.6-2.09,4.04-3.94,4.68-6.29,7.42-27.21,14.69-54.47,21.6-81.82.7-2.76-.22-7.89-2.1-8.99-7.46-4.36-8.4-11.32-9.56-18.59-.72-4.48-2.02-8.88-3.06-13.31ZM684.48,305.51c-8.32,1.09-15.33,1.39-21.92,3.19-2.37.64-5.44,4.96-5.3,7.43.44,7.83,1.75,15.73,3.79,23.31.72,2.68,4.8,6.65,6.87,6.38,7.47-.95,14.74-3.46,22.07-5.43.1-.03.11-.61.06-.91-1.85-11.36-3.72-22.72-5.56-33.97ZM305.7,337.34c9.53,2.65,17.87,4.97,27.02,7.51,3.75-13.05,7.16-24.94,10.58-36.84-9.56-2.48-17.7-4.59-26.94-6.98-3.46,11.77-6.8,23.17-10.66,36.31ZM656.1,619.4h101.79c-17.45-13.74-83.01-13.76-101.79,0ZM322.77,619.48c-22.02-14.8-92.79-13.53-99.77,0h99.77ZM324.88,355.63c-5.3-1.74-8.8-3.48-12.45-3.87-2.13-.23-5.89,1.15-6.51,2.74-3.97,10.24-7.52,20.67-10.55,31.23-.56,1.94,1.32,6.12,3.1,6.88,4.79,2.04,10.13,2.8,16.7,4.42,3.19-13.6,6.33-26.98,9.72-41.4ZM341.08,344.92c2.53-7.99,4.83-16.06,7.72-23.92.86-2.33,2.97-5.02,5.17-5.91,10.8-4.38,9.39-14.13,12.63-24.37-5.98,2.26-10.84,2.66-13.31,5.29-6.83,7.31-14.54,7.5-23.27,5.89,5.56,1.07,11.11,2.15,17.48,3.38-4.8,16.86-9.26,32.52-13.25,46.57,5.11,1.66,8.07,2.61,12.62,4.09,3.76-12.11,7.76-24.99,11.76-37.87-.97-.39-1.93-.78-2.9-1.17-9.92,6.58-6.01,20.47-14.66,28.03ZM400.4,15.6c-1.21-.18-2.42-.36-3.63-.55-.96,5.92-2.89,11.86-2.72,17.74.77,27.57,2.59,55.11,3.14,82.68.57,28.92.13,57.86.13,86.78,1.03,0,2.06-.01,3.09-.02V15.6ZM518.08,606.24c3.78.37,5.93.71,8.1.77,21.14.58,21.01.55,22.73-20.18.48-5.77-1.4-8.4-7.26-8.17-4.13.17-8.39-.52-12.35.31-2.63.55-6.34,2.67-6.97,4.84-2,6.9-2.79,14.16-4.25,22.42ZM309.38,546.67c-21.9-3.35-42.51-6.5-64.43-9.85,8.94,16.45,13.98,19.14,20.69,12.42,7.53,11.5,29.27,14.15,43.74-2.57ZM694.32,390.93c-2.33-10.26-4.17-20.15-7.04-29.73-.67-2.23-5-4.97-7.36-4.72-3.91.41-10.85,3.1-10.83,4.75.15,11,1.81,21.99,2.96,32.85,7.88-1.11,14.05-1.98,22.28-3.14ZM372.36,537.64c-6.8,8-11.63,13.34-15.97,19.05-.98,1.29-1.13,4.53-.19,5.76,4.5,5.9,9.5,11.43,14.86,17.73,5.86-6.74,11.08-12.22,15.56-18.26,1.1-1.49.64-5.38-.58-7.13-3.95-5.68-8.59-10.88-13.68-17.15ZM671.45,545.01c17.14,16.46,18.12,18.46,24.07,7.32,5.95,1.17,11.14,2.19,15.15,2.98,1.28-3.52,2.17-5.98,3.06-8.44,1.75,1.64,3.5,3.28,6,5.62,9.05-.37,11.04-9.74,17.87-16.93-23.12,3.3-44.15,6.3-66.15,9.45ZM252.19,396.65c.78.8,1.56,1.59,2.33,2.39,5.33-2.66,13.77-4.07,15.44-8.2,5.51-13.68,8.8-28.28,12.38-42.67.64-2.55-1.43-5.78-2.24-8.69-.99.14-1.98.28-2.96.43-8.32,18.92-16.63,37.83-24.95,56.75ZM567.14,607.04c3.76-1.84,11.93,4.01,12.3-6.15.51-13.74-4.87-22.24-13.81-22.23-9.56,0-11.84,4.21-12.24,19.86-.27,10.64,7.09,8.17,13.75,8.52ZM411.58,532.43c-7.64-4.2-13.5-8.17-19.94-10.57-2.31-.86-7.1,1.2-8.84,3.42-2.53,3.24-5.71,9.04-4.41,11.62,3.29,6.52,8.93,11.86,14.14,18.3,7.67-9.17,12.88-15.4,19.04-22.77ZM391.8,163.72c1.17-.05,2.33-.1,3.5-.15-2.45-42.37-1.46-84.88-4.99-127.2-1.35.06-2.69.12-4.04.18,1.84,42.39,3.68,84.78,5.53,127.18ZM306.09,273.04c-.75-.07-1.5-.14-2.25-.21-.58,8.17-1.52,16.34-1.6,24.51-.05,4.97,2.46,10.15,1.67,14.89-1.34,8.08-4.47,15.84-6.63,23.8-.56,2.06-.32,4.33-.45,6.51,1.06.61,2.12,1.22,3.19,1.83.79-1.68,1.79-3.29,2.35-5.04,4.76-14.99,9.68-29.94,13.92-45.08.81-2.89-.54-6.91-2.06-9.8-2.15-4.1-5.37-7.63-8.14-11.41ZM164.75,144.07c3.94,16.99,11.27,21.96,26.48,17.7,2.33-.65,4.53-6.01,4.6-9.23.05-2.79-2.78-7.88-4.74-8.08-8.62-.89-17.38-.39-26.34-.39ZM327.1,411.67c4.56-16.02,9.03-31.08,12.96-46.28.48-1.87-1.86-4.47-2.9-6.73-1.94,1.53-4.91,2.68-5.66,4.66-3.66,9.71-6.21,19.87-10.19,29.44-3.28,7.89-.63,13.05,5.78,18.91ZM686.82,452.92c15.36-.07,27.73-12.4,27.86-27.79.12-13.52-14.89-29.01-27.97-28.87-13.09.15-27.86,15.55-27.95,29.13-.09,15.1,12.64,27.59,28.06,27.52ZM279.09,481.42c-.69.5-1.39,1.01-2.08,1.51,2.66,3.2,4.79,8.29,8.08,9.19,6.77,1.86,7.91-4.12,8.82-9.36.98-5.59,2.28-11.13,3.31-16.72,1.04-5.67-2.42-6.9-7.12-7.51-4.53-.58-8.38-.82-9.06,5.04-.69,5.94-1.31,11.88-1.95,17.83ZM275.12,396.22c.89.66,1.77,1.32,2.66,1.98,3.25-2.6,8.37-4.6,9.42-7.89,4.02-12.64,6.87-25.66,9.77-38.63.33-1.46-1.41-4.4-2.83-4.93-1.24-.46-4.54,1.15-4.96,2.47-4.9,15.6-9.43,31.32-14.06,47.01ZM552.26,572.38c-1.2-3.31-1.8-8.93-3.66-9.39-7.52-1.86-16.3-4.61-22.96-2.29-6.63,2.31-11.23,10.33-9.06,19.81,9.63-12.29,22.97-2.73,35.69-8.13ZM699.6,458.66c-14.02-.28-15.54,1.09-13.93,12.9.68,4.98,1.59,10.17,3.75,14.61,1.16,2.39,5.54,5.04,7.82,4.55,2.39-.51,5.75-4.72,5.64-7.17-.38-8.39-2.09-16.73-3.27-24.89ZM740.41,578.05c.18-15.81-14.38-25.45-30.49-17.34-1.96.99-4.1,4.84-3.62,6.7.67,2.55,3.39,5.47,5.91,6.39,3.1,1.13,6.96-.03,10.38.52,6.09.98,12.1,2.5,17.82,3.73ZM322.78,426.46c-.24-15.65-12.73-28.85-27.25-28.77-13.59.07-29.04,15.03-29.11,28.18-.07,14.06,14.64,27.51,30.05,27.45,14.74-.05,26.53-12.1,26.31-26.86ZM239.65,577.9c3.77-1.18,7.65-2.86,11.7-3.53,3.7-.61,7.62-.47,11.39-.08,8.47.88,11.77-2.63,10.13-10.89-23.35-10.08-34.49-1.45-33.22,14.5ZM711.2,401.46c-2.01-14.82-3.87-27.88-5.53-40.97-.86-6.74-4.31-7.45-10.58-4.65,5.21,14.99-5.34,34.64,16.1,45.62ZM341.26,568.31c-.93.56-1.87,1.12-2.8,1.68-11.13-5.01-8.52-17.64-12.77-29.13-2.56,18.08,4.14,29.58,15.24,39.33,8.23,7.23,9.42,7.03,14.98-4.23-10.88-7.96-20.43-17.29-20.27-32.76-.67,4.72-.32,8.99.84,13.03,1.19,4.14,3.16,8.06,4.79,12.08ZM247.1,555.57c-.75-.51-1.51-1.01-2.26-1.52-5.21,7.34-10.41,14.68-15.62,22.02-3.55-13.89,6.71-20.6,12.79-29.38-14.26,8.29-20.73,20.87-20.99,37.18-.07,4.68-1.12,9.09,5.58,9.7,6.68.6,8.25-3,7.83-8.71-.88-11.9,3.38-21.67,12.66-29.29ZM342.13,501.7c7.52-8.49,7.17-13.46,1.03-18.73-6.39-5.49-10.25-1.53-14.42,2.72-1.77,1.81-3.27,4.09-5.37,5.32-6.51,3.82-6,8.47-1.69,13.25,4.39,4.87,9.43,6.94,15.55,1.21-3.14-3.51-6.16-6.37-8.45-9.72-.9-1.32-.17-3.75-.18-5.68,1.9.34,4.47.03,5.57,1.16,2.81,2.88,4.96,6.4,7.97,10.47ZM733.96,554.02c-.73.55-1.46,1.1-2.2,1.65,10.34,7.97,13.37,18.75,13.05,31.17-.06,2.18,2.79,5.87,4.8,6.27,2.17.43,6.48-1.64,7.2-3.59,5.12-13.9-4.77-34.9-21.17-42.99,8.09,9.28,17.51,16.05,14.06,29.38-5.25-7.3-10.49-14.6-15.74-21.89ZM598.63,619.96c-12.87-11.1-27.67-11.19-42.68-9.54-1.28.14-3.5,3.52-3.1,4.62.71,1.96,3.03,4.66,4.74,4.71,13.67.38,27.36.21,41.04.21ZM657.69,407.48c8.37-5.57,9.81-13.1,7.17-22.19-1.75-6.01-2.63-12.29-4.6-18.22-.88-2.63-3.5-4.69-5.33-7.01-1.12,2.82-3.49,5.78-3.17,8.42,1.57,12.98,3.86,25.88,5.92,38.99ZM500.53,619.97c13.41,0,26.83.16,40.23-.22,1.54-.04,4.15-3.08,4.17-4.77.03-1.66-2.49-4.69-4.08-4.82-14.15-1.17-28.22-1.17-40.32,9.81ZM541.43,505.55c-1.3-.15-2.61-.3-3.91-.44-5.65,9.1-11.3,18.19-17.64,28.41,11.54,1.42,21.39,2.63,31.25,3.84.61-.73,1.21-1.46,1.82-2.2-16.53-4.89-13.82-17.33-11.5-29.62ZM581.02,453.2c12.05-4.36,21.12-17.2,19.68-27.13-1.98-13.67-14.29-25.13-27.84-25.9-12.54-.72-25.77,10.33-29.22,24.39-1.98,8.07,4.21,19.59,12.95,24.1-12.04-15.29-12.02-31.08.06-40.31,10.9-8.33,26.85-6.55,35.07,3.9,10.45,13.29,6.66,27.36-10.7,40.96ZM520.42,546.56c-15.24,7.23-24.71,25.91-21.41,41.7.43,2.08,4.02,4.89,6.09,4.84,2.01-.04,5.13-3.03,5.7-5.25,2.16-8.53,3.49-17.27,5.01-25.31-2.51,3.99-5.5,8.73-8.49,13.48-1.02-.6-2.05-1.19-3.07-1.79-.62-12.23,8.65-19.44,16.16-27.66ZM349.87,506.25c8.19-7.62,16.39-15.24,24.58-22.86-11.99-.42-20.24-11.42-31.89-8.16,12.55,8.57,12.51,18.58,7.31,31.02ZM140.4,214.19c10.68,8.39,51.93,6,54.52,0h-54.52ZM396.67,558.28c4.13.38,8.19,1.88,9.28.69,9.55-10.55,18.57-21.59,29.49-34.54-17.8,5.78-25.95,13.04-38.77,33.85ZM394.44,562.89c-14.05,11.35-25,22.7-27.13,42.39,10.44-12.22,19.5-22.31,27.79-32.99,1.44-1.85-.36-6.2-.66-9.4ZM348.08,564.34c2.51-5.8,4.4-11.31,7.23-16.29,2.16-3.79,5.79-6.72,8.21-10.4.9-1.37.98-4.61.03-5.5-1.06-1-4.14-1.06-5.61-.23-5.38,3.01-10.56,6.41-15.56,10.02-1.25.91-2.32,3.23-2.15,4.75.84,7.54,2.7,14.69,7.85,17.65ZM582.96,563.26c1.03,7.6,1.73,15.97,3.51,24.1.53,2.42,3.83,5.4,6.3,5.89,2.18.43,6.39-1.66,7.24-3.68,3.21-7.63-3.84-27.46-10.59-32.58,1.56,5.63,3.22,11.65,4.89,17.67-1.22.39-2.43.79-3.65,1.18-1.34-2.27-2.65-4.56-4.03-6.81-1.39-2.27-2.86-4.5-3.67-5.78ZM596.36,29.83c-2.96,1.1-4.53,1.36-4.56,1.74-1.14,15.05-2.22,30.11-2.98,45.18-.05,1.04,2.55,3.19,3.73,3.07,1.38-.14,3.63-2.21,3.65-3.47.25-15.05.16-30.1.16-46.53ZM594.99,145.12h-.13c0-6.32.17-12.66-.13-18.97-.07-1.49-1.74-2.9-2.67-4.34-1.26,1.47-3.51,2.88-3.62,4.43-.82,11.95-1.37,23.93-1.59,35.91-.03,1.89,2.01,3.81,3.09,5.72,1.68-1.89,4.56-3.64,4.81-5.7.67-5.61.23-11.35.23-17.05ZM347.29,514.03c-8.13,7.54-14.96,13.86-22.08,20.46,6.98,3.47,25.39-.17,29.1-5.53,1.05-1.52.68-4.84-.27-6.7-1.4-2.73-3.92-4.9-6.74-8.23ZM304.37,561.38c-.31.16-.61.33-.92.49,1.52,3.98,3.49,7.85,4.44,11.97,1.06,4.57.76,9.47,1.92,14,.55,2.15,2.91,4.99,4.83,5.33,2.13.37,5.93-1.12,6.86-2.91,4.36-8.45-2.19-28.61-11.1-34.58,1.37,6.79,9.51,11.95,3.45,21.28-3.57-5.86-6.52-10.71-9.48-15.57ZM671.15,551.82c-11.73,10.2-16.81,24.31-13.85,36.68.49,2.06,4.23,4.77,6.29,4.63,2.04-.14,5.08-3.24,5.56-5.5,1.67-7.77,2.41-15.74,3.52-23.8-1.23,2.36-2.22,5.02-3.86,7.17-1.28,1.67-3.39,2.7-5.13,4.01-.29-2.27-1.43-4.88-.7-6.75,1.89-4.88,4.61-9.44,8.18-16.44ZM338.92,467.2c-4.84-6.1-9.31-11.73-15.46-19.48-2.29,14.57-4.13,26.33-6.17,39.32,7.55-6.93,14.19-13.01,21.63-19.84ZM314.54,502.96c-.63.46-1.27.93-1.9,1.39,2.46,9.05,4.91,18.09,7.85,28.92,8.11-7.45,14.99-13.77,21.86-20.09-12.01,2.65-21.46,1.37-27.81-10.22ZM383.29,503.54c7.37,4.9,14.8,9.85,22.79,15.16,2.48-3.04,4.75-5.83,6.93-8.5-13.05-13.62-21.57-17.8-30.38-15.62,4.15,2.19,8.62,4.55,13.09,6.91-.45,1.11-.9,2.22-1.35,3.33-3.77-.44-7.55-.87-11.08-1.28ZM674.69,578.29c4.01-1.42,7.59-3.2,11.37-3.89,3.69-.68,7.71.28,11.34-.55,1.74-.39,3.86-3.12,4.09-5,.25-1.98-.97-5.39-2.54-6.17-12.66-6.32-24.87,2.27-24.27,15.61ZM524.85,537.95c6.14,6.62,6.13,26.52,22.32,9.54.77,3.22,1.33,5.53,2,8.34,6.65-8.68,5.58-13.28-3.25-15.04-6.94-1.38-14.04-1.92-21.07-2.84ZM262.54,514.61c-7.23-1.6-10.24,3.2-10.28,9.49-.05,9.3,8.56,7.08,13.58,7.65,2.28.26,7.03-5.02,7.47-8.22.89-6.56-3.8-9.33-10.76-8.92ZM705.27,536.27c0-8.14-2.31-16.44.69-21.73,2.69-4.75,11.22-6.2,18.72-9.86-14.82,1.75-28.3,3.34-41.79,4.94,15.08,5.26,17.01,8.11,17.11,26.65h5.27ZM350.54,510.82c16,6.67,27.8-4.79,25.55-23.58-8.56,7.9-16.55,15.27-25.55,23.58ZM276.4,538.6c1.7-1.4,4.25-2.48,4.95-4.27,2.25-5.79,2.15-13.66,6.11-17.26,3.78-3.43,11.51-2.52,20.17-3.96-13.71-2.22-25.31-4.1-36.91-5.97q7.81,11.45,5.67,31.46ZM689.11,211.07q6.7,7.54,15.14,4.56c13.5-4.76,26-1.66,34.14,9.07,1.4-4.6,2.64-8.68,4.15-13.64h-53.43ZM302.91,520.99c-4.99,7.67-8.47,2-12.47-2.55-3.53,5.72-8.63,11.03-2.83,15.69,3.58,2.88,11.36,3.83,15.5,1.9,5.47-2.56,6.67-8.92-.2-15.04ZM587.19,546.31c-8.63-1.09-17.25-2.6-25.91-2.93-1.68-.06-3.54,4.44-6.02,7.77h12.41c-2.28,2.61-3.47,3.97-4.88,5.57,11.4,5.05,17.14-3.69,24.4-10.41ZM585.01,411.35c-1.56,12.4-2.92,23.17-4.49,35.68,16.01-10.5,17.34-22.64,4.49-35.68ZM722.07,512.04c-2.45,11.39-7.4,3.55-11.08,2.03-4.42,5.87-5.46,12.63.32,15.28,4.36,1.99,12.71.8,16.31-2.36,5.77-5.06-.47-9.66-5.55-14.94ZM677.94,522.18c-1.31-.29-2.62-.58-3.93-.87,1.34,4.52,1.63,11.97,4.25,12.91,4.59,1.64,11.25.45,15.69-2,1.64-.9-.55-8.73-.86-12.02-6.84.89-11,1.44-15.16,1.98ZM159.21,165.15c-4.08-5.01-7.47-11.53-9.41-11.13-7.92,1.64-15.41,5.41-23.05,8.39.25.91.49,1.83.74,2.74h31.73ZM304.5,577.66c.33-10.41-1.31-12.36-15.29-12.95-3.14-.13-6.4,2.79-9.61,4.3,2.99,1.74,5.79,4.06,9.01,5.09,5.01,1.61,10.3,2.36,15.89,3.56ZM580.64,580.33c.71-.47,1.41-.94,2.12-1.41-1.7-4.37-2.24-11.01-5.36-12.59-4.86-2.46-11.5-2.03-17.29-1.59-1.35.1-2.33,5.18-3.39,7.78,8.59,4.37,18.86-3.17,23.93,7.81ZM288.03,339.93l2.78.61c7.81-8.83,13.18-35.41,7.06-40.66-3.38,13.75-6.61,26.9-9.84,40.05ZM594.55,81.15c-5.81,6.29-8.27,32.44-5.09,35.17.83.71,4.86-.5,4.87-.9.28-10.61.22-21.23.22-34.27ZM72.07,135.59c15.72-3.03,29.62-5.7,44.5-8.57-10.04-5.37-37.58-.49-44.5,8.57ZM709.9,270.94c.32-.05.63-.11.95-.16v-42.43c-.4,0-.79.01-1.19.02v12.1c-.34.03-.68.06-1.02.08-.33-4.66-.66-9.31-1-13.97-.61.08-1.23.16-1.84.23v43.86c.57,0,1.14.01,1.7.02.4-3.98.8-7.96,1.2-11.94.4.02.79.05,1.19.07v12.11ZM419.35,595.86c9.01,7.27,12.5.77,16.83-4.34,4.35-5.14,4.04-9.28-1.8-13.99-5.07,6.18-9.79,11.95-15.02,18.33ZM243.43,186.38c.49,0,.98-.01,1.47-.02v-58.84h-1.47v58.86ZM233.55,127.5c-.44.04-.88.09-1.32.13v56.11c.44-.01.88-.03,1.32-.04v-56.2ZM268.64,401.19c-13.93.7-23.1,9.1-25.29,23.15-1.87,12.03,4.04,22.36,15.34,26.8-20.44-19.97-17.73-33.57,9.95-49.96ZM569.99,237.13c-3.52,15.67-12.08,23.79-29,20.31,7.87,5.36,15.37,6.03,22.25.71,6.41-4.96,9.71-11.67,6.75-21.02ZM256.82,445.92c1.08-.4,2.16-.81,3.24-1.21,3.88-10.09,1.12-15.55-12.65-18.77,3.14,6.66,6.27,13.32,9.41,19.98ZM394.96,517.94c-11.57-13.22-16.59-11.22-27.29,8.88,3.49-.85,6.85-2.35,9.03-4.88,4.34-5.02,7.75-11.29,18.26-4ZM191.95,176.3c-4.06,5.14-7.46,7.58-7.54,10.13-.07,2.02,4.15,6.02,6.08,5.81,2.59-.29,5.82-3.43,6.84-6.08.62-1.63-2.39-4.65-5.38-9.86ZM250.81,143.21c-.36.02-.72.04-1.09.06v40.23c.36-.03.72-.05,1.09-.08v-40.21ZM123.29,156.37c7.35-2.88,14.7-5.75,22.51-8.81-5.97-5.98-12.1-3.95-22.51,8.81ZM258.06,426.24c1.02-.2,2.04-.4,3.06-.6,1.18-5,2.37-10,3.55-15-.89-.72-1.79-1.43-2.68-2.15-2.96,2.51-7.63,4.6-8.37,7.64-.69,2.84,2.8,6.7,4.45,10.11ZM275.98,122.03c-.13-.05-.26-.11-.39-.16v64.72c.13,0,.26,0,.39,0v-64.56ZM218.42,127.49c-.54-.01-1.07-.02-1.61-.03v31.96l1.61-.02v-31.9ZM147.08,204.58c.03.22.06.45.08.67h33.06c-.04-.22-.09-.45-.13-.67h-33.01ZM111.85,142.66c.69,1.8,1.38,3.61,2.07,5.41,5.16-2.38,10.32-4.75,15.49-7.13-.47-1.24-.95-2.47-1.42-3.71-5.38,1.81-10.75,3.62-16.13,5.42ZM204.83,148.37c.48-.04.97-.07,1.45-.11v-24.04c-1.02.06-2.04.13-3.06.19.54,7.99,1.08,15.97,1.61,23.96ZM489.43,260.01c-.06-.81-.12-1.61-.17-2.42h-20.46c.01.81.02,1.61.03,2.42h20.6ZM195.85,209.97c.01-.24.03-.48.04-.71h-53.97c0,.24,0,.48,0,.71h53.93ZM34.19,167.95c-2.34-.74-4.88-2.3-5.7-1.66-2.71,2.12-5.17,4.83-6.86,7.81-.42.73,2.43,3.32,3.77,5.06,2.2-2.8,4.39-5.6,8.79-11.21ZM728.1,220.95l-.58-.04v50.06h.58v-50.03ZM254.96,174.58l1.27-.2v-23.51l-1.27.03v23.68ZM386.44,238.85v25.25c3.4-8.8,7.47-17.29,0-25.25ZM212.63,127.43c-.36.02-.73.03-1.09.05v22.53c.36-.02.73-.04,1.09-.05v-22.52ZM629.3,302.07c-1.48-3.16-3.55-6.4-4.53-9.95-.99-3.59-.78-7.49-1.35-11.22-.54-3.5-1.42-6.94-2.15-10.41,1.08,25.82,2.56,30.86,8.03,31.58ZM77.18,187.13c.02,1.59.03,3.17.05,4.76,3.67-.24,7.34-.46,10.99-.88.1-.01.05-3.18-.1-3.19-3.63-.37-7.29-.51-10.94-.69ZM82.74,203.76c2.52-2.02,4.22-3.39,5.92-4.75-1.82-1.16-3.62-3.19-5.46-3.23-1.92-.04-3.88,1.84-5.82,2.88,1.56,1.48,3.11,2.96,5.37,5.1ZM227.44,173.67c.27-.04.53-.08.8-.12v-44.45c-.27,0-.53.01-.8.02v44.55ZM238.18,128.8c-.19,0-.39,0-.58,0v44.92c.19,0,.39,0,.58,0v-44.92ZM717.76,271.15c.26,0,.52,0,.77,0v-43.03c-.26,0-.52,0-.77,0v43.03ZM326.31,211.43c-.59-.59-1.17-1.17-1.76-1.76-5.31,7.63-10.61,15.26-15.92,22.89.62.45,1.24.89,1.85,1.34,5.28-7.49,10.55-14.98,15.83-22.48ZM320.9,291.48c-.25.78-.5,1.56-.75,2.33,7.79,2.13,15.58,4.27,23.37,6.4.17-.65.35-1.29.52-1.94-7.71-2.27-15.43-4.53-23.14-6.8ZM715.39,228.04c-.32.06-.63.12-.95.18v41.09c.32,0,.63,0,.95,0v-41.26ZM724.01,269.17c.2,0,.41,0,.61,0v-41.15c-.2,0-.41,0-.61,0v41.15ZM657.17,298.32l.25,2.46c7.93-1.14,15.87-2.27,23.8-3.41l-.33-1.85c-7.91.93-15.81,1.87-23.72,2.8ZM732.58,227.26c-.22-.29-.44-.58-.67-.87v38.63c.22,0,.44,0,.67,0v-37.76Z"/>
      <path class="cls-1" d="M368.04,234.76c2.47,6.5,4.93,12.99,7.4,19.49l-2.6,2.04c-8.7-3.41-17.41-6.77-26.08-10.23-5.3-2.11-10.77-3.97-15.77-6.65-5.93-3.18-10.69-3.54-14.74,5.73-.48-3.82-.65-5.1-.8-6.39.46-.31.88-.65,1.27-1.03,8.18-8.01,17.33-14.36,29.4-12.33,6.4,1.08,12.48,4.01,18.7,6.11,1.08,1.09,2.15,2.18,3.23,3.27ZM370.4,250c-2.19-18-29.23-28.78-41.04-15.44,7.8,3.27,15.19,6.38,22.58,9.48.28-.62.57-1.23.85-1.85-3.48-2.11-6.97-4.21-12.69-7.68,4.81-.83,7.55-2.2,8.71-1.36,7.37,5.32,14.38,11.13,21.6,16.85Z"/>
      <path class="cls-1" d="M679.63,231.55c-11.9,9.32-23.62,18.87-35.76,27.87-6.5,4.82-9.41,9.7-4.27,17.16.79,1.15.49,3.04.69,4.58-.95-.39-1.89-.78-2.82-1.18-1.43-4.16-2.92-8.29-4.28-12.46-3.87-11.9.59-26.52,10.35-34.08,10.41-8.07,25.62-8.87,36.09-1.9ZM659.5,237.58c-3.12,3.32-6.24,6.63-9.36,9.95.47.47.94.94,1.42,1.41,6.76-5.59,13.53-11.19,21.02-17.38-19.43-6.81-39.34,10.43-36.57,30.22,7.42-9.69,6.04-25.98,23.49-24.2Z"/>
      <path class="cls-1" d="M728.38,170.26c-14.57,0-29.15.27-43.7-.27-2.42-.09-6.69-3.7-6.75-5.77-.43-15.85-.06-31.73.19-47.6.02-1.06,1.11-2.11,2.14-3.95,13.43,14.27,30.19,5.91,45.4,7.45,12.53,1.27,12.87.52,12.94,12.93.06,11.59.01,23.18.01,34.78-1.43.04-2.86.08-4.3.11,0-4.9,0-9.79,0-14.69q.02-28.48-28.25-28.56c-1.27,0-2.54-.02-3.81,0-26.29.4-22.91-3.93-22.87,23.48.04,22.84-2.51,20.25,20.42,20.24,9.5,0,18.99,0,28.49,0,.03.62.05,1.23.08,1.85Z"/>
      <path class="cls-1" d="M652.71,114.94c-.94,1.33-1.84,3.8-2.82,3.83-8.88.28-17.79.39-26.66-.1-1.73-.1-3.99-2.75-4.77-4.71-.88-2.23-.45-5-.47-7.54-.17-27.66,1.93-29.62,29.36-25.47,2.63.4,6.81,3.84,6.84,5.92.14,9.39-.95,18.8-1.6,28.2-.43-7.19-.87-14.37-1.25-20.78-8.67-7.93-23.05,9.26-28.42-8.48-8.51,22.43-2.74,31.3,19.45,30.53,3.46-.12,6.89-.91,10.34-1.4Z"/>
      <path class="cls-1" d="M722.24,124.54c4.34,4.97,7.94,7.26,8.55,10.18,1.34,6.39-3.75,6.88-8.5,6.9-4.42.02-9.27-.5-8.21-6.25.58-3.16,4.19-5.77,8.16-10.83ZM720.94,128.5c-2.15,3.09-3.5,5.03-4.84,6.97,2.07,1.37,4.19,3.88,6.19,3.79,1.84-.09,3.56-2.97,5.33-4.62-1.83-1.68-3.66-3.37-6.68-6.13Z"/>
      <path class="cls-1" d="M358.81,101.42c0,1.91-.01,3.81,0,5.72q.11,16.27-16.37,16.14c-13.02-.1-14.75-1.84-14.75-15,0-4.45-.45-8.98.23-13.33.73-4.63,1.88-12.55,4.06-12.99,7.81-1.57,16.15-.82,24.24-.26,1.03.07,2.34,4.1,2.55,6.38.41,4.41.12,8.89.12,13.34-.02,0-.05,0-.07,0ZM332.91,113.6c23.24,3.6,24.93,2.36,23.83-19.8-.17-3.49-2.62-9.59-4.48-9.78-6.22-.61-12.68.75-18.96,1.84-.81.14-1.61,3.16-1.57,4.83.21,7.38.73,14.75,1.18,22.91Z"/>
      <path class="cls-1" d="M377.36,183.71c-4.92-4.39-10.34-6.89-10.74-10.04-.98-7.61,6.07-5.54,10.28-5.58,4.25-.04,11.13-1.96,10.27,5.66-.34,3.03-5.25,5.53-9.8,9.95ZM369.1,171.55c.14,1.88.29,3.76.43,5.64,4.25-.51,8.51-1.01,12.76-1.52-.37-1.37-.66-3.9-1.14-3.94-4-.32-8.03-.18-12.05-.18Z"/>
      <path class="cls-1" d="M550.56,121.65h20.33c-6.41,6.12-13.14,6.41-20.33,0Z"/>
      <path class="cls-1" d="M550.3,162.04h19.6c0,.99-.01,1.99-.02,2.98h-19.6c0-.99.01-1.99.02-2.98Z"/>
      <path class="cls-1" d="M566.83,64.09c-.2,3.63-.4,7.27-.64,11.66,6.93.19,9.36,4.43,8.49,11.19-.28,2.18-.08,4.42-.07,6.63.13,21.26.17,16.9-18.01,17.74-7.13.33-9.8-2.32-9.45-9.21.29-5.67-.82-11.56.37-16.99.74-3.33,4.59-6.01,7.16-8.88,1.95-2.18,4.4-3.99,6.04-6.37,1.32-1.91,1.77-4.43,2.6-6.68,1.17.3,2.33.6,3.5.9ZM570.26,91.99c.06-.74.67-3.92.41-7.02-.15-1.83-1.21-4.45-2.64-5.18-9.09-4.66-17.89.74-18.09,10.8-.05,2.53.2,5.09-.06,7.59-.95,9.04,3.67,11.11,11.87,11.38,9.42.31,9.37-4.79,8.53-11.35-.16-1.25-.02-2.53-.02-6.22Z"/>
      <path class="cls-1" d="M486.23,223.13c-16.84,4.25-31.62,4.32-47.08.14,5.39-7.49,37.78-8.15,47.08-.14Z"/>
      <path class="cls-1" d="M485.04,231.43c-8.19,6.01-25.32,5.62-31.31-.22,6.38-5.46,23.78-5.6,31.31.22Z"/>
      <path class="cls-1" d="M565.2,221.24c-8.64,6.65-21.15,6.58-29.54.35,5.98-5.56,21.18-5.97,29.54-.35Z"/>
      <path class="cls-1" d="M456.8,241.76c5.43-6.72,20.39-7.19,27.63-.86-5.66,5.58-19.86,6.02-27.63.86Z"/>
      <path class="cls-1" d="M534.24,230.56c8.96-4.97,17.2-3.54,25.33-1.9.52.11,1.23,4.65.3,5.58-3.11,3.12-20.07,1.04-25.62-3.68Z"/>
      <path class="cls-1" d="M561.1,243.58h-26.13c6.09-8.67,16.74-9.08,26.13,0Z"/>
      <path class="cls-1" d="M700.25,179.97c8.81,1.75,17.67,3.29,26.38,5.42,1.83.45,4.6,3.35,4.35,4.6-.42,2.1-2.64,4.17-4.59,5.57-12.97,9.27-27.86,4.62-41.99,5.55-7.86.52-6.38-5.57-6.45-9.86-.06-4.5-.75-10.13,6.78-9.85,5.06.19,10.14.04,15.21.04.1-.49.2-.97.3-1.46ZM714.7,198.31c.01-.91.02-1.82.04-2.73-3.57,0-7.31.66-10.65-.21-2.54-.67-4.58-3.28-6.84-5.03,2.19-1.66,4.16-4.04,6.63-4.79,2.75-.84,5.96-.19,8.97-.19-6.05-1.25-12.15-1.88-17.99-.94-2.26.37-5.44,4.29-5.46,6.62-.02,2.41,3.03,6.65,5.17,6.95,6.6.92,13.41.33,20.13.33ZM702.56,188.72l-.21,2.41h17.05c0-.8,0-1.61,0-2.41h-16.85Z"/>
      <path class="cls-1" d="M362.53,189.51h31.14c-1.25,3.38-2.04,5.5-3.46,9.35h-23.71c-1.26-3.1-2.55-6.29-3.84-9.48,0,0-.12.13-.12.13Z"/>
      <path class="cls-1" d="M364.91,278.9c-8.3,10.25-22.84,13.24-34.46,8.03-12.36-5.54-19.42-16.93-17.13-29.8,17.3,7.3,34.26,14.45,51.6,21.77ZM315.31,262.16c3.09,12.56,9.61,18.87,19.45,22.39,8.49,3.04,16.13,2.03,24.28-3.96-5.45-1.95-15.91,9.65-13.31-5.87-4.81-2.05-9.44-4.07-14.11-6-4.64-1.92-9.31-3.75-16.31-6.56Z"/>
      <path class="cls-1" d="M352.75,260.33c-4.78,3.72-15.72,2.42-17.52-2.69-.6-1.69,2.54-4.7,3.97-7.1,4.69,3.07,9.38,6.14,14.06,9.22l-.51.58Z"/>
      <path class="cls-1" d="M353.26,259.75c.28-.14.64-.47.83-.39,4.34,1.79,8.67,3.62,13,5.44-1.01,1.66-2.1,4.79-3.03,4.75-5.79-.27-11.44-1.4-11.3-9.21,0,0,.51-.58.51-.58Z"/>
      <path class="cls-1" d="M246.05,636.46c7.17-4.61,13.87-11.24,23.32-4.04,1.17.89,4.31-.89,6.56-1.3,2.15-.39,4.33-.6,6.5-.89-3.64,5.06-7.27,10.11-11.68,16.23-.54-.74-2.95-2.51-3.01-4.37-.34-10.26-5.9-10.38-13.46-7.7-2.65.94-5.48,1.39-8.23,2.06Z"/>
      <path class="cls-1" d="M738.59,637.9c-5.11-1.26-10.34-2.15-15.29-3.86-7.63-2.63-12.17-1.09-12.98,7.66-.17,1.82-1.55,3.53-2.96,6.53-4.72-6.57-2.4-18.68-14.72-15.11,1-1.11,2.37-3.36,2.95-3.17,14,4.52,30.56-4.66,43.01,7.95Z"/>
      <path class="cls-1" d="M192.78,126.53c2.78,3.03,5.95,5.05,5.73,6.59-.32,2.31-3.02,4.3-4.7,6.42-2.03-1.84-5.04-3.38-5.73-5.63-.46-1.48,2.42-4,4.7-7.38Z"/>
      <path class="cls-1" d="M690.83,242.94c8.05,12.32,6,28.94-4.81,38.97-11.79,10.94-26.49,12.07-38.91,2.98,14.03-10.76,28.22-21.31,41.89-32.5,1.91-1.56,1.28-6.22,1.83-9.45ZM654.94,285.18c10.72,4.37,18.38,1.71,25.36-3.35,8.24-5.98,13.12-13.8,11.66-26.14-8.52,6.73-15.91,12.53-23.24,18.4-.94.75-2.47,2.26-2.25,2.77,5.66,12.83-4.94,6.15-11.54,8.32Z"/>
      <path class="cls-1" d="M647.93,277.13c-2.52-1.65-4.71-2.33-5.34-3.71-.56-1.23.06-3.9,1.12-4.8,6.16-5.22,12.5-10.24,19.03-15,1.15-.84,3.91-.77,5.06.07,1.18.86,2.25,4.22,1.73,4.7-7,6.4-14.28,12.49-21.59,18.75Z"/>
      <path class="cls-1" d="M652.67,349.84c-2.63-11.51-5.26-23.01-7.89-34.52,1.47,1.47,3.98,2.77,4.23,4.42,1.51,9.99,2.5,20.06,3.66,30.1Z"/>
      <path class="cls-1" d="M398.89,607.36c-7.66,1.28-15.32,2.55-22.98,3.83.66-.63,1.21-1.59,1.99-1.84,12.04-3.83,18.93-12.11,21.63-24.31.36-1.65,2.09-3,3.18-4.49-1.44,5.09-3.33,10.1-4.17,15.28-.61,3.72.18,7.67.35,11.52Z"/>
      <path class="cls-1" d="M686.19,449.11c-14.41.1-24.1-9.02-24.49-23.06-.39-13.79,10.37-24.74,24.38-24.83,15.09-.09,26.3,10.31,26.11,24.25-.19,14.4-10.24,23.52-26,23.64ZM707.26,421.86c.02-8.96-6.89-13.44-13.51-10.26-7.96,3.82-15.73,8.04-23.74,11.75-5.8,2.68-5.2,7.39-2.56,10.86,2.09,2.75,7.39,5.94,9.83,5.04,8.81-3.24,17.12-7.96,25.4-12.52,2.2-1.21,3.63-3.83,4.58-4.87ZM707.76,428.58c-11.11,5.59-20.34,10.22-30.94,15.55,15.5,5.46,25.38.58,30.94-15.55ZM695.81,406.55c-13.95-5.4-25.32.69-28.78,14.29,9.55-4.75,18.29-9.09,28.78-14.29Z"/>
      <path class="cls-1" d="M270.52,425.85c-.04-13.79,10.79-24.65,24.8-24.87,13.66-.21,24.96,10.78,25.28,24.58.31,13.25-11.13,25.16-24.51,25.52-13.86.38-25.52-11.13-25.57-25.24ZM316.49,423.87c-1.25-.96-3.58-4.05-6.48-4.75-8.91-2.15-18.09-3.15-27.06-5.07-7.47-1.6-7.56,4.39-8.84,8.45-1.36,4.3-.41,8.03,5.36,8.95,8.75,1.4,17.39,3.47,26.13,4.97,7.71,1.33,11.15-1.91,10.9-12.55ZM310.26,440.9c-12.25-2.21-22.59-4.07-34.37-6.2,9.55,13.62,20.69,15.72,34.37,6.2ZM312.92,416.06c-6.9-12.73-17.57-14.92-30.5-6.26,10.52,2.16,20.1,4.13,30.5,6.26Z"/>
      <path class="cls-1" d="M694.69,426.18c-4.23,1.73-6.63,3.55-8.8,3.31-1.48-.16-2.64-3.2-3.95-4.96,1.86-1.22,3.76-3.45,5.58-3.39,1.85.07,3.62,2.4,7.18,5.04Z"/>
    </g>
  </g>
</svg>