<?xml version="1.0" encoding="UTF-8"?>
<svg id="Calque_1" data-name="Calque 1" xmlns="http://www.w3.org/2000/svg" version="1.1" viewBox="0 0 800 800">
  <defs>
    <style>
      .cls-1 {
        fill: #fff;
        stroke-width: 0px;
      }
    </style>
  </defs>
  <g id="_0TBVOj" data-name="0TBVOj">
    <g>
      <path class="cls-1" d="M720.81,615.95c-2.92,16.1-12.43,18.68-23.98,18.75-35.95.22-71.9.47-107.84.96-7.52.1-15.61-.16-22.35,2.5-4.78,1.89-10.55,8.32-10.69,12.89-.14,4.53,5.3,11.39,9.94,13.38,6.61,2.84,14.73,2.81,22.21,2.88,30.2.27,60.4.11,95.02.11-14.73,17.76-25.69,32.29-48.16,32.44-39.71.26-79.42,1.66-119.13,2.73-10.99.29-25.84-2.65-25.88,13.97-.04,17.4,15.2,15.22,26.98,15.31,27.5.19,55,.06,85.52.06-108.38,75.84-281.39,83.52-409.97.02,20.93,0,36.68.07,52.43-.03,7.56-.05,15.92,1.49,22.44-1.22,5.66-2.36,11.74-9.23,12.82-15.01.64-3.43-7.8-12.11-12.56-12.43-30.77-2.06-61.74-4.28-92.48-2.86-25.78,1.19-43.12-9.47-59.71-31.04,6.97-.75,11.99-1.73,17.02-1.76,39.1-.21,78.22.25,117.3-.59,12.27-.26,30.75,3.05,30.91-15.78.17-19.08-18.01-15.81-30.57-15.96-49.19-.59-98.39-.6-147.58-.61-12.8,0-23.83-1.95-27.67-19.9,23.48,0,45.9.03,68.32-.01,17.66-.03,35.51,1.32,52.88-.96,7.12-.94,13.2-9.83,19.75-15.1-6.55-4.44-12.98-12.54-19.65-12.73-41.59-1.23-83.26.02-124.84-1.33-8.32-.27-19.15-6.28-24.02-13.09-10.73-15-6.78-20.93,11.76-21.08,32.79-.26,65.59-.07,98.39-.13,5.67-.01,12.52,1.58,16.73-1,6.11-3.74,13.13-10.1,14.26-16.33.68-3.79-8.26-11.79-14.23-13.69-8.08-2.58-17.45-1.36-26.27-1.39-35.32-.13-70.66.46-105.94-.68-6.28-.2-12.33-7.32-18.49-11.24,5.89-2.87,11.75-8.16,17.68-8.24,51.08-.67,102.17-.4,153.25-.43,5.68,0,12.43,1.78,16.77-.66,6.58-3.69,11.48-10.37,17.09-15.78-5.87-4.29-11.6-12.06-17.63-12.3-46.61-1.87-93.28-2.31-139.94-3.13-11.98-.21-23.97-.02-35.95-.34-18.61-.48-32.77-21.45-24.46-37.95,2.33-4.61,10.75-7.73,16.79-8.55,9.91-1.34,18.89-1,19.03-14.94.14-13.53-7.7-15.62-18.34-15.19-11.99.48-20.6-3.69-18.61-17.21,1.9-12.92-.13-29.48,21.08-29.33,29.01.2,58.04.41,87.03-.48,13.06-.4,32.7,2.82,32.78-16.19.08-19.53-19.47-15.39-32.56-15.75-23.32-.64-46.7.48-69.99-.58-8.09-.37-22.97-5.44-22.84-7.69.89-15.91,14.64-12,24.59-12.1,39.73-.4,79.47.14,119.2-.36,13.61-.17,33.9,4.68,33.42-16.7-.43-19.23-20.25-15.19-33.13-15.5-34.67-.84-69.38.14-104.05-.72-7.7-.19-22.47,6.39-21.48-9.32.77-12.12,6.59-25,23.17-25.09,15.77-.09,31.53-.08,47.3-.14,10.72-.04,21.78,1.46,32.04-.74,6.41-1.38,11.62-8.36,17.37-12.82-5.79-5.25-11.26-14.51-17.44-15.01-22.31-1.83-44.85-.72-67.89-.72C93.23,117,255.73,21.79,378.05,13.22c127.7-8.94,308.25,83.54,342.87,178.58-19.72,0-38.28-.28-56.82.11-10.65.22-21.6.26-31.78,2.87-4.74,1.22-11.56,8.88-11,12.68.76,5.28,6.91,12.74,11.94,13.84,12.14,2.66,24.95,2.6,37.51,2.86,19.54.4,39.19-.91,58.61.74,7.48.63,16.81,5.67,21.14,11.69,9.92,13.77,6.03,19.79-11.43,20.01-30.9.39-61.81.25-92.71.41-4.41.02-8.94-.11-13.2.83-10.38,2.28-25.81-.19-24.27,16.79,1.39,15.28,14.89,14.5,26.43,14.51,37.21.01,74.42,0,111.63.05,5.04,0,10.82-1.27,14.94.74,4.84,2.37,8.25,7.68,12.28,11.72-4.22,2.73-8.34,7.63-12.67,7.82-20.14.9-40.35.5-60.53.58-4.41.02-8.84-.15-13.24.13-11.84.76-27.02-.67-26.8,16.26.22,16.99,15.71,15.28,27.3,15.52,25.85.54,51.74.97,77.56.05,22.74-.8,20.58,16.44,22.62,29.78,2.38,15.58-8.94,17.01-20.67,16.86-10.01-.13-19.15.49-19.48,14.34-.31,12.93,7.44,15.68,17.93,16.79,10.22,1.09,23.43-.7,21.35,16.39-1.82,14.97-1.51,30.68-24.49,30.12-29.59-.72-59.25.93-88.87,1.65-11.75.28-27.46-2.22-26.98,15.08.47,16.94,16.26,14.17,27.9,14.28,26.49.25,52.99-.26,79.46.36,7.55.18,21.09-4.65,19.03,9.67-.77,5.32-13.21,12.51-20.52,12.73-40.33,1.25-80.71.61-121.08.63-6.31,0-13.39-1.72-18.73.58-7.05,3.05-12.72,9.28-18.99,14.14,6.23,4.88,12.3,13.72,18.73,13.98,35.89,1.47,71.87.86,107.82.96,3.78.01,7.84-.88,11.3.18,7.81,2.39,22.17,7.23,21.9,8.46-2.79,12.77-6.35,26.36-24.08,26.22-23.96-.19-47.93,0-71.9.02-44.15.03-88.3,0-132.45.11-10.32.03-22.31.14-22.72,13.86-.45,15.21,12.46,15.3,23.24,15.34,58.02.24,116.05.13,174.07.26,6.58.01,13.17.72,20.59,1.15ZM396.9,388.43c-90.11,0-180.23-.02-270.34.02-11.34,0-22.93-1.05-33.89,1.06-4.36.84-10.14,8.92-10.14,13.7,0,4.78,5.59,10.9,10.32,13.89,3.66,2.31,9.8.83,14.84.83,193.46.02,386.93.02,580.39,0,3.15,0,6.32-.33,9.45-.07,13.4,1.11,15.71-6.91,15.26-17.8-.64-15.62-12.57-11.43-20.97-11.46-98.31-.27-196.61-.17-294.92-.19ZM346.31,205.16c-.21,31.66,21.3,55.12,51.15,55.78,29.84.65,53.89-23.05,54.04-53.27.16-32.01-20.97-53.67-52.49-53.81-31.29-.14-52.49,20.5-52.69,51.3ZM403.86,98.86c3.77,11.26,4.1,27.09,11.92,32.96,28.16,21.18,34.6,19.31,59.77-5.8,4.46-4.45,8.72-9.12,13.36-13.37,8.85-8.11,7.55-15.61-2.02-21.27-12.95-7.65-25.93-15.76-39.88-21.14-35.6-13.73-39.78-10.41-43.14,28.62ZM290.08,218.17c-5.03,0-10.07-.07-15.1.01-20.47.34-24.62,4.08-17.87,23.39,6.76,19.33,16.82,37.64,26.93,55.55,1.81,3.2,13.31,5.19,16.22,2.77,12.54-10.38,23.85-22.32,34.87-34.38,2.32-2.54,2.85-8.28,1.92-11.97-7.67-30.25-14.73-35.38-46.97-35.37ZM386.78,99.73c.18-39.83-3.84-42.54-40.09-28.73-4.69,1.79-9.35,3.74-13.84,5.99-34.53,17.3-35.1,20.88-7.82,47.79,23.58,23.27,23.2,22.42,48.9,10.77,18.97-8.59,9.99-24.72,12.85-35.83ZM506.76,218.15c-12.26,2.76-28.65-6.72-38.25,14.87-8.64,19.45-8.17,32.43,9.13,44.9,6.56,4.73,12.02,11.11,17.52,17.15,8.23,9.04,15.4,7.4,21.01-2.18,6.65-11.36,13.49-22.81,18.36-34.97,14.38-35.93,11.59-39.75-27.76-39.77ZM491.37,318.5c-16.52-14.96-30.56-29.07-46.1-41.27-11.24-8.83-36.54,3.6-37.51,17.96-.98,14.36-1.21,28.95.39,43.2.49,4.39,8.27,11.56,12.4,11.35,25.06-1.29,46.55-11.97,70.83-31.23ZM283.19,113.88c-9.47,19.81-18.29,34.89-24.05,51.06-9.68,27.18-6.37,31.22,21.54,31.54,10.06.12,20.21.28,30.17-.89,13.29-1.56,26.69-24.75,18.86-34.17-13.03-15.67-28.46-29.35-46.52-47.53ZM505.42,196.48c6.74,0,11.15.13,15.55-.02,22-.75,25.13-4.26,18.68-24.74-4.13-13.1-10.22-25.62-15.86-38.2-5.1-11.38-12.13-13.53-21.43-3.76-9.11,9.57-19.89,17.85-27.47,28.46-4.3,6.01-6.31,16.18-4.69,23.43,4.87,21.72,24.06,12.05,35.22,14.84ZM307.72,324.48c22.04,9.71,38.47,18.4,55.86,24.2,18.98,6.33,23,2.38,23.31-18.34.18-11.96.6-24-.45-35.88-1.27-14.45-19.49-23.89-30.81-14.95-15.51,12.26-29.05,27.01-47.91,44.97Z"/>
      <path class="cls-1" d="M409.53,208.82c-5.39,3.37-9.07,7.43-11.69,6.84-3.04-.69-7.09-5.46-7.09-8.46,0-2.58,5.09-7.24,7.88-7.2,2.98.04,5.89,4.51,10.9,8.82Z"/>
    </g>
  </g>
</svg>