<?xml version="1.0" encoding="UTF-8"?>
<svg id="Calque_1" data-name="Calque 1" xmlns="http://www.w3.org/2000/svg" version="1.1" viewBox="0 0 800 800">
  <defs>
    <style>
      .cls-1 {
        fill: #fff;
        stroke-width: 0px;
      }
    </style>
  </defs>
  <g id="p94uwh">
    <g>
      <path class="cls-1" d="M744.1,570.99c4.5-13.41,9.04-26.44,13.24-39.57,6.1-19.04,11.73-38.24,18.02-57.22,3.3-9.97,1.89-19.28-1.95-28.54-4.29-10.37-15.85-12.85-24.17-5.31-3.61,3.28-6.21,2.78-8.5-1.63-.35-.67-.62-1.37-.91-2.06-3.14-7.37-3.17-7.41-9.44-2.82-9.09,6.66-18.22,13.28-27.16,20.14-3.23,2.47-5.59,3.47-7.51-1.19-.47-1.14-1.55-2.04-2.82-3.63-1.73,3.2-3.3,5.72-4.5,8.4-1.45,3.27-3.46,3.87-6.85,2.8-17.77-5.64-35.58-11.17-53.46-16.46-2.65-.78-6.42-1.18-8.52.11-12.44,7.67-25.76,7.29-39.33,5.19-9.21-1.42-18.32-3.51-27.55-4.82-10.56-1.49-20.85.24-30.94,4.65,2.72.39,5.43.87,8.16,1.13,3.74.36,7.5.51,11.24.85,7.04.64,7.03.67,8.82,7.7q1.93,7.6,9.69,6.82c5.53-.55,5.58-.52,5.29,5.14-.29,5.7-.61,11.4-.95,17.1-.24,3.99,1.57,5.83,5.58,5.78,6.16-.08,12.32-.02,18.5.18-28.47,2.37-57.65,1.72-82.36,19.24.06.55.12,1.11.18,1.66,1.99.2,3.99.56,5.98.56,22.11.07,44.22.07,66.33.15,2.09,0,4.18.45,6.27.69.03.55.07,1.09.1,1.64-1.42.38-2.81.97-4.25,1.11-6.58.65-13.19,1.03-19.75,1.84-1.59.2-3.02,1.65-4.53,2.52,1.63.97,3.24,2.73,4.9,2.77,12.18.28,24.36.18,36.54.29,1.98.02,3.95.46,5.92.71.05.39.1.78.15,1.18-.79.46-1.53,1.13-2.39,1.33-1.15.26-2.39.2-3.59.21-38.19.31-76.38.56-114.56,1-2.71.03-7.7,1.36-7.73,2.22-.13,4.13,4.23,2.96,6.7,4.17,1.87.92,4.14,1.43,5.54,2.82,1.44,1.43,3.16,4.06,2.7,5.53-.58,1.87-3.04,3.46-5.04,4.48-1.48.75-3.53.5-5.33.51-7.67.06-15.36-.29-23,.21-3.58.24-7.19,1.77-10.55,3.25-2.67,1.17-2.54,3.49-.01,4.7,3.17,1.52,6.57,2.99,10,3.45,4.59.61,9.31.07,13.96.33,5.15.29,9,2.17,10.69,7.85,2.03,6.84,7.11,9.65,15.54,9.7,19.24.12,38.49.21,57.73.33,1.65,0,3.43-.27,4.92.24,1.33.45,2.34,1.81,3.49,2.77-1.22,1.05-2.28,2.55-3.69,3.03-1.63.55-3.57.22-5.37.22-37.6.02-75.2.03-112.8.05-1.65,0-3.42-.31-4.93.18-1.47.48-2.68,1.79-4,2.74,1.36,1.1,2.57,2.58,4.13,3.18,1.45.56,3.26.21,4.92.21,17.9,0,35.8-.08,53.69.1,2.71.03,5.4,1.33,8.1,2.04-1.69,3.9-5.2,2.19-7.87,2.26-10.07.23-20.15.08-30.23.12-1.49,0-3.09-.03-4.44.48-.92.35-2.15,1.68-2.07,2.45.11,1.07,1.13,2.51,2.11,2.91,1.46.58,3.24.49,4.88.49,15.94.05,31.89-.03,47.83.17,2.9.04,6.02.69,8.63,1.92,3.57,1.68,3.66,4.06.55,6.57-1.96,1.59-4.33,2.66-6.48,4.02-1.3.82-2.54,1.74-3.81,2.62.07.43.14.87.21,1.3,4.88.88,9.76,1.76,14.64,2.63.04.3.09.61.13.91-14.01,4.95-28.02,9.9-42.04,14.85.02.58.05,1.16.07,1.74,16.88,4.88,34.64,6.05,51.53,10.87-.04.37-.08.75-.12,1.12h-75.51c-.04.53-.07,1.05-.11,1.58,7.16.67,14.3,1.63,21.48,1.97,21.91,1.05,43.83,1.87,65.75,2.79.75.03,1.65-.14,2.22.2,1.49.9,2.85,2.03,4.25,3.07-1.36.93-2.65,2.52-4.1,2.68-7.91.88-15.86,1.45-23.81,2.06-26.97,2.08-53.94,4.14-80.91,6.22-1.05.08-2.19.06-3.1.48-.83.38-1.41,1.31-2.1,1.99.73.65,1.37,1.68,2.21,1.88,1.58.37,3.28.33,4.93.33,14.89.03,29.78.03,44.67.04.9,0,1.89-.22,2.69.06,1.78.62,3.46,1.5,5.18,2.28-1.78.75-3.56,2.14-5.35,2.15-15.79.13-31.58-.03-47.37.04-2.32.01-4.63.8-6.94,1.22,0,.68,0,1.37.01,2.05,1.85.39,3.7,1.08,5.56,1.12,7.82.13,15.64.07,23.46.07.75,0,1.57-.18,2.24.04,1.91.63,3.77,1.44,5.64,2.17-1.96.74-3.89,1.96-5.9,2.14-8.38.76-16.78,1.18-25.17,1.82-1.53.12-3.03.71-4.54,1.09-.04.62-.08,1.24-.12,1.86,5.32.79,10.64,1.57,15.97,2.36.03.28.06.56.09.84-3.21,1.12-6.52,2.02-9.57,3.47-1.34.64-3.18,2.71-2.94,3.64.39,1.49,2.13,3.04,3.67,3.7,1.55.66,3.55.33,5.35.34,18.95.03,37.9.03,56.85.04,1.78,0,3.56,0,5.42.99-4.82.72-9.63,1.46-14.45,2.15-15.33,2.21-30.66,4.41-45.99,6.62-.89.13-1.95.05-2.63.51-1.26.86-3.24,2.07-3.21,3.08.04,1.42,1.4,3.68,2.63,4.03,4.15,1.19,8.46,2.11,12.76,2.36,6.75.38,13.53.08,20.3.16,3.33.04,5.88.62,5.22,5.24-.18,1.29,2.23,3.68,3.93,4.39,7.22,2.99,14.59,5.62,21.97,8.22,3.56,1.26,6.74,2.67,6.83,7.7,1.81-.54,3.22-.83,4.54-1.37,21.99-9,43.96-18.04,65.94-27.07.56-.23,1.11-.63,1.67-.65,1.35-.05,2.71.08,4.07.14-.67,1.19-1.06,2.83-2.07,3.48-4.55,2.92-9.2,5.73-13.97,8.27-29.84,15.88-60.79,29.07-93.64,37.29-24.7,6.17-49.81,9.44-75.34,10.41-32.38,1.23-64.27-1.83-95.8-8.72-36.92-8.06-72.19-20.76-105.42-38.95-36.7-20.09-69.48-45.26-98.09-75.73-28.1-29.92-50.96-63.53-68.12-100.83-9.38-20.38-16.49-41.65-21.58-63.54-1.81-7.8-1.26-8.34,6.76-9.2,19.88-2.14,39.77-4.28,59.63-6.57,1.71-.2,3.3-1.5,4.95-2.29-1.12-1.48-1.99-3.89-3.42-4.29-7.02-1.97-14.13-3.78-21.33-4.91-7.26-1.15-14.69-1.2-21.97-2.23-2.3-.32-4.94-1.75-6.47-3.51-7.19-8.31-14.07-16.83-23.69-22.62-3.4-2.05-5-5.48-5.11-9.55-.19-6.76-.59-13.52-.66-20.28-.07-6.25.66-6.88,7.09-6.89,40.46-.02,80.92-.02,121.37-.02,209.36,0,418.71,0,628.07,0,11.87,0,11-.39,12.61,10.64,3.41,23.39,1.09,46.56-3.51,69.49-5.44,27.13-15.17,52.85-27.7,77.5-2.72,5.36-4.26,6.54-8.42,7.32Z"/>
      <path class="cls-1" d="M452.33,25.82c-3.91,1.41-6.63,2.39-9.35,3.36,0,.45,0,.9.01,1.35,26.67,4.2,53.65,5.85,80.58,9.09-1.7.24-3.4.62-5.11.7-15.46.7-30.93,1.35-46.4,2.01-.6.03-1.3-.15-1.78.1-1.31.67-2.53,1.53-3.78,2.31,1.2.68,2.36,1.88,3.61,1.98,17.53,1.35,35.07,2.55,52.61,3.79,5.52.39,11.03.82,16.64,2.28-1.63.12-3.26.33-4.88.34-13.84.03-27.68-.1-41.51.06-15.33.17-30.66.56-45.98.92-1.53.04-3.05.55-4.58.85-.06.53-.11,1.06-.17,1.59,1.66.37,3.31,1.05,4.98,1.07,8.42.12,16.84.07,25.27.1,1.5,0,3.09-.22,4.48.2,1.25.38,2.28,1.49,3.41,2.28-1.15.92-2.22,2.48-3.47,2.65-6.4.85-12.86,1.33-19.29,1.96-1.15.11-2.28.35-3.5,1.48,11.57,1.71,23.14,3.41,34.7,5.12l-.04,1.25c-12.42.56-24.84,1.13-37.26,1.69-.03.75-.05,1.5-.08,2.24,2.33.31,4.65.89,6.98.9,31.58.08,63.17.08,94.75.09,13.54,0,27.07-.01,40.61.03,1.88,0,3.75.3,5.63.45l.16,1.28c-1.55.29-3.1.8-4.66.82-7.07.1-14.15-.13-21.2.2-1.87.09-3.67,1.72-5.5,2.64,1.48,1.23,2.77,2.98,4.48,3.61,6.07,2.22,12.25,4.16,18.44,6.01,2.93.87,3.58,2.35,3.05,5.34-1.03,5.78-3.62,9.74-9.3,12.15-6.9,2.93-13.44,6.72-20.11,10.18-1.02.53-1.91,1.29-3.04,3.32,3.88,1.19,7.81,2.23,11.62,3.61,4.31,1.57,9.28,2.54,12.6,5.36,9.17,7.81,19.2,13.93,30.25,18.52,1.22.51,2.34,1.27,3.51,1.91,0,.49,0,.98,0,1.47-30.81,2.1-61.62,4.19-92.43,6.29-.03.17-.06.35-.09.52,4.59.62,9.19,1.24,13.78,1.86.02.64.04,1.27.06,1.91-8.57,1.71-17.15,3.41-25.72,5.12.04.57.07,1.13.11,1.7,5.19,3.05,11.49-.04,16.94,3.07-4.87.6-9.73,1.21-14.6,1.81,0,.31,0,.62,0,.93,1.73.28,3.44.67,5.18.82,19.18,1.61,38.36,3.1,57.52,4.88,2.15.2,4.15,1.97,6.21,3.01-2.11.7-4.21,1.97-6.33,2-13.83.2-27.67.12-41.51.16-3,0-5.85.31-6.25,4.24-.35,3.38.92,5.53,4.42,6.11,6.53,1.09,13.04,2.23,19.57,3.31,16.3,2.69,32.61,5.35,48.9,8.85-1.55,0-3.1,0-4.65,0-16.24,0-32.49.02-48.73.03-1.5,0-3.01-.05-4.51.04-2.54.16-5.66-.02-5.61,3.63.05,3.62,3.2,3.36,5.72,3.54,9.14.63,18.29,1.2,27.43,1.86,1.35.1,2.68.6,4.02.91.02.53.03,1.07.05,1.6-1.88.31-3.77.86-5.66.88-9.32.1-18.65.06-27.97.09-1.65,0-3.38-.11-4.92.34-1.11.32-1.96,1.51-2.93,2.3.89,1.06,1.59,2.47,2.72,3.08,1.09.59,2.62.48,3.96.48,20.88.04,41.77.03,62.65.08,1.28,0,2.55.36,3.83.55,0,.44.01.89.02,1.33-13.61.89-27.21,1.78-41.95,2.75,1.3,2.3,2,3.49,2.66,4.7,1.8,3.28,3.78,6.47,5.34,9.86,2.78,6.01,1.21,11.58-2.73,16.42-2.54,3.11-2,5.3.86,7.54,3.31,2.6,6.63,5.2,9.86,7.89,3.3,2.74,3.26,4.48-.83,5.45-9.74,2.32-19.58,4.94-29.5,5.62-11.64.8-23.42-.48-35.14-.58-7.35-.06-14.71.33-22.06.65-5.13.22-9.9,3.43-10.23,6.62-.32,3.06,4.11,6.86,9.51,7.41,3.99.4,8.07-.09,12.12-.12,7.11-.05,11.11,3.21,11.51,9.32.29,4.43-1.53,6.77-5.9,7.53-3.7.65-7.48,1.03-11.08,2.03-1.75.49-3.18,2.15-4.75,3.28,1.43,1.45,2.63,3.74,4.34,4.22,15.65,4.35,31.38,8.37,47.09,12.5,2.91.76,5.8,1.61,8.72,2.31,3.48.83,4.2,2.8,2.08,5.51-4.07,5.22-2.05,7.19,4.32,7.28,2.41.03,4.82.23,7.22.06,6.27-.44,11.14.73,15.66,6.3,2.86,3.52,9.05,4.73,13.99,6.06,4.45,1.2,9.24,1.06,13.86,1.66,5.91.77,10.24-1.34,13.11-6.6.88-1.62,2.09-3.07,3.61-5.25,1.88,3.39,3.34,6.01,5.34,9.6,1.9-2.93,3.35-4.94,4.56-7.08,1.85-3.29,4.32-4.14,7.42-1.94,2.56,1.82,4.92,3.92,7.35,5.92,4.59,3.76,7.5,3.66,11.83-.45,5.15-4.88,9.28-5.02,14.57-.49,5.84,5,7.88,4.82,12.41-1.11,5.61-7.33,5.81-7.34,11.62-.32,1.92,2.32,3.94,4.56,5.7,6.99,2.18,2.99,4.46,3.4,7.69,1.46,6.18-3.71,12.43-7.34,18.87-10.59,7.65-3.86,9.37-3.3,15.04,3.25,2.3,2.66,4.68,5.25,7.75,8.7,2.51-6.01,4.54-10.87,7.05-16.91,2.55,4.41,4.5,7.8,6.89,11.93,1.71-2.36,2.85-4.23,4.3-5.81.7-.76,2.16-1.56,2.94-1.3.75.24,1.61,1.87,1.51,2.79-.95,8.67-1.96,17.33-3.34,25.94-.19,1.22-2.29,2.58-3.76,3.03-1.8.55-3.87.24-5.82.24-249.52,0-499.04,0-748.56,0-.3,0-.6,0-.9,0-8.33-.02-8.21-.01-7.87-8.21,1.02-24.5,2.24-48.94,7.46-73.03,9.68-44.73,26.74-86.42,51.47-124.86,13.51-21.01,28.98-40.5,46.39-58.57,48.08-49.91,105.36-84.28,171.8-103.54,26.53-7.69,53.67-11.61,81.22-13.81,25.43-2.03,49.74,1.68,73.67,9.67,1.35.45,2.65,1.06,5.15,2.07ZM312.22,243.82c.11-19.09-3.06-32.77-9.94-45.13-21.5-38.67-60.62-52.58-101.14-41.48-14.39,3.95-27.17,11.29-38.32,21.26-27,24.14-40.96,53.95-37.4,90.49,4.36,44.76,39.7,74.49,84.91,74.55,20.46.03,39.42-6.17,56.08-18.48,28.93-21.39,43.96-50.21,45.8-81.22Z"/>
      <path class="cls-1" d="M202.29,213.46c-.35,3.69-8.1,13.38-11.53,13.73-1.07.11-2.39-.38-3.32-1.01-9.19-6.2-18.29-12.54-27.49-18.73-2.96-2-3.13-3.79-.7-6.46,8.77-9.63,18.61-17.8,30.48-23.37,2.57-1.21,4.78-1.46,5.51,1.95,2.41,11.29,4.71,22.6,7.05,33.9Z"/>
      <path class="cls-1" d="M227.49,287.1c1.05-6.55,5.9-9.11,10.09-12.1,3.06-2.19,5.37.4,7.63,1.95,7.79,5.34,15.45,10.88,23.27,16.17,3.41,2.31,3.7,4.49,1.08,7.67-8.34,10.1-18.66,17.22-31.05,21.39-1.95.66-4.04,1.28-4.61-1.6-2.23-11.32-4.35-22.67-6.41-33.48Z"/>
      <path class="cls-1" d="M275.19,246.46c-5.36-.34-11.99-.44-18.52-1.35-2.26-.31-5.2-2.18-6.12-4.14-1.55-3.29-2.55-7.63,1.01-10.44,10.26-8.1,20.71-15.96,31.25-23.69.75-.55,3.65.26,4.12,1.17,5.06,9.78,7.59,20.22,7.08,31.29-.19,3.99-2.6,5.99-6.32,6.38-3.73.4-7.5.48-12.51.77Z"/>
      <path class="cls-1" d="M212.71,270.63c-9.08.04-14.93-4.44-16.27-13.46-2.45-16.53,8.3-29.67,27.55-25.41,3.15.7,6.73,3.92,8.2,6.92,6.02,12.22.12,32.18-19.49,31.96Z"/>
      <path class="cls-1" d="M226.83,169.14c5.05.63,10.11,1.21,15.15,1.89,2.84.39,3.94,1.75,2.58,4.67-5.08,10.88-9.97,21.86-15.14,32.7-2.29,4.79-5.86,6.1-11.74,5.26-4.56-.65-5.56-4.1-6.27-7.73-1.73-8.84-3.47-17.69-4.99-26.57-1.06-6.21.59-8.16,6.87-8.89,2.24-.26,4.47-.59,6.72-.71,2.25-.12,4.5-.03,6.76-.03l.06-.59Z"/>
      <path class="cls-1" d="M206.41,329.82c-4.84-.73-10.18-1.43-15.48-2.38-3.48-.62-4.9-2.55-3.24-6.15,4.79-10.37,9.49-20.77,14.22-31.17,1.65-3.63,4.58-5,8.42-4.68,3.84.32,6.54,2.11,7.46,6.03,2.41,10.24,4.81,20.48,7.18,30.73.79,3.42-1.09,5.25-4.11,5.77-4.57.78-9.21,1.19-14.45,1.84Z"/>
      <path class="cls-1" d="M158.97,255.41c4.81,0,9.61.04,14.42-.01,4.47-.05,6.9,2.45,8.17,6.4,1.22,3.81.55,7.04-2.88,9.55-9.21,6.72-18.39,13.48-27.51,20.33-2.67,2.01-4.12,1.32-5.6-1.41-5.09-9.4-6.6-19.53-6.55-30.03.01-3.42,1.81-4.87,5.08-4.86,4.96.02,9.91,0,14.87,0,0,0,0,.02,0,.03Z"/>
      <path class="cls-1" d="M237.19,215.97c.33-1.03.68-2.67,1.36-4.15,4.76-10.35,9.59-20.66,14.39-30.99,1.67-3.58,4.24-4.77,7.53-2.26,6.19,4.73,12.24,9.65,18.3,14.54,2.77,2.24.55,3.69-1.06,4.91-9.21,6.95-18.48,13.82-27.74,20.71-1.32.98-2.64,2-4.08,2.79-3.88,2.13-8.88-.76-8.71-5.55Z"/>
      <path class="cls-1" d="M268.7,255.01c6.13.42,12.27.66,18.38,1.31,4.48.48,5.89,2.64,4.33,6.82-2.77,7.44-5.91,14.76-8.9,22.12-1.02,2.5-2.61,3.11-4.93,1.53-8.43-5.74-17.01-11.27-25.26-17.26-5.43-3.95-6.07-7.98-2.21-11.58,1.48-1.39,3.89-2.03,5.98-2.46,2.02-.42,4.18-.14,6.28-.15,2.1-.01,4.2,0,6.3,0,0-.11.02-.22.02-.34Z"/>
      <path class="cls-1" d="M193.86,283.46c-.74,2.27-1.08,3.75-1.67,5.11-4.46,10.18-8.99,20.34-13.46,30.52-1.49,3.4-3.59,3.71-6.31,1.43-5.65-4.71-11.29-9.44-16.94-14.15-2.51-2.09-2.79-4.19-.02-6.25,9.53-7.08,19-14.24,28.68-21.11,1.4-.99,4.27-1.32,5.68-.54,1.83,1.02,2.88,3.45,4.05,4.99Z"/>
      <path class="cls-1" d="M160.13,244.81c-5.09,0-10.19.07-15.28-.02-4.81-.09-5.85-1.32-4.4-5.72,2.07-6.26,4.32-12.46,6.77-18.58,1.81-4.5,4.42-5.6,8.5-3.09,8.42,5.17,16.68,10.62,24.73,16.35,1.58,1.12,3.12,4.53,2.51,5.95-.87,2.01-3.63,4.22-5.79,4.46-5.62.62-11.36.21-17.05.21,0,.15,0,.3,0,.44Z"/>
    </g>
  </g>
</svg>