<?xml version="1.0" encoding="UTF-8"?>
<svg id="Calque_1" data-name="Calque 1" xmlns="http://www.w3.org/2000/svg" viewBox="0 0 751.95 779.43">
  <defs>
    <style>
      .cls-1 {
        fill: #fff;
        stroke-width: 0px;
      }
    </style>
  </defs>
  <g id="UDotzE">
    <g>
      <path class="cls-1" d="M405.8,479.61c-7.17.86-14.34,1.73-21.58,2.6,1.18,2.97,3.82,2.36,6.41,2.22,2.66-.14,5.45-.44,7.95.21,1.32.35,2.79,2.51,2.96,3.99.11.96-2.1,3.23-3.08,3.13-8.16-.89-16.28-2.14-24.39-3.42-2.73-.43-5.4-1.27-8.43-2,2.84,25.79,2.16,29.72-6.06,35.54.62,1.93,1.58,3.92,1.81,5.99.19,1.67.07,4.46-.89,4.99-3.28,1.82-2.86,5.02-3.94,7.69-.65,1.63-1.72,3.34-3.07,4.41-21.14,16.71-42.33,33.37-63.58,49.96-18.45,14.4-37.01,28.67-55.5,43.03-22.49,17.47-44.94,35-67.45,52.45-17.54,13.59-35.15,27.1-52.75,40.64-20.26,15.59-40.47,31.26-60.91,46.61-2.07,1.56-5.86,2.18-8.4,1.52-11.91-3.1-23.63-6.94-35.5-10.25-5.76-1.61-7.34-6.5-9.35-11.02-.34-.77,1.02-2.67,2-3.61,13.62-12.95,27.27-25.86,40.99-38.7,15.19-14.22,30.44-28.38,45.68-42.55,5.26-4.89,10.55-9.74,15.83-14.6.36.38.71.76,1.07,1.13-34.64,32.39-69.29,64.78-104.65,97.84,8.02,2.6,14.93,4.88,21.87,7.07,6.16,1.95,12.37,3.75,18.53,5.7,3.08.97,5.72,1.15,8.57-1.16,30.67-24.81,61.46-49.47,92.19-74.21,39.57-31.87,79.07-63.83,118.69-95.64,24.25-19.48,48.68-38.73,73-58.13,2.22-1.77,4.2-3.82,7.02-6.41-13.91-1.12-26.71-2.15-39.52-3.19-14.4-1.17-28.83-1.98-43.17-3.65-8.01-.93-13.51,2.13-19.06,7.37-21.74,20.54-43.8,40.73-65.7,61.1-20.42,18.99-40.78,38.04-61.18,57.05-1.27,1.18-2.71,2.17-3.66,2.92,2.62-3.07,5.25-6.78,8.49-9.85,17.92-16.94,35.94-33.77,54.01-50.55,22.9-21.27,45.71-42.65,68.95-63.54,5.24-4.71,7-10.21,8.02-16.43,2.16-13.17,4.12-26.38,6.14-39.58.09-.58-.04-1.2-.06-1.76-17-4.87-24.28-23.39-18.61-36.14,3.86-8.67,13.4-15.23,22.92-15.38,11.84-.18,23.69-.43,35.53-.65,2.22-.04,3.53-.58,3.88-3.32,1.41-10.81,3.3-21.55,4.74-32.35.64-4.79,3.38-7.36,7.57-8.89.87-.32,1.76-.57,2.65-.81,10.77-2.81,10.94-2.79,11.68-14.07.52-7.9,4.18-11.14,11.19-10.9,3.51.12,3.18-1.99,2.67-4.71h-15.85c3.17-33.41,6.28-66.29,9.39-99.16.39-.01.77-.02,1.16-.03,0,1.35.03,2.7,0,4.05-.03,1.38-.12,2.76.19,4.12-.17-3.87,2.69-7.65-.73-11.78-1.12-1.35.15-4.71.38-7.14,1.91-20.82,3.74-41.64,5.77-62.45,1.94-19.88,4.07-39.75,6.15-59.62,2.18-20.79,4.47-41.57,6.58-62.37,1.05-10.32,1.86-20.67,2.63-31.02.24-3.22,1.05-5.05,4.72-6.02,18.3-4.84,36.48-10.14,54.73-15.18,7-1.93,10.78.03,13.49,6.62,13.05,31.78,26.01,63.59,39.14,95.34,12.36,29.88,24.93,59.66,37.34,89.52,7.21,17.35,14.22,34.78,21.44,52.13,4,9.62,8.32,19.1,12.34,28.71.52,1.24.61,3.04.12,4.28-8.1,20.49-16.26,40.96-24.67,61.33-.69,1.67-3.23,3.55-4.99,3.63-10.26.5-20.55.43-30.83.69-13.23.33-26.46.87-39.7,1.18-6.6.16-13.2.03-20.09.03v6.32c1.06.12,1.97.43,2.81.29,12.14-1.99,21.69,4.17,31.33,9.97,4.88,2.94,9.33,6.83,14.53,8.91,4.06,1.63,8.98,1.56,13.5,1.46,6.26-.14,12.54-1.77,18.2,2.67,1.1.87,3.28.43,4.97.47,9.09.25,18.19.41,27.27.73,1.25.04,3.21.54,3.57,1.37,2.09,4.79,6.96,5.36,10.77,7.39,6.78,3.62,13.87,6.66,20.63,10.32,4.68,2.53,9.68,5.18,8.74,12.04-.09.63.89,1.53,1.53,2.12,2.85,2.59,5.61,5.33,8.71,7.59,1.76,1.28,4.11,2.34,6.24,2.43,9.58.41,15.76,5.81,18.73,14.08,1.66,4.63,4.56,7.58,7.75,10.53,9.39,8.68,19.03,17.1,28.5,25.69,3.55,3.22,4.09,6.97,1.76,10.14-3.69,5.02-8.41,6.71-12.53,4.26-3.12-1.85-5.49-3.28-9.16,0-5.54,4.95-12.8,4.54-19.75,3.59-6.7-.92-8.28.67-8.67,7.48-.29,4.98-.96,10.18-5.93,13.39-.85.55-1.18,2.25-1.34,3.47-.48,3.55-.75,7.12-1.11,10.69-.59.14-1.18.29-1.77.43,55.16,60.35,110.31,120.7,165.59,181.19-1.08,4.44-4.17,5-8.58,4.38-16.88-2.36-33.81-4.36-50.7-6.6-1.27-.17-2.59-.95-3.61-1.79-24.49-20.17-48.96-40.36-73.39-60.6-16.85-13.96-33.56-28.07-50.46-41.96-19.39-15.94-38.93-31.7-58.37-47.59-9.9-8.09-20.03-15.94-29.36-24.65-2.7-2.52-3.47-7.53-4.26-11.58-2.03-10.41-3.61-20.91-5.28-31.39-.44-2.77-2.24-2.8-4.39-2.75-15.87.39-31.74.74-47.61,1.06-3.39.07-6.78-.08-10.19-.14,1.65-.63,3.32-1.74,5-1.77,12.92-.18,25.85.03,38.76-.22,24.2-.46,48.4-1.13,72.59-1.75.59-.02,1.18-.42,1.76-.65-13.18-3.67-26.36-1.37-39.47-1.3-13.25.07-26.49.87-39.74,1.06-13.17.2-26.34.04-40.12.04.64,2.3.95,3.44,1.26,4.58ZM69.89,760.72c6.76-5.07,13.51-10.14,20.27-15.21-.33-.42-.66-.84-.98-1.26-6.55,5.36-13.11,10.73-19.66,16.09-5.2,3.77-10.4,7.55-15.59,11.32.3.39.59.78.89,1.17,5.03-4.03,10.05-8.07,15.08-12.1ZM525.61,268.4c-2.21-5.83-4.29-11.72-6.66-17.49-4.75-11.56-9.65-23.05-14.49-34.57-.18-.75-.26-1.53-.54-2.23-9.59-24.19-19.24-48.35-28.81-72.55-16.24-41.06-32.44-82.14-48.67-123.21-1.77-4.48-3.68-8.91-5.52-13.36l-1.27.54c17.41,43.91,34.83,87.82,52.24,131.73-.36.17-.72.34-1.08.51-.65-1.25-1.41-2.45-1.92-3.75-1.98-5.02-3.83-10.09-5.83-15.1-9.93-24.88-19.97-49.72-29.81-74.63-5.03-12.74-9.68-25.64-14.69-38.39-.56-1.43-2.75-3.56-3.64-3.33-18.91,5-37.76,10.23-56.52,15.72-1.19.35-2.05,3.18-2.29,4.96-.2,1.49,1.16,3.14,1.1,4.7-.16,4.44-.69,8.87-1.08,13.3-1.03,11.63-2.05,23.25-3.11,34.88-1.41,15.42-2.85,30.84-4.3,46.61,1.53-.54,2.64-1.01,3.78-1.34,8.47-2.44,8.99-2.04,9.07,6.52.02,1.84.3,3.69.31,5.53.04,5.95.02,11.9.02,17.97-5.22.76-9.81,1.42-15.09,2.18.32-4.82.57-8.73.83-12.64-.25-.01-.5-.02-.76-.04-1.55,15.65-3.09,31.3-4.64,46.95.38.05.76.1,1.14.15.22-1.57.5-3.14.64-4.72.42-4.73.55-9.5,1.22-14.2,1.49-10.53,1.59-10.52,12.34-11.99.61-.08,1.4-.39,1.8-.12.99.66,2.51,1.54,2.57,2.42.58,8.59,1.01,17.2,1.14,25.81.02,1.11-1.83,3.04-3.04,3.25-5.86,1.02-11.81,1.58-17.76,2.31-.19,1.83-.37,3.6-.53,5.22,7.02-.93,13.9-1.84,21.14-2.81.47,9.87,1.02,19.06,1.2,28.26.02.94-2.02,2.55-3.29,2.77-4.99.87-10.06,1.36-15.11,1.9-5.78.62-5.79.58-5.23-5.29.66-7,1.32-13.99,1.99-20.99-.38-.03-.76-.06-1.14-.09-3.97,46.15-7.94,92.29-11.94,138.76,3.04,0,5.01,0,6.99,0q5.66-.02,4.97-5.97c-2.09.22-4.17.52-6.26.63-3.04.17-4.18-1.63-3.93-4.37,1.48-16.21,3.02-32.42,4.55-48.63.64-6.73,1.11-13.48,2.1-20.16.29-1.92,1.9-4.97,3.28-5.19,7.53-1.21,15.17-1.7,22.97-2.45v27.44c3.12-58.91-.2-117.85.49-176.78.76.7.89,1.42.9,2.13.04,11.36-.1,22.72.13,34.08.48,23.38,1.41,46.75,1.66,70.12.22,21.28-.12,42.56-.42,63.84-.07,5.02-.67,10.1-1.66,15.02-.29,1.44-2.64,3.18-4.3,3.5-4.35.86-8.86.92-13.27,1.53-.9.12-1.66,1.23-2.48,1.88.89.56,1.72,1.36,2.69,1.61.82.2,1.8-.31,2.72-.39,4.21-.36,8.43-.67,12.64-1,.04.57.08,1.14.12,1.7-4.48.42-9,.62-13.43,1.35-1.87.3-4.77,1.38-5.1,2.64-1.04,4.06-1.1,8.38-1.54,12.59.81-.74,1.23-1.55,1.43-2.42,1.84-7.91,1.83-7.83,9.94-7.95,10.08-.16,20.18-.2,30.23-.89,3.23-.22,4.23.78,4.67,3.4.68,4.09,1.13,8.23,2.02,12.28.31,1.4,1.35,3.22,2.54,3.74,4.51,2,6.75,5.3,6.55,10.11-.18,4.27,1.92,5.1,5.72,4.95,10.55-.44,21.11-.55,31.67-.81,18.02-.44,36.04-.94,54.06-1.29,2.63-.05,4.33-.74,5.35-3.33,7.24-18.48,14.66-36.89,21.74-55.44.88-2.3.76-5.53-.13-7.86-7.46-19.39-15.19-38.68-22.89-57.99-11.57-29.02-23.19-58.01-34.77-87.03-12.38-31.03-24.74-62.06-37.07-93.1-1.61-4.06-3.01-8.2-4.51-12.3.39-.14.78-.28,1.17-.42,1.96,5.13,3.86,10.29,5.89,15.4,17.54,44.19,35.03,88.41,52.69,132.55,13.67,34.16,27.63,68.19,41.22,102.38,1.08,2.71,1.26,6.52.24,9.21-6.17,16.27-13.57,32.11-18.99,48.62-3.1,9.44-8.18,11.49-17.21,11.53-26.54.12-53.08,1.15-79.62,1.91-1.07.03-2.11.91-3.17,1.4.18.38.35.76.53,1.14,1.37,0,2.73.03,4.1,0,29.17-.66,58.34-1.39,87.51-1.9,3.86-.07,5.69-1.3,6.93-5.02,2.14-6.4,5.03-12.55,7.55-18.83,4.99-12.44,10.14-24.82,14.74-37.4.98-2.68.6-6.35-.36-9.16-2.34-6.84-5.45-13.4-8.13-20.13-12.99-32.62-25.94-65.26-38.91-97.89-1.54-3.86-3.04-7.74-4.56-11.61.35-.15.69-.3,1.04-.45.7,1.42,1.5,2.81,2.09,4.27,9.26,23.15,18.49,46.31,27.78,69.44.51,1.26,1.56,2.31,2.34,3.47.15,1.31.03,2.73.49,3.91,4.38,11.12,8.74,22.24,13.37,33.26,2.14,5.09,4.85,9.93,7.31,14.88,1.56,5.32-.14,10.12-2.22,14.94-3.29,7.63-6.41,15.34-9.59,23.01-4.03,9.73-8.06,19.46-12.08,29.2.46.25.92.5,1.38.76,1.01-1.79,2.24-3.49,3.01-5.38,7-17.27,13.85-34.6,20.91-51.85,1.64-4,1.33-7.39-1.53-10.58ZM575.63,488.99c-3.36-1.26-6.72-2.52-10.45-3.92.54,1.91,1.02,3.6,1.68,5.92-4.16-1.27-7.41-2.26-10.86-3.31-.54,8.67,1.36,15.76,7.56,21.33,4.87,4.38,10.57,3.09,12.81-3.07,2.09-5.76,1.7-11.45-.81-17.02,2.66.67,5.4,1.15,7.95,2.12.93.36,1.88,1.8,2.04,2.87.44,2.98.48,6.02.67,9.03.82-3.12.84-6.19.81-9.26-.03-2.56.47-5.26-2.86-6.52-3.34-1.26-6.24-1.35-8.54,1.83ZM636.05,579.63c-5.96-6.81-11.92-13.62-17.88-20.43-.39.35-.78.7-1.17,1.06,6.23,6.58,12.46,13.15,18.68,19.73.57.89,1.02,1.88,1.72,2.64,19.43,21.09,38.89,42.15,58.34,63.24,4.32,4.68,8.57,9.42,12.86,14.13-.27.25-.54.5-.81.75-16-17.14-32-34.29-48.01-51.43l-.91.87c29.2,31.46,58.39,62.93,88.12,94.97v-2.96c.83.42,1.62.82,2.42,1.23-.27-1.33-.89-2.15-1.59-2.9-26.38-28.77-52.72-57.58-79.18-86.29-10.74-11.65-21.72-23.08-32.58-34.6ZM351.43,437.97c-.44,1.61-.87,3.23-1.33,4.84-4.23,14.71,2.09,27.66,15.29,33.75,11.87,5.48,24.36,2.33,36.77.68-.8-1.02-1.76-1.65-2.72-1.66-9-.09-18.01.23-26.99-.18-8.01-.37-14.7-4.26-18.5-11.22-10.51-19.22,5.68-39.61,24.43-39.24,12.01.24,24.02-.05,36.04-.14,1.01,0,2.02-.36,3.03-.55-1.12-1.13-2.15-1.42-3.17-1.41-12.03.1-24.1-.33-36.06.63-5.89.47-11.89,2.9-17.22,5.65-3.75,1.94-6.46,5.9-9.64,8.96-.75-4.7,2.77-7.03,5.78-9.06,4.4-2.97,9.31-5.18,14.83-8.16h-27.72c3.63.68,7.3,1.17,10.96,1.11,2.96-.05,4.2.83,3.51,4.69-1.93-.84-3.51-1.53-4.59-2-2.49,1.5-4.79,3.15-7.31,4.35-8.19,3.91-12.38,10.68-12.85,19.36-.9,16.72,11.53,29.31,29.51,30.03-1.05-.76-1.76-1.28-2.46-1.79-11.99-8.69-17.14-21.47-13.28-33.64.6-1.88,2.46-3.36,3.74-5.02ZM530.28,540.86c4.21,3.36,8.42,6.72,12.64,10.09,2.92,2.67,5.72,5.48,8.78,7.98,26.19,21.41,52.44,42.76,78.66,64.14,3.31,2.7,6.2,7.02,9.91,7.87,7.12,1.63,14.68,1.3,23.23,1.86-9.27-9.69-17.59-18.5-26.03-27.19-11.36-11.7-22.77-23.37-34.26-34.95-5.37-5.41-10.99-10.56-16.49-15.83-.57-1.04-.96-2.26-1.74-3.09-7.19-7.63-14.38-15.25-21.76-22.7-1.13-1.14-3.19-1.8-4.87-1.89-20.44-1.09-40.9-2.01-61.35-3.02-5.68-.28-11.35-.72-17.02-1.08,16.51,14.96,33.26,28.97,50.12,42.84,16.06,13.2,32.31,26.16,48.34,39.39,21.86,18.04,43.57,36.26,65.37,54.37,12.56,10.42,25.09,20.89,37.83,31.08,4.53,3.63,8.31,8.35,15.12,8.78,8.72.56,17.35,2.3,26.04,3.41,4.91.63,9.85,1,14.78,1.49.32-.53.64-1.07.96-1.6-2.68-2.27-5.59-4.33-8.01-6.86-16.28-17.07-32.38-34.3-48.66-51.36-20.73-21.73-41.66-43.27-62.34-65.05-15.4-16.21-30.62-32.59-45.7-49.09-2.75-3.02-5.46-3.84-9.54-2.89,17.18,18.01,34.02,35.9,51.12,53.53,17.04,17.57,34.35,34.88,51.53,52.3-.31.41-.63.81-.94,1.22-1.53,0-3.06.09-4.58-.01-10.28-.7-20.55-1.9-30.84-1.98-5.56-.04-9.52-1.97-13.56-5.38-13.63-11.52-27.51-22.74-41.25-34.14-22.99-19.09-45.94-38.22-68.9-57.33-2.01-1.67-4.04-3.32-6.06-4.98,4.35-.99,8.38-1.45,12.23-.83,2.58.42,4.92,2.37,7.36,3.64-4.64-.82-9.28-1.63-14.36-2.52.32,1.58.27,1.99.45,2.14,10.14,8.51,20.24,17.07,30.48,25.47,27.59,22.65,55.41,45.05,82.73,68.02,5.21,4.38,10.36,3.52,17.14,4.28-8.11-6.75-15.13-12.66-22.22-18.48-10.34-8.5-20.78-16.88-31.09-25.4-16.73-13.82-33.43-27.7-50.06-41.64-1.38-1.15-2.15-3.03-3.2-4.57ZM565.4,402.03c1.47-.58,2.59-1.03,3.71-1.47-.83-.95-1.47-2.28-2.51-2.78-9.29-4.4-18.64-8.69-28-12.94-2.36-1.07-4.38-2.14-7.5-1.9-15.94,1.18-31.94,1.64-47.91,2.32-1.14.05-2.47.13-3.39-.39-3.62-2.02-7.25-4.08-10.61-6.5-3.97-2.87-7.4-2.06-10.9.69-4.36,3.42-7,8.88-5.34,12.37,1.97,4.13,2.13,8.22,1.09,12.53-1.8,7.47-3.46,14.97-5.36,22.41-.82,3.2-.22,5.11,3.1,6.46,5.54,2.26,10.87,5.02,16.32,7.53,21.1,9.71,42.21,19.42,63.33,29.1,9.17,4.21,18.38,8.35,27.42,12.45,2.42-4.15,4.51-7.75,6.41-11.01-2.51.09-45.36-34.37-48.31-40.2,15.64,12.91,30.31,25.02,44.98,37.13.24-.28.47-.56.71-.84-12.31-10.85-24.62-21.7-36.93-32.55.34-.43.69-.85,1.03-1.28.96.78,1.96,1.53,2.89,2.35,11.99,10.62,23.92,21.31,36.04,31.77,1.27,1.1,3.77,1.42,5.57,1.18,12.75-1.71,25.41-4.36,38.2-5.3,9.22-.68,18.6.81,28.02,1.34-23.82-20.65-47.88-41.5-72.06-62.46ZM280.19,473.7c-.93,6.57-1.89,12.75-2.63,18.96-.28,2.34-.4,4.05-3.56,4.09-3.28.04-4.11-1.98-4.13-4.28-.04-5.01.52-10.02.5-15.04,0-1.41-.88-3.82-1.8-4.05-2.98-.75-3.27,1.57-3.49,3.94-.44,4.89-.92,9.79-1.84,14.6-.25,1.34-2.07,2.39-3.17,3.57-1.15-1.38-2.87-2.6-3.32-4.18-.69-2.41-.5-5.08-.68-7.63-.25,0-.49,0-.74,0-2.26,13.65-4.53,27.3-6.88,41.45,5.96.51,11.58,1.01,17.2,1.47,8.72.71,17.43,1.51,26.16,1.95,1.25.06,3.57-1.52,3.73-2.59,1.29-8.49,2.16-17.05,3.19-25.59.94-7.82,1.91-15.64,2.87-23.47l1.46-.03c.09,1.16.38,2.35.24,3.49-1.75,14.01-3.6,28.01-5.33,42.02-.25,2.03-.03,4.11-.03,6.16.43.02.86.05,1.3.07,2.7-17.64,5.4-35.28,8.17-53.37-9.36-.54-18.18-1.05-27.24-1.57ZM335.49,474.44c-8.94-8.9-10.95-19.23-8.06-29.99,3.02-11.26,10.82-18.44,23.03-20.17l-.36-1.46h-42.21c0,.42-.01.84-.02,1.26h12.63c-.02.27-.04.54-.06.81-2.06.84-4.11,1.67-6.47,2.64-.08-.17-.47-1-.66-1.38-1.88.74-3.32,1.77-4.78,1.79-5.36.07-10.73-.18-16.09-.35-1.73-.06-3.62-.83-5.14-.34-11.07,3.57-17.67,20.87-11.92,31.13.62,1.11,3.22,2.19,3.1,2.48-2.11,4.72,1.85,4.38,3.74,5.82.99,2,2.32,4.71,3.93,4.9,9.63,1.12,19.33,1.66,29.01,2.39.04-.42.08-.83.12-1.25-2-.22-3.99-.43-6.54-.71,1.49-.85,2.37-1.34,3.9-2.22-1.91-.79-3.05-1.26-4.18-1.73.41-.02.83-.04,1.24-.06-5.29-10.96-7.11-21.76.24-32.18,6.46-9.15,21.4-14.42,30.98-10.36-7.5,2.61-15.28,3.94-19.74,10.82-4.27,6.58-6.22,13.68-4.22,21.55,1.47,5.78,12.59,16.4,18.53,16.61ZM303.99,388.08c1.96.13,3.02.22,4.07.26,15.09.51,30.17,1.19,45.27,1.43,5.16.08,8.57,1.71,9.43,5.64,19.24,0,37.88-.06,56.52.06,2.81.02,3.73-1.03,4.13-3.6.76-4.92,2.97-8.92,7.47-11.62,1.36-.82,2.01-2.83,3.09-4.44h-107.82c0,.33,0,.67,0,1h91.01c0,.31,0,.62,0,.93h-89.8c0,.46,0,.92,0,1.38h71.89c0,.49,0,.97-.01,1.46-1.94,0-3.88,0-5.82,0-27.31.14-54.62.48-81.93.24-5.6-.05-5.34,3.74-7.5,7.27ZM431.24,398.69q1.9-10.77,10.74-9.97c1.08-1.96,2.2-3.98,3.44-6.23-10.02-.34-15.53,3.72-17.64,13.11-1.82,8.09-3.23,16.27-4.78,24.42-1.12,5.86-3,7.54-8.64,7.54-8.17,0-16.35-.01-24.52-.02-5.09,0-10.18,0-15.28,0,1.92,1.82,4.08,2.39,5.63,3.7,6.42,5.44,12.82,10.78,22.86,11.46-1.86-1.51-3.1-2.52-4.74-3.85,8.53-.94,16.63-1.83,24.64-2.72v21.1c3.77-.2,7.51-.83,11.07-.3.89.13,2.28,4.49,1.54,5.96-.74,1.49-4.04,2.77-5.84,2.39-2.4-.52-4.44-2.73-6.94-4.43v6.08c2.65,0,5.11.17,7.53-.04,4.48-.37,8.15-.02,6.52,6.42,25.15-.82,49.76-1.62,74.36-2.43-4.85-3.43-9.69-4.46-15.39-3.71-10.68,1.4-21.49,1.87-32.25,2.45-5.69.3-6.29-.49-5.23-6.04.48-2.53,0-3.99-2.3-5.26-2.82-1.55-5.87-3.1-8-5.4-5.31-5.73-12.09-5.83-19-5.97-1.35-.03-2.7-.25-4.05-.38.03-.41.06-.83.08-1.24h14.96c-4.08-5.34-11.2-8.49-6.88-15.98-1.46-.62-2.15-1.14-2.86-1.18-4.43-.26-5.73-2.36-4.64-6.67,1.46-5.78,1.64-6.06,7.18-5.32.86.11,1.8-.41,2.7-.64-.81-.86-1.52-2.34-2.43-2.49-4.01-.62-5.3-1.94-4.21-6.46,1.12-4.63,2.56-6.61,7.29-4.76.34.13.86-.18,2.26-.53-2.84-1.04-4.89-1.79-7.16-2.63ZM362.15,325.73v-15.79c.38,0,.77,0,1.15,0v14.66c.27,0,.54.01.8.02.28-1.98.56-3.97.83-5.95,1.62,5.37,5.64,7.8,10.2,5.83,6.99-3.02,10.3-.47,9.91,7.18-.31,6.26-.06,12.55-.06,18.58h13.48c.28-3.37.92-6.3.64-9.14-.28-2.84-1.71-5.55-2.24-8.38-.59-3.11-2.03-5.01-4.93-6.58-2.16-1.16-4.26-3.58-5.03-5.89-1.25-3.73-1.51-7.82-1.93-11.78-.31-2.91-1.6-3.94-4.51-3.78-9.83.54-19.67.8-29.48,1.46-1.11.08-2.75,1.9-3.02,3.16-.9,4.19-1.54,8.47-1.77,12.74-.12,2.17,1.17,4.39,1.28,6.62.22,4.52.07,9.06.07,13.59-.39.03-.77.07-1.16.1-.68-1.05-1.35-2.11-2.58-4.01-.67,4.99-1.22,9.13-1.78,13.27h7.81c0-7.02-.08-13.74.07-20.45.03-1.3.94-2.58,1.44-3.87.45.19.89.37,1.34.56.14,2.93.27,5.87.41,8.8,2.51-4.36-.12-11.98,9.04-10.94ZM561.67,524.47c-2.18-5.11-3.48-9.67-5.9-13.52-4-6.38-9.17-12.04-13-18.51-3.75-6.34-8.81-7.27-15.6-5.74,2.08,11.68,4.17,23.39,6.26,35.1-.6.1-1.2.2-1.79.31-2.09-11.9-4.18-23.8-6.27-35.67h-7.39c1.9,11.57,3.65,22.79,5.72,33.96.21,1.16,2.24,2.66,3.56,2.81,5.95.66,11.95,1,17.94,1.22,4.98.18,9.97.04,16.47.04ZM522,522.58c-1.74-10.39-3.32-20.67-5.22-30.9-1.44-7.75-1.29-8.57,6.2-7.79,7.11.74,15.62-2.54,20.59,5.91-1.45-8.06-6.8-12.86-15.42-12.89-9.86-.03-19.72.53-29.57.84-1.38.04-2.92-.21-4.09.32-.69.31-.82,1.9-1.14,2.93-.03.08.42.31.62.45.97-.64,1.94-1.28,3.21-2.11v6.37c-3.48.9-6.33.63-8.44-2.3-1.31-1.81-2.23-4.46-4-5.25-2.05-.92-4.82-.21-8.56-.21,2.49,1.09,4.19,1.27,4.65,2.12,3,5.59,5.83,11.28,8.51,17.04,2.13,4.58,5.6,6.48,10.53,6.39,2.92-.05,5.85.49,8.76.4,4.45-.14,6.32,1.99,6.69,6.25.29,3.35,1.3,6.64,1.63,9.99.35,3.53,2.15,3.49,5.07,2.45ZM417.37,374.69c.17-.59.34-1.18.5-1.77-4.91-3.14-9.84-6.25-14.72-9.43-3.58-2.33-3.54-4.2.17-6.39,1.45-.85,3.04-1.66,4.66-1.97,8.99-1.72,18-.87,26.32,2.48,7.93,3.2,15.26,7.9,22.87,11.91,2.19,1.16,4.42,2.23,6.63,3.33.23-.44.46-.88.69-1.31-4.96-3.17-9.9-6.38-14.89-9.52-9.49-5.99-19.27-10.5-31.11-9.39-7.75.73-15.63-.11-23.46-.11-4.6,0-9.89-1.09-13.59.81-3.29,1.69-6.13,1.92-9.33,1.94-14.16.06-28.32.03-42.48.03,0,.39,0,.78,0,1.17h43.41c.02.63.03,1.26.05,1.9h-45.78c.02.59.05,1.17.07,1.76,11.39,0,22.78,0,34.17,0,6.9,0,9.26,2.85,8.03,9.78-.23,1.29-.71,2.54-1.2,4.21h41.39c-6.95-4.7-13.01-8.8-19.08-12.9.23-.34.46-.68.69-1.02,6.52,4.16,12.98,8.42,19.6,12.4,1.87,1.12,4.23,1.42,6.37,2.1ZM339.2,330.75c1.03-9.72,2.33-18.99,2.93-28.3.66-10.3.39-10.21,10.51-11.74,1.19-.18,3.04-2.27,2.98-3.39-.23-4.24,1.02-6.57,6.12-5.9v-15.6h-5.88c-.15-3.38-.29-6.51-.46-10.41-3.98.4-7.85,1.03-11.74,1.12-2.99.07-3.88,1.25-4.16,4.12-1.52,15.74-3.33,31.45-4.87,47.18-.74,7.58-1.12,15.19-1.67,22.93h6.24ZM470.87,478.37l-1.43.51c2.19,12.93,4.26,25.88,6.74,38.75.27,1.38,2.81,3.04,4.48,3.29,5.13.77,10.35,1.08,15.54,1.25,6.07.19,12.16.05,18.7.05-.43-2.55-.83-4.93-1.24-7.31-1.58-9.13-1.58-9.41-10.97-9.25-7.46.13-12.99-2.12-16.07-9.31-1.02-2.37-2.43-4.66-4.05-6.67-1.06-1.31-2.81-2.06-4.26-3.06-1.72-1.19-3.68-2.16-5.09-3.65-1.13-1.2-1.6-3.04-2.36-4.6ZM575.4,526.51c-.23.48-.46.96-.69,1.44,8.17,12.17,165.04,176.19,169.65,176.98-.91-1.21-1.55-2.23-2.35-3.09-8.39-9.01-16.83-17.97-25.21-26.98-18.36-19.75-36.68-39.55-55.06-59.29-13.74-14.76-27.56-29.45-41.32-44.2-12.92-13.85-25.73-27.79-38.76-41.53-1.54-1.62-4.15-2.24-6.26-3.32ZM324.8,500.07c-4.39-.11-6.72-1.63-7.04-5.38-.26-3.1-.36-6.22-.53-9.33l-1.12-.03c-2.12,14.09-4.29,28.18-6.24,42.3-.11.82,1.55,2.63,2.52,2.72,7.94.79,15.9,1.47,23.87,1.83,7.07.32,7.9-.81,7.16-8.08-7,1.72-12.55-1.38-14.03-8-.77-3.44-1.54-6.93-1.75-10.43-.47-7.76.08-15.34,5.08-21.95,1.32-1.75,1.84-4.09,2.78-6.28-7.34-1.17-7.28-1.16-8.18,5.59-.76,5.7-1.68,11.37-2.53,17.03ZM337.67,419.52c.44-7.58.8-13.72,1.18-20.3h-35.94c-.94,7.56-1.87,15.11-2.92,23.6,4.13-1.25,7.56-2.41,11.05-3.32,3.88-1.01,7.84-2.55,11.74-2.47,5,.11,9.96,1.61,14.89,2.5ZM332.53,517.8c3.74,5.84,6.28,6.25,10.72,2.7,4.82-3.85,5.38-9.38,6.08-14.84,1.4-10.87-3.76-19.07-11.04-26.34-.18-.18-.83.1-1.68.22.62,1.17,1.13,2.12,1.69,3.16-4.66,1.04-5.93,4.93-6.95,8.44-.9,3.12-.68,6.58-.82,9.9-.05,1.13.33,2.27.63,4.18.01.02,1.44.96,1.43,1.89-.06,5.92,1.78,10.75,7.44,13.74-.27.3-.54.6-.81.89-1.97-1.16-3.94-2.32-6.69-3.94ZM117.71,722.7c.32.35.63.71.95,1.06,76.72-59.86,153.45-119.72,231.02-180.24-1.82-.25-2.76-.68-3.13-.39-76.3,59.82-152.57,119.7-228.83,179.57ZM342.24,224.54c6.11-.69,11.59-1.18,17.01-2.04,1.12-.18,2.9-1.75,2.89-2.66-.09-7.22-.41-14.44-1.02-21.63-.08-.92-2.07-2.07-3.36-2.4-1.24-.31-2.71.28-4.07.52-8.92,1.57-9.13,1.54-10.27,10.34-.75,5.84-.8,11.78-1.17,17.87ZM326.52,361.9c-.2,3.08.02,5.49-.59,7.65-1.06,3.74.41,4.66,3.81,4.63,10.79-.08,21.58-.19,32.36.07,4.14.1,5.62-1.49,5.36-5.35-.09-1.38.28-2.9-.19-4.12-.43-1.12-1.68-2.74-2.58-2.76-12.59-.18-25.19-.12-38.17-.12ZM405.21,466.57h15.21c.36-8.64.78-17.29.98-25.94.01-.62-1.65-1.87-2.49-1.83-5.12.21-10.22.7-15.17,1.08.51,9.19.97,17.58,1.48,26.69ZM412.57,398.8c.01-.42.02-.84.03-1.25h-14.35c2.14.38,3.91.7,5.68,1.02.27.49.53.98.8,1.47-13.76-1.94-19.47,3.49-15.84,17.75-5.04-6.03-4.32-9.16,2.82-20.61-3.02,2.54-6.35,5.2-7.78,8.65-1.41,3.4-.91,7.6-1.22,11.09-4.58-3.02-3.79-7.34,4.24-18.92-6.49,1.32-12.45,12.04-8.59,18.25.99,1.59,3.69,2.39,5.77,2.94,1.58.42,3.41-.15,5.81-.32.07-.15.64-1.38,1.23-2.65h15.26c-3.06-6.04-2.15-11.1,2.37-15.42-1.05-.68-1.86-1.2-3.81-2.46,3.47.22,5.53.35,7.58.48ZM375.89,416.3c-2.62-7.25,1.47-12.64,5.5-17.28-4.02.28-8.46,1.33-12.66.71-8.37-1.23-13.85,3.35-19.2,8.35-.82.76-.2,3.07-.25,4.66,3.35-.52,4.34,5.44,8.37,3.06.34.6.67,1.2.82,1.46,5.69-3.63,11.22-.84,17.41-.96ZM360.98,158.55c-3.6.54-5.71,1.13-7.8,1.11-4.37-.04-5.61,2.1-5.84,6.21-.42,7.48-1.44,14.93-2.26,22.84,4.79-.67,9.18-1.15,13.49-2,.94-.18,2.29-1.68,2.31-2.6.18-8.28.11-16.56.11-25.57ZM309.31,475.47c-2.74,18.3-5.38,35.98-8.02,53.64,6.26,1.12,6.17,1.11,6.92-4.34.85-6.22,1.88-12.42,2.85-18.63,1.54-9.81,3.09-19.62,4.72-29.93-2.23-.26-3.97-.46-6.46-.75ZM353.11,419.21c-1.74-1.32-2.47-1.83-3.15-2.41-4.64-3.92-4.81-8.19-.17-11.89,3.46-2.75,7.23-5.11,11.1-7.8-.16-2.73-.99-5.27-4.6-5.36-4.58-.12-9.17-.03-13.76-.03-.98,6.81-2.22,13.26-2.76,19.76-.6,7.22-.32,7.22,6.7,7.28,1.82.02,3.63.24,6.64.45ZM357.49,450.01c7.53,0,14.33.04,21.13-.05.79,0,1.8-.49,2.32-1.09,2.47-2.84,4.8-5.79,6.78-8.22-3-1.01-7.08-2.43-11.19-3.74-2.14-.68-4.43-1.91-6.49-1.63-7.52,1.02-10.18,6.88-12.56,14.73ZM449.4,390.33c-4.88-.97-7.24.2-8.01,4.53-1.02,5.73-2.52,11.38-3.63,17.1-1.36,6.98-2.53,14-3.77,20.94,5.26,1.62,7,.23,7.81-4.76,2.04-12.52,4.94-24.89,7.59-37.8ZM544.55,491.4c5.52,11.58,17.89,19.25,18,33.5h15.58c-1.82-4.21-3.39-7.85-5.02-11.62-10.15,2.17-15.81-4.05-19.48-21.87h-9.08ZM359.72,149.79c0-8.37.09-16.16-.1-23.94-.03-1.21-1.64-3.49-2.01-3.39-2.34.63-6.31,1.53-6.5,2.81-1.26,8.55-1.71,17.22-2.46,26.33,4.13-.68,7.71-1.26,11.06-1.81ZM594.65,481.23c2.27-4.78,7.51-5.11,10.62-.67,2.02-4.09,6.85-4.16,9.09-1.07,1.98-.97,3.68-2.41,5.45-2.51,1.95-.11,3.98,1,6.13,1.63-.02-5.32,5.23-3.11,8.26-5.16-5.21.25-10.41.5-15.62.74-.06-.48-.12-.96-.17-1.45,2.02-.37,4.03-.74,6.05-1.11-.03-.21-.06-.42-.09-.64h-6.02c.65-1.03,1.11-1.76,2.11-3.37-5.84.36-10.78.67-15.73.98,0,.46.02.91.03,1.37h10.39c0,.34-.01.68-.02,1.02-6.3.41-12.59.82-18.89,1.23,0,.3.02.6.03.89h18.98c0,.53,0,1.06,0,1.59h-22.46c-.15-1.19-.34-2.66-.58-4.51-.97.45-2.14.66-2.2,1.05-.81,5.26-4.68,4.46-8.3,4.44-3.23-.02-6.46.19-9.69.4-.81.05-1.6.52-2.71.9,4.72,2.46,10.49-2.12,14.05,3.46,4.46-3.41,8.32-3.23,11.32.79ZM261.89,464.59c-.24-2.25-.34-3.89-.6-5.51-.64-4.03-2.17-8.12-1.86-12.07.88-11.45,7.58-18.76,18.04-23.1-2.93.67-5.52,2.31-8.33,2.85-8.86,1.71-13.63,7.69-15.65,15.63-2.26,8.92-.09,17.15,7.28,23.32,1.15.97,3.1.98,4.68,1.44.12-.51.25-1.01.37-1.52-1.65-.44-3.31-.87-3.94-1.04ZM377.09,325.61c-2.57,8.53-5.03,16.69-7.81,25.9,5.39-.37,9.24-.63,13.5-.92,0-7.06-.18-13.75.06-20.43.16-4.43-1.88-5.35-5.75-4.55ZM420.07,421.67c1.65-8.77,3.17-16.81,4.7-24.95-1.62.55-2.86,1.25-4.16,1.35-5.53.44-8.5,3.13-8.89,8.84-.17,2.4-1.56,4.72-1.68,7.12-.07,1.47.81,3.63,1.97,4.37,2.23,1.43,4.97,2.08,8.05,3.26ZM303.04,397.18c11.11,0,21.47,0,31.83,0,5.56,0,5.58-.02,4.79-6.28h-35.48c-.25,1.35-.57,3.11-1.15,6.28ZM544.84,479.59c.09-.17.19-.34.28-.52-1.1-.65-2.14-1.46-3.31-1.94-13.05-5.33-26.12-10.61-39.18-15.91-1.13-.46-3.26-1.27-3.22-1.42,1.28-4.44-2.94-3.31-4.63-4.45-2.27-1.52-4.97-2.39-7.48-3.56-6.88-3.21-13.76-6.43-20.64-9.65-.27.43-.53.86-.8,1.29,6.29,4.13,12.24,8.97,18.95,12.22,8.81,4.27,18.24,7.26,27.38,10.87,10.9,4.31,21.77,8.7,32.66,13.05ZM501.47,339.06c7.32,1.51,8.31,1.07,11.09-5.86,7.41-18.44,14.78-36.89,21.98-55.41.68-1.76.63-4.26-.07-6.03-4.35-11.03-8.96-21.95-13.51-32.9-1.52-3.65-3.14-7.25-4.72-10.87-.48,1.75-.06,3.14.48,4.49,5.25,13.12,10.63,26.2,15.66,39.4.81,2.14.78,5.14-.06,7.27-6.59,16.77-13.6,33.38-20.19,50.15-1.97,5.02-3.63,9.7-10.33,8.97-.04,0-.1.24-.32.79ZM238.96,451.28c3.05,4.1,5.68,7.65,8.32,11.19-6.55-15.54-3.27-27.66,11.88-37.51-11.24,1.56-18.91,5.62-21.4,15.61-.73,2.94.8,6.45,1.41,10.51.38-.33-.23.2-.22.19ZM344.87,537.22c-.31-.51-.62-1.03-.93-1.54-33.97,26.82-67.94,53.63-101.91,80.45.27.35.54.69.81,1.04,34.01-26.65,68.02-53.3,102.03-79.95ZM365.68,328.35c-4.1-1.49-6.78-.76-8.14,3.41-.96,2.93-2.3,5.72-3.31,8.63-1.24,3.56-2.3,7.17-3.6,11.25h8.67c2.2-8.03,4.27-15.61,6.38-23.3ZM358.92,519.07c-1.08-1.87-1.7-2.9-2.29-3.96-.5-.89-1.49-1.87-1.36-2.67.54-3.33,1.39-6.62,2.21-9.91.2-.81.96-2.23,1.12-2.18,3.43.99,2.91-2.09,3.3-3.52.84-3.05,1.11-6.25,1.66-9.75-2.91-.2-5.42-.38-8.61-.6-1.27,8.34-2.5,16.41-3.73,24.48.36.07.72.14,1.07.21.79-3.6,1.58-7.21,2.37-10.81,1.34,6.7-.93,12.52-5.3,18.06,3.55.24,5.82.39,9.54.64ZM333.13,261.46c-.38-.03-.76-.05-1.13-.08-2.48,27.51-4.97,55.03-7.45,82.52,13.44,1.35,15.23.98,15.7-3.32-3.1.15-6.16.12-9.17.48-3.21.38-4.82-.81-4.53-4.02,1.45-16.06,3.02-32.1,4.45-48.16.81-9.13,1.43-18.28,2.14-27.42ZM278.7,468.26c-10.37-14.66-10.71-28.43,3.34-41.3-8.51,2.9-13.62,8.74-14.84,17.21-1.49,10.31,2.32,18.62,11.5,24.1ZM468.94,448.07c-6.74-5.74-12.65-13-23.63-11.52,6.58,7.06,11.19,16.84,23.63,11.52ZM374.32,327.52c-4.07-1-5.98-.39-6.69,3.43-.64,3.42-2.59,6.58-3.54,9.97-.94,3.38-1.34,6.9-2.06,10.82,2.96-.33,4.72-.53,5.3-.59,2.47-8.35,4.69-15.87,6.98-23.63ZM338.3,194.49c.37.04.73.07,1.1.11,3.85-37.58,7.7-75.17,11.55-112.75-.42-.04-.84-.08-1.26-.13-3.8,37.59-7.59,75.18-11.39,112.77ZM389.53,453.98c-.38-.33-.76-.67-1.15-1-.77,1.36-1.64,2.67-2.29,4.09-1.36,3.02-2.36,6.22-3.97,9.1-1.36,2.44-3.36,4.52-5.21,6.93h12.61v-19.11ZM453.62,449.69c.38-.5.76-1,1.14-1.5-3.72-3.41-7.62-6.66-11.12-10.28-2.8-2.9-5.69-2.46-9.32-1.59,3.28,3.57,6.57,6.46,8.99,9.96,2.82,4.07,6.29,4.2,10.31,3.41ZM336.62,468.37c-1.74-4.81-3.24-8.11-4.11-11.58-.87-3.46-1.1-7.08-1.59-10.46,1.85-3.78,3.77-7.71,6.19-12.67-1.54.93-2.23,1.18-2.69,1.64-6.8,6.88-8.11,22.87-2.36,30.54.8,1.07,2.54,1.44,4.56,2.52ZM628.73,466.01c-.55-.14-1.09-.39-1.64-.39-8.72-.01-17.51-.73-26.13.2-11.05,1.19-22.45,1.38-32.65,6.87-3.99,2.14-5.68,4.73-5.8,9.75,3-9.27,10.87-10.99,18.87-12.4,15.65-2.75,31.3-5.61,47.36-4.03ZM475.1,467.13c8.01-.51,15.55-.99,23.82-1.51-7.88-4.95-15.55-4.46-23.36-3.84-.16,1.84-.27,3.2-.46,5.36ZM377.37,460.63c-2.19.14-4.38.31-6.57.41-2.81.13-5.63.19-8.44.29v-9.15c-2.54-.35-5.41-1.55-5.07,3.02.33,4.42,5.16,9.56,10.58,10.93,4.61,1.16,6.86-2.68,9.5-5.49ZM401.79,464.2c.28-.02.56-.03.85-.05v-10.55c-2.79.78-6.89-1.4-6.95,3.85-.05,3.99-.04,7.99-.22,11.98-.14,3.17,1.02,4.24,4.31,3.04v-14.86c.47.01.93.03,1.4.04l.62,6.54ZM480.28,140.56c-.43.15-.85.29-1.28.44,9.31,22.43,18.61,44.85,27.92,67.28.36-.15.72-.3,1.09-.45-9.24-22.42-18.49-44.85-27.73-67.27ZM452.5,394.71c-.63-.1-1.27-.19-1.9-.29-2.56,13.09-5.12,26.18-7.77,39.74,2.09-.09,3.33-.15,3.29-.15,0-2.95-.42-5.45.08-7.74,1.73-8.09,3.85-16.1,5.64-24.18.53-2.39.46-4.92.66-7.38ZM413.96,350.98c1.84-4.73,1.48-6.34-1.65-6.6-3.57-.3-7.19-.07-10.81-.07q.47,6.7,6.67,6.67c1.83,0,3.66,0,5.79,0ZM445.1,59.44c.42-.17.84-.34,1.26-.51-6.71-16.35-13.42-32.71-20.13-49.06-.39.16-.78.32-1.16.47,6.68,16.37,13.36,32.73,20.03,49.1ZM111.49,723.28c-.3-.37-.61-.75-.91-1.12-13.65,10.98-27.31,21.97-40.96,32.95.28.34.55.68.83,1.03,13.68-10.95,27.36-21.9,41.04-32.85ZM404.32,468.97c-.63,3.09.16,4.72,3.65,4.45,2.76-.21,5.56-.19,8.32-.04,3.05.17,4.16-1.09,3.64-4.42h-15.61ZM354.7,449.09c3.77-10.88,9.94-18.44,23.13-16.36-11.35-4.52-20.89,2.21-23.13,16.36ZM434.33,469.1c-9.46-1.45-11.69-.67-11.68,4.01h11.99c-.12-1.53-.22-2.81-.31-4.01ZM566.1,480.61c4.48,5.32,8.44,6.05,12.45,2.7.67-.55.88-1.65,1.3-2.5-.77-.36-1.55-1.05-2.3-1.02-3.62.15-7.22.49-11.45.82ZM428.74,417.36c-.58,2.99-1.07,5.54-1.59,8.21,2.27.4,3.86.68,5.94,1.04.59-2.71,1.12-5.14,1.74-7.96-2.26-.48-3.97-.84-6.09-1.29ZM438.45,398.85c2.59-8.11,2.43-8.46-3.99-8.5-.32,2.29-.65,4.62-1,7.1,1.87.52,3.29.92,4.99,1.4ZM435.23,411.88l1.61-1.04c-.1-2.25,0-4.55-.5-6.7-.09-.38-3.48-.78-4.02-.1-1.02,1.27-1.82,3.59-1.32,4.96.48,1.3,2.74,1.95,4.22,2.88ZM361.73,254.7c-4.91.45-5.41,1.71-3.79,8.87q3.93-.3,3.79-8.87ZM604.73,431.37c-2.87-6.22-7.67-9.86-14.78-10.2,4.93,3.4,9.85,6.8,14.78,10.2ZM579.46,505.34c-.09-.51-.18-1.01-.27-1.52-.7,2.04-1.4,4.08-2.14,6.26,8.54.73,9.85.15,9.36-3.48-2.42-.44-4.68-.85-6.95-1.26ZM361.23,514.4c4.22-6.06,5.08-12.82,2.7-18.22-.98,6.64-1.84,12.43-2.7,18.22ZM479.02,376.22c0,.2.01.4.02.6h38.67v-.6h-38.69ZM457.11,375.85c-6.16-2-19.46-.46-21.72,2.3,7.47-.79,14.6-1.55,21.72-2.3ZM358.45,530.3c.05-.51.1-1.02.15-1.53-2.6-.31-5.6.07-7.69-1.13-1.95-1.11-2.94-3.91-4.35-5.96v7.76c3.9.28,7.9.57,11.89.86ZM382.44,453.47c.4,8.47-5.06,11.92-11.9,15.7,7.72-1.37,13.05-7,13.46-13.18.05-.8-1.01-1.68-1.56-2.52ZM398.34,330.04c.38-3.97-2.33-5.28-4.98-6.32-2.78-1.1-3.91-2.87-4.11-5.82-.23-3.42-1-6.8-1.53-10.2-.42.13-.84.26-1.26.39,2.18,6.44-.74,15.22,9.12,18.19,1.12.34,1.74,2.31,2.77,3.76ZM589.63,487.42v13.35c4.1-9.35,3.95-12.94,0-13.35ZM364.93,455.05c4.08-1.47,8.67,1.64,12.39-2.78-10.95-.82-11.06-.8-12.39,2.78ZM356.43,289.66c4.51,1.36,5.69-.12,5.25-2.8-.19-1.15-1.46-2.12-2.23-3.18-.94,1.86-1.88,3.72-3.02,5.98ZM595.3,484.55c.28.45.55.9.83,1.34,2.22-1.35,4.45-2.69,6.67-4.04-.46-.68-.78-1.8-1.39-1.97-4.31-1.28-4.23,2.89-6.11,4.67ZM631.04,578.77c-.29.27-.57.53-.86.8,4.63,5.02,9.25,10.03,13.88,15.05.28-.27.57-.53.85-.8-4.62-5.02-9.25-10.04-13.87-15.05ZM585.08,485.77c2.76-1.18,4.89-2.09,7.03-3.01-.52-.78-.94-2.13-1.59-2.25-2.72-.5-5.33-.38-5.44,5.26ZM353.26,487.14c-1.86-.29-3.25-.51-5.21-.82,1.06,3.02,1.91,5.44,2.76,7.87.29-.04.59-.09.88-.13.48-2.13.97-4.26,1.57-6.92ZM490.33,379.16c.07-.07.14-.14.22-.21h-16.25c1.13.98,1.69,1.85,2.16,1.8,4.63-.44,9.25-1.04,13.87-1.59ZM408.11,413.7c.98-3.92,1.82-7.29,2.8-11.23-4.9,3.74-5.47,6.01-2.8,11.23ZM105.85,733.48c-.24-.35-.47-.69-.71-1.04l-14.17,10.62c.25.34.5.67.75,1.01,4.71-3.53,9.42-7.06,14.13-10.59ZM483.09,381.69c.02.56.05,1.13.07,1.69,4.69-.33,9.39-.65,14.08-.98-.02-.24-.04-.48-.07-.71h-14.08ZM470.94,121.64c.39-.14.78-.28,1.18-.41-2.12-5.15-4.23-10.29-6.35-15.44l-1.06.44c2.08,5.14,4.15,10.28,6.23,15.41ZM417.79,364.01c3.75,3.44,7.27,3.78,11.9,1.26-3.67-.39-7.85-.83-11.9-1.26ZM346.98,481.81q5.99,1.06,6.82-1.55-5.46-1.14-6.82,1.55ZM613.88,562.18l.99-.81c-3.82-4.04-7.64-8.08-11.46-12.12-.26.24-.52.47-.78.71,3.75,4.07,7.5,8.15,11.25,12.22ZM638.86,477.45h-8.68c5.32,4.27,5.48,4.28,8.68,0ZM644.26,476.94c1.49-5.64-2.08-9.18-8.56-8.84,3.5,2.43,8.98,2.67,8.56,8.84ZM606.53,483.6l1.61,1.4c1.37-1.48,2.73-2.96,4.1-4.43-.67-.48-1.86-1.45-1.94-1.36-1.34,1.39-2.53,2.91-3.76,4.4ZM583.34,518.7c1.25-1.89,2.26-2.81,2.35-3.8.04-.5-1.62-1.68-2.41-1.59-.81.09-1.94,1.25-2.11,2.11-.13.67.99,1.59,2.17,3.28Z"/>
      <path class="cls-1" d="M285.77,538.31c-57.31,49.3-114.02,98.08-171.71,147.7,5.54,1.35,9.86,2.5,14.24,3.4,1.07.22,2.6-.03,3.43-.68,13.79-10.87,27.5-21.85,41.23-32.81.1-.08.12-.27.4-.98-5.43-1.04-10.78-2.06-16.7-3.2,13.34-6.96,22.92-17.35,33.73-26.12,15.78-12.82,31.15-26.14,46.73-39.21,18.41-15.43,36.87-30.82,55.32-46.21.51-.43,1.2-.64,1.81-.96l.78,1.03c-43.54,36.51-87.07,73.02-131.12,109.95,6.01,2.25,10.38,2.67,15.44-1.45,21.99-17.9,44.31-35.39,66.64-52.87,21.59-16.9,43.33-33.62,65.02-50.38.83-.64,1.9-.98,2.86-1.46-.32-.37-.65-.74-.97-1.11-5.38-.79-10.76-1.57-16.15-2.36.1-.55.2-1.1.3-1.64,6.74.79,13.48,1.57,20.23,2.36.45.83.91,1.65,1.36,2.48-1.18.44-2.57.62-3.52,1.36-16.04,12.5-31.99,25.1-48.02,37.6-25.12,19.59-50.31,39.09-75.43,58.68-4.98,3.88-10.45,7.39-14.56,12.07-12.62,14.37-29.32,23.58-43.62,35.79-2.47,2.11-4.64,2.74-7.91,1.84-10.08-2.79-20.29-5.13-30.44-7.66-1.36-.34-2.68-.81-4.02-1.22.08-.44.16-.87.23-1.31,1.22.08,2.47,0,3.64.26,3.15.72,6.5,1.11,9.34,2.5,6.18,3.03,10.13.13,14.5-3.84,10.25-9.32,20.85-18.26,31.33-27.33,21.54-18.63,43.07-37.27,64.63-55.87,21.34-18.42,42.72-36.8,64.06-55.21.52-.45.88-1.08,1.67-2.07-8.91-.96-17.22-2.13-25.57-2.55-2.17-.11-4.82,1.73-6.64,3.36-19.36,17.42-38.59,34.99-57.88,52.49-18.59,16.86-37.22,33.68-55.82,50.52-.56.51-1.05,1.11-1.94,2.07,5.85,1.2,11.37,2.33,16.88,3.46l-.09,1.17c-.93.13-1.89.49-2.77.34-5.75-.95-11.47-2.11-17.24-2.94-1.16-.17-2.78.51-3.7,1.35-10.03,9.12-19.95,18.35-29.94,27.52-1.42,1.3-3.01,2.42-5.13,3.08.44-.66.76-1.44,1.32-1.97,17.31-16.19,34.56-32.45,52-48.51,18.9-17.41,37.97-34.64,56.96-51.95,2.73-2.49,5.32-5.17,8.22-7.45,1.2-.95,2.09-4.1,4.76-1.57.18.17,2.18-1.38,3.19-2.29,10.85-9.82,21.63-19.72,32.55-29.46,1.22-1.09,3.25-2.04,4.79-1.89,9.49.9,18.95,2.12,28.42,3.28.84.1,1.64.48,2.88.87Z"/>
      <path class="cls-1" d="M132.58,693.85c60.67-52.4,124.84-100.42,188.07-149.62.74-.58,2-.5,3.02-.72.28.55.56,1.09.84,1.64-5.47,3.7-11.01,7.3-16.39,11.13-3.87,2.76-7.54,5.81-11.29,8.74-6.17,4.81-12.42,9.53-18.47,14.49-3.14,2.57-5.74,5.8-8.89,8.35-4.5,3.65-9.31,6.93-13.95,10.4-4.07,3.05-8.09,6.16-12.17,9.21-4.89,3.66-9.82,7.26-14.71,10.91-2.94,2.2-5.87,4.42-8.77,6.68-5.43,4.21-10.89,8.39-16.22,12.72-2.79,2.26-5.29,4.87-7.98,7.26-3.21,2.84-6.37,5.76-9.74,8.39-4.44,3.47-9.23,6.5-13.6,10.05-12.04,9.79-23.93,19.76-35.9,29.62-.89.74-2,1.21-3.01,1.81-.27-.35-.55-.69-.82-1.04Z"/>
      <path class="cls-1" d="M101.09,719.99c-5,4.03-9.5,7.63-13.96,11.27-13.01,10.61-25.91,21.34-39.08,31.74-2.04,1.61-5.6,2.93-7.9,2.32-9.91-2.61-19.61-6-30.2-9.36,1.35-1.92,2.05-3.43,3.18-4.47,14.85-13.66,29.72-27.28,44.71-40.79,1.18-1.07,3.42-1.93,4.86-1.59,11.65,2.76,23.23,5.8,34.82,8.83.96.25,1.79,1,3.59,2.06ZM12.17,754.42c10.4,3.32,19.83,6.46,29.38,9.21,1.32.38,3.44-.87,4.77-1.91,6.07-4.74,11.98-9.67,17.95-14.54,5.16-4.21,10.33-8.41,15.81-12.89-10.86-3.44-20.94-6.63-31.03-9.83.14-.51.27-1.03.41-1.54,1.21.28,2.45.5,3.64.85,8.86,2.62,17.71,5.29,26.58,7.88.98.29,2.41.72,3.02.26,4.85-3.62,9.55-7.43,15.19-11.89-12.8-3.12-24.12-5.94-35.49-8.54-1.15-.26-2.91.57-3.89,1.45-15.19,13.5-30.3,27.08-46.33,41.46Z"/>
      <path class="cls-1" d="M63.23,705c5.14-4.87,9.62-9.22,14.25-13.41.64-.58,2.08-.69,3.02-.46,11.05,2.68,22.08,5.45,33.1,8.26.82.21,1.51.95,3.44,2.22-5.23,4.42-9.98,8.6-14.95,12.48-.84.66-2.73.3-4.04,0-10.19-2.35-20.37-4.77-30.53-7.24-1.23-.3-2.36-1-4.29-1.85ZM66.58,704.54c11.17,2.61,21.74,5.13,32.35,7.52,1.08.24,2.66.16,3.45-.48,3.67-2.92,7.14-6.08,11.81-10.13-6.84-1.64-12.28-2.98-17.73-4.25-5.82-1.36-11.88-4.23-17.41-3.44-4.05.58-7.41,6.01-11.07,9.28-.33.29-.6.64-1.4,1.51Z"/>
      <path class="cls-1" d="M530.28,540.86c-2.74-2.18-5.47-4.36-8.21-6.54-1.2-2-2.4-4.01-4.05-6.78,2.39,0,4.34-.12,6.27.02,10.25.73,20.49,1.8,30.75,2.19,7.52.29,11.64,5.38,16.3,9.95,5.14,5.03,10.32,10.02,15.48,15.03-1.52.62-3.08,1.84-4.55,1.75-9.88-.59-19.78-1.25-29.61-2.35-3.32-.37-6.49-2.08-9.73-3.18-4.21-3.36-8.42-6.72-12.64-10.09ZM582.39,554.63c-6.85-7.2-13.24-14.01-19.78-20.68-.84-.86-2.43-1.2-3.72-1.37-5.47-.7-10.94-1.38-16.43-1.8-6.6-.51-13.23-.76-19.84-1.12,7.89,7.62,16.01,14.35,24.17,21.04.55.45,1.35.76,2.06.83,11.11,1.05,22.22,2.06,33.55,3.09Z"/>
      <path class="cls-1" d="M370.46,191.23c17.01-2.51,34.69-5.12,52.49-7.74,9.87,48.94,19.67,97.51,29.57,146.59-3.47.32-7.04.78-10.62.96-8.15.42-16.3.7-24.45,1.03-3.16.13-5.24-.89-5.42-4.54-.1-1.97-.57-4.02-1.37-5.81-.83-1.87-1.91-4.44-3.49-5.01-8.18-2.95-11.53-8.86-11.8-17.11-.03-1.03-.51-2.04-.92-3.56-7.75.45-15.5.89-23.26,1.34-.03-.55-.05-1.09-.08-1.64,6.17-.46,12.35-.8,18.49-1.48,1.49-.16,3.98-1.31,4.08-2.22.34-3.07-2.29-2.5-4.23-2.43-4.62.17-9.31-.05-13.83.71-4.16.7-4.69-.95-4.7-4.39-.08-20.3-.32-40.6-.45-60.91-.07-10.9-.01-21.8-.01-33.8ZM450.28,328.58c-9.63-48.02-19.13-95.39-28.66-142.92-16.32,2.41-31.96,4.67-47.57,7.14-.85.14-2.04,2.04-2.04,3.12,0,7.23.41,14.46.47,21.69.13,16.49.14,32.99.19,49.48.02,7.13,0,14.26,0,21.35,6.78-.39,12.3-.56,17.8-1.07,3.4-.31,4.62,1.23,5.17,4.29.92,5.14,2.03,10.24,3.27,15.31.32,1.32,1.14,3.07,2.21,3.56,8.13,3.68,12.59,9.81,13.33,18.69.02.26.32.49.72,1.09,11.54-.57,23.29-1.15,35.12-1.73Z"/>
      <path class="cls-1" d="M400.85,78.75c4.07,19.54,8.13,39.09,12.22,58.64,2.48,11.87,4.87,23.76,7.55,35.58.91,4,.2,5.88-4.22,6.53-15.33,2.28-30.62,4.9-46.54,7.49,0-3.73,0-7.05,0-10.37.05-26.16.12-52.32.16-78.47,0-3.36-.35-6.73-.04-10.06.14-1.46,1.28-3.8,2.36-4.06,8.96-2.12,18.02-3.86,27.05-5.67.39-.08.86.21,1.46.38ZM371.95,183.63c.88.39,1.04.53,1.16.51,14.71-2.2,29.42-4.36,44.1-6.76.69-.11,1.68-2.37,1.46-3.42-5.04-24.99-10.2-49.96-15.38-74.92-1.27-6.13-2.66-12.23-4.13-18.95-9.47,2.08-18.35,4.04-27.24,5.99.09.53.19,1.07.29,1.6,1.49,0,3.05.3,4.45-.06,3.48-.88,4.73,0,4.51,3.82-.3,5.37-.26,10.81.22,16.17.35,3.92-1.07,5.08-4.62,4.62-3.44-.44-4.95.85-4.89,4.54.17,10.61.07,21.22.07,31.84,0,11.7,0,23.41,0,35.02ZM377.96,109.63c.2-.01.41-.03.61-.04v-19.73c-.2.02-.41.05-.61.07v19.7ZM372.26,110c.28,0,.56,0,.85-.01v-18.73c-.28,0-.56-.01-.85-.02v18.76Z"/>
      <path class="cls-1" d="M462.3,133.94c-6.28.9-11.71,1.62-17.12,2.47-6.07.95-12.14,1.91-18.17,3.07-3.27.63-4.79-.41-5.48-3.72-7.27-35.22-14.65-70.42-21.97-105.63-.47-2.25-.62-4.56-.97-6.83-.99-6.33-.31-7.33,5.98-8.78,10.39-2.39,10.44-2.4,14.27,7.53,13.45,34.88,26.87,69.78,40.31,104.67.82,2.12,1.81,4.18,3.15,7.22ZM459.48,132.05c-15.28-39.47-30.4-78.54-45.61-117.83-3.46.84-6.54,1.82-9.69,2.28-3.65.53-4.48,2.49-3.88,5.75,1.84,9.95,3.44,19.96,5.46,29.87,4.67,22.89,9.5,45.75,14.34,68.61,1.19,5.64,2.65,11.22,4.01,16.93,12-1.9,23.33-3.7,35.36-5.61Z"/>
      <path class="cls-1" d="M423.91,143.71c14.02-1.94,27.81-3.84,41.04-5.66,7.87,20.12,15.51,39.7,23.18,59.26,4.27,10.88,8.54,21.77,12.93,32.6,1.26,3.1-.16,3.84-2.82,4.06-12.69,1.08-25.38,2.24-38.07,3.29-4.59.38-9.22.32-13.77.91-2.91.38-3.83-.74-4.35-3.27-3.64-17.76-7.39-35.5-11.03-53.26-2.35-11.43-4.6-22.88-6.86-34.33-.2-1.01-.14-2.06-.23-3.61ZM498.76,232.16c0-1.2.13-1.7-.02-2.1-11.12-28.7-22.32-57.37-33.32-86.11-1.23-3.21-3.05-3.8-5.95-3.39-5.79.82-11.59,1.52-17.37,2.38-5.27.78-10.52,1.71-16.09,2.62.78,4.15,1.4,7.76,2.14,11.34,2.74,13.24,5.58,26.47,8.27,39.72,2.41,11.89,4.73,23.8,6.96,35.72.53,2.83,1.1,4.36,4.68,3.72,4.5-.8,9.18-.6,13.77-.95,12.24-.94,24.48-1.95,36.92-2.95Z"/>
      <path class="cls-1" d="M472.55,329.54c-11.24.28-11.34.3-13.53-10.94-1.74-8.9-3-17.9-4.83-26.78-3.05-14.82-6.19-29.63-9.73-44.34-1.05-4.38.83-5.31,4.18-5.55,17.29-1.27,34.58-2.52,51.88-3.58,1.21-.07,3.21,1.14,3.67,2.25,4.33,10.36,8.46,20.8,12.47,31.29.53,1.38.48,3.36-.1,4.73-6.67,15.72-13.55,31.34-20.22,47.05-1.69,3.99-4.25,5.44-8.58,5.26-5.05-.21-10.13.37-15.2.61ZM445.78,244.11c5.77,28.27,11.38,55.78,17.07,83.66,2.55,0,5,.09,7.43-.02,6.29-.29,12.57-.89,18.85-.93,2.82-.01,4.16-1.06,5.18-3.45,6.72-15.72,13.54-31.4,20.24-47.13.48-1.12.62-2.73.2-3.84-3.73-9.78-7.68-19.48-11.42-29.26-.88-2.3-2.1-2.98-4.52-2.71-4.74.52-9.51.69-14.27,1.01-13.01.89-26.02,1.79-38.77,2.67Z"/>
      <path class="cls-1" d="M397.4,75.45c-4.17.79-7.73,1.57-11.32,2.11-2.73.41-3.91-1.04-3.95-3.74-.11-7.84-.39-15.68-.45-23.51-.03-4.26,2.89-7.05,7-6.53,1.02.13,2.37,1.84,2.64,3.03,2.1,9.25,3.97,18.55,6.08,28.64ZM389.33,46.23c-4.3-.23-6.02,1.15-5.65,5.08.33,3.51-.03,7.07.13,10.6.19,4.5.59,9,.92,13.78,3.7-.71,6.78-1.3,10.35-1.98-2-9.55-3.89-18.6-5.75-27.48Z"/>
      <path class="cls-1" d="M360.25,21.82c2.31-1.09,3.03-.88,3.39,2.51.46,4.35.63,8.74.69,13.12.27,19.53.46,39.07.65,58.6.01,1.24-.17,2.48-.26,3.72-.66,0-1.31-.02-1.97-.03,0-5.38.03-10.76,0-16.14-.14-18.79-.26-37.58-.55-56.37-.03-1.73-1.21-3.43-1.95-5.42Z"/>
      <path class="cls-1" d="M376.43,48.79v29.24c-1.7.17-3.75.37-6.57.65-.23-3.75-.55-7.27-.63-10.8-.1-4.45-.02-8.9-.01-13.35.01-5.96.23-6.15,7.21-5.74ZM371.94,76.18l1.22.58c.49-1.12,1.36-2.21,1.41-3.35.69-16.12.2-20.98-2.63-22.87v25.64Z"/>
      <path class="cls-1" d="M368.83,44.39c0-6.76-.04-12.93.06-19.11,0-.56.76-1.45,1.34-1.61,6.11-1.74,12.26-3.36,18.66-5.08,1.19,6.11,2.36,11.3,3.11,16.56.18,1.27-.72,3.72-1.59,3.97-6.87,1.92-13.85,3.44-21.58,5.27ZM387.45,21.21c-5.42,1.36-10.44,2.57-15.42,3.94-.71.2-1.71,1.16-1.73,1.8-.15,4.81-.08,9.63-.08,15,7.31-1.64,13.67-3.06,20.48-4.59-1.12-5.54-2.13-10.59-3.26-16.15Z"/>
      <path class="cls-1" d="M478.29,400.4c21.94-.49,42.9-.32,63.76-1.66,13.67-.88,24.05,3.8,33.09,13.35,3.57,3.77,7.64,7.05,11.05,10.16-8.08,0-16.43-.1-24.76.02-10.47.15-20.98.05-31.4.9-5.66.46-11.18,2.71-16.78,4.06-.9.22-2.22.37-2.83-.11-10.28-8.08-20.48-16.26-30.69-24.44-.31-.25-.45-.7-1.43-2.29Z"/>
      <path class="cls-1" d="M508.39,428.08c-1.99,2.85-3.73,5.34-5.96,8.53-12.55-5.85-25.29-11.79-38.58-17.99,2.75-4.8,5.29-9.5,8.09-14.05,1.72-2.78,3.64-1.1,5.39.22,10.37,7.77,20.74,15.55,31.06,23.28Z"/>
      <path class="cls-1" d="M463.2,382.69c4.87,3.07,10.38,6.55,15.89,10.02-.43.63-.86,1.27-1.29,1.9-2.84-2.43-5.67-4.86-8.51-7.29-.19.16-.38.32-.57.49,3.31,3.74,6.62,7.48,9.92,11.22-.28.3-.56.61-.84.91-1.98-2.02-3.97-4.02-5.93-6.07-2.09-2.19-4.13-4.42-7.18-7.68,0,6.26.28,11.2-.08,16.1-.36,4.86-1.38,9.66-2.91,14.33.5-11.33,1-22.67,1.49-33.94Z"/>
      <path class="cls-1" d="M560.99,473.37c-16.67-12.77-33.34-25.54-50.1-38.38,3.09-.2,48.06,33.41,50.1,38.38Z"/>
      <path class="cls-1" d="M727.06,698.61c-11.28-1.46-21.96-2.52-32.48-4.42-2.83-.51-5.54-3.25-7.71-5.53-4.11-4.33-7.78-9.06-11.17-13.08,2.57.25,6.94.61,11.28,1.13,7.32.89,14.63,1.84,21.92,2.87,1.14.16,2.49.57,3.25,1.35,4.86,4.91,9.6,9.95,14.32,14.99.34.37.26,1.12.58,2.69ZM721.76,695.95c-.77-1.89-.93-2.97-1.54-3.65-2.76-3.1-5.61-6.11-8.5-9.09-.6-.62-1.46-1.27-2.27-1.37-9.62-1.28-19.26-2.46-28.89-3.67-.15.51-.3,1.02-.45,1.53,7.02,3.68,9.73,13.03,19.53,13.35,7.09.23,14.13,1.8,22.11,2.89Z"/>
      <path class="cls-1" d="M636.05,638.88c.68-.55,1.38-1.6,2.02-1.56,11.02.69,22.03,1.49,33.03,2.36,1.15.09,2.55.5,3.33,1.28,4.1,4.1,8.05,8.36,12.87,13.43-2.56.33-4.1.79-5.61.69-10.56-.66-21.13-1.38-31.68-2.22-1.08-.09-2.22-.91-3.12-1.65-3.93-3.21-7.66-6.67-11.72-9.71-1.8-1.35-4.19-1.9-6.18-3.83,2.39.36,4.79.71,7.18,1.08-.05.3-.23.75-.1.86,6.38,5.73,11.95,13.01,22.08,11.71,1.04-.13,2.13.23,3.21.31,6.96.53,13.92,1.04,20.88,1.56-1.63-3.24-3.68-5.42-5.69-7.65-2.25-2.5-4.76-3.73-8.38-3.93-10.73-.58-21.42-1.77-32.12-2.73Z"/>
      <path class="cls-1" d="M704.02,674.21c-6.06-.57-12.12-1.13-18.17-1.71-1.22-.12-2.45-.46-3.66-.38-9.35.66-16.25-3.86-22.36-10.26-1.18-1.24-2.84-2.02-4.06-3.81,4.15.22,8.3.43,12.44.68,5.97.36,11.94,1.1,17.91,1.02,5.4-.07,9.17,2.11,12.37,6.18,1.93,2.45,4.29,4.56,6.46,6.82-.31.49-.62.98-.93,1.47ZM701.04,672.07c-4.7-6.85-9.42-10.67-17.24-10.27-7.13.36-14.34-.72-21.51-1.16,2.7,3.37,5.48,7.26,8.89,7.93,9.51,1.85,19.29,2.37,29.86,3.51Z"/>
      <path class="cls-1" d="M255.78,512.8v4.36c.4.04.8.08,1.19.11.27-2.11.54-4.22.89-6.91.59.67,1.91,1.53,1.81,2.17-.39,2.55-1.14,5.07-2.03,7.5-.08.22-3.09-.13-3.16-.51-.42-2.25-.38-4.59-.5-6.9.6.06,1.2.12,1.8.18Z"/>
      <path class="cls-1" d="M281.67,460.04c7.79.47,15.59.94,23.38,1.41-.03.61-.06,1.23-.09,1.84-7.8-.38-15.61-.76-23.41-1.14.04-.7.09-1.41.13-2.11Z"/>
      <path class="cls-1" d="M286,465.85c6.58.31,13.16.62,19.75.92,0,.38-.01.77-.02,1.15h-19.8c.02-.69.05-1.38.07-2.08Z"/>
      <path class="cls-1" d="M307.54,472.27c-5.68-.38-11.37-.76-17.05-1.14l.09-1.64c5.67.33,11.35.66,17.02.99-.02.6-.04,1.2-.06,1.79Z"/>
      <path class="cls-1" d="M558.32,494.01c2.57,4.55,4.68,8.28,6.72,11.89-3.66-.25-6.59-4.86-6.72-11.89Z"/>
    </g>
  </g>
</svg>