<?xml version="1.0" encoding="utf-8"?>
<!-- Generator: Adobe Illustrator 28.1.0, SVG Export Plug-In . SVG Version: 6.00 Build 0)  -->
<svg version="1.1" id="Calque_1" xmlns="http://www.w3.org/2000/svg" xmlns:xlink="http://www.w3.org/1999/xlink" x="0px" y="0px"
	 viewBox="0 0 65.6 65.6" style="enable-background:new 0 0 65.6 65.6;" xml:space="preserve">
<g>
	<g transform="translate(-187.000000, -657.000000)">
		<path d="M227.7,673.7c0,0.1,0,0.2,0,0.3c0,2.2,0.9,5.7,2.6,9c2.5,4.6,6.3,8.5,11.8,11.1c0.3,0.2,0.6,0.5,0.6,0.9v3
			c0,1.7-1.3,3-3,3h-10v2c0,1.1-0.9,2-2,2h-3.1c1.3,1.3,2.1,3,2.1,5c0,2.5-2.1,6.6-6.2,12.6c-0.4,0.6-1.2,0.6-1.6,0
			c-4.1-6-6.2-10.1-6.2-12.6c0-2,0.8-3.7,2.1-5h-3.1c-1.1,0-2-0.9-2-2v-2h-10c-1.7,0-3-1.3-3-3v-3c0-0.4,0.2-0.7,0.6-0.9
			c5.5-2.6,9.3-6.4,11.8-11.1c1.7-3.3,2.6-6.8,2.6-9c0-0.1,0-0.2,0-0.3c0.3-6.5,1.8-11.7,4.5-15.4c0.6-0.8,1.5-1.2,2.4-1.2h2
			c1,0,1.9,0.5,2.4,1.2C226,662,227.5,667.1,227.7,673.7L227.7,673.7z M209.8,697c0-0.1,0-0.3,0.1-0.4l1.9-4.8v-9.6
			c-0.3,0.6-0.6,1.2-0.9,1.8c-2.6,4.8-6.6,8.9-12.1,11.7v2.4c0,0.6,0.4,1,1,1h10V697z M239.8,699c0.6,0,1-0.4,1-1v-2.4
			c-5.6-2.8-9.6-6.8-12.1-11.7c-0.3-0.6-0.6-1.2-0.9-1.8v9.6l1.9,4.8c0,0.1,0.1,0.2,0.1,0.4v2H239.8z M225.8,676
			c0-7.3-1.4-12.8-4.2-16.6c-0.2-0.3-0.5-0.4-0.8-0.4h-2c-0.3,0-0.6,0.2-0.8,0.4c-2.8,3.8-4.2,9.3-4.2,16.6v15h12V676z M224.8,710
			c0-2.8-2.2-5-5-5s-5,2.2-5,5c0,1.8,1.7,5.3,5,10.2C223.1,715.3,224.8,711.8,224.8,710z M220.8,703h7v-5.8l-1.7-4.2h-5.3V703z
			 M211.8,697.2v5.8h7v-10h-5.3L211.8,697.2z M217.8,668c-0.6,0-1-0.4-1-1s0.4-1,1-1h4c0.6,0,1,0.4,1,1s-0.4,1-1,1H217.8z"/>
	</g>
</g>
</svg>
