<?xml version="1.0" encoding="UTF-8"?>
<svg id="Calque_1" data-name="Calque 1" xmlns="http://www.w3.org/2000/svg" version="1.1" viewBox="0 0 800 800">
  <defs>
    <style>
      .cls-1 {
        fill: #fff;
        stroke-width: 0px;
      }
    </style>
  </defs>
  <g id="ImmpRS">
    <g>
      <path class="cls-1" d="M784.3,388.21c1.61.12,3.24.25,5.8.44-1.08,3.86-2.21,7.28-2.96,10.78-.41,1.9-.1,3.94-.24,5.9-.21,3.04-.83,6.09-.7,9.11.23,5.34,1.25,10.67,1.28,16,.04,7.49-.72,14.98-.73,22.47,0,3.78,1.12,7.54,1.26,11.33.09,2.4-.69,4.84-1.08,7.26-.45,0-.9,0-1.35,0,1.98,4.44,3.96,8.88,6.25,13.99-2.75,0-4.84.07-6.92,0-31.48-1.16-62.97-2.35-94.45-3.45-1.94-.07-3.98.39-5.85.99-14.4,4.64-28.55,4.4-42.49-1.83-1.63-.73-3.53-1.12-5.33-1.19-48.15-1.87-96.3-3.68-144.46-5.5-16.77,4.19-33.71.84-50.56,1.01-13.89.14-27.79-.53-41.68-1.07-1.83-.07-3.57-1.59-5.42-2.25-1.52-.54-3.13-1.07-4.73-1.14-11.72-.54-23.46-.91-35.18-1.52-1.41-.07-3.79-1-3.98-1.89-.75-3.56-3.13-3.68-5.88-3.74-31.04-.71-62.07-1.48-93.11-2.06-1.78-.03-3.55,1.63-5.4,2.28-1.78.63-3.68,1.41-5.5,1.36-14.36-.45-28.71-1.09-43.06-1.65-10.23-.4-20.45-.89-30.68-1.09-6.72-.13-13.46.46-20.17.21-7.05-.26-14.07-1.36-21.13-1.71-16.65-.81-33.31-1.36-49.96-2.09-4.31-.19-8.63-1-12.92-.81-3.18.14-6.3,1.46-9.45,2.2-.88.21-1.82.4-2.7.31-11.36-1.1-22.73-2.21-34.08-3.41-3.58-.38-6.3-4.25-5.86-8.88.35-3.57,3.24-4.32,6.44-4.49,28.35-1.59,56.71-3.24,85.06-4.89,3.37-.2,6.04-1.46,9.03-3.4,3.17-2.06,8.12-1.43,12.3-1.86,3.22-.33,6.47-.41,9.7-.72,4.99-.47,9.83-1.59,14.78,1.16,2.16,1.2,5.43.67,8.17.51,26.63-1.59,53.52-1.5,79.78-5.56,17.35-2.68,34.68-3.06,51.97-4.9,15.14-1.61,30.39-2.26,45.59-3.31,5.62-.39,11.25-.9,16.88-1.04,7.32-.18,14.64-.04,21.68-.04.16-1.94.28-3.5.43-5.29,6.6.53,13.35,4.71,18.32-2.22,3.6.63,7.14,1.3,10.71,1.82.87.13,2.38.05,2.64-.44,2.68-5,6.12-1.23,9.37-1.22,5.98.02,11.98-.79,17.93-1.56,3.77-.48,7.53-1.28,11.17-2.36,2.81-.83,6.59-1.18,6.11-5.06,5.92-.53,12.05-1.11,18.2-1.62,5.93-.5,11.93-.54,17.79-1.49,5.92-.96,11.77-2.57,17.5-4.37,1.89-.59,3.16-3.52,4.99-3.86,3.29-.61,3.27-2.42,3.35-4.89.07-2.47,6.86-5.53,10.91-5.67,5.32-.18,10.71-.4,15.9-1.48,5.94-1.24,11.72-3.29,17.45-5.33,1.07-.38,1.95-2.28,2.25-3.63.72-3.24,1.98-5.28,5.78-5.16,1.55.05,3.1-1.33,4.72-1.55,4.23-.57,8.71-.19,12.71-1.41,8.02-2.44,15.64,1.81,23.72.31,9.34-1.73,19-1.73,29.04-2.52-.55-1.32-.89-2.13-1.12-2.69,6.56-.43,13.14-.85,19.72-1.28,9.84-.65,19.67-1.36,29.52-1.91,2.67-.15,4.55-.75,4.35-4.16h-12.73c-.24-5.53-.47-10.9-.72-16.27-.09-1.85-.25-3.69-.35-5.54-.4-7.53-.82-15.06-1.14-22.6-.03-.64.5-1.39.96-1.93,1.39-1.63,2.88-3.17,4.82-5.27-3.93-1.54-5.09-2.58-2.65-5.71,1.41-1.81.77-5.32.8-8.06.01-1.15-.81-2.29-.91-3.46-.49-5.79-.06-6.15,6.39-5.59.21.94.47,1.95.67,2.97.17.89.27,1.8.45,3.02,1.2-.2,2.2-.34,3.19-.53,8.52-1.61,15.26,4.8,14.32,13.49-.28,2.58-.41,5.26.01,7.79.11.68,3.58,1.55,3.66,1.39,3.12-6.11,6.89-1.48,9.59-.09,2.61,1.34,4.3,4.47,5.79,6.14,4.2.75,8.07,1.41,11.92,2.15,2.94.56,6.08-1.23,8.82,2.28,2.13,2.73,6.02,3.59,5.92,8.5-.04,1.99,3.6,4.07,5.58,6.09.41.42,1.1.7,1.27,1.18,4.85,13.92,15.24,24.46,22.6,36.85,1.31,2.21,5.22,3.04,6.17,5.26,1.97,4.62,2.77,9.75,4.18,15.16ZM730.77,321.75c-2.45-2.35-4.56-5.75-9.77-2.23,1.73,1.8,3.05,4.05,5,4.99,2.09,1.01,4.19-.13,4.68-2.86,1.58.92,3.16,1.85,4.73,2.77.26-.33.51-.67.77-1-.25-1.12-.5-2.24-.75-3.36,1.07,1.12,2.15,2.23,3.21,3.35,2.69,2.83,5.37,5.67,8.06,8.51.45,1.84.47,3.96,1.44,5.46,4.82,7.46,9.98,14.7,14.84,22.14,3.06,4.68,5.8,9.58,8.68,14.38-2.02-2.69-4.18-5.29-6.03-8.09-1.66-2.51-3.4-3.83-6.75-3.52-7.01.65-14.07.88-21.11.97-3.87.05-5.16,1.91-5.24,5.41-.05,2.4-.39,4.79-.64,7.72-7.2-3.45-7.95,3.59-11.6,5.41-1.85-.64-3.54-.72-5.22-.62-3.76.22-7.52.62-11.28.77-6,.25-12.03.16-18.01.61-2.3.17-4.53,1.41-7.12,2.28-.12-.31-.55-1.43-.97-2.54-.36.04-.72.07-1.09.11v8.02c-2.88-3.92-7.11-3.9-9.95-2.75-5.4,2.19-11.11-1.69-16.21,1.59-.31.2-1.23-.77-1.93-.93-.78-.18-1.64-.18-2.43-.06-2.61.4-5.21.89-7.21,1.24-3.1.37-5.48.66-7.86.95-.07-.52-.14-1.03-.21-1.55,1.6-.38,3.21-.77,4.81-1.15-.08-.33-.16-.66-.24-.99h-4.5c-1.82,1.92-2.88,4.05-4.13,4.18-9.8.97-19.64,1.55-29.76,2.28.21-3.62-2.11-5.99-4.09-3.4-3,3.92-4.7,1.01-6.68-.07-1.07,1.49-1.94,3.72-2.81,3.72-5.35,0-11.07,3.38-16.04-1.45-.48-.46-1.86,0-2.82.05.1.81-.05,2.15.36,2.35,2.62,1.28,5.29,3.03,8.06,3.27,4.89.43,9.87.05,14.8-.26,22.47-1.4,44.92-2.92,67.39-4.33,19.1-1.2,38.2-2.32,57.3-3.44,5.57-.33,11.15-.55,16.73-.82.02.48.04.96.06,1.44-36.49,2.35-72.98,4.69-109.47,7.04.03.45.06.9.08,1.35,4.09-.23,8.18-.56,12.27-.68,12.49-.37,24.99-.53,37.48-1.06,4.53-.19,9.01-1.4,13.55-1.78,2.32-.2,4.74.77,7.06.56,4.86-.44,9.67-1.33,14.52-1.95.48-.06,1.02.67,1.55.7,1.31.08,2.63,0,3.94-.08,2.16-.14,4.32-.37,6.49-.51,1.65-.11,3.31-.11,4.96-.25,2.67-.21,5.34-.49,8.02-.74.1.59.2,1.18.31,1.78-.98.4-1.95,1.1-2.95,1.15-20.9,1.1-41.8,2.1-62.7,3.18-11.39.59-22.78,1.34-34.17,1.92-3.68.19-7.4-.12-11.07.14-4.8.34-9.57,1.08-14.36,1.49-.41.04-.92-1.04-1.43-1.65,4.75-.41,9.09-.79,13.43-1.17-.06-.61-.13-1.23-.19-1.84-15.29,1.01-30.57,2.02-45.86,3.04.05.73.1,1.45.15,2.18,9.01-.73,18.01-1.46,27.02-2.19-.97,1.24-2.46,2.52-4.04,2.64-8.15.62-16.33.94-24.5,1.37-1.99.1-9.69-5.56-10.03-7.44-.11-.59.09-1.23.05-1.84-.08-1.17-.22-2.33-.34-3.5-.49-.16-.98-.32-1.48-.48-1.34,3.28-2.89,6.51-3.79,9.92-.13.49,2.84,1.81,5.18,3.23-2.44.37-4.48.57-6.46,1.04-1.15.27-2.19.99-3.28,1.5.47.9.95,1.8,1.42,2.7,1.03-.65,2.06-1.31,2.96-1.88.95.37,2.1.81,3.25,1.25,1.43-3.82,4.7-1.97,7.14-2.13,20.01-1.34,40.03-2.51,60.05-3.71,6.88-.41,13.75-.76,20.63-1.14.02.24.03.48.05.72-7.5.62-15,1.23-22.51,1.85,0,.42,0,.84,0,1.26.79.28,1.6.84,2.38.81,7.7-.33,15.41-.71,23.1-1.21.89-.06,2.09-.71,2.53-1.45,3.06-5.07,8.1-2.27,12.18-2.85.96-.14,2.91,3.09,3.56,5.04,1.25,3.75,2.73,5.81,7.27,4.53,3.01-.85,6.37-.45,9.58-.61,14.46-.71,28.91-1.43,43.7-2.16-1.31-5.37,3.18-7.92,5.69-11.59v2.21c2.5-.9,1.21-7.37,5.45-4.38,2.25,5.09-.84,9.37.1,13.89.12.57-1.11,1.65-1.93,2.13-.88.52-2.02.61-3.05.88.05.36.1.72.15,1.09h11.49c.16.53.33,1.06.49,1.58-1.81.76-3.62,1.52-6.65,2.8,1.96,3.3,3.86,6.51,5.77,9.73.41-.2.83-.39,1.24-.59,0-9.04-.09-18.08.15-27.11.02-.86,2.04-2.25,3.24-2.39,4.84-.54,9.73-.67,14.6-.96-.01-.22-.02-.44-.03-.65-1.59-.37-3.17-.73-4.76-1.1.01-.16.03-.31.04-.47,7.78-.67,15.57-1.35,23.62-2.04-.56-3.35-.59-6.64-1.73-9.49-1.06-2.66-3.29-4.85-5-7.25-.35.24-.69.48-1.04.72,1.95,4.3,4.88,8.42,2.77,14.87-.55-2.49-.83-3.74-.92-4.14-2.33-1.44-4.08-2.51-6.51-4.01,2.41-1.13,3.55-1.67,4.76-2.24-1.05-2.24-1.95-4.16-2.85-6.09l4.63-.71c-.64.43-1.29.86-1.93,1.28-.51-1.46-.75-3.08-1.57-4.35-4.91-7.66-9.85-15.3-14.98-22.81-3.53-5.17-7.38-10.13-11.1-15.18-3.7-5.9-7.41-11.79-11.11-17.69-.48.28-.95.56-1.43.85.49,1.67.98,3.34,1.47,5-1.29-.83-2.58-1.65-4.76-3.05v4.63ZM604.84,421.11c-2.28.84-4.51,1.92-6.86,2.47-2.74.63-5.09.24-4.42-3.79-.4,1.72-.91,3.69-.15,4.69,3.14,4.14,13.29,3.93,17.41-.79-1.67,0-2.76-.12-3.82.03-2.29.32-2.65-.85-2.28-2.7,1.7-.9,3.39-1.79,5.09-2.69-.98-1.24-2.14-3.62-2.92-3.5-2.35.36-4.55,1.69-7.46,2.91,2.63,1.64,4.02,2.51,5.4,3.38ZM711.64,324.08c.55,1.19,1.1,2.37,2.04,4.39-4.07,0-6.85-.13-9.6.08-.82.06-1.56,1.08-2.33,1.66.8.71,1.65,2.06,2.38,2,2.37-.19,4.7-.91,8.34-1.71,1.11,1.21,3.3,3.61,6.13,6.72-1.63-4.36-2.13-7.69,2.3-10.02-6.33.17-5.98-5.4-8.49-8.79-.26,2.13-.48,3.93-.72,5.72-2.29-.52-4.56-1.27-6.88-1.46-1.04-.09-2.18.94-3.27,1.47,1,.81,2.14,2.43,2.98,2.29,2.44-.4,4.76-1.52,7.12-2.35ZM665.73,421.78c-.88-1.13-1.76-2.27-2.55-3.28-3.47,0-7.44-.03-11.41.04-.51,0-1.33.47-1.45.88-1.32,4.57-5.4,5.92-9.21,7.62.11.41.22.82.33,1.23,4.86-.56,9.72-1.13,14.77-1.71-.28-3.6.74-6.38,4.44-5.25,2.08.63,3.59,3.1,6.16,5.47-.57-2.5-.86-3.8-1.15-5.09,4.1,2.63,5.36,2.64,7.1.04-1.3-.57-2.59-1.13-3.88-1.68.07-.31.14-.62.21-.93,1.08-.17,2.17-.35,3.25-.52.2-.42.39-.85.59-1.27-1.75-.99-3.49-1.98-5.06-2.87-.8,2.74-1.47,5.03-2.13,7.32ZM736.33,454.31l.09.1c-2.86-5.57-11.31-8.62-19.77-6.84,0,2.31.09,4.74-.02,7.16-.12,2.7,1.25,3.42,3.69,3.37,4.94-.12,9.88.03,14.81-.14,3.19-.11,3.45-1.56,1.2-3.65ZM735.27,337.73c1.39-.45,2.76-1.09,4.19-1.29,1.67-.23,3.39-.05,6.41-.05-2.98-4.19-4.86-7.61-7.55-10.19-.99-.95-3.89.15-5.92.17-.73,0-1.45-.56-2.19-.61-1.7-.1-3.41-.03-5.25-.03,1.73,9.24,2.83,10.43,10.41,11.92-1.77.43-3.54.87-5.81,1.43,1.09,3.09,2.1,5.93,3.25,9.19-4.82,1.11-2.57,3.71-1.66,6.34h5.75c-.32,2.45-.6,4.61-.95,7.27,8.58-.39,16.84-.76,26.17-1.18-5.22-7.74-9.7-14.7-14.61-21.35-.89-1.21-3.51-1.35-5.37-1.56-2.26-.26-4.57-.06-6.85-.07ZM711.07,359.9c1.34-.31,2.66-.8,4.01-.91,4.94-.41,9.9-.62,14.84-1.07,1.55-.14,3.06-.8,4.58-1.23-.11-.42-.22-.85-.32-1.27-8.98.6-17.96,1.19-27.31,1.81.89-.69,1.52-1.17,2.71-2.1-1.82-.27-3-.44-4.16-.61.31-1.64.58-3.05,1-5.22-6.43,1.04-12.17,1.96-17.92,2.89.08.63.16,1.25.24,1.88h11.67c0,.43.02.85.02,1.28-3.77.34-7.54.68-11.31,1.03.05.46.11.91.16,1.37,4.23-.19,8.46-.38,12.69-.58l.03.5c-8.28.71-16.57,1.43-24.85,2.14,0,.41.02.82.03,1.23,1.08.06,2.17.22,3.25.18,10.25-.45,20.51-.93,30.76-1.4-.15.66-.32,1.89-.45,1.88-5.9-.21-11.72.21-17.57,1.08-4.69.7-9.49.61-14.24,1-.79.07-1.53.84-2.29,1.28.1.37.19.73.29,1.1h11.81c.02.35.03.69.05,1.04-3.96.42-7.92.83-11.66,1.23.17,1.99.3,3.41.44,5.08,1.49.09,3.34.19,5.18.3-1.38,1.14-2.87,1.16-4.21,1.62-.8.27-1.37,1.22-2.05,1.87.73.66,1.36,1.62,2.21,1.9.96.32,2.13.06,3.2,0,10.44-.65,20.87-1.54,31.32-1.89,5.85-.2,9-3.46,11.89-8.21-1.35-.56-2.41-1.01-3.23-1.35,1.71-.48,3.63-1.01,5.54-1.55-.04-.39-.08-.79-.12-1.18-1.61-.32-3.22-.64-5.55-1.1q8.52-1.18,8.63-4.02c-6.43,0-12.87,0-19.31,0ZM572.73,423.3c-2.2.26-4.39.61-6.59.74-1.08.06-2.19-.28-3.28-.43.25-.88.52-1.75.72-2.65.07-.33-.06-.69-.14-1.47-1.25,1.12-2.19,1.95-3.36,3,0-3.43.09-6.32-.03-9.21-.12-2.71,1.26-3.39,3.69-3.45,5.7-.14,11.4-.44,17.1-.74,1.01-.05,2.01-.39,3.01-.59-.06-.4-.11-.8-.17-1.2-5.95.28-11.9.43-17.83.89-7.11.55-7.1.67-7.79,7.78-.03.29-.24.55-.49,1.09-8.5.29-17.17.42-25.66,1.95.01.69.02,1.39.03,2.08,3.39.34,6.77.67,10.16,1.01,0,.53,0,1.06,0,1.59-13.04,1.64-26.42.88-39.34,4.82,2.29,1.54,4.64,2.5,6.98,2.5,7.25-.01,14.49-.49,21.74-.6,8.02-.12,16.05-.03,24.07-.03.01.12.03.25.04.37-17.36.52-34.72,1.04-52.08,1.56,0,.33,0,.67,0,1,.69.49,1.37.98,1.91,1.36-.92,1.41-1.75,2.67-2.57,3.93,1.52.89,3,1.85,4.57,2.64.5.25,1.22.01,1.83.07,4.99.49,9.98,1.04,14.98,1.45,1.36.11,2.76-.22,4.14-.28,4.61-.21,9.21-.42,13.82-.56,1.67-.05,3.59.65,4.97.04,5.9-2.63,11.8-2.25,17.75-.6,3.33.92,6.31-.45,6.2-3.09-.1-2.39-.29-4.77-.44-7.15q-10.3-2.86-9.99-6.19c6.94,4.44,14.91,4.83,19.82.66,1.14-.97,1.44-2.93,1.81-3.73-3.64.51-6.63.93-9.64,1.33,1.65-2.05,3.31-4.09,4.97-6.15-3.07-3.17-5.69-2.8-8.96,1.78,1.39,1.53,2.73,2.99,4.07,4.46ZM775.25,478.47c-1.29-2-1.77-5.22-5.65-3.52.08,1.84.17,3.76.27,5.88-5.66,0-11.03-.09-16.38.03-3.85.09-5-1.67-4.99-5.37.07-15.75-.09-31.49-.16-47.24-.03-7.41-.07-14.82-.09-22.23,0-2.34,0-4.68,0-7.01-.46,0-.92,0-1.38,0v79.12c-2.51-4.45-6.53-2.59-9.76-2.91-3.04-.3-6.49.59-7.53-4.51-1.55,6.04-5.8,3.72-8.87,4.06-3.48.38-7.02.09-10.52.09-.25,5.07-.88,5.41-6.31,3.84,2.4-2.49,2.78-13.38.11-18.45v10.34c-3.94.84-7.29,1.55-10.98,2.33v-13.27l1.37-.11c.3,2.69.61,5.39.91,8.08.19-2.93.49-6.3-.97-8.5-1.43-2.16-4.66-3.12-7.38-4.77-1.09,1.47-2.65,3.22.72,4.95.62.32,1.22,1.42,1.18,2.13-.25,4.3-.7,8.59-1.1,13.1-.34-.05.09-.03.49.1.22.07.39.32-.42-.39-5.98.44-12.62.94-19.7,1.46-.67-3.18-4.07-1.62-6.87-1.39-3.74.31-7.47.83-11.2,1.27-.6.07-1.19.24-2.43.5,1.32.59,1.92.86,2.95,1.32-5.43-.81-9.42-8.34-7.54-13.76-1.99-.27-3.93-.54-6.64-.91,1.12,1.94,1.87,3.23,3.06,5.28h-7.66c-.02.36-.04.73-.06,1.09.73.29,1.46.59,2.05.82-.95,1.61-1.85,3.12-2.92,4.93,1.63.19,2.66.3,3.68.42-.02.33-.03.66-.05.99h-8.44c-.23-.3-.46-.61-.7-.91,1.25-.44,2.5-.88,3.75-1.32-.43-.68-.86-1.36-1.28-2.04-1.66.66-3.69.92-4.91,2.05-2.91,2.69-6.41,2.72-9.43,1.59-1.41-.53-1.69-3.91-2.63-5.94-.62-1.33-1.79-3.7-2.22-3.6-1.65.41-3.7,1.28-4.48,2.63-1.08,1.87-1.15,4.32-1.75,6.96-14.03-.63-28.21-1.26-42.38-1.89.67.98,1.4,1.13,2.13,1.16,27.6,1.11,55.2,2.19,82.8,3.36,4.19.18,9.13-1.73,12.02,4.41-.87-4.99,1.89-4.01,4.3-3.91,17.72.77,35.44,1.48,53.16,2.2,15.26.61,30.53,1.32,45.79,1.75,8.83.25,17.67.05,26.5.05-4.42.07-8.28-1.45-11.56-4.41,3.05-.66,5.98-.94,7.6,2.91.39-.3.79-.61,1.18-.91-1.65-3.46-3.3-6.91-5.08-10.64-1.46.82-2.73,1.54-3.6,2.03v6.71ZM475.53,447.22c.02.4.05.79.07,1.19-9.46,3.83-19.84.1-29.49,3.59,3.88.27,7.75.55,11.63.82,0,.44-.01.89-.02,1.33-7.16,0-14.31,0-21.47,0-.77,0-1.68-.19-2.28.15-.98.56-2.52,1.57-2.45,2.25.15,1.35,1.22,3.7,1.92,3.7,3.78,0,8.01,1.85,10.67-1.28,2.56.46,4.68,1.16,6.81,1.17,9.41.03,18.83-.16,28.24-.21.87,0,1.73.39,2.6.6-.77,1.01-1.45,1.25-2.14,1.26-9.09.1-18.18.15-27.27.25-5.68.06-11.37.06-17.04.4-1.33.08-2.59,1.39-3.88,2.14,1.33.92,2.6,1.96,4.02,2.72.6.32,1.52.06,2.29.06,7.31,0,14.62,0,21.93,0,0,.48,0,.96,0,1.44h-13.69c0,.42.01.84.02,1.26,5.14.3,10.27.82,15.41.86,7.16.05,14.33-.58,21.48-.31,5.05.19,10.04,1.82,15.09,2.06,17.57.81,35.16,1.22,52.73,1.97,3.63.15,6.61.15,6.51-3.19,11.9,2.67,23.81,1.58,35.96,1.65-.84-2.32-1.74-4.47-3.34-5.37-3.93-2.21-4.6-5.8-5.09-9.63-.25-1.97-.57-3.96-.57-5.94,0-3.36-1.85-4.07-4.79-3.99-11.57.3-23.14.57-34.71.67-11.39.1-22.77-.04-34.16-.01-3.97.01-7.91,4.26-5.93,6.9,2.09,2.77-.44,3.75-.67,6.36,2.27.55,4.53,1.57,6.79,1.58,14.5.07,29-.12,43.51-.07,1.32,0,2.64,1.08,3.96,1.66-2.16.16-3.82-.77-5.49-.78-14.04-.1-28.08-.07-42.12.02-1.29,0-2.57.75-3.88.97-3.15.55-6.36,1.56-9.45,1.31-2.67-.22-5.23-1.92-7.45-2.8,1.19-.06,3.02.22,4.53-.36,1.12-.43,2.53-1.93,2.57-3,.12-3.41-.33-6.83-.56-10.16-11.26-2.22-13.47-1.73-14.46,2.46h-16.42c0-.3,0-.6,0-.9,4.88-.33,9.76-.67,14.07-.96-.88-1.3-1.96-2.89-3.03-4.47l.78-.86c-1.76-.22-3.52-.44-5.27-.66-.05.33-.1.66-.15.99,1.23.38,2.47.77,3.7,1.15ZM674.11,359.85c-13.98,1.08-27.14,2.1-40.12,3.1-.28,1.96-.48,3.4-.68,4.83-.29-.05-.59-.1-.88-.15-.21-1.29-.41-2.57-.59-3.67-.38-.25-.51-.41-.63-.4-14.14.94-28.29,1.84-42.42,2.97-.84.07-1.52,2.02-2.79,3.83,6.58-.32,11.58-.57,16.58-.82.01.37.03.74.04,1.11-11.02.85-22.04,1.71-33.15,2.57.83.47,1.47.84,3.02,1.72-1.68.18-2.25.34-2.8.28q-8.61-.83-6.38,7.91c.04.15.06.3.09.45.71,3.45,2.42,4.75,6.25,4.14,7.12-1.14,14.32-1.87,21.51-2.38,11.09-.79,22.21-1.16,33.31-1.87,6.66-.42,13.3-1.13,19.93-1.71.25-3.54,2.68-2.11,4.48-1.73,1.09.23,2.12,1.38,3.13,1.33,6.45-.34,12.91-.76,19.33-1.49,1.24-.14,3.09-1.58,3.31-2.7.51-2.57-1.55-2.81-3.6-2.69-8.28.48-16.58.85-24.85,1.42-4.56.31-9.1.95-13.65,1.45-.04-.48-.08-.95-.12-1.43,13.79-1.14,27.59-2.27,41.69-3.44v-12.65ZM351.69,424.3l-1.06-2.15c-35.69,2.39-71.38,4.77-107.08,7.16,2.92,10.24,11.23,6.38,17.24,8.47h-14.51v1.08h108.67v5.04c1.7-.39,3.76-.28,4.31-1.14.66-1.02.62-3.42-.16-4.26-2.64-2.87-2.38-6.15-2.27-9.55.04-1.15-.27-2.31-.42-3.47-.45.04-.89.07-1.34.11-.12,2.16-.24,4.33-.35,6.32-3.72.33-7.11.63-9.65.85,2.07-2.65,4.34-5.55,6.61-8.45ZM363.07,436.69c1.94,4.99,4.03,8.02,9.08,7.55,3.69-.34,7.44-.12,11.16-.2,7.35-.16,14.7-.37,22.04-.55.93-.02,1.85,0,2.78-.02,6.06-.1,12.13-.04,18.17-.47,1.14-.08,2.61-1.98,3.06-3.32.42-1.28-.32-2.93-.58-4.64-3.04-.17-5.92-.33-8.31-.46,2.4-2.21,8.68,2.41,8.76-3.7.05-3.91,3.15-9.6-2.65-12.25-2.64-1.2-10.64,2.64-11.07,3.73-2.38-.45-4.61-1.36-6.77-1.21-15.09,1.07-30.17,2.33-45.25,3.62-1.09.09-2.97.84-3.03,1.42-.27,2.84-.49,5.84.24,8.53.24.88,3.37,1.32,5.19,1.37,6.74.16,13.48.06,20.22.06,0,.18,0,.36.01.53h-23.05ZM474.87,432.43l-.04,1.93h-42.49c-2.29,7.92-2.31,8.16,4.51,8.81,3.72.36,7.53-.36,11.3-.44,14.6-.29,29.21-.58,43.81-.72,3.62-.03,4.65-1.73,4.18-4.93-.19-1.31-.52-2.59-.85-4.17h-13.78c-.01-.25-.03-.5-.04-.75,4.74-.43,9.48-.86,14.12-1.29.82-5.53.41-6.04-4.62-6.07-3.63-.02-7.26,0-10.9,0l.03-.88c1.51-.13,3.02-.26,3.96-.34-.87-1.3-1.68-2.5-2.47-3.7-.6-.9-1.18-1.81-1.77-2.72-.66.96-1.33,1.92-1.98,2.89-1.45,2.17-.94,6.2-5.63,5.21-4.02-.85-8.17-1.43-12.27-1.54-5.66-.15-11.52.56-11.95-7.43-1.34.07-2.1.09-2.86.16-.6.05-1.2.17-2.79.41,4.71.91,5.71,2.43,5.55,7.56-.54-.78-.96-1.19-1.16-1.69-1.49-3.81-6.06-6.24-10.18-5.37-4.93,1.03-6.08,2.83-5.59,8.68.06.75.04,1.52-.02,2.27-.39,5.17.33,5.9,5.48,5.66,11.54-.54,23.08-1.05,34.62-1.55,1.27-.06,2.54,0,3.81,0ZM176.39,458.8c.23.38-.5-.27-.43-.8.79-5.56-2.49-5.64-6.66-5.54-23.92.55-47.84.72-71.76,1.41-11.68.34-23.33,1.53-35.26,2.35,51.14,2.02,101.95,4.04,152.38,6.03,1.7-5.45,5.95-2.41,8.82-2.89,3.54-.59,7.22-.29,10.84-.38-.02-.5-.05-1-.07-1.5-1.75-.27-3.49-.54-5.48-.85.36-3.27.11-5.93-4.27-5.74-9.7.43-19.4.6-29.11.9-5.18.16-10.36.37-15.53.56.02.4.04.8.05,1.2h29.52c-1.78.6-3.57.56-5.35.61-6.93.21-13.89.19-20.78.82-2.12.19-4.08,2.19-6.9,3.81ZM175.25,436.4c-50.45,3.48-100.14,6.9-149.83,10.33.02.23.05.45.07.68h149.75v-11ZM370.88,461.47c9.5,2.38,19.03.17,26.43,7.02.67.62,2.05.74,3.08.67,8.84-.57,17.67-1.23,26.5-1.86.15-.01.37,0,.45-.08.83-.92,1.64-1.85,2.45-2.79-.92-.57-1.82-1.57-2.77-1.62-3.23-.16-6.49.18-9.71-.02-.93-.06-1.79-1.29-3.34-2.49h14.57c1.84-5.59,1.47-6-4.39-5.45-2.89.27-5.8.28-8.16.39-1.22-1.45-2.03-3.35-3.16-3.57-4.16-.81-8.43-1.41-12.66-1.45-8.83-.08-17.67.22-26.51.43-1.48.04-2.96.41-4.44.63.03.55.06,1.11.09,1.66h43.7c0,.44,0,.89,0,1.33-14.71.3-29.48-.37-44.97.97,1.42,3.09,2.3,5,2.85,6.21ZM784.33,410.34c-.42-.02-.85-.04-1.27-.06-.36,1.7-.66,4.84-1.08,4.86-4.24.18-3.44,4.18-5.03,6.24-1.27,1.65-1.52,4.91-2.97,5.46-5.46,2.06-5.89,7.11-7.1,11.34-.54,1.89,2.25,6.65,2.53,6.57,5.06-1.44,4.97,2.96,6.34,5.39,1.92,3.42,3.52,7.02,5.66,11.38.4-1.38.61-2.08.81-2.77l.68.67c.31,2.57.62,5.15.93,7.72l.51-.19v-56.61ZM448.63,409c.21,3.32,1.01,5.6,4.75,5.7,10.59.27,21.2-.26,31.76,1.12,2.56.34,5.3.3,7.82-.21,4.82-.99,3.25-5.04,2.91-7.93-.42-3.59-2.65-2.45-4.65-1.02-.43.31-1.14.39-1.69.32-3.37-.42-7.03-2-10.02-1.15-5.15,1.47-10.01-2.11-15.44.76-4.21,2.23-9.9,1.67-15.44,2.42ZM548.4,394.79c-.2,1.78-.38,3.47-.57,5.15-.31.01-.63.02-.94.03-.31-1.78-.61-3.57-.92-5.39-2.03.37-3.8.69-5.5,1-.28,1.77-.51,3.24-.74,4.71-.26-.03-.53-.06-.79-.09-.21-1.56-.43-3.11-.67-4.9-1.74.25-3.2.45-4.59.65-.27,1.92-.5,3.5-.72,5.08-.35-.05-.69-.1-1.04-.15-.14-1.6-.27-3.2-.43-5.05-1.79.23-3.25.42-4.87.64-.2,1.83-.38,3.45-.55,5.06-.36,0-.71-.01-1.07-.02-.15-1.66-.3-3.33-.47-5.18-3.64-.47-8.2,1.86-9.39-2.39-2.41,1.11-4.56,2.09-7.54,3.47.62,2.62,1.37,5.78,2.1,8.89,4.98-.54,9.02-1.22,13.09-1.39,9.31-.39,18.64-.52,27.95-.82.64-.02,1.76-.52,1.83-.94.48-2.82.75-5.68,1.11-8.75-2.06.15-3.59.26-5.27.38ZM771.41,458.2c.22-.43.45-.86.67-1.29-1.4-2.86-2.49-5.92-4.26-8.53-4-5.89-4.4-11.56-.4-17.62.93-1.41,1.63-4.71,1.1-5.05-1.87-1.2-4.92-2.66-6.43-1.89-3.27,1.68-7.54,4.24-8.34,7.25-1.15,4.34.14,9.46,1,14.13.23,1.24,2.69,2.07,4.47,3.32-1.19.66-1.99,1.1-3.68,2.04,5.8,2.79,10.83,5.21,15.87,7.63ZM238.01,442.8c.66-2.35,1.04-3.72,1.63-5.85h-18.41c0-.34-.02-.69-.03-1.03,2.62-.33,5.24-.66,7.87-.99-.03-.42-.07-.83-.1-1.25-16.91.65-33.83,1.29-50.83,1.95-.17,2.14-.27,3.46-.39,4.98,1.17.16,2.06.41,2.94.39,14.8-.27,29.6-.54,44.39-.91,1.3-.03,2.56-1.02,3.86-1.07,3.15-.13,7.08-2.34,9.06,3.78ZM698.6,413.04c.19.81.38,1.62.57,2.42-3.52.65-7.05,1.3-10.66,1.96-.22,1.29-.44,2.6-.46,2.7-3.5,2.1-6.11,3.67-8.73,5.24,2.27.62,4.47.41,6.69.35,6.66-.18,12.55-3.02,18.7-5.11,6.98-2.36,7.07-2.09,5.78-9.95-10.22.93-20.47,1.86-31.17,2.83,1.81,4.52,4.61,3.07,6.92,2.59,4.15-.87,8.25-2.01,12.37-3.04ZM711.23,308.06c-11.76.83-23.48,1.66-35.2,2.5-.02.62-.04,1.24-.06,1.86,3.58.2,7.17.41,9.42.54-1.88.6-4.95,1.58-8.03,2.56.15.66.29,1.33.44,1.99,8.68,0,17.36.16,26.03-.05,7.72-.19,8.57-1.51,7.41-9.39ZM177.63,444.86c.33.27.66.55,1,.82h58.67c-4.29-2.07-8.52-3.91-12.76-3.94-14.33-.09-28.67.4-43,.86-1.33.04-2.61,1.47-3.92,2.26ZM519.5,388.79c3.02,0,5.94.15,8.84-.03,4.32-.27,8.63-.79,12.95-1.16,2.1-.18,4.24-.5,6.32-.31,3.24.3,6.45.99,10.44,1.64-1.1-4.32-1.83-7.17-2.64-10.33-.79.26-1.61.52-2.51.81.64.68,1.15,1.21,2.44,2.58-13.71,1.2-26.42,2.31-39.65,3.47.83,2.96,1.51,5.36,2.19,7.76.35-.09.71-.17,1.06-.26.18-1.32.36-2.65.57-4.18ZM724.78,345.39c-.38-4.08-3.28-5.3-6.37-5.18-13.07.53-26.14,1.33-39.2,2.18-1.18.08-2.3,1.18-3.45,1.8.19.4.38.8.57,1.2h48.44ZM273.57,449.1h34.16c-.5-2.44-.87-4.2-1.47-7.14-.69,2.04-.99,2.91-1.17,3.45-3.74-3-7.09-3.71-10.58.43-.23-.8-.42-1.48-.67-2.35-.44.9-.81,1.68-1.53,3.18-.61-1.61-.93-2.46-1.36-3.58-.54,1.17-.91,1.99-1.55,3.38-.71-1.48-1.12-2.32-1.72-3.55-.69,1.2-1.14,1.96-1.69,2.92-.57-1.12-.96-1.89-1.6-3.14-.42,1.48-.65,2.28-1.08,3.8-.77-1.22-1.19-1.89-1.6-2.56-.45.63-.9,1.25-.75,1.04-2.46-.79-4.27-1.37-6.24-1.99-.45,2.38-.77,4.11-1.15,6.13ZM654.91,403.12c.03.67.06,1.33.09,2,1.72.18,3.44.37,5.15.55,0,.16-.01.32-.02.48-2.79-.16-5.57-.32-8.63-.49v6.56c1.82.38,3.37.69,4.92,1.01-.05.39-.1.79-.14,1.18-1.47.26-3,.87-4.41.66-1.38-.2-2.64-1.24-3.95-1.92,3.46,4.73,8.22,2.45,12.27,1.77,1.24-.21,2.04-4.74,2.46-7.38.22-1.37-.47-3.94-1.33-4.22-1.95-.64-4.25-.2-6.41-.2ZM736.49,428.3c.22-.06.44-.12.66-.18v-8.61c-5.58.4-10.94.78-16.3,1.16v1.04h14.29c0,.48,0,.97,0,1.45h-15.78c1.57,4.69,10.66,5.77,15.85,2.63l1.27,2.51ZM533,409.42c3.01.5,5.47,1.1,7.94,1.2.75.03,1.55-1.36,1.84-1.63,1.55.57,3.16,1.72,3.97,1.31.95-.49,1.19-2.34,2.07-4.36-11.22.77-21.48,1.47-32.83,2.25,1.25,1.91,1.98,3.81,2.59,3.77,1.55-.09,3.05-1.05,4.04-1.45,3.48.23,6.62.47,9.76.55.23,0,.49-1.27.62-1.62ZM309.14,442.53c-.3.29-.6.59-.9.88,1.49,1.68-3.06,5.37,2.06,5.66,5.87.33,11.77.08,18.29.08-.36-2.47-.63-4.31-1.03-7.05-.76,1.62-1.11,2.39-1.6,3.44-.62-1.27-1.02-2.09-1.6-3.27-.51,1.4-.81,2.23-1.29,3.55-.63-1.5-1-2.36-1.64-3.87-.5,1.65-.77,2.54-1.2,3.96-.73-1.46-1.17-2.36-1.93-3.89-.49,1.55-.73,2.32-1.07,3.4-.56-1.07-.99-1.87-1.8-3.43-.45,1.72-.68,2.61-.66,2.54-2.02-.72-3.81-1.36-5.6-1.99ZM353.23,467.42c2.17,0,4.81.75,5.78-.2,1.06-1.05.92-3.7.71-5.58-.43-3.91-1.25-7.77-1.98-12.08-3.18-.85-4.61,1.13-4.53,5.04.09,4.13.02,8.27.02,12.83ZM668.33,443.03c-.94-1.6-1.59-3.77-2.36-3.82-4.89-.32-9.82-.16-14.75-.16,1.83,7.82,7.11,1.24,10.48,3.76-1.6.91-2.73,1.55-4.65,2.64,4.12.33,6.88,5.45,10.82.91-1.57-1.26-2.81-2.26-4.06-3.26.21-.31.42-.63.63-.94,1.12.25,2.25.51,3.89.88ZM639.78,450.39v-11.42c-2.72-.44-5.09-.83-7.45-1.21.23.54.46,1.08.68,1.63-1.62.96-3.24,1.92-5.98,3.55,4.56,2.66,8.34,4.88,12.75,7.46ZM559.58,368.87c1.82,1.61,2.71,3.05,3.54,3.02,6.76-.27,13.51-.75,20.25-1.36.61-.05,1.29-1.37,1.53-2.22.07-.27-1.37-1.44-1.83-1.3-4.46,1.39-9.02-1.82-13.64.75-2.29,1.27-5.6.71-9.85,1.11ZM677.37,321.49v18c.4.02.81.03,1.21.05.18-2.24.37-4.48.57-6.89,1.47-.11,2.74.02,3.86-.34.99-.31,1.81-1.16,2.71-1.77-.93-.55-1.79-1.32-2.79-1.59-1.51-.41-3.12-.47-4.68-.67.06-.37.12-.75.18-1.12,1.49,0,3.07.3,4.45-.09,1.1-.31,1.96-1.47,2.93-2.25-.97-.68-1.86-1.61-2.94-1.99-1.81-.64-3.74-.93-5.48-1.33ZM727.89,352.55c.29-.19.57-.39.86-.58-1.08-1.28-2.17-3.65-3.24-3.64-5.22.04-10.44.69-15.65,1.19-.88.08-1.73.47-2.59.71.42.53.83,1.05,1.25,1.58h4.77c.87,1.32,1.68,2.54,1.85,2.8,3.01-.22,5.11-.37,7.29-.53.41-.99.9-2.2,1.4-3.4,1.36.63,2.72,1.25,4.08,1.88ZM598.64,432.11c.13-.35.25-.71.38-1.06-3.22-2.32-6.25-5.07-9.79-6.72-1.11-.52-3.6,1.94-5.45,3.03,1.05,1.58,1.92,4.33,3.19,4.53,3.81.61,7.77.22,11.68.22ZM624.64,459.69c9.74-.74,19.71-1.5,29.67-2.26l-.08-1.4c-.38-.21-.77-.64-1.13-.61-7.95.64-15.89,1.44-23.85,1.98-6.8.46-6.8.33-7.49,7.2-.11,1.08-.37,2.15-.56,3.22.47.1.94.21,1.41.31.66-2.76,1.32-5.53,2.02-8.44ZM711.83,467.04c0,.2.01.41.02.61,10.75.9,21.5,1.79,32.25,2.69.03-.19.06-.38.1-.57-1.3-.3-2.61-.6-4.36-1.01,2.06-.37,3.57-.65,5.07-.92-.06-.27-.13-.53-.19-.8h-32.89ZM635.96,455.83c.13-.37.26-.74.39-1.11-4.99-.68-9.65-1.86-11.35-7.56-1.14,1.83-1.91,3.27-2.87,4.56-.89,1.19-1.99,2.21-3.74,4.11h17.58ZM625.91,417.53c-2.22,2.93-1.27,4.59,1.11,6,5.22,3.08,12.44,2.85,15.24-.38-2.44-1.1-4.92-2.27-7.46-3.3-.44-.18-1.21.12-1.68.42-4.5,2.98-5.67,2.61-7.21-2.74ZM510.59,419.32c0,1.63,0,2.75,0,2.75,6.27.07,12.54.07,19.03.07-.12-1.93-.27-4.35-.35-5.6-2.11,1.05-3.8,2.5-5.61,2.66-4.16.37-8.38.12-13.08.12ZM739.85,447.52c2.61-1.33,4.17-2.13,6.59-3.36-2.43-.82-3.72-1.25-4.85-1.63,1.4-1.33,2.95-2.27,3.56-3.62.28-.61-1.31-2.06-2.21-3.37-.11.24,0-.04.14-.3.71-1.19,1.43-2.37,2.15-3.56-.65-.29-1.68-1-1.9-.81-1.06.96-2.54,2.07-2.69,3.28-.51,4.12-.53,8.3-.78,13.37ZM738.9,463.73c0-.52.02-1.04.03-1.55-9.13-2.21-18.32-.31-27.49.35,0,.4,0,.8-.01,1.21h27.47ZM718.23,438.12l-.77,1.36h18.74c0-.47,0-.94,0-1.41h-14.55c-.26-2.35-.47-4.22-.82-7.32-1.9,1.42-3.8,2.14-4.18,3.34-.34,1.07.99,2.67,1.59,4.03ZM585.11,419.43c4.82,2.83,6.76-1.77,9.9-3.06,3.29-1.36,4.44-4,5.8-7.09-2.15.52-4.17,1.38-6.08,2.42-1.84,1.01-4.17,1.29-4.26,4.52-.03,1.06-3.28,2.03-5.35,3.2ZM676.18,347.58c.03.52.05,1.03.08,1.55,14.4-.87,28.81-1.74,43.21-2.61-.01-.28-.03-.56-.04-.84-14.42.63-28.83,1.26-43.25,1.89ZM671.78,460.85c.21,4.39.38,7.92.54,11.46.46-.02.93-.04,1.39-.06v-12.38h-25.53c0,.32,0,.65,0,.97h23.6ZM708.65,470.98c6.74,3.16,14.27,2.46,16.33-1.47-5.33-.06-10.43-1.68-16.33,1.47ZM612.08,408.39c-1.99,3.73-.06,6.29,2.53,7.15,1.7.56,4.45-.93,6.2-2.22.55-.41-.27-3.39-1.15-4.74-.45-.69-2.43-.38-4.23-.59,1.15,1.38,1.83,2.19,2.71,3.25-3.55,1.92-5.26.89-6.05-2.85ZM588.07,409.57c-4.73.34-9.13.66-13.53.98,0,.54.01,1.09.02,1.63,3.87,1.2,7.74,2.41,12.08,3.76.42-1.89.9-4.01,1.43-6.37ZM589.95,406.79c0,.22,0,.44.01.66h27.68c-.02-.75-.04-1.49-.06-2.24-9.21.53-18.43,1.05-27.64,1.58ZM666.12,452.23c-7.03-2.98-13.55-1.37-19.84-1.26,4.6,1.76,9.02,3.45,13.28,5.07-.69-.76-1.33-1.46-1.97-2.16,2.53-.49,5.05-.98,8.54-1.65ZM505.37,401.59c-.09-.5-.19-.99-.28-1.49-10.07-1.27-14.97-.15-15.64,4.14,5.45-.91,10.69-1.78,15.93-2.65ZM758.64,406.77c-2.72,0-6.91,2.76-6.92,5.13,0,1.24,1.47,2.49,2.27,3.73,1.3-.96,3.15-1.65,3.75-2.93.81-1.74.65-3.94.9-5.93ZM330.25,441.45c-1.39,6.93-3.85,8.56,7.85,6.89-.18-1.94-.36-3.89-.54-5.84-.3.01-.6.03-.9.04-.31.89-.62,1.79-1.16,3.34-.55-1.67-.87-2.66-1.52-4.64-.82,1.98-1.24,2.99-1.93,4.64-.65-1.6-1.01-2.48-1.8-4.44ZM775.16,403.22c.59-2.02,1.2-4.11,1.81-6.21l-.92-.66c-1.54,1.47-3.08,2.95-4,3.82.9,3.68,1.73,7.1,2.56,10.52.39-.09.78-.18,1.17-.27.23-2.32,3.9-4.92-.62-7.21ZM244.99,452.81c-.53-.31-1.06-.62-1.59-.93-.83.9-2.44,1.92-2.34,2.69.41,2.89-1.52,6.47,3.08,8.61.28-3.46.57-6.91.85-10.37ZM592.09,464.9c.53.04,1.05.08,1.58.13.45-2.33.91-4.65,1.33-6.8.73-.06,1.68-.15,2.64-.23-.1-.72-.04-1.97-.33-2.07-1.89-.59-3.86-.92-5.98-1.38.3,4,.54,7.17.77,10.34ZM695.96,291.33c0-.36,0-.72,0-1.07h-17.03c0,.36,0,.72,0,1.07h17.03ZM701.82,447.36c-.31,3.32-.54,5.82-.8,8.69,1.65.2,3.31.4,4.98.61-2.21-2.99,1.77-8.74-4.18-9.3ZM332.04,456.79c-.32.07-.63.14-.95.2-.24-1.84-.48-3.68-.72-5.53-.21.03-.42.05-.63.08-.43,2.77-.87,5.54-1.29,8.23h7.1c-.66-2.95-1.29-5.75-2.23-9.94-.59,3.22-.94,5.09-1.28,6.95ZM619.83,430.18c1.59-1.94,3.16-3.04,3.26-4.27.08-.95-2.15-3.1-2.5-2.93-1.69.8-3.08,2.21-4.58,3.41,1.01,1,2.02,2,3.82,3.79ZM674.6,337.64v-24.06c-.38.01-.75.03-1.13.04.4,8.52.8,17.05,1.13,24.02ZM502.54,446.32c0-.4,0-.8,0-1.2h-22.03v1.2h22.03ZM484.22,418.33c-.05.48-.11.96-.16,1.44,3.77.77,7.53,1.54,11.77,2.4.02-.36.12-1.73.22-3.32-4.27-.19-8.06-.35-11.84-.52ZM695.83,296.12c.09-.33.18-.67.27-1h-17.25c0,.33,0,.67,0,1h16.98ZM675.17,483.25l-.23-.94c-3.71-.49-7.41-1.12-11.14-1.37-.86-.06-1.82,1.16-3.47,2.31h14.84ZM567.29,443.68l-.08,2.07h14.2c.03-.46.05-.92.08-1.37-4.74-.23-9.47-.46-14.21-.69ZM696.27,451.03c0-.42.02-.84.02-1.26-2-1.07-3.99-2.14-7.25-3.88.32,2.51.32,5.28.73,5.34,2.11.32,4.32-.06,6.5-.2ZM721.83,429.83c-6.48-2.33-2.21-8.06-5.06-11.43-1.88,8.3-.55,11.97,5.06,11.43ZM429.05,452.16c-4.38-5.35-7.95-.53-11.6,0h11.6ZM653.97,434.65h15.47c-.62-1.27-1.17-2.39-1.54-3.16-4.21,4.03-9.87-1.01-13.93,3.16ZM445.54,448.88c-5.05.92-9.3,1.7-13.55,2.48l.24,1.12c4.29-.87,9.27,1.84,13.31-3.6ZM342.93,443.72c-.18.72-.43,1.17-.35,1.56.24,1.19.28,2.75,1.04,3.38.52.43,2.13-.46,3.25-.76-.56-.98-1.33-1.9-1.63-2.95-.25-.87.04-1.9.11-3.13-1.73.11-3.34.2-4.95.36-.21.02-.38.4-.89.97,1.16.19,2.07.35,3.41.57ZM414.76,415.33c.09.81.17,1.63.26,2.44,3.52-.42,7.04-.84,10.56-1.25-.07-.71-.15-1.43-.22-2.14-3.53.32-7.06.63-10.6.95ZM399.13,417.06c.08.76.17,1.52.25,2.27,3.77-.59,7.54-1.18,11.31-1.77l-.24-1.81c-3.77.43-7.55.87-11.32,1.3ZM446.65,414.95c.06-.72.12-1.44.18-2.17-3.04-3.18-6.17.72-9.25-.25-.02.67-.04,1.34-.06,2.01,3.04.14,6.09.27,9.13.41ZM509.21,417.48c-2.47.73-4.35,1.29-7.34,2.17,1.68,1.83,2.79,3.05,4.42,4.83,1.2-2.87,1.99-4.76,2.92-7ZM448.62,446.8l-.33-1.03h-13.15l.04,1.03h13.45ZM612.31,463.26c-4.68-4.79-5.29-4.75-8.39,0h8.39ZM695.57,429.11l-.82-1.52c-2.7,1.2-5.4,2.41-8.1,3.61.3.61.61,1.21.91,1.82,2.5-1.62,6.6-.27,8.01-3.91ZM615.17,426.09c-3.47,1.32-6.36,2.41-9.63,3.65,6.22,1.81,8.64,1.01,9.63-3.65ZM736.67,436.53c.21-.6.42-1.2.64-1.8-1.44-.68-3.02-2.09-4.27-1.84-1.17.23-2,2.21-3.44,3.98,2.92-.14,5-.24,7.07-.34ZM687.96,434.73c.27.87.54,1.74.82,2.61,3.33-1.24,6.66-2.47,9.99-3.71-.13-.4-.26-.8-.38-1.2-3.47.76-6.95,1.53-10.42,2.29ZM759.29,470.89c-.84.55-1.69,1.1-2.53,1.65,1.33,1.66,2.66,3.31,4,4.97.65-.46,1.3-.93,1.95-1.39-1.14-1.74-2.28-3.48-3.41-5.23ZM560.98,415.57c.78.54,1.56,1.08,2.34,1.62.8-1.23,1.89-2.38,2.28-3.73.16-.56-1.16-1.55-1.8-2.34-.94,1.48-1.88,2.96-2.81,4.44ZM582.48,392.22c-.06-.63-.13-1.27-.19-1.9-3.14.3-6.28.6-9.41.89.05.54.1,1.08.15,1.62,3.15-.21,6.3-.41,9.45-.62ZM528.48,447.66c-1.49-4.64-1.61-4.64-7.7.34,2.96-.13,5.28-.23,7.7-.34ZM603.31,441.83c-3.42.26-5.82.43-8.75.65,3.19,3.6,5.49,3.53,8.75-.65ZM219.83,461.27c-.01.2-.02.41-.03.61,4.76.37,9.52.73,14.28,1.1.03-.57.06-1.14.09-1.71h-14.33ZM504.46,407.78c-2.51,5.63-2.32,6.01,2.57,6.24-.92-2.24-1.75-4.24-2.57-6.24ZM432.78,468.57c0,.31-.02.62-.03.94h10.55c0-.31.02-.62.03-.94h-10.54ZM691.77,443.07c.41.4.81.8,1.22,1.2,1.72-1.69,3.43-3.38,5.15-5.07-.61-.58-1.22-1.15-1.84-1.73l-4.53,5.6Z"/>
      <path class="cls-1" d="M612.31,463.26h-8.39"/>
      <path class="cls-1" d="M667.56,401.13c5.77,0,11.55-.04,17.32,0,7.67.06,15.35.12,23.02.4,1,.04,1.95,1.38,2.18,2.62-1.75-.38-3.51-1.13-5.25-1.09-10.93.24-21.86.74-32.79.94-1.7.03-3.43-1.04-5.14-1.6.22-.42.44-.85.66-1.27Z"/>
      <path class="cls-1" d="M735.2,391.58c-2.54-5.12-1.65-9.29,4.35-14.68-.2,1.64-.32,2.63-.56,4.62,1.65-2.59,2.87-4.5,4.09-6.41.39.17.78.34,1.18.51-1.1,2.53-2,5.18-3.37,7.55-1.71,2.95-3.82,5.67-5.69,8.4Z"/>
      <path class="cls-1" d="M709.88,408.24h-37.66c-.01-.21-.03-.41-.04-.62,12.55-.55,25.1-1.1,37.65-1.65.02.76.04,1.52.06,2.27Z"/>
      <path class="cls-1" d="M608.76,376.37c-12.23.97-24.45,1.93-36.68,2.9-.05-.61-.1-1.22-.15-1.83,12.25-.9,24.49-1.81,36.74-2.71.03.55.06,1.09.09,1.64Z"/>
      <path class="cls-1" d="M658.08,365.54c4.83.34,9.02.63,14.07.99-5.83,1.64-11.64-.47-16.63,4.06,1.08-2.13,1.94-3.82,2.56-5.05Z"/>
      <path class="cls-1" d="M264.35,436.25c11.89-1.04,22.75-2,34.82-3.06-1.76,1.29-2.65,2.5-3.6,2.55-9.63.5-19.28.81-28.92,1.14-.41.01-.84-.22-2.3-.64Z"/>
      <path class="cls-1" d="M410.37,430.43l-11.66.72c-.04-.54-.09-1.08-.13-1.62,3.88-.36,7.76-.72,11.64-1.08.05.66.1,1.32.15,1.98Z"/>
      <path class="cls-1" d="M412,435.39h-21c0-.07,0-.14,0-.21h20.99c0,.07,0,.14.01.21Z"/>
      <path class="cls-1" d="M509.1,437.08h42.54c.02.38.03.76.05,1.14h-42.59c0-.38,0-.76,0-1.14Z"/>
      <path class="cls-1" d="M557.34,426.43c-2.32-1.63-3.71-3.42-5.1-3.42-2.8-.02-5.6.94-8.31,1.47.19-3.42,3.72-4.54,14.06-3.81-.19,1.72-.39,3.41-.65,5.76Z"/>
      <path class="cls-1" d="M698.19,364.63c5.6,1.25,11.2,2.49,16.8,3.74.03.16.05.33.08.49-6.06.33-12.11.67-19.25,1.06,2.16-.68,3.34-1.05,5.27-1.65-1.42-1.12-2.31-1.82-3.2-2.51l.3-1.12Z"/>
      <path class="cls-1" d="M736.33,454.31c-1.61.58-3.19,1.41-4.85,1.67-1.88.29-3.83.07-5.8-1.04,3.58-.18,7.16-.35,10.74-.53,0,0-.09-.1-.09-.1Z"/>
    </g>
  </g>
</svg>