<?xml version="1.0" encoding="UTF-8"?>
<svg id="Calque_1" data-name="Calque 1" xmlns="http://www.w3.org/2000/svg" version="1.1" viewBox="0 0 800 800">
  <defs>
    <style>
      .cls-1 {
        fill: #fff;
        stroke-width: 0px;
      }
    </style>
  </defs>
  <g id="Y9xJC5">
    <g>
      <path class="cls-1" d="M700.79,445.27c-4.61-8.58-9.41-5.38-15.18-3.35-17.84,6.28-35.99,11.65-54.02,17.39-13.78,4.38-27.57,8.75-41.32,13.22-1.44.47-3.37,1.3-3.87,2.47-2.6,6.16-4.55,12.6-7.3,18.68-1.07,2.37-3.3,5.1-5.61,5.88-8.99,3.06-18.22,5.44-27.38,7.99-1.99.55-4.28,1.48-6.08.98-3.39-.94-6.22-2.77-2.56-6.89,2.11-2.37,3.78-5.15,6.85-9.42-3.57.22-6.26-.44-7.68.61-6.46,4.8-12.52,4.46-19.03.17-4.67-3.08-13.82-1.36-17.86,2.67-4.96,4.94-10.08,9.73-15.14,14.58.08.72.16,1.44.23,2.16,2.76.21,5.64,1.02,8.27.53,8.6-1.61,8.51,6.18,10.07,10.32,1.66,4.38,1.26,9.91-3.77,13.85-6.41,5.03-12.63,10.48-10.82,20.33.28,1.54-2,4.27-3.77,5.35-15.65,9.61-39.54,8.56-53.71-2.63-1.88-1.48-2.69-5.36-2.58-8.07.22-5.34-1.37-9.28-5.23-13.04-9.91-9.65-10.14-20.62-.61-30.37,1.16-1.19,5.44-.95,7.08.25,4.54,3.31,7.56,1.6,9.77-2.21,7.15-12.34,14.1-24.8,20.88-37.35.76-1.4.62-4.17-.3-5.42-3.28-4.46-7.07-8.54-12.27-12.59.17,3.73.22,7.46.55,11.18.24,2.75,1.15,5.46,1.23,8.2.27,10.28.18,10.12-10.27,10.54-2.59.1-5.97.86-7.53,2.61-9.19,10.27-20.84,11.25-33.64,11.34-11.56.08-21.29-1.91-29.89-10.19-2.45-2.36-7.74-2.46-11.71-2.4-5.22.08-7.21-1.73-7.08-6.9.22-8.78.06-17.56.06-26.34-.72-.28-1.43-.56-2.15-.84-6.1,9.18-12.19,18.36-18.29,27.54.56.17,1.13.34,1.69.51-.3,3.11.42,6.98-1.18,9.1-1.54,2.03-5.48,2.25-9.19,3.55-.33,4.54.05,9.93-9.9,6.7-6.4-2.08-14.37.66-22.13,1.28,1.57,8.39-3.38,9.11-10.23,8.57-6.98-.55-14.04-.16-21.06-.11-3.37.02-6.2-.32-5.72-4.86.46-4.33-2.09-4.83-5.69-4.75-7.54.18-15.15.46-22.59-.43-2.06-.25-3.64-4.47-5.07-6.37-2.65-.32-5.95-.19-8.76-1.31-1.12-.44-2.21-4.38-1.47-5.47,3.43-5.02.13-5.96-3.56-7.13-28.5-9.06-57.02-18.08-85.47-27.29-7.29-2.36-14.3-5.57-21.6-7.93-2.16-.7-5.44-.68-7.17.52-7.04,4.89-13.67,10.37-21.04,16.08,9.54,13.61,18.46,26.43,27.48,39.18,19.3,27.31,38.58,54.63,58.06,81.8,2.72,3.8,2.95,6.71.57,10.73-8.69,14.68-16.98,29.61-25.58,44.34-4.22,7.23-5.65,7.22-10.87.61-26.68-33.78-53.33-67.59-80.01-101.37-9.56-12.11-19.31-24.09-28.6-36.41-1.92-2.54-3.07-6.32-3.1-9.54-.56-53.37-.97-106.74-1.09-160.11,0-3.6,1.82-7.76,4.04-10.73,37.4-50.02,75.04-99.87,112.47-149.87,2.74-3.66,5.05-4.81,9.25-2.58,7.84,4.15,15.85,7.96,23.84,11.83,4.5,2.18,5.39,4.41,2.34,9.16-29.25,45.68-58.22,91.54-87.26,137.36-5.31,8.39-4.77,11.91,3.08,17.93,5.74,4.41,11.53,8.81,17.63,12.67,1.96,1.24,5.28,1.66,7.52.96,29.39-9.23,58.77-18.51,87.98-28.31,8.33-2.79,17.82-3.63,23.99-11.39.83-1.04,3.02-1.01,4.02-1.3,0-2.87-.93-6.15.29-7.97,1-1.48,6-2.42,6.77-1.52,2.65,3.13,4.23,7.17,5.61,9.73.04-.55-.02-2.89.39-5.14.79-4.33,2.09-7.78,7.91-5.33,1.56.66,4.4-.34,6-1.48,3.21-2.3,5.91-5.3,8.94-7.87,4.35-3.7,8.8-5.53,14.71-2.61,2.91,1.43,6.87,1.4,10.26,1.05,7.14-.72,14.34,1.63,21.57-2.26,3.38-1.82,10.29-2.7,10.95,5.18,7.7-.55,8.39.27,6.16,7.62-.97-1.48-1.79-2.73-2.64-4.04-6.96,6.94-6.65,6.6-13.33.49-1.73-1.58-6.12-.24-9.83-.24-1.77-7.97-9-1.74-13.82-2.91-6.28-1.53-10.85,1.48-13.32,7.68-1.78-3.53-3.27-6.49-5.07-10.06-2.57,2.08-4.87,3.93-7.17,5.79-2.36,1.9-4.73,3.8-8.82,7.09,5.56-.68,9.78,2.43,12.37-3.69.31-.72,3.86-.62,5.6,0,1.15.41,1.74,2.42,3.05,4.44,2.06-2.32,3.64-4.1,5.75-6.49,1.87,1.99,3.62,3.86,6.6,7.05,1.39-2.88,2.57-5.34,3.76-7.79.35,1.13.69,2.26,1.04,3.39,4.48.98,8.93,2.54,13.46,2.81,7.92.46,15.89.13,23.45.13,1.39-2.01,2.51-3.65,3.64-5.28.83,1.47,1.65,2.96,2.5,4.42,1.72,2.97,3.56,5.89,5.17,8.92,1.32,2.5,2.31,5.18,3.58,7.71.8,1.58,1.53,3.46,2.85,4.47,4.35,3.35,6.55,6.8,1.6,11.24,5.95,4.78,12.76,4.19,21.75-1.68,5.23,9.16,14,4.11,21.33,5.1.74.1,2.17-1.16,2.46-2.05,2.94-9.14,5.41-3.62,8.02.49,1.75-7.31,7.56-4.76,11.81-4.74,2.4.01,4.79,2.34,7.66,3.88,1.22-2.35,3.5-7.38,6.94.84.44,1.05,2.66,2.17,3.83,1.97,5.98-1.02,13.05,3.12,17.94-4.01.79-1.15,4.68-.16,6.8-.16,5.84-7.7,11.54-15.89,18.01-23.42,3.11-3.62,7.41-6.5,11.67-8.77,2.92-1.56,6.7-1.49,11.16-2.36.6-9.46,10.19-8,17.09-8.74,13.67-1.48,26.98,1.3,39.53,7.17,1.05.49,2.66,1.01,2.89,1.83,3.64,13.04,10.9,3.75,17.18,3.5,4.05-.17,11.26,3.16,11.81,5.96,1.33,6.67,5.64,8.2,10.4,9.75,16.21,5.27,32.48,10.32,48.76,15.38,18.94,5.88,37.91,11.71,56.88,17.49,6.22,1.89,14.37-3.48,14.83-9.91.94-13.33.23-25.73-7.62-38.03-25.52-40-49.81-80.78-74.62-121.24-2.52-4.11-2.54-6.64,2.9-8.1,16.69-4.46,33.34-9.05,49.88-14.04,4.53-1.36,6.89-.03,9.39,3.4,30.1,41.45,60.3,82.82,90.4,124.26,6.04,8.32,12.13,16.63,17.56,25.35,2.2,3.53,3.8,8.11,3.81,12.22.1,33.47-.22,66.94-.46,100.41-.13,17.53-.19,35.07-.71,52.59-.09,2.92-1.87,6.2-3.78,8.59-33.4,41.88-66.95,83.65-100.44,125.46-4.09,5.11-8.33,10.16-11.89,15.64-3.98,6.14-7.59,5.36-12.22.86-10.58-10.26-21.38-20.29-32.08-30.42-3.74-3.54-7.27-7.33-11.22-10.6-4.73-3.92-4.72-7.66-1.5-12.7,12.31-19.34,24.52-38.75,36.35-58.38,14.82-24.61,29.24-49.46,43.56-73.76ZM706.85,494.04c-3.09,6.4-6.17,12.8-9.26,19.2,4.51-4.91,7.97-10.44,11.17-16.11.24-.42-1.37-1.89-2.13-2.87.36-1.75.71-3.5,1.08-5.29-1.73-.83-3.24-1.56-4.51-2.17,2.48,8.79-7.28,13.24-7.48,21.7,4.07-5.29,7.6-9.88,11.13-14.46ZM20.65,305.74c-8.42,8.31-12.8,17.44-12.56,30.22.92,47.28.92,94.6.2,141.89-.21,13.61,7.52,21.43,15.2,30.11.03-1.19-.27-2.33-1-2.99-11.34-10.33-12.64-23.58-11.34-37.75.44-4.88.13-9.83.06-14.75-.4-31.12-1.05-62.24-1.14-93.36-.05-18.29-4.23-37.68,11.37-52.67,1.24-1.37,2.59-2.67,3.7-4.14,17.8-23.49,35.57-47,53.34-70.51,6.8-9,13.59-18.01,20.38-27.01-2.39.27-3.58,1.49-4.61,2.82-7.72,9.99-15.53,19.92-23.08,30.03-16.91,22.65-33.7,45.39-50.53,68.1ZM733.27,505.14c3.24-6.15,6.48-12.3,9.72-18.44-2.87-.03-5.33.63-6.36,2.21-18.71,28.85-39.1,56.64-55.85,86.91,5.58-4.47,9.9-9.89,14.12-15.4,5.53-7.22,11-14.49,16.46-21.77,2.32-3.1,4.52-6.27,6.78-9.42,5.04-8.03,10.09-16.06,15.13-24.09ZM727.74,294.74c2.88,3.16,5.76,6.33,9.96,10.95-1.34-3.48-2.01-5.2-3.15-8.18,9.61,9.84,9.76,11.22,3.1,20.59-7.58,10.67-15.19,21.33-22.77,31.99-1.75,2.47-3.47,4.96-5.21,7.44l1.58,1.32c1.83-1.77,3.94-3.33,5.45-5.34,8.99-11.97,17.6-24.22,26.83-35.99,4.84-6.18,4.54-11.16.17-17.54-18.76-27.38-37.08-55.07-55.6-82.62-1.04-1.55-2.43-2.88-3.65-4.31-.62.36-1.25.73-1.87,1.09.89,2.12,1.5,4.42,2.71,6.35,9.87,15.78,19.86,31.49,29.8,47.22,2.49,3.94,4.79,8,7.5,11.79,2.24,3.13,5.36,5.68,7.31,8.95,2.2,3.68-.18,4.48-3.48,3.84-1.08-1.89-2.16-3.78-3.25-5.67-.56.45-1.11.89-1.67,1.34,2.09,2.27,4.17,4.53,6.26,6.8ZM27.83,463.16c-2.54,1.94-5.17,3.79-7.57,5.9-.59.51-.77,1.99-.5,2.81.19.58,1.82,1.35,2.2,1.1,5.04-3.35,9.97-6.87,14.93-10.35-.4-.7-.79-1.4-1.19-2.1-2.69.93-5.37,1.86-8.06,2.79-2.2-14.93-5.69-29.8-6.28-44.79-.74-19.01.74-38.11,1.57-57.16.28-6.48,1.5-12.93,2.25-19.05-2.78-.32-6.74-.78-11.28-1.3,2.25,8.85-2.87,18.73,4.83,28.75,0,10.97-.07,24.31.02,37.65.09,12.9.36,25.8.56,39.19-.26-.02-2.12-.18-4.09-.35v-36.84l-1.37-.03v63.71c.19.02.39.03.58.05v-22.7c.72,0,1.45.01,2.17.02v17.43c4.5-1.89,7.88-3.31,11.22-4.72ZM40.89,314.62c.88-2.17,1.77-4.35,2.65-6.52-5.67,5.58-9.33,14.06-21.23,9.63,24.59-33.7,48.94-67.07,73.29-100.44-.61-.44-1.22-.88-1.83-1.32-26.37,34.94-52.74,69.88-79.57,105.43,11.13,2.17,20.51,3.8,26.26-6.91.07-.12.44-.07.68-.1-9.2,11.31-6.36,23.83-4.1,36.79,4.52.48,8.69.77,12.81,1.4,2.96.45,7.15.35,8.55,2.19,5.45,7.18,12.49,3.91,20.31,5.38-12.07-15.92-22.99-30.4-34.07-44.76-.59-.76-2.46-.53-3.75-.75ZM126.89,226.37c8.59-13.55,17.19-27.09,26.11-41.15-6.2-3.18-11.69-5.99-17.13-8.78-12.69,11.7-24.94,23-37.63,34.7,4.15,2.41,6.93,4.8,10.14,5.72,4.97,1.42,10.25,1.72,15.35,2.73,3.7.73,4.27,3.03,2.41,6.12-18.49,28.34-37.05,56.63-55.42,85.05-2.91,4.5-4.98,9.55-13.33,8.59,2.64,3.1,4.13,4.85,6.27,7.35,12.32-19.41,24.1-37.9,35.8-56.44,9.2-14.59,18.29-29.25,27.43-43.88ZM43.59,479.04c-.2,1.24-.4,2.48-.6,3.72.63.41,1.26.82,1.89,1.22,13.82-17.77,27.64-35.54,41.45-53.31-.51-.46-1.01-.92-1.52-1.38-1.75,1.64-3.71,3.12-5.21,4.97-3.82,4.7-7.33,9.66-11.14,14.37-8.32,10.27-16.75,20.45-25.13,30.67,2.27-3.44,4.36-7.03,6.85-10.31,8.96-11.78,18.06-23.46,27.88-36.18-6.4.59-11.42,1.05-16.44,1.51-.06-.7-.13-1.41-.19-2.11,3.05-.28,6.23-.12,9.11-.96,3.18-.93,8.29,0,8.02-5.67-.3-6.18-1.02-12.33-1.46-17.42h-19.96c.5,8.36.63,16.5,1.61,24.54.57,4.68-.6,7.17-5.22,7.98-3.43.6-6.82,1.55-10.28,1.89-5.42.53-7.33,3.34-6.35,8.49.61,3.21,1.44,6.41,1.7,9.64.15,1.92-.06,4.29-1.09,5.8-5.45,8.02-5.49,8.69,1.6,15.41,1.46-.94,2.96-1.9,4.47-2.88ZM714.45,448.75c7.15,10.01,14.2,20.09,21.54,29.96,1.61,2.16,4.25,3.54,6.42,5.29.51-.56,1.02-1.12,1.53-1.68-1.43-2.08-2.83-4.18-4.3-6.23-8.98-12.52-18.13-24.92-26.82-37.63-1.5-2.19-1.61-5.72-1.45-8.59.53-9.52,1.54-19.01,2.2-28.52.16-2.25-.54-4.55-.55-6.83-.06-10.77-.03-21.54-.03-32.77-6.36-.35-12.15-.67-17.57-.97,0,20.09.26,39.39-.09,58.68-.23,12.75-.63,12.74,10.8,11.96,1.23,3.25,2.12,6.21,3.46,8.95,1.41,2.9,3.24,5.59,4.89,8.38-6.02-5.25-12.04-10.49-18.05-15.74-.59.7-1.18,1.41-1.77,2.11,5.57,4.69,11.09,9.43,16.77,13.99.56.45,2.01-.22,3.04-.36ZM588.99,456.62c2.48-4.65,4.96-9.31,7.6-14.27-1.59-1.13-2.78-2.19-4.15-2.93q-15.11-8.19-7.12-23.48c.11-.21.22-.42.3-.63,1.23-3.45,3.41-3.87,6.6-2.43,4.83,2.18,9.8,4.08,14.74,6.11,1.09-2.89,1.92-5.09,2.75-7.3.46.16.91.32,1.37.48-.3,2.12-.6,4.24-.9,6.36,4.36-8.26,4.17-18.48-.08-38.89-5.84,1.69-11.61,3.72-17.54,4.89-2.25.45-6.11-.26-7.15-1.83-8.18-12.27-6.48-17.27,6.56-23.79,2.54-1.27,4.14-4.43,6.51-7.09.09.06,1.81,1.17,3.53,2.28.27-.36.53-.72.8-1.07-9.11-9.51-18.22-19.01-27.24-28.43-.98.65-1.53.81-1.72,1.16-2.71,4.92-5.67,9.72-7.95,14.83-2.37,5.31-5.44,7.35-10.84,4.17-.79-.47-1.76-.62-2.63-.97-10.53-4.24-10.46-4.22-6.88-14.81,1.58-4.68,2.83-9.47,4.05-13.59-4.83-1.34-8.2-2.75-11.68-3.12-4.79-.51-9.68-.54-14.49-.22-5.61.37-11.18,1.35-16.77,2.06.73,3.97,1.45,7.94,2.18,11.91.08.46.21.91.34,1.36,4.25,14.41,4.12,14.08-9.85,19.76-4.99,2.03-6.77.11-8.6-3.6-3.17-6.41-6.38-12.8-9.82-19.69-10.74,10.34-20.99,20.22-32.24,31.05,5.94,2.68,10.02,4.33,13.92,6.32,16.61,8.46,15.91,3.9,8.69,22.69-1.58,4.1-3.6,4.49-7.5,3.17-7.68-2.61-15.56-4.62-22.93-6.76-1.2,7.32-3.36,14.12-3.12,20.83.25,6.81,2.88,13.53,4.5,20.48,3.85-1.47,6.48-2.43,9.07-3.47,16.22-6.53,16.06-6.48,22.46,10.04,1.78,4.59.73,6.87-3.53,8.75-6.51,2.86-12.86,6.07-20.81,9.87,10.89,10.65,20.74,20.29,31.23,30.55,3.01-6.12,5.04-10.33,7.14-14.5,6.9-13.71,6.85-13.58,20.94-6.58,4.04,2.01,4.73,4.22,3.16,8.29-2.66,6.9-4.79,14.01-7.52,22.17,5.31,0,9.92.11,14.52-.03,3.95-.13,8.29.35,11.7-1.14,2.81-1.23,3.92-2.19,6.87.06,1.65,1.26,5.62-.42,8.5-.99.28-.06.26-1.64.38-2.51-2.26-.25-4.53-.47-6.78-.8-.25-.04-.4-.71-.84-1.56,2.13-.7,4.16-1.38,6.46-2.14-1.64-4.82-3.47-9.14-4.46-13.64-.38-1.74.58-5.03,1.88-5.67,5.75-2.83,11.84-4.95,17.8-7.32,4.42,8.01,8.42,15.26,13.44,24.37,5.39-6.77,9.63-12.08,13.87-17.39.43-.44.85-.88,1.28-1.32ZM204.39,470.47c.68-5.6,3.06-4.81,6.34-2.22,18.61,14.66,38.33,24.52,63.44,19.42,13.46-2.73,26.66-5.67,38.05-13.17,31-20.41,44.21-49.59,40.03-86.38-1.84-16.16-9.37-30.46-17.78-43.94-3.73-5.98-10.29-10.38-16.02-14.9-12.89-10.16-28.15-14.72-44.08-16.84-11.14-1.48-21.86.57-32.79,4.09-20.36,6.57-37.46,17.48-48.47,35.54-20.52,33.66-19.64,67.78,1.38,101.26.77,1.23,1.29,2.61,1.92,3.92-2.25-.5-3.81-1.6-4.36-3.07-2.84-7.62-8.39-9.89-15.96-8.68-1.13.18-2.33-.14-3.5-.14-16.61-.01-33.21,0-51,0,28.18,8.55,55.17,16.74,82.8,25.12ZM778.56,449.05v-97.93c-1.71-.09-4.9-.25-8.09-.41-.27-.74-.55-1.48-.82-2.22,10.81,1.36,18.48-1.53,17.77-13.12-.26-4.33,3.95-10.91-2.44-12.14-.43-2.97-.18-4.89-.98-6.14-3.63-5.72-7.41-11.37-11.41-16.84-22.66-31.01-45.4-61.95-68.12-92.92-.26-.36-.59-.69-.93-.98-8.38-7.24-16.73-14.51-25.16-21.68-5.18-4.4-11.07-9.61-17.7-8.63-11.81,1.75-23.3,5.67-35.27,8.78,1.18,2.21,1.77,3.48,2.49,4.67,24.11,40.06,48.19,80.15,72.42,120.14,2.3,3.79,5.56,6.99,7.24,9.07.25,4.41.45,7.91.64,11.4.36.03.73.05,1.09.08.21-2.02.42-4.05.67-6.5,5.1,8.26-2.2,13.93-3.62,21.49,12.85-7.81,23.59-16.54,30.22-31.65-7.68,0-14.61-.13-21.54.04-5.61.14-9.75-1.6-12.6-6.84-4.47-8.21-9.32-16.22-14.26-24.16-12.72-20.45-25.6-40.8-38.36-61.23-3.56-5.7-2.81-7.18,3.78-7.86,9.75-1.01,19.51-2.71,29.26-2.62,6.55.06,13.9-3.56,19.67,4.49,23.16,32.29,46.94,64.14,70.44,96.19.94,1.29,1.31,3,2.23,5.17-6.69-.6-12.21-1.1-17.72-1.59-.24.79-.48,1.57-.72,2.36,2.64,1.44,5.29,2.87,8.06,4.38-1.95.9-3.73,1.72-5.67,2.61-2.89-4.56-5.53-8.72-8.16-12.89-.54.19-1.09.37-1.63.56-.29,5.86-.58,11.71-.87,17.57-.54-.03-1.09-.06-1.63-.1-.34-3.45-.68-6.89-1.02-10.34-.56.02-1.11.05-1.67.07v20.54c-.57-.02-1.14-.04-1.7-.06v-15.12l-1.72-.04v18.98c-.47-.02-.94-.04-1.41-.06-.25-4.44-.5-8.88-.75-13.31-1.6,2.41-1.47,4.64-1.64,6.84-.17,2.24-.62,4.45-.96,6.68l-.88-.16c-.15-2.74-.3-5.49-.45-8.23-.29-.02-.59-.03-.88-.05-.21,2.28-.43,4.56-.67,7.1-3.87-2.34-12.68,7.34-14.85,16.2,9.54-1.79,18.68-3.23,27.66-5.31,3.82-.88,5.24-3.82,4.36-8.15-1.56-7.75-.17-9.55,7.64-10.55,4.01-.51,8.15-.03,12.14-.59,2.27-.32,5.01-1.34,6.3-3.01.68-.88-1.28-3.81-2.52-7.03,3.4.92,7.2.97,9.38,2.87,1.46,1.27,1.83,6.38.58,7.61-2.08,2.05-5.81,2.8-8.96,3.29-2.69.42-5.73-.96-8.3-.31-1.78.44-4.46,3.13-4.3,4.55,1.25,11.3,3.08,22.53,4.81,34.33h5.93v45.78c-5.88-3.37-7.36-1.08-7.68,3.44-.35,4.9-.85,9.8-1.63,14.64-2.62,16.22-2.68,16.21,12.06,23.14,7.48,3.52,8.32,6.85,3.36,13.78,2.31,1.02,4.59,2.03,8.11,3.59v-129.13c-.45-.02-.9-.03-1.35-.05v89.67c-.75,0-1.5-.01-2.25-.02v-68.58c-.32,0-.63,0-.95,0v41.12c-.49,0-.98,0-1.48,0v-43.37c-.26,0-.53.02-.79.02v82.17c-3.11-1.18-6.38-2.42-9.64-3.66.15-.5.31-.99.46-1.49,2.29.52,4.58,1.04,7.41,1.67ZM677.58,609.22l1.15,1.39c3.21-2.27,7.09-3.97,9.52-6.88,20.39-24.48,40.65-49.08,60.68-73.86,12.32-15.24,24.18-30.85,36.57-46.71-6.04-3.33-11.28-6.29-16.58-9.12-7.36-3.93-7.93-3.68-11.73,4.97,4.94,3.17,9.96,6.38,15.92,10.21-26.99,33.73-53.47,66.83-80.17,100.2-14.71-12.28-28.67-23.97-42.68-35.6-3.91-3.24-3.17-6.33-.83-10.32,17.74-30.23,35.29-60.57,52.84-90.92.96-1.66,1.37-3.65,2.04-5.48-.6-.22-1.19-.45-1.79-.67-1.53,2.54-3.1,5.06-4.58,7.63-9.94,17.2-19.71,34.5-29.84,51.58-13.12,22.12-26.61,44.01-39.67,66.17-1.32,2.25-2.12,6.93-.85,8.25,10.51,10.96,21.51,21.45,32.55,31.89,1.22,1.15,4.19,2.03,5.39,1.34,4.71-2.68,9.03-6.03,13.53-9.09.18-.12.68.22,1.22.41-.92,1.57-1.81,3.09-2.7,4.62ZM68.46,460.63c-.51.32-1.01.65-1.52.97,2.69,4.22,5.24,8.54,8.1,12.64,16.18,23.16,32.49,46.23,48.54,69.48,1.32,1.91,2.17,5.69,1.18,7.42-6.91,12.11-14.37,23.89-21.63,35.8-2.46,4.04-4.95,3.41-7.41.08-6.9-9.34-13.53-18.89-20.69-28.03-15.98-20.44-32.27-40.64-48.26-61.07-1.32-1.69-2.52-5.77-1.8-6.37,3.63-3.01,7.91-5.24,12.18-7.88-.65-.76-2.28-2.66-4.08-4.77-6.17,3.95-12,7.67-18.26,11.68,12.54,15.79,24.52,31.04,36.69,46.13,12.45,15.43,25.1,30.7,37.63,46.06,2.79,3.42,4.98,9.28,8.28,9.95,6.84,1.4,7.04,6.05,8.42,10.69.08.27.73.36,1.51.71.5-1.23.99-2.41,1.6-3.9,3.06,2.48,5.91,5.07,9.05,7.26,7.13,4.99,13,3.46,17.46-4.37,2.77-4.88,5.05-10.09,8.28-14.64,5.52-7.77,4.54-14-1.13-21.73-16.16-22.04-31.34-44.79-46.94-67.24-9.03-12.99-18.13-25.92-27.2-38.87ZM374.04,441.06c4.4,1.12,9.78.92,12.22,3.51,3.23,3.42-.06,15.05-3.49,17.41,12.24,8.14,17.35,7.98,29.42-1.58-6.96,1.9-7.43-1.85-7.46-6.45-.06-10.51-.15-10.51,11.86-12.6v-20.01h-15.73c.76-10.38,1.47-20.06,2.18-29.73-1.17-.11-2.34-.23-3.51-.34-.54,9.72-1.08,19.43-1.65,29.61-4.02-2.62-10.71-1.69-8.57-8.45.81-2.54,3.57-4.47,6.75-8.21-.28-.54-1.4-2.91-2.71-5.16-1.2-2.07-3.84-4.2-3.58-5.97.29-1.96,2.96-4.78,4.91-5.07,5.46-.8,11.12-.12,16.61-.82,2.04-.26,5.22-2.54,5.43-4.22.69-5.48.26-11.1.26-15.38-4.06-2.18-7.02-4.1-10.24-5.36-1.77-.69-4.01-.52-5.98-.28-8.68,1.06-17.34,2.29-26.36,3.5v6.73c.23-.66.46-1.32.68-1.98,4.71,1.05,10.52.76,13.8,3.52,3.15,2.65.02,10.91-3.24,12.06-4.26,1.5-9.75-1.61-11.6-6.88v62.14ZM617.78,380.13v35.76c23.82,0,47.6.09,71.37-.22,1.54-.02,4.26-3.12,4.34-4.87.43-9.72.2-19.47.2-29.54h-69.27v10.74c.58-.93,1.09-1.74,2.49-3.98v19.7c-.35.01-.7.03-1.06.04-1.49-7.28-2.98-14.56-4.4-21.52-.03.05-.39.71-.98,1.76-.82-2.4-1.57-4.58-2.7-7.87ZM177.44,384.88c-1.29-.51-1.9-.97-2.52-.97-14.43-.15-28.86-.28-43.29-.37-9.55-.06-19.11.09-28.66-.18-4.34-.12-5.65,1.37-5.45,5.7.36,7.69.31,15.42.02,23.11-.19,4.97,1.74,6.35,6.58,6.3,22.19-.26,44.38-.14,66.57-.24,2.09,0,4.19-.63,7.03-1.09-7.32-7.05-7.27-25.55-.28-32.26ZM774.96,467.87c.19-.52.38-1.04.57-1.56-1.94-.97-3.86-1.99-5.84-2.9-5.07-2.34-10.32-4.35-15.15-7.1-1.86-1.06-4.12-3.95-3.89-5.7.81-6.18-3.66-9.06-7.44-10.56-9.06-3.61-18.65-5.88-29.54-3.86,8.78,12.26,17.07,23.84,26.48,36.97.39-5.87.64-9.54.89-13.22,1.02,0,2.05-.02,3.07-.03.76,9.88,1.53,19.75,2.27,29.4,3.75-7.51,12.64-13.31,12.94-25.74,4.58,1.26,10.1,2.79,15.63,4.31ZM93.97,425.05c0-16.16.05-34.15-.04-52.14-.02-3.59-.55-7.19-.97-10.77-.03-.23-1.1-.35-1.71-.53.53,2.12,1,3.99,1.67,6.68-4.24-.32-7.6-.58-11.91-.9v59.64c3.55.17,6.19.29,9.33.44-.61,2.37-.98,3.81-1.05,4.08,6.56,2.28,12.95,4.51,20.24,7.05,0-5.21,1.25-12.37-.24-13-4.01-1.68-9.19-.57-15.31-.57ZM131.89,345.62h50.68v-10.31c.49-.01.98-.03,1.47-.04.22,2.83.44,5.66.66,8.45,5.89,3.42,10.24,2.29,14.2-3.44,2.6-3.77,6.53-6.64,9.95-9.83,1.88-1.75,4.73-2.94,5.69-5.05,1.12-2.47.66-5.65.89-8.53-1.73,1.13-3.45,2.29-5.21,3.37-1.17.72-2.35,1.47-3.62,1.96-5.35,2.08-10.59,4.82-16.14,5.9-8.06,1.57-13.25,4.39-11.4,13.88-.44-3.05-.88-6.1-1.45-10.02-14.97,4.47-29.46,8.8-45.72,13.65ZM352.39,357.24c3.23,15.03,6.51,30.27,9.79,45.51-1.48-.74-1.58-1.89-1.45-3.01.15-1.25.5-2.47.77-3.71,1.99,16.49-5.8,30.84-9.53,46.07h10.4c0-6.1-.23-11.69.13-17.24.13-1.92,1.66-3.78,2.69-5.58,1.33-2.35,3.76-4.52,4.02-6.95.61-5.77.6-11.69.06-17.47-.3-3.25-1.29-7.98-3.51-9.18-4.07-2.19-3.26-5.1-3.38-8.14-.11-2.56.36-5.18.02-7.7-.98-7.27,1.13-11.64,9.34-11.04.13,0,.32-.74.67-1.56h-20ZM36.16,354.31q8.38,9.53-2.01,12.55c2.16,2.26,3.77,3.88,5.3,5.56,1,1.1,2.64,2.34,2.6,3.47-.04,1.1-1.69,2.39-2.92,3.12-1.07.64-2.54.63-4.88,1.13,1.81,5.78,3.44,11.01,5.17,16.55,5.18-.43,10.19-.84,16.04-1.32v-38.43c-6.17-.85-12.25-1.68-19.29-2.65ZM58.76,362.81c-.6,10.98-1.22,22.42-1.76,32.43,7.36-.5,13.72-.94,20.89-1.43v-29.41c-6.07-.5-12.18-1.01-19.13-1.58ZM111.97,220.42c-.8-.61-1.59-1.21-2.39-1.82-5.79,7.16-11.63,14.28-17.37,21.48-9.16,11.48-17.57,23.66-27.63,34.28-6.88,7.27-10.01,16.13-16.32,25.14,2.58-1.35,3.6-1.88,5.72-2.99-3.21,5.14-5.7,9.12-8.19,13.1.64.42,1.28.84,1.91,1.26,21.42-30.15,42.84-60.3,64.27-90.46ZM735.54,356.16c1.03,11.93,1.92,22.29,2.84,32.9,6.09.54,11.99,1.07,16.75,1.5-1.77-2.76-3.61-5.61-6.61-10.27,6.49.41,10.49.67,14.49.92-.03.62-.07,1.24-.1,1.86-3.09.28-6.17.57-9.26.85-.11.6-.21,1.2-.32,1.8,3.04.89,6.07,1.78,7.21,2.12,1.99,2.57,3.05,3.94,4.11,5.31,1.17-1.41,3.05-2.68,3.35-4.26.55-2.85.16-5.88.16-8.35-5.65-1.31-10.77-2.45-15.85-3.72-2.07-.52-4.07-1.35-6.1-2.05,1.41-1.92,3.2-3.68,4.13-5.81.92-2.1,1.83-6.34,1.28-6.6-4.83-2.33-9.98-3.98-16.08-6.21ZM759.28,408.7c-3.08,1.8-4.91,2.87-7.36,4.3,6.2,1.95,10.89,3.42,16.81,5.28-.84-5.52-1.6-10.54-2.12-13.96-10.38.84-19.42,1.57-29.19,2.37-.77,9.42-1.56,19.02-2.4,29.32,6.48-1.04,12.01-1.94,18.68-3.01-2.48-1.97-4.78-3.22-6.22-5.13-1.22-1.61-1.45-3.98-2.12-6.01,1.58-.34,3.22-.52,4.73-1.05,1.61-.57,3.11-1.48,3.73-1.79-1.61-3.84-2.81-6.67-4.34-10.33h9.81ZM467.24,476.94c-10.42,18.32-10.65,12.09,3.89,24.74,1.75,1.53,3.44,3.37,5.51,4.22,1.54.63,4.3.62,5.39-.35,4.05-3.63,7.63-7.78,10.31-10.61-6.47-6.44-12.34-12.28-18.27-18.19-.31,2.88-.62,5.78-1.09,10.07-2.44-4.21-3.97-6.84-5.73-9.88ZM732.9,432.56c.75-9.92,1.46-19.25,2.13-28.08h-18.48c-.9,9.57-1.74,18.62-2.63,28.08h18.97ZM496.6,523.1c-4.01,4.51-6.73,7.58-10.44,11.75v-16.7c-.28-.05-.56-.1-.83-.15-.3,1.69-.6,3.39-1.1,6.24-.87-2.3-1.27-3.51-1.78-4.67-2.33-5.26-6.98-6.91-11.65-5.08-1.79.7-2.2,5.6-2.71,8.67-.5,2.96-.42,6.04-.43,9.07-.04,10.22-.02,20.43-.02,32.15,6.35-2.62,11.56-4.76,16.79-6.91-2.46-11.86,7.08-16.98,12.45-24.34,1.15-1.57,3.06-3.51,2.81-4.97-.37-2.14-2.37-3.99-3.09-5.07ZM735.43,390.46c-.6-9.71-1.21-19.56-1.79-29.07-5.46-.52-9.61-1.21-13.74-1.15-1.47.02-4.2,1.94-4.15,2.87.45,8.55,1.39,17.08,2.2,25.77,5.6.51,10.85.98,17.49,1.58ZM791.07,318.16c-.87,2-1.2,2.41-1.2,2.81-.1,50.57-.28,101.14-.13,151.71.02,6.46-1.48,11.59-5.63,16.61-7.49,9.07-14.35,18.67-21.47,28.05.48.37.97.74,1.45,1.12,8.77-11.31,17.57-22.6,26.23-33.99.75-.98.74-2.64.82-4.01.4-6.76.98-13.52,1.01-20.28.15-44.72.18-89.43.18-134.15,0-2.14-.67-4.28-1.27-7.87ZM418.68,524.33c-.72.65-1.44,1.3-2.15,1.95,3.29,3.94,6.19,8.3,9.97,11.69,3.84,3.44,5.47,7.03,5,12.14-.21,2.29.36,5.89,1.88,6.87,4.55,2.94,9.75,4.88,15.74,7.71v-51.88h-16.68c-1.05,6.62-1.97,12.39-2.89,18.17-.25.02-.5.03-.75.05-.21-2.15-.42-4.3-.71-7.31-.86,3.07-1.46,5.22-2.12,7.58-2.99-2.86-5.14-4.91-7.29-6.96ZM610.23,446.9c-.72,3.81-1.31,6.9-1.89,9.99-.73-.11-1.47-.23-2.2-.34-.27-2.34-.54-4.69-.91-7.86-5.79,7.15-10.95,13.52-15.64,19.31,6.28-1.6,12.59-3.19,18.89-4.81,6.3-1.62,6.9-3.56,2.95-8.85-.45-.6-.16-1.76-.25-3.11,2.64.43,4.93.8,7.62,1.24-.88,2.88-1.58,5.17-1.94,6.32,14.11-3.71,28.11-7.39,42.12-11.07-.09-.27-.18-.54-.27-.82h-48.5ZM605.28,341.01c-2.29-10.64-9.23-15.61-21.2-14.81,7.04,7.2,13.97,14.3,22.27,22.79.4-6.21.65-9.94.9-13.93,7.28,2.76,5.6,6.1,1.19,9.75.63.42,1.25.84,1.88,1.25,1.61-1.55,3.22-3.09,4.85-4.67.19,1.54.41,3.26.7,5.54h38.08c-16.97-5.17-31.97-9.74-47.42-14.45-.46,3.19-.85,5.85-1.23,8.52ZM640.54,374.43h35.68c-.25-5.79-.29-11.49-.93-17.11-.14-1.19-2.4-2.9-3.83-3.07-6.92-.82-13.89-1.19-20.84-1.71,4.39,1.22,8.98.57,13.21,1.5,2.01.45,4.27,3.77,4.65,6.08.22,1.32-3.04,4.5-4.88,4.62-5.55.37-11.17-.31-16.76-.64-4.22-.25-4.93-2.87-4.1-6.38.29-1.25.79-2.44,1.19-3.66-.76-.09-1.53-.19-2.29-.28-.36,6.68-.71,13.37-1.1,20.66ZM440.7,426.13c2.82,6.42,5.27,12.02,7.85,17.89,8.55-4.35,16.09-8.18,23.81-12.11-2.14-4.7-3.93-8.63-5.7-12.52-2.39,1.35-4.29,2.42-7.62,4.3,1.49-2.58,2.14-3.68,3.43-5.91-7.65,2.93-14.07,5.39-21.77,8.35ZM45.45,440.14c2.71-.66,6.67-1.63,11.05-2.71-.66-9.44-1.28-18.17-1.91-27.13-6.6.4-12.52.75-20,1.21,3.2,4.38,5.47,7.49,7.85,10.76-.75.58-1.72.99-2.15,1.71-1.3,2.16-2.95,4.36-3.27,6.71-.12.9,3.24,2.01,4.6,3.43,1.33,1.39,2.14,3.29,3.83,6.01ZM605.34,355.58c-6.95,4.34-13.39,7.45-18.51,12.04-1.8,1.62-.85,6.96-.15,10.4.32,1.56,3.39,3.98,4.7,3.69,7.13-1.57,14.11-3.86,21.7-6.06-2.56-6.64-4.81-12.47-7.75-20.06ZM43.4,484.28c-.76.74-1.51,1.49-2.27,2.23,4.31,5.54,8.69,11.02,12.92,16.63,13.63,18.08,27.21,36.2,40.81,54.3,4.23,5.62,8.49,11.21,12.73,16.82.69-.38,1.37-.76,2.06-1.13-.78-1.8-1.27-3.82-2.4-5.37-19.33-26.37-38.71-52.7-58.2-78.95-1.39-1.87-3.75-3.03-5.65-4.53ZM612.71,424.27c-7.25-2.5-13.33-4.81-19.57-6.58-1.45-.41-4.3.51-4.98,1.7-2.17,3.75-3.63,7.91-5.54,12.32,7.58,3.77,14.58,7.24,22.49,11.17,2.6-6.35,4.93-12.06,7.61-18.61ZM677.01,424.54h-39.3c.41,4.62,1.44,8.6.93,12.39-.68,5.11,1.83,5.34,5.58,5.27,6.78-.12,13.56.05,20.34.02,8.92-.04,10.21-1.24,11.22-9.95.27-2.3.72-4.59,1.23-7.73ZM454.48,326.79c-.39-.24-.77-.48-1.16-.72-2.14,4.74-4.5,9.41-6.26,14.29-.42,1.16.83,3.86,1.99,4.39,1.18.54,4.02-.19,4.7-1.27,7.3-11.63,23.95-15.33,25.98-30.13-1.84-2.62-3.34-4.76-5.24-7.48-5.13,4.35-10.17,8.64-15.22,12.93.23.41.47.83.7,1.24,1.2-.21,2.4-.41,3.38-.58v9.51c-1.07-2.05-1.42-2.71-1.4-2.67-1.91,3.55-3.83,7.12-5.75,10.68-.42-.07-.85-.15-1.27-.22-.15-3.32-.29-6.65-.44-9.97ZM483.77,479.06c5.9,2.3,11.36,4.44,17.43,6.8,2.98-8.88,5.68-16.92,8.6-25.63-4.77-1.73-8.81-3.19-12.84-4.65,1.66,5.7,3.91,9.86-4.3,8.61-.69-.11-1.9,1.15-2.38,2.04-2.06,3.8-3.93,7.7-6.5,12.83ZM184.16,352.51c-.84.15-1.69.29-2.53.44,2.82,8.6,1.27,10.8-7.63,10.85-2.58.01-5.15.04-7.73.02-9.45-.08-10.75-1.91-8.82-11.26-4.57,7.08-4.07,15.37-5.19,24.09,5.03,0,9.43.02,13.83,0q12.55-.06,17.23-11.54c.26-.65.79-1.28.8-1.92.08-3.55.04-7.1.04-10.66ZM513.82,303.54c-3.2,3.54-5.1-2.83-7.9-.15-3.7-9.85-10.27-7.01-16.65-4.32,1.42,1.88,2.35,4.14,4.03,5.14,3.78,2.25,7.9,5.39,11.92,5.46,10.24.17,20.51-1.14,30.77-1.88,1.76-.13,3.52-.31,5.28-.47.07-.72.14-1.44.21-2.16-7.72-5.7-17.09-6.78-26.53-8.97-.47,3.07-.85,5.53-1.13,7.35ZM550.7,486.22c7.68-3.18,13.77-5.7,20.78-8.6-4.1-8-7.76-15.11-11.52-22.44-3.61,1.49-6.56,2.7-9.26,3.81v27.23ZM352.82,474.87c-.47.3-.94.61-1.4.91,2.39,1.07,4.7,2.4,7.19,3.15,3.87,1.18,9.05.72,11.57,3.14,8.43,8.12,17.91,11.08,29.26,9.48,2.98-.42,6.11-.35,9.1.05,11.51,1.55,17.14-7.09,25.02-13.03-9.14-5.05-14.71-3.34-17.54,4.73-1.31,3.74-2.62,6.87-7.6,6.57-6.25-.38-12.55-.58-18.8-.23-4.95.28-7.52-1.47-8.03-6.36-.58-5.61-4.15-6.87-9.2-6.96-6.53-.13-13.05-.94-19.58-1.46ZM482.87,322.06c5.71,6.95,10.12,13.17,15.45,18.46,3.14,3.11,10.84.59,10.09-2.55-1.88-7.78-4.48-15.39-6.97-23.64-6.23,2.6-11.34,4.72-18.57,7.74ZM446.7,360.37c-1.45,3.56-3.48,7.75-4.76,12.16-.39,1.35.88,4.4,2.01,4.77,7.83,2.58,15.83,4.66,24.09,6.99,1.4-3.8,2.48-6.75,3.15-8.55-8.37-5.26-15.98-10.03-24.48-15.37ZM430.43,366.3c1.13,19.44,2.15,36.86,3.16,54.28l-3.56.15c0-4.87,0-9.75,0-14.62,0-3.57.24-7.95-4.87-7.1-1.81.3-3.01,4.29-4.49,6.6,4.15,2.08,7.37,3.96,7.47,6,.53,10.15.24,20.34.24,30.98,2.33-.11,3.97-.19,5.54-.26-.29-2.89-1.42-5.6-.57-7.34,3.15-6.48,4.26-11.91,1.29-19.58-2.65-6.86-.43-15.64-.2-23.56.19-6.68.84-13.36.76-20.03-.02-1.39-2.3-2.76-4.79-5.52ZM348.36,342.78c.02.44.05.88.07,1.31,9.06,0,18.11-.02,27.17.01,2.33,0,5.92-.72,6.77.45,4.57,6.28,10.85,3.18,16.4,3.63,4.42.36,9.04-.1,6.56,7.37,1.18-1.68,2.1-2.97,1.94-4.1-.91-6.47,3.14-7.53,8.04-7.56,1.83-.01,3.66.72,5.5.74,7.67.09,15.33.04,23,.04.15-.63.31-1.27.46-1.9-1.68-1.31-3.37-2.63-3.61-2.82-4.63,1.4-7.78,3.15-10.94,3.16-9.5.02-19.1.93-28.28-3.15-2.53-1.12-6.7-1.33-8.86.03-5.67,3.57-11.82,1.89-17.62,2.54-8.76.98-17.72.26-26.59.26ZM552.87,314.19c0,8.66-.4,15.69.25,22.61.19,2,3.2,3.96,5.29,5.41.54.37,3.04-.93,3.67-2.03,3.2-5.58,6.09-11.33,9.53-17.87-5.85-2.54-11.06-4.8-18.73-8.13ZM234.49,314.57c29.62-9.61,58.04-7.45,85.63,7.87-3.73-4.09-7.46-8.18-12.74-13.97h-75.61c1.08,2.42,1.83,4.12,2.71,6.1ZM112.02,355.66c-15.04,3.23-15.94,4.69-12.79,20.29,15.35,1.85,19.5,2.45,12.79-20.29ZM540.73,503.61c.15.54.31,1.07.46,1.61,2.03-.47,4.13-.75,6.08-1.45,6.78-2.42,13.34-6.33,20.29-7.13,6.94-.8,9.2-4.1,10.22-7.88-4.85.28-9.9.08-14.74.97-5.52,1.02-10.63,6.21-16.63.72-.72,2.87-1.37,5.42-2.04,8.09,1.67.11,3.32.23,4.97.34.11.44.21.89.32,1.33-2.98,1.13-5.95,2.26-8.93,3.4ZM149,424.39c-11.3,0-21.77-.08-32.23.14-1,.02-2.73,1.9-2.81,3.01-.62,9.2,2.14,11.91,11.76,12.02,2.34.03,4.68-.03,7.02,0q13.54.13,16.26-15.15ZM629.87,354.09c2.92,8.02,1.63,10.28-5.48,10.5-7.66.24-7.92.65-5.67,8.75h18.53c1.54-10.27-1.66-19.06-7.38-19.25ZM384.72,479.22c-.2,5.66,1.48,8.14,6.45,7.89,5.12-.25,10.28-.33,15.4-.1,5.84.27,7.04-2.82,6.7-7.79h-28.55ZM34.67,393.55c-7.58-11.7-1.08-24.21-5.09-36.6-1.77,1.95-4.02,3.27-4.06,4.65-.29,10.93-.16,21.86-.16,33.59,4.1-.72,7.41-1.31,9.32-1.64ZM86.87,365.78c.56-.48,1.11-.95,1.67-1.43-6.6-12.1-38.25-51.07-43.12-51.29,14.23,18.1,27.84,35.4,41.45,52.71ZM682.21,357.31c-1.1,4.35-2.54,8.12-2.8,11.98-.12,1.78,2.17,5.33,3.22,5.28,3.52-.18,9.29-.75,10.05-2.75,3.03-8.02-1.4-13.55-10.47-14.51ZM141.64,371.59c-.28-.03-.57-.05-.85-.08-.16-2.24-.32-4.49-.57-8.04-1.11,3.24-1.77,5.16-2.88,8.4-.72-3.3-1.11-5.11-1.51-6.93-1.15,3.66-2.23,7.08-3.5,11.13,4.19.35,8.93.98,13.68.97,1.35,0,3.91-1.94,3.86-2.89-.34-7.08-1.2-14.13-1.94-21.64-2.35,7.14-4.32,13.11-6.29,19.07ZM357.07,448.85c3.29,3.46,5.54,5.83,7.79,8.19-2.35,1.37-4.7,2.74-7.05,4.11-.29-.47-.58-.94-.87-1.4-1.18,3.16-2.37,6.32-3.53,9.42,7.18,5.62,11.87,4.09,13.25-4.8.8-5.14.15-10.51.15-16.41-3.53.32-6.68.61-9.74.89ZM472.51,510.78c-6.15-4.98-11.25-9.11-16.84-13.64-2.61,4.77-4.78,8.73-7.47,13.64h24.32ZM435.39,476.82c.43-4.19-.33-9.33,1.25-10.2,7.29-3.98,3.78-10.24,4.17-15.55.06-.87-2.48-1.94-4.27-3.24q-2.19,14.13-10.88,17.29c3.43,4.12,6.73,8.08,9.74,11.7ZM179.3,428.5v-2.49h-27.04c.5,4.29.99,8.54,1.5,12.92h29.42c-7.5-1.26-15.01-1.33-22.42-2.17-1.62-.18-2.92-3.1-4.37-4.75,1.64-1.17,3.21-3.23,4.92-3.35,5.98-.42,12-.16,18-.16ZM635.46,424.83c-11-2.32-15.09-1.51-16.93,3.34,2.17.16,4.22.29,6.26.46,3.42.28,7.58-.37,7.58,4.94,0,5.39-4.11,4.47-7.56,4.78-2.58.23-5.12,1-7.68,1.53.17.8.35,1.59.52,2.39,4.15,0,8.34.26,12.45-.15,1.28-.13,3.15-1.91,3.43-3.22.95-4.52,1.31-9.17,1.93-14.08ZM658.43,618.82l1.92-1.88c-12.17-11.86-24.33-23.71-36.5-35.57l-.43.49c11.67,12.32,23.34,24.64,35.01,36.96ZM176.02,381.11c0-.49.01-.99.02-1.48h-76.26c0,.49,0,.99,0,1.48h76.24ZM679.19,422.62c.64,6.53,1.07,10.89,1.5,15.29,7.02-1.15,12.74-3.61,10.95-10.75-.54-2.15-7.21-2.76-12.45-4.54ZM31.15,326.04c-5.09-.49-9.94-1.28-14.77-1.18-1.24.03-3.05,2.75-3.37,4.47-.16.86,2.31,3.02,3.79,3.23,3.18.45,6.5-.22,9.74,0,4.53.31,5.98-1.55,4.62-6.52ZM422.71,466.89c0-5.22.16-9.84-.11-14.44-.07-1.23-1.45-2.39-2.23-3.58-.89,1.08-2.6,2.22-2.54,3.24.41,6.66-.15,12.51-8.26,14.78h13.14ZM32.27,433.32c-.16-2.15-.2-5.69-.84-9.11-.19-1.04-2.04-1.77-3.14-2.65-.82,1.12-2.36,2.24-2.35,3.35.04,5.61.34,11.23.91,16.81.12,1.16,1.75,2.17,2.68,3.26.91-1.09,2.38-2.08,2.6-3.31.42-2.26.12-4.66.12-8.35ZM382.37,467.04c-2.6-2.95-5.07-5.43-7.08-8.23-.67-.93.07-2.76-.26-4.07-.55-2.19-1.44-4.29-2.18-6.43-.83,2.24-2.14,4.43-2.38,6.74-.4,3.86-.11,7.8-.11,12h12.01ZM688.31,378.87l.05-1.85h-48.56c0,.62.01,1.23.02,1.85,8.06,0,16.12,0,24.18,0s16.21,0,24.32,0ZM752.51,393.01c-3.93,0-7.5-.41-10.88.19-1.48.26-3.46,2.53-3.6,4.03-.12,1.36,1.72,3.88,3.1,4.21,3.69.88,7.59.86,11.38,1.2v-9.63ZM416.42,399.7c-1.04-2.2,4.99-10.5-5.53-9.98-11.13.54-3.19,9.48-5.56,12.87.21-.99.63-2.96,1.21-5.64,3.93,1.26,9.61-2.79,9.88,2.74ZM254.67,498.67c-.25.67-.5,1.35-.74,2.02,2.09.62,4.17,1.73,6.28,1.8,19.98.62,22.62.19,24.23-2.81-9.65-1.52-19.72-.67-29.77-1.01ZM763.36,421.35c-.53-.53-1.05-1.07-1.58-1.6-1.25,1.02-3.38,1.88-3.6,3.09-.95,5.27-1.49,10.64-1.81,15.99-.07,1.14,1.43,2.38,2.21,3.57.98-1.02,2.66-1.94,2.83-3.07.86-5.96,1.34-11.98,1.95-17.98ZM757.79,352.85c-1.53,12.31.37,21.75,4.5,23.25,2.22-10.81.52-20.51-4.5-23.25ZM134.39,610.17c6.28-1.61,18.22-22.95,17.05-29.23-5.99,10.27-11.52,19.75-17.05,29.23ZM691.06,421.46l-.18-1.21h-72.06c0,.4,0,.81.01,1.21h72.22ZM380.24,472.65c12.1,3.89,24.52,2.12,36.93,2.28,0-.76.02-1.52.02-2.28h-36.95ZM13.57,489.12c6.42-6.73,15.56-7.33,18.52-17.28-6.74,3.8-12.04,6.78-18.52,10.43v6.85ZM38.6,398.83c.52,3.22.94,5.78,1.37,8.41,3.47-.44,6.35-.37,8.88-1.27,1.74-.62,2.98-2.6,4.45-3.98-1.51-1.05-2.92-2.77-4.55-3.02-3.15-.48-6.42-.14-10.15-.14ZM665.53,358.52c-6.41-1.23-12.75-2.55-18.55,1.16,6.41,1.7,12.89,4.77,18.55-1.16ZM445.07,347.76c-8.61,1.77-17.78-3.02-25.98,1.99,8.87,1.41,17.75,3.18,25.98-1.99ZM112.08,421.72l-.12.95h64.82c0-.32,0-.64,0-.95h-64.7ZM372.92,349.69c.07-.48.14-.97.21-1.45h-22.41c-.01.48-.02.97-.03,1.45h22.23ZM424.81,449.32c.24,3.99.46,7.56.7,11.69,2.84-.45,4.97-.78,6.95-1.09q.79-11.63-7.65-10.6ZM179.74,356.3c-5.61,0-11.23-.04-16.83.17-.21,0-.95,3.02-.36,3.7,1.79,2.04,14.48.43,17.19-3.86ZM623.71,179.76c.24.71.47,1.42.71,2.14,10.26-2.64,20.51-5.27,30.77-7.91l-.74-2.7c-10.25,2.83-20.49,5.65-30.74,8.48ZM121.35,352.64c-5.65,7.23-6.15,20.65-1.09,23.52.36-7.72.71-15.37,1.09-23.52ZM179.66,434.31c0-.6,0-1.2-.01-1.8h-19.7c0,.6,0,1.2.01,1.8h19.7ZM145.69,356.43c-7.08,0-12.87-.05-18.66.07-.63.01-1.61.96-1.76,1.62-.16.69.27,1.85.84,2.3,2.47,2,15.96.08,19.58-4ZM404.96,412.66v5.03c12.05,1.54,12.5,1.25,11.83-5.89-3.77.27-7.51.54-11.83.86ZM718.64,342.3c-.5-.54-1-1.08-1.5-1.61-7.42,5.47-14.85,10.94-22.27,16.41.55.72,1.09,1.43,1.64,2.15,7.37-5.65,14.75-11.3,22.12-16.94ZM34.52,418.25c.4-.64.8-1.29,1.2-1.93-2.68-2.4-5.37-4.81-8.05-7.21-1.38,2.77-2.75,5.53-4.55,9.14h11.39ZM726.38,392.19c-4.17,1.02-7.33,1.61-10.3,2.7-.5.18-.61,3.54-.24,3.68,2.8,1.05,5.76,1.66,9.2,2.54.46-3.05.78-5.2,1.34-8.92ZM376.42,347.37c-.21,3.96-.39,7.36-.59,11.12,2.32-.52,4.21-.94,6-1.34q.3-9.36-5.41-9.78ZM219.42,305.21v17.64c6.04-4.84,3.56-10.2,3.75-14.87.03-.81-2.26-1.72-3.75-2.77ZM695.91,271.98c.54-.33,1.09-.66,1.63-.98-5.32-8.77-10.64-17.54-15.96-26.31-.53.32-1.06.64-1.6.96,5.31,8.78,10.62,17.56,15.93,26.34ZM614.96,426.32c-2.53,6.25-4.88,12.04-7.58,18.73q9.45-10.03,7.58-18.73ZM71.72,566.05c-.49.43-.97.86-1.46,1.3,6.62,8.47,13.25,16.93,19.87,25.4.21-2.25-.61-3.79-1.66-5.16-5.55-7.2-11.17-14.36-16.76-21.54ZM306.44,486.19c-5.64,2.1-10.67,3.97-17.57,6.53,16.88.22,17.69-.08,17.57-6.53ZM154.96,181.88c.45-1.1.9-2.2,1.35-3.3-5.34-2.1-10.68-4.2-16.02-6.3-.33.81-.66,1.63-.99,2.44,5.22,2.39,10.44,4.77,15.66,7.16ZM771.12,385.1c-.51,0-1.02,0-1.53,0v28.34c.51,0,1.02,0,1.53,0v-28.34ZM434.73,357.37h-15.13c4.51,2.07,8.24,3.79,12.5,5.75.47-1.02,1.38-3.01,2.63-5.75ZM412.91,400.13c-.8-.46-1.6-.92-2.4-1.38-.89,2.1-2.44,4.19-2.45,6.29,0,1.84,1.72,3.68,2.69,5.52.72-.3,1.45-.61,2.17-.91v-9.52ZM629.07,357.81h-11.6c3.41,5.48,8.22,5.42,11.6,0ZM408.61,357.23c8.04.69,7.62-3.35,7.02-7.03-.18-1.08-1.98-1.9-3.03-2.84-1.22,3.02-2.44,6.04-3.99,9.87ZM422.88,388.38c.74.23,1.48.47,2.21.7,3.52-5.84,1.25-12.59,1.64-18.03-1.16,5.24-2.51,11.28-3.85,17.33ZM737.85,248.6c.5-.37.99-.75,1.49-1.12-5.3-7.05-10.61-14.09-15.91-21.14-.47.35-.94.71-1.41,1.06,5.28,7.07,10.55,14.13,15.83,21.2ZM371.12,362.05c-.28,0-.57-.02-.85-.03v23.33c.28.04.57.08.85.12v-23.43ZM231.16,487.16c-.17,5.46,3.38,6.64,13.82,5.14-4.64-1.72-8.91-3.31-13.82-5.14ZM325.93,474.9l-3.25-.35c-.43,2.49-1.25,5.01-1.08,7.46.05.75,2.81,1.31,4.32,1.96v-9.07Z"/>
      <path class="cls-1" d="M718.14,529.23c-.94.42-1.89.85-2.83,1.27-.45-.37-.91-.75-1.36-1.12,6.44-8.08,12.88-16.16,19.32-24.24-5.04,8.03-10.09,16.06-15.13,24.09Z"/>
      <path class="cls-1" d="M587.71,457.94c.43-.44.85-.88,1.28-1.32-.43.44-.85.88-1.28,1.32Z"/>
      <path class="cls-1" d="M478.47,407.79c-6.69,1.11-8.69-1.86-8.87-7.66-.2-6.52,3.71-7.16,8.62-6.46.25-1.64.48-2.54.52-3.44.52-13.15.61-13.97,13.4-12.53,10.9,1.23,19.21-4.32,28.32-7.89,5.17-2.03,9.59-2.28,14.74,0,10.09,4.46,19.61,10.96,31.66,9.43,1.44-.18,4.3,3.06,4.82,5.14.82,3.26.22,6.89.22,10.22,4.95,2.75,13.96-2.08,13.13,8.81-.73,9.57-8.62,3.52-12.47,6.83-.01.02-.43.37-.49.77-1.73,13.53-1.77,14.19-15.79,13.17-10.09-.74-17.69,5.08-26.58,7.31-2.84.71-6.64.87-9.04-.45-9.68-5.33-19.62-7.97-30.82-7.21-10.92.74-10.95.19-11.07-10.9-.01-1.38-.16-2.76-.31-5.13ZM506.96,408.87c.29,1.72.69,2.67.56,3.53-.96,6.33,1.06,10.78,7.47,12.89,5.31,1.74,9.7,5.7,16.38,2.56,7.21-3.38,14.52-5.46,12.41-15.78-.21-1,.69-2.19.91-3.33.79-4.15,2.44-8.4,2.04-12.45-.59-5.96-2.64-11.78-4.36-18.83.67.35-.23.02-.96-.52-10.48-7.78-20.41-2.87-30.18,1.55-1.67.75-3.19,3.53-3.38,5.5-.5,5.16-.45,10.41-.21,15.61.24,5.26-.8,8.89-7.21,8.01-1.33-.18-2.71-.03-4.07-.03l-.02.77c3.38.16,6.77.33,10.63.51ZM501.13,389.1c-.27-7.82-5.6-10.13-18.7-7.47v12.58c6.34-1.73,12.18-3.33,18.7-5.12ZM549.29,383.06c-.17,2.69-.31,4.9-.48,7.76,5.63,2.17,13.76-3.06,17.3,6.04,5.65-10.62,3.42-14.92-6.46-14.74-3.67.06-7.33.66-10.35.94ZM481.35,418.76c16.44,2.75,18.43,2.08,21.09-6.29-5.45-1.49-10.85-3.26-16.4-4.26-1.32-.24-3.88,1.8-4.5,3.34-.79,1.98-.19,4.51-.19,7.21ZM547.43,399.19c.87,2.28,1.37,4.84,1.92,4.85,10.53.24,21.06.18,31.88.18v-5.02h-33.8ZM503.99,403.97c.36-.99.71-1.98,1.07-2.97-1.55-1.15-3.07-3.23-4.67-3.29-8.83-.32-17.67-.16-26.51-.16-.42.58-.84,1.16-1.26,1.74,1.51,1.56,2.95,4.39,4.53,4.47,8.93.44,17.89.21,26.84.21ZM548.5,411.84c-.4,7.2,6.68,10.28,19.36,7.22,0-2.2.35-4.59-.15-6.79-.25-1.06-2.17-2.55-3.23-2.46-5.07.38-10.1,1.24-15.98,2.03Z"/>
      <path class="cls-1" d="M266.95,478.19c-40.66-.09-74.24-33.97-74.42-75.09-.2-44.1,32.09-77.97,74.71-78.37,41.78-.39,76.34,33.33,76.41,74.55.08,44.52-33.43,78.99-76.7,78.9ZM267.88,475.05c41.35-.66,73.22-33.71,73.04-75.75-.18-40.11-33.45-71.47-75.09-70.77-40.13.67-71.04,33.03-70.45,73.74.6,41.2,32.7,73.42,72.51,72.79Z"/>
      <path class="cls-1" d="M386.73,412.41c-4.34-1.55-8.99-2.07-9.31-3.54-.95-4.35-.53-9.13.16-13.62.13-.85,4.01-1.68,6.05-1.46,1.16.13,2.84,2.35,2.96,3.74.39,4.31.14,8.69.14,14.87Z"/>
      <path class="cls-1" d="M398.42,430.49c4.14-2.56,6.03-4.46,8.21-4.9,3.67-.74,5.27,1.17,5.24,5.2-.03,4.18-1.6,6.52-5.59,5.65-2.15-.47-3.89-2.84-7.86-5.95Z"/>
      <path class="cls-1" d="M396.41,462.81c-2.12-3.54-4.22-5.52-4.17-7.45.04-1.42,2.83-3.81,4.45-3.85,1.41-.04,4.06,2.63,4.03,4.07-.04,1.92-2.13,3.8-4.32,7.23Z"/>
      <path class="cls-1" d="M401.84,435.62c-3.3,2-5.38,4.21-6.68,3.82-1.74-.52-2.89-3.05-4.29-4.72,1.51-1.14,3.05-3.21,4.54-3.17,1.67.04,3.3,1.97,6.43,4.07Z"/>
      <path class="cls-1" d="M649.06,412.26c-5.25,0-10.53.28-15.75-.19-1.37-.12-2.57-2.5-3.75-3.93-.23-.28-.01-.91-.03-1.37q-1.09-22,20.88-22.11c6.3-.03,12.61.09,18.91-.07,3.84-.1,5.59,1.39,5.46,5.31-.19,5.83.11,11.7-.44,17.49-.17,1.75-2.33,4.58-3.78,4.71-5.85.54-11.79.22-17.69.22l-.14-2.71c4.53,0,9.06-.19,13.58.06,3.88.21,5.64-1.2,5.53-5.17-.14-5.03-.03-10.07-.03-15.23h-38.66c-.21,1.58-.49,2.69-.48,3.8.06,4.89-1.53,11.09.86,14.26,2,2.65,8.71,1.72,13.32,2.44.81.13,1.57.54,2.35.82-.05.55-.1,1.09-.15,1.64Z"/>
      <path class="cls-1" d="M680.84,397.52c-.07-1.07-.03-2.97-.33-4.8-.79-4.84.67-7.78,6.04-7.83,4.85-.05,6.49,2.34,6.17,7.05-.32,4.89-.03,9.83-.03,14.75,0,4.6-2.55,5.53-6.78,5.67-4.59.16-5.02-2.28-5.07-5.6-.04-2.81,0-5.62,0-9.23ZM689.96,398.94s.05,0,.07,0c0-1.87.32-3.82-.1-5.59-.35-1.5-1.55-2.81-2.37-4.2-1.15,1.37-3.16,2.66-3.3,4.13-.44,4.4-.34,8.88-.02,13.29.08,1.14,1.77,2.17,2.71,3.25,1-1.05,2.66-1.99,2.87-3.19.45-2.49.14-5.12.14-7.69Z"/>
      <path class="cls-1" d="M143.02,414.34c-5.6,0-11.21-.21-16.8.07-4.18.21-6.21-1.42-6.1-5.54.14-5.82.12-11.67.85-17.42.18-1.44,2.92-3.59,4.53-3.64,11.89-.34,23.8-.39,35.69-.05,1.67.05,3.29,2.72,4.85,4.25.24.24.11.91.07,1.37-.7,6.93,1.04,16.62-2.79,20.02-3.92,3.47-13.3.77-20.3.77,0,.06,0,.12,0,.17ZM124.18,412.55c11.8,0,23.33.1,34.86-.14,1.36-.03,3.62-1.76,3.84-2.99.78-4.32,1.09-8.77,1.02-13.16-.02-1.33-1.82-3.74-2.84-3.77-12.24-.26-24.49-.17-36.88-.17v20.22Z"/>
      <path class="cls-1" d="M110.62,414.54c.06-7.34.2-14.1.03-20.86-.01-.52-2.61-1.68-3.4-1.3-1.34.65-3.05,2.25-3.12,3.53-.33,5.95-.14,11.93-1.67,18.29-.56-1.19-1.54-2.36-1.6-3.57-.25-5.12-.1-10.27-.35-15.39-.21-4.38-.13-7.58,5.94-7.69,5.63-.11,7.56,1.88,7.35,7.15-.19,4.9.21,9.83-.28,14.69-.19,1.95-2.05,3.73-2.89,5.15Z"/>
      <path class="cls-1" d="M52.85,335.6c2.13,3.08,4.26,6.16,7.24,10.48-3.17.52-7.31,1.56-7.45,1.16-1.23-3.42-1.73-7.1-2.45-10.71.89-.31,1.78-.62,2.66-.93Z"/>
      <path class="cls-1" d="M469.22,555.64c0-9.41.02-18.46,0-27.51-.02-5.29,3.91-4.1,6.96-4.3,3.32-.21,6.13.26,6.08,4.62-.06,5.82,0,11.63-.02,17.45-.03,11.36-.59,11.82-13.01,9.73ZM472.12,553.39c2.75-.8,4.73-1.37,6.71-1.95-.82-1.69-2.11-3.31-2.37-5.09-.62-4.27-.78-8.61-1.1-12.93-.18-2.44-.28-4.88-.42-7.32-.94.09-1.88.18-2.82.27v27Z"/>
      <path class="cls-1" d="M434.23,523.27c.19,3.41.37,6.82.6,10.91.32-3.33-.33-6.74,1.08-8.48,1.48-1.83,5.03-2.95,7.49-2.68,1.8.19,4.59,3.04,4.72,4.86.51,7.43.1,14.92.16,22.39.03,3.77-.76,6.1-5.4,6.13-7.21.04-7.89.11-8.48-5.24-1.01-9.22-1.67-18.49-2.48-27.73.77-.05,1.54-.1,2.31-.15ZM438.68,552.26c.77.45,1.53.89,2.3,1.34.93-1.66,2.61-3.29,2.68-4.99.3-7.36.13-14.73.13-22.58h-5.1v26.23Z"/>
      <path class="cls-1" d="M655.42,429.62c3.27,0,6.6-.36,9.79.15,1.63.26,4.41,2.46,4.23,3.16-.49,1.93-2.15,4.91-3.56,5.03-6.73.59-13.54.66-20.28.23-1.54-.1-2.91-2.91-4.36-4.47,1.69-1.43,3.2-3.64,5.13-4.12,2.86-.71,6.03-.18,9.06-.18,0,.06,0,.13,0,.19ZM644.23,434.93h22.72c-3.92-4.88-19-4.99-22.72,0Z"/>
      <path class="cls-1" d="M131.98,428.51c2.55,0,5.25-.52,7.61.15,2.24.64,4.12,2.53,6.15,3.87-1.88,1.77-3.67,4.93-5.66,5.05-5.96.38-12.03-.17-17.98-.94-1.39-.18-3.74-3.08-3.44-4.01.55-1.68,2.58-3.6,4.31-3.99,2.86-.65,5.98-.18,9-.18,0,.02,0,.03,0,.05ZM120.84,431.9c6.53,4.52,18.09,4.27,22.42,0h-22.42Z"/>
      <path class="cls-1" d="M199.45,400.26c-.53-35.56,26.53-69.13,68.88-68.32,40.12.77,68.61,31.96,67.36,71.14-1.2,37.94-31.03,67.75-68.9,67.15-38.66-.62-68.38-32.37-67.34-69.96ZM221.66,354.98c-.13.12-.26.25-.4.37,1.08,1.29,2.08,2.66,3.27,3.85,5.27,5.29,10.67,10.45,15.86,15.82,1.39,1.44,2.92,3.4,3.08,5.24.76,8.37-6.83,18.49-15.31,20.75,10.77-2.37,10.57,6.23,13.26,11.92.4.84.51,1.81.92,2.64,2.09,4.16,1.17,7.44-2.24,10.61-5.48,5.09-10.69,10.48-15.92,15.83-1.4,1.43-2.46,3.18-4.63,6.06,8.31-7.77,15.16-14.44,22.36-20.71,1.83-1.6,5.06-3.15,7.15-2.65,13.72,3.27,16.27,6.92,16.23,21.27-.02,6.92,0,13.85,0,20.77.66-.02,1.32-.03,1.98-.05,0-8.77.36-17.55-.13-26.29-.33-5.95,1.79-9.29,7.4-10.83,2.24-.61,4.49-1.44,6.51-2.56,5.49-3.05,9.63-1.49,13.48,3.04,5.51,6.49,11.3,12.73,16.98,19.08.85-.82,1.7-1.65,2.55-2.47-4.94-5.01-9.81-10.09-14.84-15.01-11.09-10.87-11-10.78-4.35-24.51,2-4.14,4.54-5.72,9.21-5.52,9.41.4,18.84.12,28.27.12-6.34-1.47-12.73-1.9-19.05-1.38-11.67.97-19.19-2.49-22.18-15.1-1.24-5.24-.76-8.11,2.75-11.53,6.37-6.2,12.49-12.66,19.47-19.78-1.65.56-2.4.6-2.82.99-6.76,6.46-13.44,13-20.22,19.44-1.23,1.17-2.83,2.83-4.23,2.8-13.07-.28-19.86-8.75-18.55-21.94.59-5.97.1-12.05.1-18.87-1.23,1.12-1.78,1.39-1.79,1.67-.14,6.31-.23,12.62-.31,18.94-.17,13.25-.27,13.01-12.3,18.33-5.12,2.26-8.32,1.43-12.16-2.6-6.04-6.33-12.9-11.87-19.41-17.75ZM328.88,397.9c-1.73-14.87-5.82-27.57-17.38-39.78-4.98,5.83-9.18,11.51-14.2,16.36-3.63,3.51-3.88,6.47-2.31,11.04,2.54,7.39,5.11,13.67,14.88,10.91,1.22-.34,2.73.45,4.11.55,4.77.34,9.55.6,14.9.92ZM269.92,463.04c15.17-1.55,27.28-5.57,37.51-15.5-3.55-3.73-6.52-6.98-9.64-10.1-10.58-10.61-11.11-10.74-24.21-3.36-1.65.93-3.4,3.3-3.49,5.09-.39,7.59-.16,15.22-.16,23.87ZM328.75,404.82c-5.99,0-11.47,0-16.94,0-13.3-.03-14.04.41-17.85,12.94-.51,1.69-.32,4.49.76,5.62,5.9,6.18,12.17,12,18.66,18.27,9.61-10.51,13.72-22.46,15.38-36.82ZM221.05,361.8c-8.63,10.75-13.62,22.67-13.05,36.68-1.27.33-2.66.68-4.04,1.03.05.41.1.82.14,1.22h18.13c.02-.4.03-.79.05-1.19-2.93-.13-5.86-.27-8.79-.4l.05-1.73c5.15,0,10.34.4,15.43-.17,2.51-.28,6.37-1.89,6.92-3.71,1.49-4.92,7.2-9.9,2.31-15.34-5.1-5.68-11.03-10.62-17.16-16.4ZM262.74,462.1c0-6.66-.5-12.96.14-19.15.69-6.7-1.62-10.59-8.07-12.33-2-.54-3.78-1.94-5.78-2.43-1.33-.33-3.34-.27-4.26.53-6.31,5.44-12.42,11.11-18.4,16.53,8.17,10.26,23.78,17.31,36.38,16.85ZM307.06,354.44c-9.33-9.09-20.38-12.33-31.88-14.32-1.27-.22-4.21,2.27-4.35,3.7-.62,6.38-.86,12.85-.44,19.24.15,2.19,2.24,5.47,4.13,6.07,4.51,1.43,8.83,7.04,14.01,2.72,6.37-5.32,12.15-11.35,18.52-17.41ZM207.45,404.67c.86,13.4,5.1,25.19,14.43,35.89,6.23-6.16,12.42-11.45,17.54-17.62,3.88-4.67-3.22-18-9.34-18.21-7.37-.25-14.76-.06-22.63-.06ZM226.71,355.25c6.67,6.19,12.36,11.72,18.33,16.92,3.86,3.36,17.35-2.11,17.58-7.19.35-7.87.09-15.76.09-24.15-13.63.56-24.67,5.03-36,14.43ZM202.83,405.31c1.13,13.38,4.61,25.1,12.49,35.61-4.14-11.81-8.15-23.24-12.49-35.61ZM333.04,407.02c-4.33,11.4-8.44,22.22-12.7,33.43,7.52-9.99,11.31-20.93,12.7-33.43Z"/>
      <path class="cls-1" d="M266.41,374.37c11.12-.34,26.16,15.17,26.95,27.8.65,10.37-14.71,26.33-25.47,26.46-11.62.14-25.73-14.46-26.26-27.17-.55-13.11,11.88-26.69,24.79-27.09ZM268.09,425.52c9.2-.04,21.39-13.12,21.49-23.06.11-10.63-12.71-23.78-23.24-23.84-9.62-.06-21.78,12.61-21.77,22.68.02,11.48,12.44,24.27,23.52,24.22Z"/>
    </g>
  </g>
</svg>