<?xml version="1.0" encoding="UTF-8"?>
<svg id="Calque_1" data-name="Calque 1" xmlns="http://www.w3.org/2000/svg" version="1.1" viewBox="0 0 800 800">
  <defs>
    <style>
      .cls-1 {
        fill: #fff;
        stroke-width: 0px;
      }
    </style>
  </defs>
  <g id="_0gSte7" data-name="0gSte7">
    <g>
      <path class="cls-1" d="M220.9,359.15c1.74.09,2.98.13,4.21.21,3.72.25,4.9,1.42,5.25,5.15.05.51.17,1,.3,1.81,3.29.48,6.57.18,10.23.18.1-1.44.21-2.73.27-4.03.16-3.09,1.47-4.77,4.51-4.9,4.78-.2,9.57-.11,14.35-.03.88.01,1.98.32,2.59.9,1.28,1.2,2.59.99,4.04.66,6.78-1.57,13.56-3.16,20.37-4.63,1.96-.42,3.17-1.14,3.29-3.37.14-2.73,2.08-3.82,4.51-4.42,7.57-1.86,15.11-3.84,22.68-5.67,2.24-.54,3.86-1.55,5.17-3.54,3.8-5.75,8.36-10.89,13.43-15.56.95-.87,1.65-1.67,1.49-3.17-.21-1.94,1.16-3.24,2.52-4.42,7.68-6.68,16.2-11.99,25.62-15.86,10.42-4.27,21.31-6.55,32.52-6.56,22.86-.02,42.97,7.64,60.23,22.68,1.31,1.14,2.33,2.42,2.17,4.27-.11,1.3.57,2.13,1.44,2.94,5.2,4.84,9.85,10.17,13.84,16.04,1.05,1.55,2.46,2.1,4.1,2.51,8.27,2.07,16.51,4.23,24.8,6.22,3.08.74,5.2,2.05,5.16,5.56-.02,1.5,1.06,1.8,2.26,2.07,5.27,1.19,10.53,2.44,15.8,3.65,1.42.33,2.86.56,4.26.95,2.04.57,3.91.98,5.82-.64.75-.64,2.17-.64,3.29-.67,3.85-.08,7.7-.1,11.55-.02,4.61.09,5.93,1.43,6.19,5.95.05.91.17,1.81.27,2.92h9.88c.14-.9.26-1.7.39-2.49.44-2.78,1.64-4.01,4.46-4.37,1.63-.21,3.28-.25,4.98-.38.17-.69.38-1.17.4-1.66.46-9.14.88-18.28,1.36-27.42.53-10.07,1.12-20.14,1.68-30.21.25-4.46.48-8.93.69-13.4.49-10.6.92-21.19,1.43-31.79.59-12.25,1.24-24.51,1.88-36.76.62-11.94,1.26-23.88,1.87-35.82.64-12.25,1.26-24.51,1.89-36.76.62-12.05,1.24-24.09,1.87-36.14.07-1.25.31-2.48.32-3.73.04-6.17-.32-4.64,4.16-9.87,21.73-25.37,43.47-50.72,65.27-76.03,4.32-5.02,2.92-4.4,8.79-2.5,5.65,1.83,5.1,1.05,5.46,6.62.69,10.79,1.58,21.56,2.42,32.34.94,12.12,1.95,24.24,2.88,36.37.53,6.84.94,13.69,1.46,20.53.72,9.43,1.49,18.86,2.22,28.29.51,6.53.97,13.06,1.46,19.59.76,10.05,1.54,20.1,2.31,30.16.49,6.43.94,12.86,1.43,19.28.57,7.46,1.16,14.92,1.72,22.39.51,6.84.95,13.69,1.47,20.53.51,6.74,1.12,13.46,1.64,20.2.51,6.63.96,13.27,1.46,19.9.53,7.05,1.1,14.09,1.63,21.14.51,6.74.97,13.48,1.48,20.22.75,9.95,1.54,19.9,2.29,29.84.5,6.63.97,13.27,1.46,19.91.33,4.35.8,8.7.99,13.06.16,3.84.21,7.7-.03,11.53-.39,6.43-1.04,12.84-1.57,19.27-.58,6.94-1.16,13.88-1.72,20.82-.49,6.11-.93,12.23-1.42,18.34-.76,9.43-1.54,18.85-2.3,28.28-.49,6.11-.93,12.23-1.43,18.34-.55,6.84-1.14,13.67-1.7,20.51-.49,6.01-.94,12.02-1.43,18.03-.56,6.94-1.16,13.88-1.72,20.82-.48,6.01-.92,12.02-1.41,18.03-.77,9.53-1.56,19.06-2.32,28.6-.49,6.11-.94,12.23-1.43,18.34-.76,9.43-1.54,18.86-2.3,28.28-.48,5.91-.94,11.81-1.42,17.72-.78,9.63-1.58,19.27-2.36,28.9-.46,5.7-.91,11.4-1.36,17.1-.86,10.88-1.73,21.76-2.54,32.65-.12,1.57-.74,2.5-2.27,2.91-2.01.54-4.02,1.09-5.98,1.76-1.86.64-3.06.12-4.22-1.47-3.98-5.47-8.09-10.84-12.14-16.25-18.42-24.56-36.81-49.13-55.28-73.64-1.85-2.45-2.73-4.94-2.86-8-.43-9.97-1.1-19.93-1.67-29.89-.23-4.05-.47-8.1-.69-12.15-.69-12.77-1.35-25.54-2.06-38.31-.6-10.8-1.25-21.59-1.88-32.38-.63-10.79-1.25-21.59-1.87-32.38-.83-14.53-1.66-29.07-2.5-43.6-.62-10.69-1.24-21.37-1.89-32.06-.32-5.19-.72-10.37-1.1-15.55-.05-.7-.22-1.4-.38-2.37-1.3-.07-2.52-.27-3.72-.19-3.37.25-5.87-1.53-5.92-5.24,0-.4-.19-.79-.35-1.43h-9.6c-.26,1.15-.43,2.16-.72,3.13-.65,2.21-1.99,3.47-4.25,3.46-5.5-.01-11-.21-16.5-.33-.51-.01-1.04-.04-1.53.07-8.21,1.86-16.42,3.73-24.62,5.62-.59.14-1.15.42-1.81.67-.09.56-.19,1.06-.25,1.56-.38,3.27-1.23,4.32-4.44,5.15-8.66,2.22-17.32,4.42-26,6.56-1.49.37-2.64.97-3.54,2.28-4.31,6.29-9.33,11.97-14.98,17.1-.23.21-.39.48-.78.96,1.37,3.27-.46,5.41-2.96,7.52-13.48,11.34-28.86,18.58-46.33,20.77-26.77,3.36-50.39-4.11-70.88-21.62-1.76-1.5-2.98-3.09-2.34-5.66.17-.67-.41-1.81-1-2.36-5.63-5.3-10.73-11.04-14.99-17.51-.82-1.25-2-1.69-3.35-2.02-7.46-1.86-14.92-3.74-22.37-5.66-1.3-.33-2.63-.7-3.81-1.31-1.54-.8-1.92-2.4-2.01-4-.09-1.51-.91-2.22-2.28-2.53-8.11-1.83-16.21-3.72-24.34-5.43-1.45-.31-3.06.21-4.6.23-3.95.04-7.91.04-11.86.01-4.36-.03-5.48-1.04-6.03-5.32-.05-.39-.21-.77-.38-1.36h-10.02c-.15.96-.29,1.75-.4,2.55-.38,2.57-1.68,3.86-4.29,4.09-1.14.1-2.29.09-3.43.04-1.59-.07-2.23.66-2.29,2.21-.14,3.32-.39,6.64-.57,9.96-.47,8.93-.89,17.86-1.4,26.79-.52,9.03-1.12,18.05-1.68,27.08-.24,3.94-.48,7.89-.69,11.83-.7,12.87-1.37,25.75-2.08,38.62-.59,10.69-1.24,21.38-1.85,32.07-.84,14.53-1.67,29.06-2.51,43.6-.62,10.69-1.22,21.38-1.86,32.07-.35,5.81-.81,11.62-1.07,17.43-.09,1.97-1.18,3.28-2.23,4.68-10.04,13.41-20.1,26.8-30.15,40.2-12.23,16.32-24.45,32.64-36.68,48.96-.12.17-.24.34-.37.51q-2.26,3.01-5.9,1.89c-1.29-.39-2.56-.94-3.89-1.14-2.43-.35-3.25-1.82-3.38-4.05-.21-3.53-.52-7.05-.8-10.57-.76-9.43-1.55-18.85-2.3-28.28-.51-6.32-.96-12.65-1.47-18.97-.74-9.22-1.53-18.44-2.27-27.66-.5-6.22-.96-12.44-1.46-18.65-.74-9.22-1.52-18.44-2.27-27.66-.5-6.22-.96-12.44-1.47-18.65-.76-9.43-1.56-18.85-2.32-28.28-.51-6.32-.96-12.64-1.47-18.96-.72-9.01-1.48-18.02-2.2-27.03-.51-6.32-.98-12.64-1.49-18.96-.76-9.32-1.54-18.64-2.3-27.97-.5-6.11-.95-12.23-1.44-18.34-.77-9.53-1.55-19.06-2.32-28.6-.48-6.01-.94-12.02-1.42-18.03-.55-6.84-1.29-13.67-1.6-20.51-.18-3.82.28-7.67.55-11.51.51-7.05,1.09-14.09,1.64-21.14.78-10.05,1.56-20.11,2.33-30.16.48-6.22.92-12.44,1.4-18.66.57-7.57,1.18-15.13,1.74-22.7.49-6.63.93-13.27,1.42-19.9.53-7.05,1.12-14.09,1.65-21.14.49-6.43.93-12.86,1.42-19.28.56-7.36,1.15-14.71,1.71-22.07.49-6.43.94-12.85,1.43-19.28.55-7.26,1.13-14.51,1.68-21.76.49-6.53.95-13.06,1.45-19.59.77-10.16,1.57-20.31,2.34-30.47.48-6.32.92-12.65,1.4-18.97.56-7.36,1.15-14.71,1.71-22.07.47-6.22.9-12.44,1.38-18.66.57-7.57,1.18-15.13,1.75-22.7.5-6.74,1.03-13.47,1.42-20.22.35-5.92.27-5.94,5.84-7.74,5.72-1.84,4.38-2.25,8.26,2.26,22.11,25.72,44.18,51.48,66.37,77.14,2.4,2.77,3.44,5.58,3.56,9.24.35,10.91,1.09,21.8,1.67,32.71.23,4.26.43,8.52.63,12.77.49,10.49.92,20.99,1.46,31.47.71,13.71,1.54,27.41,2.26,41.11.34,6.44.52,12.89.86,19.33.5,9.45,1.09,18.89,1.62,28.33.25,4.46.49,8.93.7,13.39.29,6.34.48,12.68.81,19.01.49,9.55,1.09,19.1,1.59,28.65.33,6.34.56,12.68.88,19.01.12,2.47.37,4.93.6,7.79ZM574.31,424.7c2.56,0,4.62-.03,6.67,0,2.8.05,3.11.32,3.27,2.97.44,7.37.86,14.74,1.25,22.11.48,9.03.9,18.07,1.4,27.1.78,14.01,1.61,28.03,2.42,42.04.24,4.15.45,8.31.71,12.46.57,9.34,1.18,18.68,1.72,28.02.49,8.51.89,17.03,1.38,25.54.8,14.12,1.63,28.23,2.44,42.35.23,4.05.46,8.1.7,12.14.58,9.55,1.24,19.09,1.71,28.65.11,2.2.71,3.96,2.02,5.7,21.7,28.86,43.35,57.75,65.01,86.63.67.89,1.41,1.72,2.02,2.46,4.64-.96,4.68-1,4.93-5.26.03-.52.02-1.04.06-1.56.48-6.32.95-12.65,1.45-18.97.75-9.33,1.54-18.65,2.3-27.97.5-6.11.96-12.23,1.45-18.34.75-9.32,1.53-18.64,2.29-27.97.5-6.22.96-12.44,1.46-18.66.76-9.43,1.55-18.86,2.3-28.29.49-6.11.92-12.23,1.41-18.35.76-9.43,1.56-18.85,2.33-28.28.5-6.11.95-12.23,1.45-18.34.75-9.22,1.53-18.44,2.27-27.66.51-6.32.96-12.65,1.46-18.97.76-9.53,1.55-19.06,2.31-28.59.49-6.11.94-12.23,1.44-18.34.53-6.63,1.1-13.26,1.64-19.88.51-6.22.82-12.45,1.54-18.64,1.19-10.17,1.19-20.32.2-30.5-.7-7.24-1.18-14.5-1.73-21.76-.49-6.43-.92-12.86-1.4-19.28-.57-7.57-1.16-15.13-1.73-22.7-.47-6.22-.91-12.44-1.38-18.66-.57-7.57-1.17-15.13-1.74-22.7-.47-6.22-.92-12.44-1.39-18.66-.58-7.57-1.18-15.13-1.75-22.7-.47-6.22-.89-12.44-1.36-18.66-.57-7.57-1.18-15.13-1.75-22.7-.47-6.22-.91-12.44-1.39-18.66-.77-10.05-1.57-20.11-2.34-30.16-.49-6.43-.93-12.86-1.41-19.28-.56-7.46-1.16-14.93-1.72-22.39-.48-6.32-.91-12.65-1.41-18.97-.74-9.54-1.54-19.07-2.26-28.6-.71-9.43-1.35-18.87-2.04-28.31-.24-3.32-.59-6.62-.82-9.94-.12-1.74-1.1-2.52-2.66-2.99-1.52-.46-2.62-.06-3.55,1.16-.5.66-1.09,1.26-1.64,1.89-21.01,24.47-41.96,49-63.11,73.36-2.66,3.07-3.78,6.23-3.96,10.09-.56,12.15-1.22,24.3-1.84,36.45-.62,12.15-1.25,24.3-1.87,36.45-.62,12.15-1.25,24.3-1.87,36.45-.62,12.15-1.25,24.3-1.87,36.45-.63,12.26-1.25,24.51-1.88,36.77-.62,12.15-1.27,24.3-1.86,36.45-.51,10.49-.94,20.98-1.45,31.47-.09,1.82-.43,3.63-.67,5.55-3.23.12-6.09.23-8.75.33-.23.64-.35.83-.36,1.03-.05,1.04-.06,2.08-.09,3.12-.09,2.59-.29,2.88-2.89,2.91-4.68.06-9.37.03-14.05,0-.8,0-1.6-.25-2.58-.42-.13-2.9-.26-5.64-.39-8.53h-13.76c-.37.93-.71,1.76-1.09,2.69-.82-.12-1.53-.18-2.22-.34-9.74-2.18-19.47-4.36-29.2-6.58-2.63-.6-2.66-.73-2.78-3.62-.04-.91-.14-1.82-.22-2.82-1.05-.32-1.92-.63-2.82-.85-8.26-2.09-16.52-4.21-24.8-6.21-2.14-.52-3.67-1.48-4.92-3.39-4.5-6.94-10.06-12.98-16.31-18.39-.92-.8-1.8-1.64-2.85-2.59.54-.46.84-.7,1.12-.96.33-.31.64-.63,1.14-1.13-23.79-19.58-50.2-26.21-79.86-18.14-12.42,3.37-23.35,9.64-33.05,18.31.79.72,1.36,1.24,2.03,1.86-.48.53-.78.95-1.16,1.27-7.43,6.16-13.76,13.29-19.03,21.36-.74,1.13-1.72,1.69-3.01,1.99-3.04.71-6.04,1.55-9.06,2.32-5.04,1.28-10.08,2.53-15.11,3.82-2.51.64-2.6.8-2.72,3.38-.01.31-.04.63,0,.94.17,1.66-.65,2.48-2.22,2.79-1.93.39-3.85.86-5.78,1.3-8.21,1.87-16.42,3.74-24.63,5.58-.48.11-1,.01-1.54.01-.39-.92-.74-1.75-1.05-2.49-4.89-.6-11.3-.41-13.73.5,0,1.83.07,3.8-.02,5.76-.09,2.16-.43,2.55-2.62,2.59-4.89.08-9.78.07-14.67,0-2.16-.03-2.4-.4-2.58-2.64-.11-1.41-.22-2.81-.35-4.58-2.17,0-4.02.02-5.87,0-3.12-.04-3.24-.19-3.41-3.39-.35-6.65-.77-13.29-1.09-19.93-.71-14.54-1.38-29.09-2.07-43.63-.22-4.67-.45-9.35-.71-14.02-.76-13.7-1.58-27.41-2.29-41.11-.53-10.28-.94-20.57-1.41-30.85-.2-4.36-.43-8.72-.67-13.08-.58-11.01-1.19-22.01-1.76-33.02-.27-5.19-.46-10.39-.74-15.58-.77-14.54-1.63-29.07-2.3-43.61-.12-2.53-.77-4.5-2.45-6.45-17.21-19.92-34.33-39.92-51.48-59.89-4.95-5.76-9.95-11.48-14.82-17.31-1.13-1.35-2.23-1.16-3.59-.72-1.38.45-2.36,1.01-2.39,2.75-.05,2.7-.37,5.39-.57,8.09-.49,6.74-.97,13.48-1.48,20.22-.76,10.05-1.56,20.1-2.32,30.16-.5,6.53-.94,13.07-1.44,19.6-.74,9.64-1.53,19.27-2.27,28.91-.51,6.74-.95,13.48-1.46,20.22-.76,10.16-1.56,20.31-2.33,30.47-.5,6.53-.96,13.06-1.46,19.6-.53,6.94-1.11,13.88-1.63,20.83-.51,6.74-.94,13.48-1.45,20.22-.75,9.85-1.55,19.69-2.3,29.53-.5,6.63-.94,13.27-1.44,19.91-.54,7.25-1.12,14.51-1.68,21.76-.5,6.53-.98,13.06-1.48,19.59-.75,9.74-1.53,19.48-2.27,29.22-.52,6.84-1.03,13.69-1.47,20.53-.61,9.32-2.15,18.58-1.06,27.98.69,5.98.97,12.02,1.46,18.03.56,6.94,1.15,13.88,1.7,20.82.48,6.01.93,12.02,1.42,18.03.56,6.94,1.16,13.88,1.72,20.82.49,6.01.95,12.02,1.43,18.03.56,6.94,1.13,13.88,1.69,20.82.49,6.11.94,12.23,1.44,18.34.54,6.63,1.12,13.26,1.65,19.89.5,6.22.94,12.44,1.43,18.66.77,9.64,1.57,19.27,2.34,28.91.47,5.91.91,11.82,1.39,17.72.55,6.73,1.15,13.46,1.7,20.19.5,6.11.94,12.23,1.44,18.35.76,9.43,1.56,18.85,2.31,28.28.49,6.11.92,12.23,1.41,18.35.78,9.74,1.57,19.48,2.38,29.22.44,5.37.92,10.75,1.4,16.36,1.54.41,3,.8,4.51,1.21.77-.99,1.42-1.79,2.04-2.62,8.38-11.14,16.77-22.28,25.14-33.43,13.18-17.56,26.34-35.13,39.54-52.68,1.22-1.62,2.08-3.22,2.17-5.34.2-4.78.69-9.54.98-14.31.64-10.59,1.24-21.18,1.85-31.76.84-14.64,1.68-29.27,2.53-43.91.61-10.59,1.23-21.17,1.84-31.76.84-14.64,1.68-29.28,2.53-43.91.61-10.59,1.26-21.17,1.84-31.76.71-12.87,1.34-25.75,2.05-38.63.14-2.55.48-5.1.74-7.83,3.2-.15,6.05-.29,8.99-.42.28-2.33.52-4.35.75-6.28,3.38-.7,16.76-.59,19.36.17.18,1.91.37,3.93.55,5.78.45.23.64.4.82.4,4.76,0,9.53.69,14.26-.42.67-.16,1.46-.03,2.15.12,9.53,2.16,19.05,4.33,28.57,6.54,2.74.64,2.73.7,2.83,3.53.12,3,.11,3.04,2.96,3.77,7.65,1.96,15.3,3.94,22.98,5.78,2.07.49,3.49,1.46,4.66,3.23,4.32,6.54,9.4,12.44,15.27,17.66,3.21,2.86,3.19,2.88,2.33,7.11.62.58,1.27,1.24,1.98,1.84,13.79,11.68,29.78,18.14,47.71,19.48,16.54,1.23,32.37-1.78,46.91-10,4.95-2.8,9.48-6.37,14.16-9.64,1.11-.78,2.27-1.81,1.48-3.37-1.06-2.1.06-3.22,1.51-4.46,6.24-5.27,11.56-11.39,16.06-18.19,1.11-1.67,2.44-2.61,4.41-3.08,8.19-1.95,16.35-4.03,24.49-6.14,3.61-.94,3.74-.46,3.74-4.41,0-2.35.21-2.5,2.63-3.06,9.52-2.19,19.04-4.36,28.57-6.53.7-.16,1.51-.43,2.14-.24,4.2,1.24,8.49.35,12.72.6.9.05,1.81-.14,2.86-.23.22-2.29.42-4.39.61-6.39,4.24-.6,16.73-.4,19.17.3.08.82.21,1.73.25,2.64.04,1.02.01,2.05.01,3.67Z"/>
      <path class="cls-1" d="M470.07,394.39c-.34,9.98-2.51,19.6-6.53,28.69-2.35,5.3-5.36,10.31-8.32,15.32-3.72,6.3-9.06,11.05-15.11,15.07-11.65,7.75-24.43,12.33-38.32,13.88-4.73.53-9.33-.47-13.9-1.4-13.62-2.76-25.73-8.71-36.37-17.63-1.66-1.39-3.22-2.96-4.57-4.66-10.4-13.1-16.47-27.98-18.52-44.61-.86-7,.45-13.66,2.03-20.32,2.87-12.1,8.15-23.11,15.89-32.86,1.73-2.18,3.72-4.22,5.87-5.99,12.09-9.97,25.99-15.87,41.47-18.1,7.91-1.14,15.53.46,23.05,2.61,11.56,3.31,21.93,8.93,30.97,16.88,2.16,1.9,4.03,4.21,5.73,6.55,9.84,13.52,15.52,28.59,16.63,45.32.03.41,0,.83,0,1.25ZM398.95,376.89c-.27.07-.69.12-1.07.27-3.36,1.37-6.76,2.69-10.06,4.2-.84.38-1.59,1.33-1.99,2.2-1.38,3.02-2.56,6.13-3.89,9.17-.49,1.12-.53,2.12-.03,3.27,1.34,3.04,2.6,6.11,3.84,9.2.5,1.25,1.34,2.02,2.57,2.52,3.08,1.23,6.12,2.59,9.24,3.74.88.32,2.07.37,2.94.06,3.22-1.17,6.35-2.56,9.54-3.82,1.24-.49,2.04-1.29,2.53-2.54,1.14-2.9,2.34-5.78,3.59-8.63.63-1.43.67-2.75.04-4.19-1.3-2.94-2.47-5.94-3.76-8.89-.28-.64-.68-1.46-1.24-1.71-3.8-1.67-7.65-3.21-11.49-4.78-.18-.08-.41-.05-.75-.08ZM382.4,379.83c-6.75-7.28-13.29-14.59-20.13-21.62-6.09,6.06-15.05,29.01-13.47,33.65.64.07,1.35.21,2.06.22,7.49.01,14.98,0,22.47-.01.73,0,1.45-.09,2.18-.15,1.25-.1,2.12-.67,2.62-1.87,1.38-3.35,2.8-6.69,4.27-10.2ZM450.15,397.28c-.66-.21-.95-.38-1.24-.38-8.72-.02-17.45-.01-26.17-.06-1.37,0-2.09.62-2.57,1.8-1.06,2.6-2.04,5.23-3.26,7.75-.91,1.9-.52,3.21.89,4.7,5.51,5.8,10.89,11.71,16.34,17.57.61.66,1.31,1.24,2.24,2.12,6.93-10.34,11.68-21.22,13.76-33.49ZM396.04,446.75c.36-.54.47-.62.47-.71.04-9.46.07-18.92.12-28.38,0-1.23-.62-1.89-1.69-2.33-2.31-.93-4.65-1.81-6.9-2.88-1.77-.84-3.05-.56-4.42.84-5.83,5.94-11.74,11.79-17.6,17.7-.55.56-.96,1.26-1.59,2.09,9.7,6.96,20.08,11.6,31.61,13.67ZM402.02,341.91c-.14,1.42-.3,2.42-.32,3.42-.1,5.09-.17,10.18-.22,15.27-.03,3.22.05,6.44-.03,9.66-.04,1.69.6,2.7,2.2,3.31,2.99,1.15,5.94,2.42,8.5,3.48,7.28-7.27,14.31-14.29,21.57-21.54-9.3-6.62-19.66-11.23-31.7-13.6ZM437.76,360.11c-7.19,7.2-14.06,14.08-21.19,21.23,1.03,2.5,2.31,5.43,3.43,8.43.64,1.72,1.67,2.36,3.51,2.35,8.2-.07,16.4-.02,24.6-.06.66,0,1.31-.3,2.09-.49-2.08-11.49-6.14-21.9-12.43-31.45ZM360.89,429.19c6.92-6.92,13.45-13.45,19.98-19.97.85-.85.94-1.76.47-2.84-.99-2.29-2-4.57-2.84-6.92-.7-1.94-1.84-2.66-3.96-2.63-7.79.11-15.59.02-23.39.03-.89,0-1.77.17-3.02.3,2,11.63,6.25,21.95,12.76,32.04ZM366.2,354.38c.1.54.09.68.15.74,6.3,6.9,12.61,13.8,18.91,20.7.83.91,1.77.9,2.83.44,2.01-.86,3.99-1.81,6.06-2.46,2.07-.65,2.6-1.88,2.58-3.95-.1-8.31-.03-16.62-.05-24.94,0-.89-.15-1.79-.26-3-11.19,2.01-21.03,6.34-30.22,12.46ZM411.95,411.84c-2.55,1.04-4.81,2.09-7.16,2.87-2.37.79-3.11,2.27-3.08,4.69.1,7.79,0,15.57,0,23.36,0,.73.02,1.45.08,2.18.1,1.14.77,1.66,1.89,1.55.62-.06,1.23-.2,1.83-.34,8.57-2.01,16.55-5.41,24.01-10.05.94-.58,1.8-1.28,2.92-2.1-6.92-7.49-13.6-14.71-20.49-22.16Z"/>
      <path class="cls-1" d="M132.09,63c.23,1.19.55,2.38.66,3.58.92,10.35,1.76,20.7,2.69,31.05,1.14,12.62,2.36,25.24,3.5,37.86.93,10.35,1.77,20.71,2.7,31.06.71,7.86,1.54,15.72,2.26,23.58.73,7.97,1.36,15.94,2.07,23.91.73,8.18,1.52,16.35,2.26,24.52.51,5.59.97,11.18,1.47,16.77.73,8.07,1.48,16.14,2.22,24.21.52,5.69,1.01,11.39,1.52,17.08.74,8.18,1.63,16.34,2.15,24.53.23,3.6-.22,7.25-.5,10.87-.47,6.11-1.07,12.21-1.6,18.32-.66,7.66-1.28,15.33-1.95,22.99-.18,2.03-.46,2.29-3.04,2.78-4.8.91-9.61,1.76-14.41,2.64-6.95,1.28-13.89,2.58-20.85,3.82-1.75.31-3.09,1.03-3.92,2.68-.4.8-1.04,1.48-2.15,2.14-.08-.85-.28-1.7-.22-2.54.46-6.74.96-13.48,1.48-20.21.29-3.73.67-7.45.96-11.18,1.03-13.47,2.06-26.94,3.06-40.42.71-9.54,1.34-19.08,2.07-28.61.94-12.33,1.97-24.66,2.92-36.99.51-6.63.91-13.27,1.42-19.9.74-9.74,1.55-19.48,2.29-29.22.51-6.63.94-13.27,1.44-19.9.54-7.15,1.13-14.3,1.67-21.45.48-6.22.92-12.44,1.39-18.66.79-10.36,1.6-20.73,2.38-31.09.49-6.53.93-13.06,1.41-19.59.61-8.17,1.24-16.34,1.86-24.51l.8-.14Z"/>
      <path class="cls-1" d="M692.51,387.61c-.58-.81-1.27-1.56-1.71-2.44-.83-1.69-2.25-2.29-3.98-2.6-11.55-2.09-23.1-4.22-34.65-6.36-1-.19-1.98-.52-3.11-.82-.24-1.42-.55-2.73-.66-4.05-.92-11.08-1.79-22.17-2.71-33.25-.29-3.52-.97-7.03-.97-10.55,0-5.5.3-11,.69-16.49.41-5.8,1.07-11.59,1.61-17.38.78-8.38,1.55-16.76,2.31-25.15.69-7.66,1.36-15.32,2.05-22.98.77-8.49,1.55-16.97,2.32-25.46.49-5.38.95-10.77,1.43-16.15.77-8.49,1.57-16.97,2.32-25.46.71-7.97,1.36-15.95,2.07-23.92.74-8.18,1.54-16.35,2.28-24.52.72-7.87,1.39-15.74,2.1-23.6.73-8.07,1.48-16.15,2.21-24.22.5-5.49.98-10.97,1.48-16.46.08-.91.22-1.81.86-2.81.21.57.55,1.14.6,1.72.48,6.22.9,12.44,1.37,18.66.75,9.95,1.54,19.9,2.3,29.85.51,6.74.96,13.48,1.47,20.22.74,9.74,1.52,19.48,2.27,29.22.49,6.43.95,12.86,1.44,19.28.57,7.46,1.18,14.92,1.74,22.38.48,6.43.91,12.86,1.39,19.29.75,9.95,1.55,19.9,2.31,29.85.49,6.43.94,12.86,1.42,19.28.77,10.16,1.57,20.31,2.33,30.47.51,6.84.96,13.69,1.47,20.53.52,6.84,1.09,13.68,1.62,20.52.49,6.32.95,12.65,1.43,18.97.56,7.36,1.14,14.71,1.69,22.07.05.69,0,1.39,0,2.09-.27.09-.54.18-.82.28Z"/>
      <path class="cls-1" d="M132.18,733.59c-.29-3.38-.59-6.76-.88-10.14-.57-6.73-1.14-13.46-1.68-20.19-.49-6.11-.94-12.23-1.43-18.34-.76-9.43-1.54-18.85-2.3-28.27-.49-6.01-.95-12.02-1.43-18.03-.77-9.53-1.56-19.06-2.32-28.59-.5-6.22-.95-12.44-1.45-18.65-.76-9.32-1.56-18.64-2.31-27.96-.5-6.11-.93-12.23-1.42-18.34-.75-9.43-1.54-18.85-2.3-28.28-.49-6.01-.95-12.02-1.43-18.03-.77-9.53-1.57-19.06-2.33-28.59-.52-6.53-.98-13.06-1.51-19.58-.51-6.32-1.11-12.63-1.61-18.94-.36-4.54-.64-9.08-.96-13.77,1.78.05,2.16,1.29,2.73,2.13.96,1.4,1.85,2.06,3.82,1.72,11.67-1.97,23.39-3.73,35.09-5.53,1.09-.17,2.2-.14,3.48-.21.3,2.01.67,3.73.78,5.47.51,7.57.9,15.15,1.41,22.72.48,7.15,1.07,14.3,1.59,21.45.08,1.14.17,2.29.07,3.43-1.14,13.15-2.34,26.29-3.47,39.44-.72,8.39-1.33,16.78-2.05,25.17-.94,10.97-1.97,21.94-2.91,32.91-.72,8.39-1.33,16.78-2.04,25.17-.73,8.59-1.53,17.18-2.28,25.77-.49,5.59-.93,11.18-1.41,16.77-.78,9.01-1.58,18.01-2.36,27.02-.48,5.59-.92,11.19-1.4,16.78-.78,9.11-1.58,18.22-2.35,27.33-.48,5.7-.95,11.39-1.41,17.09-.26,3.21-.49,6.42-.77,9.63-.04.48-.25.95-.38,1.42-.26,0-.51,0-.77,0Z"/>
      <path class="cls-1" d="M667.25,733.61c-.24-1.6-.57-3.19-.7-4.8-.72-8.49-1.36-16.99-2.08-25.48-.72-8.49-1.54-16.97-2.27-25.46-.74-8.59-1.38-17.19-2.11-25.79-.72-8.39-1.52-16.76-2.25-25.15-.51-5.9-.94-11.81-1.44-17.72-.74-8.7-1.52-17.39-2.26-26.09-.51-5.9-.97-11.81-1.48-17.71-.75-8.7-1.51-17.39-2.26-26.09-.49-5.7-.96-11.39-1.45-17.09-.77-9.01-1.56-18.01-2.33-27.02-.51-6.01-1.04-12.01-1.44-18.03-.3-4.45-.75-8.94-.51-13.38.55-10.48,1.49-20.94,2.24-31.41.29-4.04.48-8.1.75-12.14.09-1.32.3-2.64.5-4.32,7.06.55,13.74,1.97,20.46,3.01,6.77,1.04,13.54,2.05,20.38,3.08,1.2-1.48,2.35-2.92,3.98-4.94.2,1.37.44,2.09.38,2.79-.91,10.98-1.89,21.95-2.78,32.93-.74,9.01-1.36,18.04-2.09,27.05-.74,9.12-1.56,18.22-2.3,27.34-.5,6.22-.89,12.44-1.39,18.66-.74,9.12-1.54,18.23-2.3,27.34-.5,6.01-.94,12.02-1.43,18.03-.57,7.04-1.16,14.09-1.73,21.13-.48,5.9-.92,11.81-1.4,17.72-.78,9.63-1.59,19.27-2.36,28.9-.48,5.91-.91,11.81-1.38,17.72-.56,7.04-1.16,14.09-1.72,21.13-.48,6.01-.93,12.02-1.41,18.03-.76,9.43-1.55,18.85-2.31,28.28-.13,1.66-.14,3.33-.3,4.98-.15,1.51-.42,3.01-.64,4.51-.19,0-.38-.01-.57-.02Z"/>
      <path class="cls-1" d="M191.17,419.65c-.25,1.67-.32,2.8-.6,3.87-1.32,5.02-2.6,10.06-4.11,15.03-.77,2.54-1.06,4.98-.81,7.65.45,4.86.55,9.76.75,14.64.29,7.07.5,14.14.83,21.2.5,10.7,1.08,21.39,1.62,32.09.23,4.57.47,9.14.65,13.71.3,7.27.52,14.55.85,21.83.28,6.23.68,12.46,1,18.69.07,1.44.01,2.89-.49,4.5-.24-.76-.6-1.5-.7-2.28-1.54-11.33-3.02-22.66-4.55-33.99-1.56-11.53-3.18-23.06-4.76-34.59-.53-3.91-1-7.83-1.52-11.75-.34-2.52-.62-2.75-3.14-2.82-4.84-.14-4.92-.16-5.64,4.56-1.77,11.5-3.44,23.02-5.18,34.53-2.03,13.46-4.09,26.92-6.1,40.38-2.17,14.49-4.3,28.98-6.47,43.47-.35,2.31-.8,4.6-1.21,6.9-.24-.03-.48-.06-.72-.09.22-3.05.42-6.11.68-9.16.52-6.11,1.08-12.22,1.61-18.33.78-9.01,1.55-18.02,2.32-27.03.7-8.29,1.37-16.58,2.09-24.86.76-8.8,1.56-17.6,2.32-26.4.5-5.8.95-11.6,1.42-17.41.65-7.98,1.46-15.95,1.91-23.93.22-3.82-.17-7.68-.38-11.52-.22-3.94-.57-7.88-.84-11.82-.88-12.76-1.74-25.51-2.62-38.27-.03-.4-.18-.78-.3-1.31-.67-.04-1.28-.17-1.85-.08-9.54,1.51-19.08,3.06-28.63,4.58-3.9.62-7.81,1.18-11.7,1.87-1.52.27-2.6-.07-3.48-1.36-1.69-2.5-3.42-4.97-5.2-7.4-.89-1.21-.74-2.24.03-3.42,2.04-3.14,4.06-6.3,6.01-9.49.83-1.36,1.95-1.96,3.5-2.24,12.17-2.21,24.32-4.5,36.47-6.76.41-.08.82-.11,1.23-.2,3.16-.65,3.09-.66,3.35-3.78.73-8.91,1.54-17.81,2.31-26.72.48-5.59,1.03-11.18,1.38-16.78.34-5.49.84-11.02.58-16.49-.39-8.09-1.41-16.15-2.14-24.22-.72-7.87-1.4-15.74-2.12-23.61-.76-8.38-1.54-16.77-2.3-25.15-.71-7.87-1.38-15.74-2.09-23.61-.74-8.18-1.5-16.35-2.25-24.53-.47-5.18-.95-10.35-1.41-15.53-.54-6.11-1.07-12.22-1.59-18.32-.04-.46.03-.93.62-1.47.35,1.78.78,3.55,1.05,5.35,3.62,23.41,7.21,46.83,10.83,70.24,2.88,18.59,5.79,37.17,8.68,55.75.43,2.73.67,2.96,3.33,3.02,1.44.03,2.89,0,4.75,0,4.07-28.64,7.66-57.1,11.64-85.51.22.02.45.04.67.06,0,1.83.08,3.66-.01,5.49-.32,6.23-.71,12.46-1.07,18.68-.57,9.65-1.15,19.31-1.71,28.96-.24,4.15-.46,8.31-.68,12.46-.7,13.5-1.38,27-2.1,40.5-.34,6.44-.84,12.87-1.07,19.31-.07,1.91.38,3.9.89,5.77,2.02,7.41,4.17,14.79,6.24,22.19.25.89.31,1.84.41,2.77.04.39-.06.8-.12,1.45-.95.11-1.85.27-2.76.3-1.56.05-3.12,0-4.68.03-3.2.05-3.47.16-4.2,3.37-.95,4.15-1.9,8.32-2.5,12.53-1.47,10.33-.67,20.53,2.27,30.56.15.5.33.99.46,1.49.43,1.79,1.54,2.55,3.4,2.48,2.37-.09,4.75-.02,7.69-.02Z"/>
      <path class="cls-1" d="M651.02,163.18c-.23,3.3-.42,6.59-.71,9.88-.99,11.18-1.99,22.36-3.03,33.53-.95,10.24-1.97,20.48-2.91,30.73-.73,7.97-1.35,15.95-2.07,23.91-.73,8.07-1.54,16.14-2.27,24.21-.72,7.97-1.38,15.94-2.08,23.92-.18,2.07-.29,4.15-.6,6.2-1.37,8.98.39,17.82,1.03,26.71.44,6.12.97,12.23,1.49,18.34.6,7.03,1.23,14.06,1.87,21.32,2.61.53,5.02,1.06,7.44,1.51,11.03,2.07,22.05,4.16,33.1,6.13,1.82.32,2.99,1.1,3.91,2.65,1.76,2.95,3.6,5.85,5.51,8.7.98,1.47,1.2,2.69.02,4.2-1.72,2.22-3.3,4.55-4.83,6.9-.93,1.44-2.05,1.74-3.7,1.47-13.33-2.18-26.67-4.29-40.01-6.41-.5-.08-1.02-.05-1.89-.09-.25,1.33-.62,2.61-.71,3.91-.51,7.26-.91,14.53-1.41,21.79-.73,10.47-1.71,20.93-2.21,31.41-.24,4.95.28,9.96.64,14.93.44,6.22,1.07,12.42,1.62,18.64.77,8.8,1.55,17.6,2.31,26.4.49,5.7.93,11.39,1.42,17.09.76,8.9,1.55,17.81,2.31,26.71.49,5.7.94,11.39,1.43,17.09.76,8.9,1.57,17.8,2.3,26.71.13,1.63.02,3.28-.27,4.95-3.64-21.43-6.79-42.93-10-64.42-3.21-21.46-6.49-42.91-9.77-64.53h-7.66c-3.86,28.27-7.7,56.41-11.54,84.56-.18,0-.36,0-.54,0-.09-.63-.28-1.27-.25-1.9.33-8.1.68-16.2,1.05-24.31.23-4.99.52-9.97.73-14.95.5-11.74.95-23.48,1.46-35.22.61-13.92,1.26-27.84,1.9-41.76.04-.93.19-1.86.26-2.8.37-5.19.48-10.28-1.41-15.36-1.62-4.36-2.42-9.02-3.55-13.56-.17-.68-.16-1.4-.25-2.17,2.22-.99,4.42-.45,6.55-.52,3.63-.11,3.75-.11,4.78-3.56,2.97-9.91,3.71-20.01,2.33-30.24-.62-4.62-1.62-9.2-2.63-13.76-.57-2.61-.99-2.79-3.65-2.86-2.57-.08-5.15-.11-8.01-.17.06-1.15.02-1.96.16-2.73,1.53-8.3,3.76-16.41,6.76-24.3.76-2.01.94-3.96.74-6.09-.4-4.24-.59-8.5-.81-12.76-.5-9.66-.93-19.32-1.47-28.97-.71-12.77-1.53-25.53-2.25-38.29-.53-9.45-.98-18.9-1.46-28.35-.24-4.67-.49-9.34-.72-14.02-.02-.49,0-.98.33-1.51,2,9.14,2.91,18.44,4.26,27.67,1.38,9.46,2.56,18.95,3.83,28.42,1.25,9.36,2.5,18.71,3.78,28.31h7.75c6.92-44.46,13.84-88.95,20.76-133.43.29.04.58.08.87.12Z"/>
      <path class="cls-1" d="M173.82,266.23c-11.88-76.39-23.75-152.78-35.66-229.32,1.73-.14,2.23,1.04,2.9,1.81,7.08,8.18,14.12,16.39,21.17,24.6,10.78,12.54,21.51,25.12,32.37,37.6,1.6,1.83,2.09,3.6,1.76,5.94-1.48,10.49-2.82,21-4.24,31.5-1.32,9.78-2.66,19.56-3.98,29.34-1.37,10.09-2.73,20.18-4.09,30.26-1.39,10.29-2.77,20.59-4.15,30.88-1.33,9.88-2.65,19.76-3.97,29.65-.27,2.06-.48,4.13-.79,6.18-.08.55-.43,1.06-.66,1.59-.22,0-.44-.01-.66-.02Z"/>
      <path class="cls-1" d="M661.7,36.79c0,.69.09,1.4-.01,2.07-11.74,75.56-23.5,151.12-35.28,226.68-.04.24-.37.43-.94,1.05-.33-1.96-.65-3.53-.87-5.11-1.41-10.4-2.8-20.8-4.18-31.2-1.34-10.09-2.66-20.19-4.01-30.28-1.15-8.55-2.36-17.09-3.51-25.63-1.13-8.34-2.2-16.69-3.32-25.03-1.36-10.2-2.75-20.39-4.12-30.58-.61-4.53-1.14-9.07-1.84-13.59-.25-1.59.58-2.55,1.46-3.58,4.34-5.05,8.67-10.11,13.01-15.16,13.69-15.95,27.38-31.9,41.07-47.84.6-.7,1.26-1.34,1.9-2.01.22.08.43.15.65.23Z"/>
      <path class="cls-1" d="M625.84,518.52c11.1,73.66,22.2,147.32,33.28,220.99.1.65-.1,1.34-.21,2.64-.99-1.09-1.64-1.7-2.17-2.4-16.98-22.62-33.93-45.26-50.95-67.85-1.19-1.57-1.46-3.12-1.2-4.93,1.15-8.33,2.29-16.67,3.42-25,1.37-10.08,2.72-20.17,4.09-30.25,1.36-9.98,2.75-19.96,4.11-29.94,1.33-9.78,2.64-19.56,3.96-29.33,1.49-11.01,2.98-22.02,4.48-33.03.04-.29.25-.55.39-.82.27-.02.53-.04.8-.06Z"/>
      <path class="cls-1" d="M175.24,518.51c.39,2.32.84,4.63,1.15,6.96,1.76,13.07,3.46,26.15,5.23,39.22,1.53,11.32,3.16,22.63,4.71,33.95,1.36,9.98,2.64,19.98,3.99,29.96,1.55,11.43,3.14,22.85,4.71,34.27.18,1.34.22,2.71.56,4.01.51,1.9,0,3.37-1.15,4.9-5.6,7.37-11.12,14.8-16.67,22.21-11.29,15.06-22.59,30.12-33.89,45.18-.67.89-1.39,1.75-2.48,3.11-.18-1.12-.4-1.66-.33-2.16,1.41-9.66,2.85-19.32,4.3-28.97,1.54-10.27,3.1-20.54,4.65-30.81,1.77-11.81,3.53-23.63,5.31-35.44,1.77-11.81,3.55-23.62,5.33-35.44,1.99-13.25,4-26.5,5.99-39.75,1.99-13.25,3.95-26.51,5.92-39.76.44-2.98.86-5.96,1.34-8.94.14-.86.49-1.69.75-2.53.2,0,.4.01.61.02Z"/>
      <path class="cls-1" d="M380.28,321.19c-.97.34-1.93.7-2.9,1.03-9.86,3.33-18.8,8.3-26.94,14.77-6.5,5.17-10.84,12.01-14.78,19.13-6.44,11.64-10.09,24.18-10.75,37.44-.22,4.49.68,9.11,1.55,13.58,2.67,13.69,8.3,26.08,16.74,37.21,5.16,6.8,12.07,11.38,19.28,15.57,6.14,3.57,12.73,6.13,19.56,8.04.95.27,1.87.63,2.77,1.25-2.8.84-5.62.77-8.41.39-.58-.08-1.07-.91-1.58-1.42-2.59-2.59-5.4-2.72-7.85-.03-1.19,1.31-2.43,1.75-4.08,1.73-3.54-.05-7.08-.12-10.61.03-2.34.1-4.2-.65-6-2.07-14.08-11.13-24.09-25.15-30.15-42.02-3.59-9.98-5.48-20.33-5.36-30.88.33-29.04,11.19-53.34,33.46-72.31,1.93-1.64,3.9-2.42,6.48-2.38,8.74.13,17.48.05,26.21.05,1.1,0,2.2,0,3.29,0,.01.3.02.6.03.89Z"/>
      <path class="cls-1" d="M413.22,469c.63-.23,1.24-.51,1.88-.69,8.14-2.3,15.88-5.49,23.2-9.8,10.33-6.08,18.23-14.35,23.87-24.89,6.06-11.32,9.97-23.3,11.18-36.1.59-6.29-.66-12.45-2.04-18.53-2.54-11.17-7.19-21.43-13.59-30.96-4.02-5.98-9.04-10.82-14.96-14.84-7.02-4.76-14.49-8.58-22.56-11.2-.59-.19-1.16-.43-1.72-.7-.13-.06-.17-.33-.38-.77.98-.08,1.86-.2,2.74-.21,9.16-.01,18.32.04,27.47-.04,2.01-.02,3.57.6,5.09,1.86,17.02,14.04,27.65,31.92,32.2,53.45,1.62,7.67,2.35,15.45,1.84,23.26-1.84,28.42-13.63,51.73-36.11,69.46-1.37,1.08-2.82,1.65-4.58,1.61-3.74-.08-7.49-.08-11.24-.05-1.54.01-2.69-.41-3.8-1.63-2.51-2.74-5.31-2.77-7.8-.06-1.19,1.29-2.4,1.8-4.07,1.74-2.16-.07-4.32-.02-6.49-.02-.05-.3-.09-.6-.14-.89Z"/>
      <path class="cls-1" d="M488.76,372.65c1.22-.11,2.32-.28,3.42-.28,14.04-.02,28.08-.01,42.12-.01.42,0,.83-.01,1.25.02,2.25.15,2.51.38,2.59,2.56.06,1.56.02,3.12.02,4.68,0,10.82,0,21.63,0,32.45,0,1.22-.1,2.45-.15,3.59-2.54.79-45.85.92-49.19.18.51-4.67,1.22-9.36,1.49-14.07.27-4.76.31-9.55.05-14.31-.25-4.75-1-9.47-1.6-14.8Z"/>
      <path class="cls-1" d="M309.25,372.63c-.57,7.52-1.53,14.72-1.53,21.93,0,7.1.98,14.2,1.55,21.54-.98.06-1.99.17-3,.17-13.52,0-27.04,0-40.56,0-.62,0-1.25-.03-1.87-.02-1.29,0-1.9-.66-1.94-1.91-.02-.73-.04-1.46-.04-2.18,0-11.86,0-23.71,0-35.57,0-.73.02-1.46.05-2.18.04-1.24.68-1.92,1.92-2,.83-.05,1.66-.07,2.49-.07,13,0,26-.01,39,.01,1.32,0,2.63.18,3.93.28Z"/>
      <path class="cls-1" d="M599.69,181.23c.22,2.05.53,4.09.64,6.14.52,9.55.94,19.11,1.47,28.66.49,8.93,1.07,17.85,1.6,26.77.25,4.25.5,8.51.71,12.77.49,9.66.91,19.32,1.45,28.97.71,12.66,1.51,25.32,2.25,37.98.26,4.46.55,8.93.69,13.39.04,1.42-.14,2.93-.6,4.27-2.97,8.45-5.4,17.03-6.98,25.85-.48,2.69-.92,3.11-2.62,3.15-1.65.04-2.19-.47-2.42-2.11-.21-1.49-.06-3.38-.92-4.33-.75-.83-2.68-.61-4.08-.86-.2-.04-.38-.15-.96-.38-.05-1.13-.21-2.44-.14-3.73.29-5.29.7-10.58.97-15.87.51-10.28.9-20.57,1.43-30.85.72-13.91,1.56-27.82,2.29-41.73.5-9.55.88-19.11,1.37-28.66.54-10.59,1.18-21.18,1.72-31.76.32-6.13.52-12.26.83-18.39.16-3.09.44-6.18.66-9.27.21,0,.42,0,.63-.01Z"/>
      <path class="cls-1" d="M201.09,181.53c.12.76.31,1.52.36,2.29.21,3.42.4,6.85.56,10.27.49,10.38.91,20.77,1.45,31.15.71,13.7,1.5,27.4,2.26,41.09.23,4.26.48,8.51.68,12.77.49,10.49.93,20.98,1.44,31.46.6,12.35,1.26,24.71,1.89,37.06.19,3.63.41,7.26.56,10.9.04,1.01-.08,2.02-.14,3.2-1.14.11-2.05.19-2.95.28-2.22.23-2.62.63-2.82,2.9-.11,1.22-.18,2.45-.27,3.58-3.46,1.25-4.23.89-4.77-2.12-1.53-8.51-3.86-16.8-6.62-24.98-.61-1.82-.95-3.86-.86-5.77.49-10.9,1.16-21.8,1.76-32.69.26-4.67.46-9.34.72-14.01.57-10.27,1.17-20.55,1.76-30.82.23-4.05.47-8.09.68-12.14.49-9.55.93-19.1,1.43-28.65.6-11.31,1.24-22.62,1.88-33.93.03-.6.18-1.19.28-1.79.24-.01.48-.03.73-.04Z"/>
      <path class="cls-1" d="M204.02,420.09c.13,1.11.3,2.31.39,3.52.19,2.56.37,2.76,2.93,3.01.81.08,1.61.21,2.33.31.93,2.86-8.34,158.55-9.49,163.4-.23-2.63-.56-5.25-.68-7.88-.52-11.74-.95-23.48-1.47-35.22-.6-13.61-1.24-27.21-1.87-40.81-.63-13.71-1.24-27.42-1.9-41.12-.31-6.44-.78-12.87-1.01-19.31-.07-1.83.26-3.72.7-5.51,1.42-5.75,3.04-11.44,4.46-17.19.96-3.9,1.11-4.07,5.61-3.21Z"/>
      <path class="cls-1" d="M599.4,590c-.1-.49-.27-.98-.29-1.47-.48-8.72-.92-17.44-1.43-26.16-.51-8.92-1.08-17.84-1.62-26.77-.25-4.15-.5-8.3-.73-12.45-.7-12.87-1.35-25.75-2.07-38.62-.8-14.43-1.66-28.85-2.49-43.28-.23-4.05-.51-8.09-.71-12.14-.1-2.09.12-2.28,2.21-2.47.41-.04.83-.04,1.25-.04,1.51-.01,2.33-.72,2.32-2.28,0-.52-.01-1.04,0-1.56.08-2.88.76-3.39,3.59-3.11,1.93.19,1.89,1.71,2.19,2.93,1.02,4.03,1.53,8.23,2.99,12.09,2.51,6.65,2.35,13.43,1.99,20.29-.31,5.92-.73,11.83-1,17.75-.52,11.53-.94,23.06-1.45,34.59-.62,14.13-1.28,28.25-1.93,42.38-.38,8.31-.78,16.62-1.17,24.92-.21,4.47-.4,8.93-.63,13.4-.03.68-.23,1.34-.35,2.02-.22,0-.44,0-.66,0Z"/>
      <path class="cls-1" d="M450.42,316.4c-2.18.65-98.44.85-102.46.2-.15-1.43,1.07-1.87,1.91-2.49,8.74-6.38,18.3-11.09,28.83-13.64,25.11-6.09,48.19-1.4,69.32,13.33,1.45,1.01,1.43,1.03,2.39,2.6Z"/>
      <path class="cls-1" d="M450.62,474.15c-15.09,11.78-32.27,17.94-51.47,17.94-19.2,0-36.38-6.14-51.45-17.94.02-.24.04-.49.06-.73.73-.16,1.47-.46,2.2-.47,4.47-.04,8.94,0,13.41-.02,1.43,0,2.48.48,3.5,1.6,2.56,2.81,5.47,2.8,8.04-.02,1.03-1.13,2.08-1.55,3.51-1.55,13.82,0,27.65-.02,41.47-.07,1.67,0,2.88.52,4.05,1.82,2.39,2.63,5.4,2.55,7.84-.09.82-.88,1.57-1.62,2.84-1.61,4.88.01,9.77,0,14.65.03.38,0,.76.22,1.14.34.07.26.14.52.21.78Z"/>
      <path class="cls-1" d="M203.96,416.02c-1.09.1-1.9.23-2.71.23-5.09.02-10.18.03-15.26,0-2.72-.02-2.79-.05-3.5-2.53-2.41-8.49-3.17-17.14-2.09-25.89.5-4.11,1.3-8.19,2.12-12.25.63-3.09.87-3.21,3.9-3.23,4.78-.03,9.55-.03,14.33,0,3.32.02,3.58.24,3.59,3.51.04,8.31.01,16.61.01,24.92,0,3.84.03,7.68-.02,11.53-.01,1.21-.23,2.41-.37,3.71Z"/>
      <path class="cls-1" d="M596.09,416.11c-.09-1.44-.21-2.46-.22-3.48-.01-12.15-.01-24.31-.01-36.46,0-.42-.01-.83.01-1.25.14-2.17.38-2.5,2.62-2.55,3.22-.08,6.44-.03,9.66-.03,1.87,0,3.74-.02,5.61,0,2.98.05,3.18.11,3.81,2.95.82,3.64,1.66,7.3,2.1,11,1.06,8.94.6,17.82-1.72,26.56-.9,3.4-.9,3.41-4.4,3.42-4.67.02-9.35.02-14.02,0-1.02,0-2.04-.1-3.45-.17Z"/>
      <path class="cls-1" d="M224.58,394.86c0,8.32,0,16.64,0,24.96,0,3.34-.24,3.63-3.46,3.68-3.43.05-6.87.06-10.3,0-3.09-.05-3.33-.33-3.33-3.48,0-12.17,0-24.34,0-36.51,0-4.89-.01-9.78.02-14.67.02-3.34.15-3.45,3.58-3.47,3.33-.02,6.66-.03,9.98,0,3.32.03,3.46.15,3.46,3.59.02,8.63,0,17.27,0,25.9h.02Z"/>
      <path class="cls-1" d="M592.18,423.4c-5.38.18-10.61.33-15.73-.03-.83-2.6-.96-54.22-.19-57.75,5.14-.49,10.37-.32,15.51-.1.84,2.38,1.19,52.29.4,57.87Z"/>
      <path class="cls-1" d="M258.35,363.48c.16,1.67.36,2.79.36,3.91.02,17.47.03,34.95.02,52.42,0,3.44-.25,3.66-3.77,3.69-1.97.02-3.95-.01-5.93-.06-1.38-.03-2.08-.79-2.09-2.18,0-.52-.01-1.04-.01-1.56,0-17.16.01-34.32.03-51.48q0-4.73,4.83-4.74c2.06,0,4.12,0,6.57,0Z"/>
      <path class="cls-1" d="M243.5,416.1h-15.42c-.13-1.25-.35-2.35-.36-3.45-.02-12.14-.02-24.29-.01-36.43,0-.42,0-.83.03-1.24.18-2.2.44-2.55,2.61-2.6,3.63-.08,7.27-.08,10.9,0,2.17.05,2.53.43,2.6,2.6.09,3.11.06,6.23.06,9.34,0,9.34,0,18.68-.04,28.02,0,1.2-.22,2.41-.36,3.75Z"/>
      <path class="cls-1" d="M556.89,372.49c5.13-.16,10.13-.41,15.33.18v43.29c-5.17.57-10.18.36-15.12.2-.81-2.53-1-38.85-.21-43.67Z"/>
      <path class="cls-1" d="M552.67,423.19c-3.7.47-7.26.58-10.99-.15-.06-1.28-.16-2.3-.16-3.33,0-17.35,0-34.71.01-52.06,0-4.16.01-4.16,4.09-4.18,2.27-.01,4.53,0,6.5,0,.38.41.45.48.52.56.06.08.16.16.17.25.1.61.25,1.23.25,1.84,0,18.6,0,37.2-.02,55.8,0,.29-.17.59-.37,1.26Z"/>
      <path class="cls-1" d="M478.87,346.28c8.43,1.83,16.49,3.97,24.74,6.19v16.26c-.83.18-1.52.46-2.22.47-3.84.05-7.68.03-11.51.03-1.33,0-2.39-.31-2.83-1.84-1.98-6.9-4.8-13.47-8.1-19.83-.08-.16-.03-.39-.08-1.28Z"/>
      <path class="cls-1" d="M478.62,442.27c.46-1.12.73-1.77,1-2.43,2.32-5.77,4.7-11.51,6.93-17.32,1.07-2.78,1-2.89,3.93-2.9,4.25,0,8.5,0,13.01,0,.22,1.1.54,1.97.54,2.84-.01,3.84-.16,7.68-.17,11.52,0,1.57-.51,2.49-2.14,2.88-7.16,1.75-14.29,3.59-21.43,5.38-.37.09-.79.01-1.67.01Z"/>
      <path class="cls-1" d="M319.31,347.16c-.38.99-.66,1.73-.96,2.47-2.26,5.57-4.58,11.11-6.75,16.71-1.07,2.75-.98,2.86-3.94,2.9-2.91.03-5.82.06-8.72-.02-2.39-.07-2.71-.39-2.74-2.75-.06-3.84,0-7.68-.03-11.53-.02-1.53.39-2.55,2.06-2.96,6.45-1.56,12.88-3.21,19.32-4.8.46-.11.97-.01,1.77-.01Z"/>
      <path class="cls-1" d="M319.11,441.74c-.9-.09-1.52-.07-2.09-.21-6.03-1.51-12.06-3.02-18.08-4.58-2.66-.69-2.73-.77-2.76-3.29-.06-3.73-.07-7.47-.03-11.2.03-2.46.29-2.74,2.65-2.78,3.32-.06,6.64.01,9.96-.02,1.31-.01,2.22.45,2.57,1.75,1.78,6.64,4.51,12.9,7.6,19.03.13.26.09.6.19,1.32Z"/>
      <path class="cls-1" d="M507.23,359.49c1.65.22,2.67.27,3.66.5,7.99,1.8,15.97,3.63,23.95,5.47.61.14,1.3.19,1.77.53.58.43,1.25,1.05,1.39,1.7.23,1.03-.67,1.38-1.57,1.48-.62.07-1.24.08-1.86.08-7.78.01-15.57.02-23.35.02-.42,0-.83,0-1.24-.02-2.37-.17-2.67-.43-2.74-2.79-.06-2.15-.01-4.31-.01-6.96Z"/>
      <path class="cls-1" d="M292.6,359.63v9.27c-1.17.14-2.16.35-3.16.36-7.99.02-15.98.01-23.97-.02-2.7,0-3.52-.41-3.47-1.63.09-1.96,1.84-1.78,3.01-2.06,8.27-1.97,16.55-3.84,24.84-5.71.78-.18,1.61-.14,2.74-.22Z"/>
      <path class="cls-1" d="M507.58,429.31c-.65-2.93-.5-5.61-.25-8.26.05-.49.87-1.04,1.45-1.29.53-.23,1.23-.11,1.85-.11,8.1,0,16.2-.03,24.31.03,1.11,0,2.76-.6,3.07,1.21.34,1.95-1.32,2.02-2.62,2.32-8.29,1.89-16.59,3.77-24.89,5.64-.88.2-1.77.29-2.91.47Z"/>
      <path class="cls-1" d="M292.56,419.94v9.3c-1.08-.14-1.88-.19-2.65-.36-8.49-1.91-16.97-3.84-25.45-5.77-.6-.14-1.3-.24-1.73-.61-.4-.35-.74-1.08-.65-1.56.08-.46.7-.9,1.18-1.17.32-.19.81-.09,1.22-.09,8.71,0,17.42,0,26.13,0,.51,0,1.01.13,1.95.26Z"/>
      <path class="cls-1" d="M375.06,471.49c-.06,2.2-2.13,4.12-4.34,4.03-2.23-.09-4.12-2.18-3.97-4.37.14-2.05,2.13-3.92,4.17-3.91,2.19,0,4.2,2.07,4.14,4.25Z"/>
      <path class="cls-1" d="M427.66,467.27c2.2-.04,4.21,1.93,4.22,4.14,0,2.1-1.79,3.99-3.91,4.11-2.21.13-4.28-1.75-4.38-3.96-.1-2.2,1.84-4.24,4.07-4.28Z"/>
    </g>
  </g>
</svg>