<?xml version="1.0" encoding="UTF-8"?>
<svg id="Calque_1" data-name="Calque 1" xmlns="http://www.w3.org/2000/svg" version="1.1" viewBox="0 0 800 800">
  <defs>
    <style>
      .cls-1 {
        fill: #fff;
        stroke-width: 0px;
      }
    </style>
  </defs>
  <g id="_5uAgn6" data-name="5uAgn6">
    <g>
      <path class="cls-1" d="M776.86,375.14c-.85-1.04-.78-3-.7-4.51l-.04-4.05c-.13-1.36.09-3,.8-4.14,1.42-2.25,1.64-4.15-.14-6.27-.55-.64-1-1.67-.91-2.46.26-2.39-1.06-3.52-2.98-4.16-2.96-.98-3.66-2.95-3.71-5.97-.07-3.81-.11-8.04-1.72-11.31-2.02-4.08-3.4-7.92-3.08-12.46.2-2.83.32-5.73-.05-8.53-.29-2.24-.98-4.61-2.19-6.49-3.26-5.08-7-9.85-10.31-14.9-.97-1.48-1.55-3.47-1.59-5.25-.17-7.47.03-14.95-.14-22.42-.04-1.62-.65-3.52-1.66-4.76-11.81-14.35-23.77-28.57-35.63-42.88-13.52-16.31-26.96-32.67-40.48-48.99-16.01-19.32-32.01-38.63-48.12-57.87-4.1-4.9-7.44-11.4-15.8-9.22-2.27.6-3.72-.74-5.02-2.46-3.28-4.34-6.61-8.65-10.03-12.89-2.69-3.35-5.55-6.57-8.3-9.81-3.28,2.51-5.97,4.86-8.95,6.76-2.5,1.61-2.29,3.01-.7,5.1,4.58,6.05,8.72,12.45,13.63,18.2,3.31,3.88,3.96,7.57,2.27,12.13-.81,2.21-1.18,4.36.46,6.69,16.11,22.83,32.08,45.75,48.12,68.64,18.63,26.59,37.13,53.26,56,79.68,4.57,6.39,7.26,12.84,6.07,20.68-.17,1.14-.28,2.43-.87,3.35-6.81,10.54-13.63,21.06-20.66,31.44-.86,1.27-2.98,2.29-4.56,2.36-5.8.28-11.63.09-17.44.13-1.05,0-2.12.13-3.15.34-2.56.54-5.07,1.46-7.65,1.67-3.53.29-7.11.13-10.67.06-1.77-.03-2.81.4-3.25,2.4-.19.83-1.69,1.94-2.62,1.97-5.81.16-11.63.13-17.43-.09-.83-.03-2.29-1.42-2.28-2.18.02-2.51-1.13-3.52-3.37-4.22-25.98-8.17-51.92-16.44-77.92-24.57-2.37-.74-4.09-1.77-4.75-4.17-.64-2.31-2.14-3.4-4.44-4.02-7.53-2.04-15.02-4.25-22.49-6.52-1.15-.35-2.26-1.22-3.13-2.11-4.27-4.44-8.34-9.07-12.72-13.4-1.31-1.29-3.4-1.75-5.06-2.71-.8-.46-1.56-1.1-2.13-1.82-.97-1.23-1.5-3.01-2.71-3.84-6.14-4.2-12.25-8.52-18.76-12.12-5.72-3.15-11.93-5.42-18.32-8.25-.23,1.97-.38,3.16-.55,4.57-2.06-.64-3.87-1.17-5.65-1.77-1.86-.62-3.06-1.03-3.85-1.52-.02.05-.04.07-.04.07,0,0-5.25-.71-6.61-.95h0c-1.08.11-2.37-.23-3.82-1.05-.28-.16-.72-.48-.7-.7.31-5.54-4.2-3.92-6.96-4.49-2.08-.43-3.72-.7-4.79-2.89-.52-1.05-2.14-2.07-3.34-2.19-3.29-.3-6.66-.38-9.93.01-1.51.18-2.86,1.67-4.43,2.66h0c-.85.55-1.76.91-2.46,1.15-.55.98-1.53,1.49-3.2,1.52-2.5.06-4.5.43-4.27,3.67.03.42-.83,1.2-1.4,1.32-6.54,1.46-13.09,2.83-19.82,4.26-.04-.33-.06-.9-.18-1.45-.14-.63-.38-1.25-.61-1.96-.68.16-1.15.22-1.58.38-13.05,4.66-25.28,11.02-35.84,19.92-2.91,2.45-5.6,4.89-8.85,7.03-3.86,2.53-6.89,6.47-9.86,10.15-3.18,3.94-6.91,6.4-11.94,7.48-6,1.3-11.89,3.2-17.74,5.11-1.38.45-3.03,1.74-3.48,3.02-1.13,3.24-3.45,4.37-6.44,5.3-25.66,7.94-51.28,16.01-76.93,23.98-2.19.68-3.18,1.61-2.76,4.05.13.72-1.03,2.37-1.62,2.39-6.94.17-13.89.11-21.15.11.95-4.6-1.32-5.17-4.72-4.98-4.02.23-8.07.07-12.1.06-.83,0-1.94.21-2.42-.23-3.05-2.76-6.73-1.76-10.19-1.87-4.03-.14-8.07-.16-12.1,0-2.41.1-3.94-.75-5.24-2.79-6.13-9.57-12.32-19.12-18.63-28.57-1.92-2.86-2.75-5.74-2.93-9.22-.3-5.64.78-10.47,4.84-14.58,1.22-1.24,1.95-2.95,2.97-4.4,14.03-19.96,28.07-39.92,42.13-59.85,19.11-27.09,38.18-54.21,57.42-81.2,3.48-4.89,5.92-9.63,3.1-15.58-1-2.11-.28-3.76,1.02-5.51,5.15-6.95,10.24-13.93,15.19-21.02.71-1.02,1.2-3.38.66-3.88-3.11-2.84-6.57-5.3-9.98-7.94-.7.65-1.17,1-1.53,1.44-4.61,5.87-9.43,11.58-13.73,17.66-3.2,4.51-6.75,7.38-12.58,6.16-2.43-.51-4.17.46-5.79,2.42-9.21,11.14-18.58,22.12-27.84,33.22-13.59,16.28-27.1,32.63-40.72,48.89-20.31,24.24-40.72,48.4-60.96,72.7-1.31,1.57-2.06,3.99-2.18,6.07-.3,5.33-.57,10.73.02,16.01.78,6.98-1.82,12.39-6.16,17.37-5.87,6.73-9.9,14.1-8.23,23.49.2,1.15.16,2.39-.01,3.55-.26,1.71-.27,3.76-1.22,5.02-3.48,4.6-4.08,9.74-3.55,15.16.28,2.83-.42,4.68-3.26,5.85-2.74,1.12-5.87,7.87-5.38,10.72.09.46.19.94.42,1.32,2.36,3.91,2.14,10.35.07,14.33-.67,1.28-.07,3.33.23,4.98.19,1.07.83,2.09,1.41,3.03.8,1.3,1.47,3.12,2.67,3.62,3.15,1.35,3.93,3.4,3.92,6.65,0,3.7-.17,7.97,1.54,10.94,2.44,4.27,3.51,8.37,3.23,13.1-.16,2.84-.21,5.71.04,8.54.14,1.68.59,3.53,1.5,4.91,3.33,5.03,7.08,9.79,10.33,14.87,1.25,1.97,2.14,4.52,2.22,6.84.26,6.98-.09,14,.11,21,.06,1.96.72,4.29,1.93,5.77,11.91,14.58,23.97,29.04,36.04,43.49,15.27,18.28,30.59,36.51,45.88,54.77,15.37,18.36,30.88,36.58,45.98,55.16,3.14,3.87,6.39,5.39,10.9,4.61,3.52-.61,5.35,1.16,7.28,3.69,5.51,7.23,11.24,14.3,17.04,21.63,3.88-3.07,7.55-5.97,11.41-9.04-5.31-7.37-10.14-14.55-15.51-21.3-2.84-3.57-3.67-6.93-2.01-11.07,1.33-3.33.61-6.1-1.56-9.14-12.76-17.83-25.28-35.83-37.86-53.78-22.56-32.19-45.07-64.43-67.75-96.54-2.6-3.69-4.19-7.3-3.6-11.79.36-2.66-.21-5.82,1.05-7.89,6.13-9.98,12.94-19.56,19.1-29.53,2.26-3.66,4.73-5.14,8.92-4.42,2.19.38,4.51.26,6.74.07,7.34-.59,14.67-1.37,22.01-1.95,2.48-.19,5.01.2,7.46-.12,1.01-.14,2.55-1.33,2.68-2.21.32-2.23,1.42-2.68,3.36-2.66,5.45.08,10.92.13,16.37.03,2.33-.04,3.5.36,3.26,3.15-.09,1.01,1.27,2.82,2.34,3.16,26.13,8.46,52.3,16.8,78.49,25.06,2.36.74,3.72,1.97,4.9,4.12.9,1.67,2.64,3.41,4.38,3.98,6.29,2.06,12.7,3.78,19.15,5.34,3.88.93,6.69,2.97,9.19,6.05,12.33,15.17,27.68,26.47,45.38,34.55,21.26,9.7,43.59,13.28,66.86,10.74.66-.07,1.32-.13,2.01-.18.01,0,.03,0,.06,0,.68-.12,6.4-1.17,15.82-2.92h0c24.27-6.06,45.03-18.46,62.37-36.9.24-.26.56-.47.73-.77,4.04-7.26,10.79-10.03,18.49-11.51,3.59-.68,7.02-2.12,10.59-2.93,3.62-.82,6.72-1.85,7.75-6.09.24-1,1.95-1.96,3.18-2.35,22.34-7.08,44.71-14.07,67.07-21.08,3.84-1.2,7.66-2.51,11.55-3.54,2.25-.59,3.57-1.47,3.42-4.06-.04-.76.93-1.57,1.43-2.36l6.13-.13c.37-.04.79-.05,1.27-.03.14,0,.28.01.42.03.14.01.29.02.43.04,2.57.18,5.17,0,7.75.01,2.51.01,5.5-.82,5.43,3.49-.01.46,1.79,1.3,2.79,1.35,3.19.19,6.42-.14,9.6.14,3.19.29,6.34,1.11,9.51,1.64,1.16.2,2.35.34,3.52.36,4.51.04,9.06.4,13.51-.06,4.51-.47,7.04,1.21,9.36,4.99,5.74,9.4,12.25,18.33,17.82,27.82,3.24,5.51,3.52,12.23-.01,17.53-10.68,16.04-22.03,31.64-33.08,47.45-6.51,9.31-13,18.65-19.4,28.06-.26.39-.53.74-.81,1.05l-.02.02-3.03,4.31-2.78,3.94c-4.86,6.92-9.52,13.58-14.17,20.13l-15.82,22.56c-5.56,8.05-11.11,16.11-16.95,23.95-3.08,4.14-4.76,7.94-2.55,12.88,1.09,2.43.8,4.71-.91,6.93-5.34,6.94-10.62,13.94-15.78,21.03-.62.85-.94,2.96-.43,3.42,3.22,2.89,6.71,5.48,10.32,8.34,5.39-6.67,10.92-12.87,15.67-19.62,3.26-4.63,6.96-6.52,12.49-5.73,1.46.21,3.62-.55,4.59-1.64,4.27-4.75,8.18-9.82,12.29-14.72,9.83-11.71,19.77-23.33,29.52-35.12,1.73-2.09,3.45-4.19,5.17-6.29.47-.58.94-1.09,1.41-1.53l10.02-11.9c.75-.91,1.49-1.81,2.23-2.7,4.71-5.62,9.37-11.3,14.16-16.86l12.37-14.85h0c1.89-2.37,3.72-4.65,5.6-6.89,9.4-11.26,18.85-22.49,28.29-33.72,3.04-3.61,6.27-7.09,9.04-10.89,1.3-1.77,2.31-4.14,2.42-6.29.31-6.39.11-12.8.11-19.2v-.51c-.02-.17-.04-.35-.04-.53-.06-4.17,1.14-5.8,1.14-5.8,1.83-2.8,2.91-5.13,4.6-6.9,7.24-7.58,10.08-16.43,8.62-26.81-.23-1.64,0-3.84.93-5.07,3.76-4.91,4.11-10.51,3.7-16.21-.19-2.62.63-3.99,2.89-4.91,2.23-.92,4.33-1.94,3.91-5.06-.08-.6.79-1.31,1.17-2,1.13-2.04,1.52-3.87-.24-6.02ZM12.75,357.76c0-.39,0-.78,0-1.17h6.27c0,.38.01.78.02,1.17h-6.29ZM19.15,371.63c-.08.6-1.1,1.63-1.4,1.54-.72-.23-1.77-.98-1.79-1.57-.16-3.18-.15-6.37.04-9.54.04-.59,1.14-1.12,1.75-1.68.49.56,1.32,1.07,1.4,1.68.21,1.51.06,3.07.06,4.61,0,1.66.13,3.33-.07,4.96ZM14.23,377.46c-.53,0-1.07-.58-1.6-.9.43-.44.84-1.25,1.27-1.26,1.77-.03,3.54.19,5.31.31-.08.47-.15.94-.23,1.41-1.59.17-3.17.43-4.76.45ZM19.02,383.65c-.29.15-.58.31-.87.46-.88-1.13-1.77-2.26-2.65-3.39,1.17-.48,2.34-.98,4.2-1.74-.33,2.29-.51,3.48-.68,4.68ZM17.91,354.02c-.05.09-1.47-.58-2.26-.9.92-1.34,1.84-2.68,2.76-4.02.46.26.93.52,1.39.78-.59,1.4-1.15,2.83-1.88,4.14ZM38,291.69c2.55,11.85-6.94,18.12-10.47,27.53-3.22-12.11,4.71-19.08,10.47-27.53ZM22.68,332.89c.18-.02.35-.04.52-.06.15,1.4.3,2.81.45,4.26,6.73-3.37,10.9-10.61,10.08-18.28-3.05,3.69-5.76,6.96-8.47,10.22-.11-.06-.22-.13-.33-.19,4.26-7.06,8.51-14.12,12.76-21.18.23.04.47.09.7.13v14.39c0,4.27.13,8.54-.08,12.8-.07,1.37-.63,3.17-1.62,3.99-4.34,3.61-8.92,6.94-14.01,10.82v-16.9ZM25.16,332.19c2.09-2.63,4.18-5.26,6.27-7.89.04,4.24-3.4,5.94-5.49,8.61-.26-.24-.52-.48-.78-.72ZM22.56,356.44c.03-1.26.56-2.93,1.47-3.68,4.34-3.59,8.89-6.92,14.12-10.91v49.64c-5.38-4.09-10.23-7.7-14.95-11.5-.63-.51-.69-1.94-.7-2.96-.05-6.86-.09-13.73.05-20.59ZM24.98,404.86c.09-.07.19-.15.28-.22,2.56,3.14,5.13,6.28,7.87,9.63,2.01-6.78-.78-11.97-9.42-17.98-.17,1.59-.32,3.03-.47,4.48-.16,0-.31,0-.46,0v-17.05c4.94,3.68,9.78,7.21,14.49,10.89.68.53,1.05,1.84,1.06,2.81.08,9.47.05,18.95.05,28.42-.24.09-.48.19-.72.28-4.23-7.08-8.45-14.16-12.68-21.25ZM25.17,401.44c.33-.23.65-.47.98-.7,2.14,2.48,4.27,4.95,6.41,7.43-.4.34-.8.68-1.21,1.02-2.06-2.58-4.12-5.16-6.17-7.74ZM38.12,442.29c-3.83-5.48-7.88-10.08-10.46-15.39-1.57-3.25-.87-7.59-1.19-11.44.36-.13.72-.26,1.08-.38,3.52,5.95,7.4,11.74,10.38,17.95,1.13,2.34.19,5.67.19,9.27ZM701.93,338.27c0,.64-.31,1.5-.78,1.87-4.71,3.7-9.48,7.32-14.79,11.39v-16.49c.14-.03.28-.05.41-.08.17,1.28.33,2.57.51,3.87,6.3-2.21,11.53-10.87,10.47-18.43-3.25,3.93-6.08,7.36-8.91,10.79-.05-.09-.09-.19-.14-.29,4.23-7.02,8.46-14.04,12.68-21.06.2.05.4.1.6.15,0,9.43.01,18.85-.04,28.28ZM699.33,362.62c-3.05.21-6.13.2-9.19.05-1.28-.06-3.57-.52-3.64-1.03-.28-2.12-.76-5.28.4-6.34,4.44-4.07,9.49-7.48,15.04-11.7,0,6.42.08,11.92-.11,17.41-.02.59-1.59,1.56-2.49,1.62ZM701.64,373.95v18.98c-5.21-3.97-10.2-7.29-14.51-11.33-1.27-1.18-.89-4.42-.66-6.66.05-.48,2.76-.89,4.27-.95,3.52-.14,7.03-.04,10.9-.04ZM688.73,334.26c2.3-2.73,4.6-5.45,6.9-8.17.31.26.63.53.95.79-2.28,2.75-4.56,5.5-6.84,8.25-.34-.29-.68-.58-1.02-.87ZM682.29,330.9c5.1-7.84,10.25-15.64,15.38-23.47,1.13-1.72,2.21-3.45,3.32-5.18.28.18.58.36.86.54-6.43,10.89-12.87,21.8-19.39,32.85-2.39-1.55-1.16-3.22-.17-4.74ZM659.42,331.9c5.55-.15,11.12-.15,16.68,0,.83.03,1.63,1.13,2.45,1.72-.78.66-1.5,1.82-2.32,1.89-2.82.23-5.67.09-8.52.09s-5.45.16-8.15-.09c-.93-.09-1.75-1.25-2.62-1.92.83-.59,1.64-1.67,2.48-1.69ZM655.45,341.98c-.04-2.37.97-3.09,3.19-3.07,7.23.08,14.46.09,21.69,0,2.23-.03,3.21.59,3.16,3.01-.13,5.92-.11,11.85.01,17.77.05,2.39-.89,3.11-3.15,3.03-3.67-.13-7.35-.04-11.02-.04-3.55,0-7.11-.09-10.67.02-2.17.07-3.28-.48-3.23-2.95.13-5.92.11-11.86,0-17.78ZM640.04,333.77c3.18.15,6.39.26,9.57.04,3-.2,3.62,1.23,3.53,3.81-.13,3.66-.04,7.33-.04,10.99h-.15c0,3.78-.05,7.57.03,11.35.04,1.96-.73,2.78-2.72,2.74-3.55-.08-7.09-.07-10.64,0-2.01.04-2.68-.82-2.66-2.78.06-7.68.06-15.37-.03-23.06-.02-2.29.77-3.21,3.1-3.1ZM628.07,339.06c-.26,5.09-1.15,5.87-5.82,5.65-3.3-.16-6.62-.39-9.9-.16-3.76.26-5.88-1.06-6.21-5.48h21.92ZM532.31,308.83c24.14,7.65,48.28,15.29,72.39,23.04.98.31,1.64,1.6,2.44,2.44-.98.43-1.96,1.18-2.97,1.25-6.12.37-6.09.3-8.35-4.83-.27-.61-1.12-1.32-1.73-1.35-.78-.03-1.66.48-2.34.98-.47.35-.66,1.08-1.45,2.45-.54-1.52-.64-2.43-1.13-3.01-.66-.78-1.64-1.81-2.44-1.77-.76.04-1.94,1.2-2.12,2.05-.83,3.94-2.56,5.55-6.55,5.55-8.66,0-17.32,0-25.98-.02-1.14,0-2.28-.11-3.76-.91,2.43-1.88,4.86-3.76,7.58-5.87-.94-1.33-1.79-2.54-2.85-4.07-2.68,1.8-5.18,3.48-8.46,5.68-.29-2.01-.68-3.49-.68-4.96-.02-1.77.64-3.6.31-5.26-.19-.91-1.76-2.02-2.81-2.12-.74-.08-2.16,1.25-2.36,2.15-.38,1.77-.11,3.68-.11,5.53-.38.08-.75.15-1.12.22-2.92-5.75-5.84-11.5-9.08-17.89,1.48.31,2.55.43,3.56.75ZM592.57,338.27c-2.05-.92-3.77-1.69-5.5-2.46.77-.62,1.47-1.64,2.31-1.76,1.97-.28,4.28-.45,3.18,4.22ZM543.56,402.7c-.69,1.12-1.84,2.21-3.03,2.71-8.17,3.43-16.4,6.71-24.64,10-.76.31-1.63.36-2.44.53-.16-.35-.31-.69-.48-1.04,1.07-.64,2.06-1.47,3.21-1.9,7.5-2.88,15.08-5.57,22.54-8.56,1.59-.64,3.19-2.03,4.1-3.5,3.07-4.91,5.76-10.05,8.74-15.01.82-1.35,1.97-2.98,3.32-3.45,8.76-3.07,17.63-5.85,26.46-8.73.14.38.28.77.41,1.15-3.5,1.15-6.99,2.34-10.52,3.43-4.73,1.48-9.51,2.81-14.2,4.39-1.1.37-2.19,1.38-2.82,2.39-3.62,5.82-7.03,11.76-10.66,17.58ZM547.2,403.35c2.01,1.54,4.02,3.08,6.03,4.63-.28.37-.57.73-.86,1.1-2.02-1.56-4.05-3.12-6.08-4.69.31-.35.61-.7.91-1.05ZM542.43,415.66c-.45.02-.9.05-1.35.07-.17-2.32-.34-4.64-.52-6.96.51-.03,1.01-.06,1.52-.09.11,2.33.23,4.66.35,6.98ZM466.85,371.2c-.18-.79-1.47-1.88-2.27-1.89-12.19-.14-24.39-.2-36.58-.03-.98.01-1.9,1.92-2.93,2.86-.58.51-1.34.82-2.02,1.22-.21-.76-.58-1.52-.6-2.29-.06-2.15-.04-4.31.09-6.47.05-.75.53-1.47.81-2.21.58.39,1.54.68,1.67,1.18.73,2.65,2.61,2.93,4.93,2.93,10.89-.04,21.78-.09,32.67.11,3.37.06,5.45-.41,4.29-4.32,5.3-2.23,5.64-2.08,5.9,3.13.15,2.91.03,5.85.03,8.65-4.37,1.09-5.23.52-6-2.88ZM471.59,379.8c-1.77,12.18-6.3,23.21-13.32,33.28-2.54,3.64-2.47,3.69-5.92.7,2.63-4.46,5.87-8.68,7.76-13.43,2.75-6.86,4.59-14.09,6.67-21.2.48-1.66.74-2.86,2.93-2.53,2.14.33,2.17,1.25,1.89,3.18ZM281.97,406.48c-1.29-.45-2.2-2.01-3.96-3.72,13.48-4.09,25.68-7.79,38.47-11.68,3.93,12.55,10.48,23.5,19.2,32.94-9.38,9.38-18.54,18.55-28.27,28.27-4.62-6.09-9.63-11.93-13.76-18.34-3.82-5.92-6.79-12.42-9.93-18.75-.5-1-.32-2.63.1-3.76.86-2.33,1.1-3.94-1.84-4.96ZM241.81,396.89c-.87-1.1-1.35-2.49-2.06-3.72q-6.65-11.31-19.22-14.82c-3.99-1.12-7.92-2.39-11.87-3.65-.9-.3-1.73-.88-2.59-1.32.14-.28.28-.55.41-.83,8.95,2.97,17.91,5.9,26.82,8.96,1.12.38,2.31,1.3,2.92,2.3,2.98,4.96,5.98,9.94,8.57,15.11,1.45,2.91,3.52,4.53,6.46,5.57,7.13,2.53,14.23,5.17,21.31,7.87,1.18.45,2.18,1.4,3.26,2.13-.23.41-.46.8-.68,1.21-3.68-1.42-7.37-2.81-11.02-4.28-5.16-2.08-10.59-3.72-15.34-6.53-2.89-1.72-4.77-5.21-6.97-8.01ZM247.24,407.94v6.95c-.27-.01-.55-.03-.82-.04v-6.91h.82ZM242.14,403.57c-1.99,1.56-3.99,3.11-5.98,4.67-.27-.34-.54-.68-.81-1.02,1.99-1.57,3.97-3.13,5.96-4.69.28.35.56.69.83,1.04ZM206.19,377.17c8.4,2.58,15.95,4.87,23.46,7.26.93.29,1.92,1.03,2.44,1.84,2.1,3.25,4.02,6.61,6.41,10.59h-4.57c-8.16,0-16.32-.04-24.48.06-2.44.04-3.37-.75-3.3-3.25.15-5.28.04-10.57.04-16.5ZM206.31,340.35c.05-.97,1.4-2.67,2.19-2.68,9.77-.19,19.54-.12,30.1-.12-2.47,4.1-4.38,7.49-6.53,10.72-.66.98-1.89,1.84-3.03,2.2-6.52,2.06-13.12,3.88-19.64,5.97-2.39.76-3.28.28-3.23-2.26.09-4.61-.1-9.23.14-13.83ZM209.48,359.51c6.44-1.98,12.91-3.87,19.37-5.75,2.93-.85,5.17-2.17,6.71-5.18,2.78-5.48,6.15-10.66,9.35-15.92.53-.87,1.26-1.79,2.13-2.25,1.77-.95,3.69-1.61,5.56-2.36,7.45-2.97,14.9-5.92,22.35-8.89.23.34.48.68.72,1.03-1.13.79-2.14,1.86-3.38,2.34-7.3,2.77-14.71,5.24-21.93,8.19-1.99.81-3.92,2.59-5.1,4.42-3.13,4.87-5.73,10.08-8.79,15-.85,1.37-2.4,2.67-3.91,3.2-8.68,3.02-17.45,5.8-26.2,8.67-.12-.23-.25-.47-.37-.7,1.15-.61,2.25-1.42,3.48-1.8ZM241.35,331.99c-1.97-1.39-3.94-2.78-5.91-4.17.28-.38.56-.77.83-1.15,1.96,1.42,3.91,2.83,5.86,4.24-.26.36-.52.72-.78,1.08ZM246.51,326.69v-6.87c.28-.02.57-.04.85-.06.11,2.29.21,4.59.31,6.88-.39.01-.78.04-1.17.05ZM395.91,333.36c.01,1.15,1.39,2.29,2.09,3.45.43.71.81,1.47,1.21,2.19-.79.25-1.56.65-2.36.7-1.79.13-3.61.16-5.41.09-.71-.02-1.41-.41-2.11-.63.27-.71.4-1.92.84-2.05,2.83-.8,2.58-2.97,2.58-5.13-.02-11.03,0-22.06-.01-33.09,0-1.27-.12-2.53-.19-3.76q-4.78-.31-4.93-6.02c4,0,8-.09,12,.09.64.03,1.88,1.47,1.74,1.89-.46,1.38-1.26,2.77-2.29,3.8-.47.46-1.78.08-2.89.08-.12.87-.33,1.66-.33,2.46-.03,11.98-.09,23.95.06,35.94ZM401.17,446.33h-14.08c.69-2.76-.17-6.02,4.21-5.77.43.02,1.38-1.5,1.39-2.3.09-12.19.11-24.38-.06-36.57-.01-1.05-1.53-2.04-2.24-3.12-.45-.7-.7-1.53-1.03-2.3.79-.16,1.58-.43,2.39-.47,1.67-.09,3.36-.15,5.03-.04.77.05,1.52.52,2.28.8-.29.66-.51,1.36-.89,1.97-.73,1.19-2.21,2.31-2.23,3.48-.16,12.19-.09,24.38-.07,36.57,0,.57.17,1.13.34,2.16,4.98-1.05,4.81,2.21,4.96,5.59ZM402.69,393.43c1.45-.44,2.8-1.28,4.26-1.55.6-.11,1.6.68,1.98,1.32.21.34-.38,1.59-.89,1.82-1.9.85-3.91,1.47-6.15,2.26-1.67-1.84-1.69-3.1.8-3.87ZM338.79,414.49c.78,1.29,1.51,2.5,2.41,4,4.71-4.54,8.86-8.49,12.96-12.51,4.47-4.39,8.79-8.94,13.39-13.19,2.39-2.21,4.06-4.29,1.75-7.68.26-.24.52-.49.78-.73.85.4,1.81.66,2.51,1.23,1.45,1.21,2.85,2.51,4.1,3.93.71.8,1.1,1.9,1.23,3.44-3.97-2.62-6.17-.7-8.62,1.81-7.28,7.44-14.74,14.71-22.19,21.98-2.29,2.24-4.36,4.27.27,6.54-1.29,1.89-2.21,3.24-3.69,5.43-3.48-3.57-6.71-6.89-10.21-10.47,1.94-1.38,3.35-2.38,5.3-3.76ZM332.73,416.48c-3.28-5.48-7.03-10.42-9.33-15.98-2.83-6.82-4.39-14.16-6.56-21.26-.7-2.26.8-2.91,2.34-2.94.84-.01,2.36,1.08,2.47,1.82,1.8,12.46,6.68,23.6,14.05,33.72.28.38.47.82.93,1.65-1.17.89-2.17,1.66-3.91,2.98ZM370.97,382.1c-.78.32-1.6.66-2.83,1.17-1.05-2.53-2.04-4.91-3.04-7.33,3.52-1.11,4.62.13,5.87,6.15ZM365.21,359.28c.75-1.85,1.25-3.56,2.13-5.06.39-.68,1.52-.94,2.31-1.39.27.96.81,1.94.73,2.87-.09,1-.78,1.94-1.15,2.92-.86,2.29-2.11,2.65-4.02.66ZM348.15,425.65c4.92,2.83,9.47,6.09,14.51,8.18,6.61,2.75,13.59,4.66,20.46,6.73,1.63.49,3.37.73,2.51,2.72-.42.97-2.44,2.11-3.39,1.87-6.38-1.67-12.89-3.16-18.93-5.72-6.12-2.59-11.74-6.34-17.84-9.73,1.25-1.89,1.94-2.95,2.66-4.04ZM379.44,394.49c.31-1.12.58-2.06.92-3.27q7.75,3.06,6.38,6.09c-2.36-.91-4.73-1.83-7.3-2.83ZM381.91,312.9c.55-3,2.04-4.28,5.11-3.92,2.08.25,3.9-.11,3.9,3.04,0,2.89-.8,4.13-3.8,3.84-4.31-.41-1.94,3.36-2.73,4.59-5.65-5.58-11.37-11.22-17.31-17.09h15.56c2.01,0,4.04-.16,6.02.09.77.09,1.42,1.1,2.13,1.69-.75.66-1.4,1.64-2.26,1.91-1.08.33-2.34.09-3.52.09-4.47.04-5.03.94-3.1,5.76ZM386.28,342.16c-4.17,2.15-5.52,2.13-6.81-.86,2.44-1.07,4.68-2.04,7.13-3.11.79,1.51,2.13,2.7-.33,3.97ZM382.54,287.11c-1.06-.01-2.11-.58-3.18-.88.04-.32.08-.64.12-.96,1.06-.27,2.12-.54,3.36-.85-.28-.99-.52-1.87-.88-3.17.93.23,2.11.22,2.25.59,1.59,4.36,5.21,3.71,8.62,3.65,1.54-.02,3.08-.1,4.61.02,2.86.23,5.39.05,6.74-3.12.26-.61,1.39-.86,2.12-1.28.16.23.33.47.51.7-.31.83-.63,1.65-1.05,2.76,1.4.17,2.51.31,3.62.45.09.31.18.62.26.93-1.27.41-2.53,1.13-3.81,1.15-7.76.11-15.53.09-23.3.01ZM386.02,278.75h16.98c-.74,3.37-2.63,4.52-5.72,4.22-2.11-.21-4.26-.17-6.37-.02-2.89.21-4.41-1.07-4.89-4.2ZM403.53,289.95c14.83,1.82,27.64,7.32,39.19,16.33-.44.81-.72,1.45-1.12,2.01-.41.56-.93,1.03-1.67,1.84-9.83-7.81-20.84-12.95-32.43-14.84-.66-1.67-1.08-2.74-1.51-3.82-.7,1.01-1.4,2.03-2.46,3.57v-5.1ZM417.65,289.48c-2.24-.48-4.19-.9-6.66-1.42,1.5-1.89,2.57-3.24,4.1-5.16-1.97-.09-3.37-.16-5.07-.23.41-1.2.75-2.22,1.26-3.68-1.51-.12-2.73-.22-3.11-.25-1.51-1.18-2.43-2.51-3.39-2.54-6.74-.21-13.49-.21-20.24-.09-.9.01-1.79,1.09-2.68,1.67.16.38.31.75.47,1.13h-4.39c.44,1.34.8,2.39,1.2,3.62h-5.1c1.41,2.19,2.44,3.78,3.64,5.65-1.8.36-3.28.91-4.73.85-.73-.03-1.92-1.04-2.06-1.78-.8-3.92-1.35-7.88-2.05-12.3,1.28-.14,2.39-.38,3.5-.38,14.8.05,29.59.17,44.39.16,3,0,3.69,1.04,2.97,3.87-.86,3.41-1.32,6.92-2.04,10.91ZM374.33,292.06c2.74-.73,5.49-1.53,8.28-1.88.98-.11,2.68.8,3.05,1.67.7,1.66-.23,2.88-2.2,3.15-12.19,1.7-23.19,6.27-33,13.72-.46.35-1.03.56-1.89,1.02-.7-.89-1.73-1.7-1.97-2.7-.16-.69.57-1.93,1.26-2.43,8.02-5.85,16.86-10.02,26.46-12.56ZM347.29,311.62c-4,2.61-2.26,4.7.28,7.17,7.23,7.01,14.32,14.19,21.38,21.38,2.39,2.43,4.5,5.23,8.58,1.79.21.33.42.65.63.98-.31.92-.36,2.13-.98,2.71-1.84,1.71-3.92,3.17-6.5,5.2-.14-.46-.51-1.43-.68-2.44-.2-1.15.22-2.78-.41-3.43-9.01-9.23-18.16-18.33-27.53-27.7-2.77,3.82-5.25,2.96-7.91-.63,3.2-3.06,6.48-6.19,9.95-9.5,1.01,1.42,2.02,2.83,3.18,4.46ZM336,321.21c-3.87,7.92-7.78,15.19-10.99,22.75-1.69,3.95-2.28,8.39-3.15,12.66-.34,1.65-.71,2.78-2.66,2.29-1.53-.38-2.82-.63-2.4-2.98,2.18-12.29,6.7-23.53,13.84-33.81,2.11-3.04,3.61-3.23,5.35-.9ZM321.96,364.64c-.02.41,1.55,1.29,2.38,1.3,11.97.11,23.95.21,35.91-.04,1.59-.03,3.15-2.05,5.45-3.65.19.56,1,1.68.71,2.33-.9,2.09-1.22,3.95.04,6.04.33.55-.23,1.64-.4,2.47-.79-.46-2.03-.75-2.29-1.42-.82-2.17-2.28-2.64-4.4-2.63-11.26.08-22.51.06-33.77.04-2.15,0-3.71-.01-4.07,3-.15,1.2-3.06,2.07-4.71,3.09-.35-.28-.69-.56-1.04-.83v-13.86c3.13.51,6.45-.47,6.2,4.16ZM315.82,389.16c-12.5,3.79-24.67,7.47-37.54,11.37,0-4.41-.13-8.25.14-12.05.04-.54,2.06-1.44,3.08-1.33,3.75.42,5.08-1.22,5.29-4.76.07-1.22,1.39-2.36,2.14-3.53,1,1.05,2.63,1.97,2.91,3.19.93,4.01,2.91,5.65,7.18,5.18,3.98-.43,8.05-.11,12.08-.12,1.92,0,2.75-.62,2.28-2.83-2.4-11.24-2.48-22.51.1-33.74.43-1.89-.32-2.68-2.15-2.68-5.1-.01-10.2-.15-15.29.07-1.08.04-2.17,1.34-3.12,2.21-.37.34-.23,1.19-.55,1.65-1.04,1.52-2.18,2.98-3.28,4.46-.82-1.6-2.01-3.13-2.38-4.83-.56-2.53-1.28-4.24-4.35-3.68-1.13.21-2.34.03-3.86.03v-13.42c12.59,3.87,24.72,7.61,37.32,11.49-3.52,14.37-3.63,28.74,0,43.32ZM284.71,354.7c.28,2.16.71,3.95,3.47,4,2.46.05,4.88.24,5.32-3.08.56-4.34,2.91-5.89,7.28-5.34,3.23.41,6.54.08,9.41.08v34.37c-4.17,0-8.7.36-13.1-.22-1.31-.17-2.53-2.87-3.33-4.63-.9-2.01-1.41-3.66-4.3-3.74-3.3-.09-4.38,1.27-4.71,4.21-.56,4.81-1.83,5.44-7.56,3.45,5.79-2.33,4.98-6.42,2.83-11.32,5.07,0,9.5-.04,13.92.06.51.01,1.11.75,1.45,1.29.36.58.51,1.32.68,2.01,2.23,8.86,2.4,8.97,12.3,7.28-2.37-10.3-2.72-20.68.39-31.64-3.52,0-6.46-.3-9.28.16-1,.16-1.98,2.06-2.46,3.35-.86,2.3-.63,5.62-2.18,6.87-1.51,1.22-4.68.39-7.12.42-2.34.03-4.69,0-7.69,0,2.04-4.42,3.18-8.59-2.6-10.94,5.09-2.19,6.66-1.39,7.28,3.37ZM275.49,403.51c-.43-.19-.86-.38-1.29-.56-1.3.85-3.15,1.42-3.77,2.63-1.92,3.74,2.87,2.58,3.9,4.95-8.4-3.15-16.5-5.99-24.39-9.3-1.77-.75-2.85-3.15-4.87-5.53,2.06-.31,3.03-.57,3.99-.57,7.33-.03,14.68.19,22.02-.07,3.68-.14,4.96,1.12,4.44,4.66-.19,1.24-.03,2.53-.03,3.8ZM270.4,329.26c.46,1.23,2.56,1.87,3.9,2.77.21-.29.42-.58.63-.87.15.16.43.33.43.5.13,10.12,1.19,8.07-7.7,8.2-7.2.11-14.4.02-21.97.02,1.19-3.57,2.56-6.12,6.19-7.33,7.7-2.57,15.26-5.55,23.32-8.52-1.17,2.82-6.34,1.03-4.81,5.23ZM279.01,365.39c0-.2,0-.4,0-.6h14.9v.6M294.26,369.17c0,.21,0,.43,0,.64h-15.56c0-.21,0-.43,0-.64h15.56ZM279.62,357.68c-.56,2.02-.52,4.96-3.92,4.98-2.84.01-4.03-1.34-3.12-3.99.68-1.97,1.72-3.82,2.67-5.9,2.92.81,5.2,1.9,4.36,4.91ZM275.52,365.02v5.65c-1.82-.46-3.72-.41-4.77-1.33-2.54-2.21.23-3.56,1.19-5.23,1.25.32,2.36.61,3.58.92ZM275.3,342.3c0,.42,0,.83,0,1.25h-31.92c0-.38,0-.76,0-1.15,10.63-.49,21.28.18,31.92-.11ZM244.89,346.06c9.11.16,18.23.04,27.36.12,1.04,0,2.88.53,2.94,1.01.18,1.24-.28,2.65-.76,3.89-1.25,3.23-2.54,6.47-4.05,9.59-.62,1.29-1.84,3.26-2.79,3.27-19.36.19-38.71.14-58.07.14-.04-.21-.07-.43-.11-.65,7.16-2.29,14.26-4.79,21.5-6.81,4.31-1.2,7.45-3.37,9.07-7.55.9-2.31,2.4-3.06,4.92-3.02ZM266.56,367.02v.85h-57.71c0-.28,0-.57,0-.85h57.7ZM209.31,370.63c9.56,0,19.12-.02,28.67,0,9.36.02,18.73.21,28.1.04,2.61-.04,3.52,1.14,4.33,3.18,1.37,3.45,2.96,6.8,4.34,10.25.41,1.03.75,2.34.44,3.3-.19.56-1.74.93-2.68.93-9.36.06-18.73-.01-28.09.08-2.19.02-3.58-.61-4.37-2.71-1.5-4.02-4.26-6.34-8.57-7.5-7.51-2.04-14.85-4.72-22.26-7.13.03-.14.06-.29.09-.43ZM243.58,391.28h31.49c0,.28,0,.55-.01.82h-31.52c.01-.27.04-.54.05-.82ZM274.05,379.48c-.57-.69-.78-1.69-1.1-2.56-.62-1.67-1.48-3.61,1-4.35,2.11-.63,4.27-.47,5.01,2.31.26,1.01.58,2.01,1.1,3.82-1,.87-2.09,2.17-3.47,2.81-.46.21-1.84-1.17-2.54-2.03ZM304.25,361.36c-.68,1.19-3.73,1.03-5.72,1.47-.33-.33-.66-.68-.98-1.02.96-2.58,1.68-5.32,3.05-7.67.34-.58,4.08,0,4.09.19.16,2.36.61,5.16-.45,7.02ZM305.09,380.54c-5.39,1.65-6.15,1.16-6.94-7.9,7.13-.61,6.14-.56,6.94,7.9ZM303.59,370.06h-6.06v-4.88c6.5-1.29,6.92-.95,6.06,4.88ZM272.8,329.51c-.16-.43-.32-.85-.48-1.28,3.23-1.16,6.47-2.32,9.7-3.49.16.43.33.87.49,1.3-3.24,1.16-6.48,2.31-9.72,3.47ZM272.33,406.86c.16-.45.31-.89.46-1.33,3.2,1.11,6.4,2.22,9.6,3.33-.16.45-.33.9-.49,1.35-3.18-1.12-6.37-2.24-9.56-3.35ZM337.47,426.27c3.84,3.01,7.37,6.49,11.51,8.87,6.44,3.7,13.23,6.81,20.01,9.85,2.14.96,2.86,2.02,2.61,4.22-.8,7.18-.83,7.35-7.5,4.66-6.66-2.68-13.19-5.73-20.56-8.97,2.65,13.56,4.9,26.9,14.87,37.5-18.79-5.03-34.6-15.2-48.23-28.01,9.22-9.5,18.23-18.8,27.28-28.12ZM357.22,471.08c.31-2.69,1.92-4.22,4.72-4.26,2.62-.02,4.88,2.2,4.6,4.73-.31,2.7-2.11,4.01-4.15,4.33-3.19-.09-5.45-2.31-5.17-4.8ZM366.71,477.73c-1.81,3.96-3.3,4.24-6.81,1.44,2.1-.44,4.57-.97,6.81-1.44ZM358.75,464.39c-3.3,1.35-4.34,4.09-4.3,7.43-.34.08-.68.15-1.03.23-2.4-7.45-4.8-14.9-7.2-22.36.23-.21.45-.42.68-.63,1.59.77,3.15,1.63,4.8,2.29,5.34,2.17,10.64,4.51,16.11,6.27,2.18.7,2.56,1.69,2.34,3.5-.26,2.22-.59,4.43-.99,7.37-2.52-4.5-5.97-5.92-10.41-4.11ZM374.52,447.07c.37-.09.49-.15.61-.13,7.35,1.25,7.31,1.25,5.95,8.53-1.5,7.98-3.04,15.96-4.29,23.98-.38,2.46-1.33,3.23-3.65,3.05-1.97-.15-3.96-.03-6.21-.03,6.98-11.12,4.03-23.87,7.59-35.41ZM380.75,467.5c.89-5.11,1.89-10.2,2.79-15.31.45-2.57,1.23-3.68,4.43-3.22,4.41.63,8.99.39,13.46,0,2.22-.2,3.08.39,3.44,2.32,1.92,10.3,3.82,20.61,5.78,31.14h-32.37c.86-5.25,1.62-10.1,2.47-14.94ZM406.78,451.58c-.61-2.91.37-3.6,2.87-3.77,1.47-.1,2.93-.48,4.52-.75v35.57c-.46.07-.91.14-1.37.21-.46-1.96-1.01-3.89-1.37-5.87-1.55-8.47-2.88-16.97-4.65-25.38ZM410.99,444.46c-1.99.28-3.96.84-5.94.83-.76,0-2.02-1.13-2.14-1.89-.11-.78.73-2.34,1.41-2.51,3.17-.78,6.42-1.19,9.74-1.75,1.15,3.47-.17,4.91-3.07,5.32ZM407.89,343.81c-2.33-.68-4.61-1.55-6.83-2.55-.21-.09-.06-1.94.28-2.07.83-.33,1.96-.39,2.81-.1,1.82.63,3.53,1.55,5.58,2.48-.88,1.1-1.55,2.33-1.84,2.24ZM405.05,321.06q-.53-4.78-7.82-5.49c.67-2.26.68-5.5,2.05-6.24,3.37-1.84,6.7,0,7.91,3.76,2.3-4.07,1.41-5.93-2.53-5.97-1.66-.02-3.34.16-4.97-.06-.7-.1-1.29-.99-1.92-1.52.6-.7,1.19-2.01,1.8-2.02,7.55-.14,15.1-.09,22.75-.09-5.91,6.04-11.61,11.86-17.27,17.64ZM413.19,343.22c1.9,1.03,3.24.71,4.71-.79,8.37-8.57,16.8-17.05,25.15-25.64.48-.5.74-2.1.43-2.36-3.65-3.03-.38-4.8,1.15-7.23,3.57,3.45,6.87,6.63,10.49,10.12-1.85,1.25-3.37,2.26-4.92,3.3-1.18-1.02-2.15-1.87-3.51-3.05-2.09,1.99-4.23,3.94-6.27,6-6.9,7-13.82,13.98-20.56,21.13-.8.85-.56,2.67-.81,4.03-.15.8-.33,1.59-.5,2.39-.74-.4-1.58-.69-2.21-1.23-1.43-1.22-2.81-2.53-4.12-3.89-.63-.64-1.06-1.47-1.58-2.22.87-.21,1.98-.86,2.56-.55ZM458.26,322.52c7.03,10.19,11.51,21.33,13.26,33.56.14.92-.7,1.97-1.09,2.97-1.16-.66-2.95-1.07-3.36-2.05-.81-1.89-.71-4.15-1.22-6.2-2.49-9.95-6.62-19.15-12.92-27.3-.28-.36-.44-.81-.73-1.35,2.48-3.02,4.06-2.51,6.05.37ZM421.64,354.66c.41,2.04,4.17,4.57-.8,6.49-1.08-2.37-2.11-4.65-3.25-7.15,1.97-1.67,3.55-1.89,4.05.66ZM420.66,374.69c4.64,1.37,2.04,3.72,1.4,5.6-.66,1.97-1.41,4.13-4.4,1.55.93-2.21,1.91-4.54,3-7.16ZM472.7,346.25c12.55-3.77,24.84-7.47,37.76-11.36,0,3.82-.16,6.91.05,9.95.19,2.84-.84,3.96-3.65,3.63-1.16-.14-2.35-.02-3.94-.02-.38,2.05-.56,4.03-1.15,5.89-.3.95-1.26,2.26-2.02,2.33-.83.07-2.46-1.03-2.54-1.76-.81-6.96-5.58-6.89-10.8-6.54-3.65.25-7.34.05-11.45.05.07,1.16.01,2.18.21,3.14,2.1,10.67,2.43,21.36.02,32.02-.64,2.81.01,3.94,3.04,3.82,4.5-.17,9.02-.16,13.52.02,2.24.09,3.59-.57,4.16-2.78.3-1.14.56-2.39,1.23-3.3.58-.8,1.79-1.74,2.59-1.63.8.11,1.55,1.37,2.11,2.26.28.43.11,1.16.17,1.74.26,2.63,1.4,4.15,4.34,3.67,3.24-.53,4.47.84,4.18,4.15-.26,3.01-.06,6.06-.06,9.66-12.95-3.99-25.23-7.78-37.81-11.65,3.72-14.5,3.54-28.77.05-43.28ZM552.87,349.03c1.64,3.12,3.87,4.7,7.19,5.62,6.72,1.85,13.34,4.09,20,6.21.68.21,1.3.65,1.69,1.7-.82-.19-1.67-.31-2.46-.57-7.53-2.48-15.12-4.82-22.54-7.59-2.01-.75-3.98-2.51-5.17-4.32-2.92-4.45-5.16-9.34-8.12-13.76-1.33-2-3.46-3.89-5.65-4.83-7.17-3.08-14.55-5.66-21.83-8.51-1.11-.43-2.07-1.25-3.1-1.89.28-.44.56-.88.83-1.32,5.23,2.11,10.28,5.02,15.71,6.16,13,2.73,18.11,12.98,23.45,23.11ZM540.69,327.41c.12-2.36.23-4.71.36-7.06.5.04,1,.07,1.49.1-.17,2.35-.35,4.7-.52,7.05-.44-.03-.88-.06-1.32-.09ZM546.55,331.74c1.94-1.46,3.89-2.92,5.83-4.38.27.38.55.76.83,1.15-1.96,1.4-3.92,2.8-5.87,4.2-.26-.32-.52-.65-.78-.97ZM550.34,338.59h31.34v19.49c-5.79-1.77-11.07-4.07-16.58-4.9-8.68-1.3-11.07-8.07-14.75-14.59ZM513.1,404.43c0-2.25-.2-4.46.11-6.61.11-.75,1.42-1.9,2.2-1.92,8.98-.14,17.96-.09,27.68.74-1.59,1.82-2.83,4.46-4.83,5.33-7.89,3.37-16.02,6.19-24.35,8.59,1.55-.7,3.09-1.4,4.85-2.2q-1.22-4.54-5.65-3.93ZM512.81,391.95h32.12c-2.14,1.72-28.63,1.92-32.12,0ZM517.97,327.8c-.78-1.22-2.9-1.58-4.16-3,7.33,2.77,14.6,5.7,22.01,8.23,3.62,1.24,5.75,3.47,7.16,7.55-9.43,0-18.42.07-27.4-.11-.85-.01-2.19-1.54-2.39-2.55-.38-1.92-.11-3.97-.11-6.27,1.47.26,2.57.45,4.41.76.22-1.57,1.14-3.6.48-4.61ZM518.17,361.34c-1.18-3.38-2.79-6.61-4.13-9.94-.41-1.03-.99-2.39-.62-3.19.34-.75,1.84-1.33,2.85-1.34,9.36-.09,18.73-.14,28.1.1,1.38.04,3.34,1.35,3.98,2.61,2.06,4.03,4.8,6.59,9.37,7.79,6.61,1.75,13.03,4.27,19.52,6.48.61.21,1.17.51,2.19.95-19.57,0-38.59-.01-57.62.02-2.48,0-2.97-1.55-3.64-3.49ZM518.17,369.45c-1.02,1.1-2.78,1.5-4.24,2.19-.46-.48-.91-.95-1.37-1.42.65-1.65,1.13-3.4,2.06-4.87.22-.33,2.46-.04,2.91.58.66.92,1.15,2.96.63,3.52ZM544.83,344.5h-31.22c0-.36,0-.71,0-1.07h31.33c-.04.36-.08.71-.12,1.07ZM513.1,352.44c1.37,3.18,2.41,5.06,2.94,7.06.26.98-.17,2.93-.78,3.16-1.26.5-3.63.7-4.15,0-1.18-1.6-2.14-3.87-1.99-5.77.1-1.35,2.17-2.54,3.98-4.46ZM509.66,369.8c0,.18,0,.36,0,.53h-14.99v-.53h15ZM494.75,366.06v-.45h14.84c0,.15,0,.3,0,.45h-14.85ZM507.17,356.19c-.43,1.88.51,4.07.92,6.5-4.41,0-8.96.14-13.47-.14-.75-.04-1.72-1.76-2.02-2.86-2.25-8.32-2.21-8.34-10.85-7.63-.46.04-.9.2-1.94.44,2.73,10.32,3.1,20.65-.13,31.18h10.97c.66-2.55,1.19-5.19,2.05-7.72.36-1.05,1.38-2.62,2.18-2.67,4.33-.26,8.68-.13,13.78-.13-2.43,4.83-2.75,8.81,2.65,11.1-4.04,2.06-6.74.88-7.37-2.98-.34-2.09-.02-4.31-3.26-4.44-3.2-.13-5.56.36-6.06,4.09-.53,3.97-3.2,4.73-6.7,4.39-3.05-.3-6.13-.33-9.19-.51-.31-.02-.61-.33-.46-.25v-33.47c4.33,0,9.04-.25,13.7.19,1.05.1,2.14,2.46,2.77,3.97,1.59,3.8,3.26,4.88,7.15,3.68.83-.25,1.64-1.61,1.85-2.58,1.22-5.69,1.16-5.7,6.94-4.96-1.27,1.64-3.12,3.07-3.51,4.82ZM483.96,374.88c.17-.68,1.2-1.71,1.72-1.64,1.63.23,4.3.56,4.59,1.47.94,3-1.72,7.01-4.09,7.11-.93.04-1.87,0-3.42,0,.43-2.62.68-4.83,1.22-6.95ZM483.17,354.8c6.13-.63,6.88.18,7.21,7.52-6.17,1.36-7.14.38-7.21-7.52ZM487.78,370.55c-1.86.15-3.3-.05-3.26-2.71.04-2.78,1.75-2.51,3.55-2.57,1.86-.06,3.13.17,3.19,2.57.06,2.66-1.45,2.83-3.48,2.71ZM508.37,379.14c.83-2.05,1-3.8,1.95-4.53,1.18-.9,3.02-1.29,4.54-1.2.46.03,1.1,2.34,1.1,3.61-.01,1.08-.66,2.29-1.35,3.18-.66.83-2.06,2.04-2.58,1.81-1.39-.61-2.47-1.89-3.65-2.87ZM543.79,389.18c-9.11-.19-18.23-.08-27.36-.17-1.06-.01-2.68-.3-3.03-.98-.41-.78.12-2.23.56-3.25,1.47-3.44,3.18-6.78,4.61-10.24.7-1.67.95-3.23,3.45-3.2,18.48.16,36.95.19,55.42.27.32,0,.65.12,1.85.36-8.52,2.79-16.06,5.58-23.8,7.65-3.84,1.03-5.2,3.8-6.7,6.64-1.15,2.18-2.51,2.97-5.01,2.92ZM522.13,368.61c0-.28,0-.57,0-.85h57.63c-.02.28-.04.57-.06.85h-57.57ZM516.34,328.67c-.12.47-.25.94-.38,1.41-3.26-1.09-6.51-2.19-9.78-3.28.13-.43.26-.85.39-1.29,3.25,1.05,6.51,2.11,9.76,3.16ZM515.57,406.06c.16.46.32.9.48,1.35-3.08,1.1-6.16,2.19-9.23,3.28-.15-.41-.3-.83-.45-1.24,3.06-1.13,6.13-2.26,9.2-3.4ZM563.23,383.72c6.1-1.1,11.98-3.47,18.61-5.48,0,6.22.09,11.65-.11,17.07-.03.8-1.5,2.18-2.33,2.19-9.46.16-18.93.1-29.28.1,4.14-5.53,5.15-12.45,13.11-13.88ZM500.83,294.03c6.47,1.9,12.87,3.77,19.25,5.69.51.16,1.08.61,1.32,1.07,3.87,7.41,7.7,14.85,11.52,22.29.08.16-.05.43-.15,1.13-6.79-2.81-13.48-5.54-20.14-8.37-.56-.24-.97-1.01-1.3-1.62-3.55-6.38-7.08-12.77-10.59-19.17-.09-.16.04-.42.1-1.03ZM483.61,280.27c12.24,12.35,23.06,25.65,27.58,44.1-2.11-.43-3.06-.88-3.86-.7-1.03.23-2.63.84-2.76,1.52-.2,1.05.38,2.52,1.12,3.39.6.7,2.01.63,2.91,1.17.7.41,1.65,1.27,1.62,1.87-.04.66-.99,1.6-1.72,1.82-11.98,3.6-24,7.11-36.41,10.77-3.81-12.65-10.47-23.53-19.4-33.17,10.43-10.37,20.57-20.45,30.93-30.75ZM472.99,275.34c6.49.16,6.47.57,8.76,3.54-10.24,10.01-20.53,20.06-30.51,29.82-5.91-4.08-11.7-8.36-17.78-12.16-3.49-2.18-7.38-3.77-11.23-5.26-2.12-.83-2.69-1.88-2.24-3.98.73-3.34,1.14-6.76,2.04-10.05.27-.98,1.73-2.34,2.64-2.34,16.11.01,32.22.04,48.32.44ZM416.55,247.88c5.81,1.44,11.63,2.9,17.28,4.82.98.33,1.22,2.88,2.11,5.24-7.58-2.19-13.82-3.9-19.97-5.88-.83-.27-1.22-1.91-1.82-2.91.8-.46,1.74-1.43,2.4-1.27ZM391.9,241.24c.94-2.05,3.8-2.13,4.76-.12,1.14,2.39,1.9,4.96,2.92,7.7h-10.39c1-2.86,1.67-5.3,2.71-7.58ZM357.13,251.41c5.77-1.43,11.5-2.98,17.48-4.55.56,2.54,1.32,4.27-1.25,5.01-6.42,1.84-12.83,3.67-19.42,5.55-1.05-3.4.04-5.22,3.2-6ZM348.72,250.35c.46,5.17.81,9.08,1.2,13.42,1.6-.56,2.99-1.1,4.41-1.52,7.46-2.24,14.97-4.37,22.38-6.79,1.05-.34,2.15-1.92,2.4-3.1.4-1.94.26-4.02.09-6.02-.19-2.33.93-3.17,3.2-3.37,1.11,4.61-1.18,9.5.97,13.83.51,0,1.03-.01,1.54-.02,0-3.54.12-7.08-.04-10.6-.12-2.53.66-3.84,3.84-3.48-.85,2.68-1.67,5.29-2.58,8.19,2.81.4,5.5.77,4.96,4.56h6.39c.16-1.23.31-2.37.48-3.7,1.5-.21,2.96-.42,4.81-.68-.95-2.86-1.83-5.5-2.8-8.38.7,0,1.12-.04,1.53,0,8.3.83,8.22.83,8.66,9.36.06,1.2,1.08,3.05,2.05,3.37,8.75,2.81,17.59,5.35,26.6,8.02.33-3.52.71-7.63,1.2-12.89,9.63,5.24,18.38,10,27.14,14.77-.11.32-.22.64-.33.96h-144.78c-.16-.38-.31-.77-.46-1.15,8.72-4.74,17.44-9.48,27.15-14.77ZM317.49,269.85h153.29c.02.38.04.76.06,1.15h-153.36v-1.15ZM312.7,274.96c17.14-.36,34.29-.53,51.44-.57,1.04,0,2.75,1.37,3.01,2.39.93,3.65,1.5,7.4,1.89,11.15.09.88-.83,2.46-1.64,2.76-10.42,3.92-19.89,9.33-28.06,16.96-.61.57-2.61.68-3.15.15-9.92-9.64-19.72-19.42-29.53-29.17-.02-.52-.04-1.05-.06-1.57,2.03-.73,4.05-2.06,6.1-2.11ZM305.17,279.07c2.6,2.78,4.76,5.23,7.06,7.55,7.35,7.41,14.7,14.81,22.14,22.11,1.37,1.35,1.79,2.17.33,3.75-7.6,8.15-13.22,17.55-16.87,28.07-.9,2.57-1.98,3.26-4.69,2.39-10.93-3.51-21.94-6.77-32.9-10.2-.75-.23-1.31-1.1-1.96-1.67.8-.72,1.47-1.74,2.41-2.11,3.8-1.52,4.88-2.92,3-5.01-.88-.98-3.14-.7-5.55-1.14.51-2.25.59-5.05,1.75-7.28,3.72-7.11,7.43-14.3,11.93-20.9,3.68-5.4,8.51-10.03,13.32-15.56ZM264.14,305.93c.16-.31.56-.54.62-.85,1.13-5.78,5.92-6.66,10.47-7.93,4.29-1.2,8.57-2.45,13-3.71-3.72,6.89-7.23,13.44-10.81,19.94-.48.87-1.22,1.86-2.07,2.21-6.64,2.76-13.35,5.38-20.87,8.37,3.47-6.48,6.56-12.26,9.66-18.03ZM182.06,332.57c.39-.73,1.08-1.55,1.82-1.8,5.49-1.85,11.01-3.6,16.55-5.33,18.41-5.73,36.82-11.44,55.22-17.15,1.21-.38,2.43-.71,4.29-1.25-3.35,6.46-6.39,12.33-9.44,18.2-.29-.06-.59-.13-.88-.2,0-1.48.03-2.96,0-4.44-.04-1.92-.3-3.54-2.93-3.41-2.41.11-2.63,1.59-2.5,3.38.11,1.52.53,3.05.48,4.56-.04,1.34-.55,2.66-.95,4.45-3.05-2.15-5.35-3.77-8.01-5.65-1.04,1.29-2.01,2.49-3.18,3.94,2.81,2.15,5.32,4.06,8.48,6.47-1.43.23-2.22.48-3,.48-9.71-.07-19.42-.18-29.13-.28-2.69-.03-4.56-2.61-5.13-7.28h-3.49c-.21,1.62-.4,3.09-.73,5.65-1-1.37-1.4-2.04-1.92-2.58-.63-.65-1.43-1.72-2.06-1.66-.91.09-2.12.85-2.53,1.66-1.87,3.74-6.32,5.58-10.01,3.81-.49-.23-1.11-1.27-.96-1.56ZM204.26,342.52c.12,17.53.03,35.06.03,52.59v3.05c-1.5-.71-2.88-1.91-4.27-1.91-2.48,0-5.85-1.62-7.29,2.5,0-9.17-.05-18.35.01-27.53.07-11.12.28-22.24.34-33.37.01-2.17.6-3.3,3.01-3.23,10.06.26,8.09-1.29,8.16,7.9ZM201.77,400.01c-.74.54-1.59,1.62-2.19,1.5-1.4-.29-2.68-1.17-4-1.8.95-.73,1.9-1.47,3.37-2.6,1.2,1.23,2.01,2.06,2.82,2.9ZM135.75,335.04c.02-.87,1.49-2.37,2.37-2.44,3.65-.28,7.36-.28,11,0,.88.07,2.29,1.58,2.35,2.5.26,4.02.11,8.05.11,12.08,0,3.8-.06,7.59.04,11.38.05,1.98-.7,2.78-2.69,2.75-3.55-.07-7.11-.03-10.65.01-1.97.02-2.68-.87-2.66-2.83.07-7.83-.05-15.65.14-23.46ZM112.78,330.47c6.12-.16,12.24-.09,18.58-.09.81,2.7.14,3.92-2.75,3.84-5.31-.14-10.62.04-15.93-.14-.89-.03-1.74-1.2-2.61-1.85.9-.61,1.79-1.74,2.71-1.77ZM108.65,337.38c6.97.12,13.96.13,20.93.03,2.49-.04,3.65.59,3.56,3.38-.19,5.79-.13,11.59-.02,17.39.04,2.25-.64,3.24-3.03,3.15-3.66-.14-7.33-.04-10.99-.04v-.04c-3.79,0-7.58.13-11.36-.1-.8-.04-2.19-1.35-2.2-2.1-.11-6.14.09-12.3.09-18.44,0-2.16.58-3.26,3.02-3.22ZM87.64,300.61c3.75,5.63,7.53,11.26,11.26,16.9,2.54,3.85,5.15,7.66,7.48,11.63.78,1.32.8,3.09,1.17,4.65-.43.09-.86.19-1.29.28-6.5-10.98-12.99-21.96-19.49-32.94.28-.18.58-.35.86-.53ZM86.47,331.22c.35-7.55.09-15.12.88-23.04,4.35,7.26,8.7,14.52,13.04,21.78.39.66.78,1.3,1.17,1.96.31,2.53.76,5.06.88,7.6.16,3.16.04,6.34.04,10.48-4.07-3.05-7.32-5.87-10.93-8.1-4.16-2.56-5.3-5.97-5.09-10.67ZM91.2,414.83c2.97-3.61,5.68-6.91,8.39-10.22.09.05.17.09.26.14-4.19,7.05-8.39,14.09-12.6,21.14-.23,0-.46-.01-.68-.02v-6.79c0-6.87-.09-13.75.07-20.62.04-1.37.63-3.18,1.61-3.98,4.36-3.59,8.95-6.88,14.03-10.71v16.96c-.16.03-.33.05-.5.08-.19-1.37-.38-2.75-.58-4.19-8.22,4.81-11.69,10.9-10,18.21ZM99.82,401.5c-2.31,2.76-4.63,5.53-6.95,8.3-.37-.32-.75-.63-1.13-.95,2.39-2.73,4.78-5.47,7.18-8.2.3.28.6.56.9.85ZM101.13,380.53c-4.18,3.92-9.07,7.08-14.55,11.17,0-6.42-.11-11.73.13-17.01.04-.8,1.69-2.07,2.69-2.17,2.93-.3,5.91-.24,8.86-.06,1.38.09,3.88.75,3.89,1.2.06,2.34.33,5.59-1.03,6.86ZM86.73,359.21c-.21-5.51-.12-11.04-.12-17.45,5.41,4.1,10.28,7.29,14.45,11.23,1.37,1.3,1.22,4.53,1.13,6.84-.02.54-2.61,1.3-4.05,1.4-2.94.21-5.92.2-8.86-.06-.94-.09-2.51-1.24-2.54-1.95ZM192.48,121.18c-20.65,28.89-41.11,57.92-61.57,86.94-15.63,22.17-31.22,44.36-46.69,66.64-1.11,1.6-1.58,3.96-1.59,5.97-.11,19.33-.14,38.67.01,58,.02,3.38-1.1,4.19-4.29,4.09-7.41-.21-7.43-.05-7.44-7.33,0-12.1.04-24.21-.04-36.31-.01-2.48.26-3.94,3.25-4.79,4.89-1.37,5.93-6.22,7.44-10.4.11-.31.02-.7.03-1.06q.1-6.7-5.68-9.6c4.59-6.34,9.16-12.62,13.71-18.9.24.31.48.61.72.92,1.58-.98,3.46-1.69,4.67-3.01,2.15-2.34,3.86-5.08,5.82-7.6,1.77-2.26,4.51-4.29,1.45-7.77,1.02.23,2.04.45,3.16.7,3.69-4.84,7.33-9.63,11.11-14.58-2.68-1.87-1.78-3.52-.36-5.47,11.16-15.29,22.23-30.65,33.34-45.98,13.41-18.48,26.83-36.96,40.26-55.43.9-1.23,1.89-2.4,3.08-3.92,1.29,3.27,1.88,5.71-.39,8.89ZM72.29,351.88c-.07-3.56,2.21-2.88,4.27-2.97,2.17-.09,4.01-.08,3.89,3.03-.19,4.49-.05,8.99-.05,13.49s-.14,9.01.04,13.5c.14,3.52-2.21,2.88-4.29,2.98-2.19.09-3.9.06-3.85-3.04.15-8.99.16-18,0-26.99ZM73.19,383.79c1.99,0,3.99-.06,5.99.01,2.07.09,3.04-.74,3.03-2.89-.01-10.32.02-20.63.06-30.94,0-2.08-.9-3.05-3.01-2.97-2,.08-4,.02-6,.02-.01-.29-.03-.58-.05-.88,2.89,0,5.79-.12,8.66.11.52.04,1.3,1.58,1.3,2.43.09,11.14.04,22.29.09,33.44,0,1.96-.74,2.81-2.75,2.72-2.44-.11-4.88-.03-7.33-.03,0-.34,0-.68.01-1.03ZM72.82,456.24c1.93-1.33,3.94-2.72,6.07-4.19.11,5.16-1.52,6.21-6.07,4.19ZM73.54,460.68c-.02.8-1.29,2.14-2.05,2.16-.78.04-2.15-1.15-2.27-1.96-.11-.77,1.04-1.73,2-3.15,1.11,1.31,2.35,2.15,2.32,2.94ZM71.29,453.02c-2.9-.05-5.42-2.81-5.35-5.86.07-3.14,2.62-5.65,5.65-5.57,2.56.07,5.21,2.98,5.23,5.75.02,3.03-2.61,5.73-5.53,5.68ZM54.13,358.86c2.92,1.49,5.47,3.79,8.1,3.87,2.68.09,5.43-2,8-3.08v14.8c-5.75-5.23-9.47-5.24-15.47-.11,3.06-5.39,2.54-10.65-.62-15.49ZM71.35,275.04c-.64-.82-1.66-1.58-1.79-2.47-.09-.65.99-1.46,1.94-2.73,1.04,1.39,2.27,2.34,2.16,3.06-.14.81-1.49,1.43-2.31,2.14ZM78.04,277.31c.88.51.9,2.48,1.43,4.23-2.65-1.71-4.47-2.88-6.29-4.05,0-.28.01-.56.01-.84,1.64.17,3.55-.1,4.85.66ZM71.89,280.64c2.87.19,5,2.74,4.93,5.91-.06,2.72-2.55,5.38-5.08,5.41-3.16.05-5.9-2.77-5.78-5.95.12-3.01,2.94-5.58,5.93-5.38ZM62.62,338.35c.95.04,2.58,1.32,2.63,2.13.27,3.6-2.36,2.85-5.05,2.71.3-2.21-1.34-4.99,2.41-4.83ZM62.38,348.85c3.29-.06,5.82,2.21,5.85,5.25.02,2.86-2.72,5.6-5.71,5.7-2.46.08-5.58-2.83-5.72-5.35-.16-2.81,2.57-5.55,5.59-5.6ZM67.14,342.82c-.14-.96-.34-1.92-.41-2.88-.07-1.05-.01-2.1-.01-3.43-2.65,0-5.5-.8-7.15.25-1.37.88-1.33,3.96-1.92,6.07-.35-.03-.7-.06-1.04-.09.27-2.37.05-6.55.91-6.79,3.06-.84,6.66-.91,9.69-.02,1,.29.91,4.36,1.32,6.7-.46.06-.92.13-1.38.19ZM62.47,384.75c-2.86.02-5.72-2.84-5.7-5.68.02-2.58,2.95-5.29,5.72-5.28,3.3.01,5.72,2.32,5.75,5.48.03,3.05-2.51,5.46-5.76,5.48ZM65.37,387.74c-.28,1.61-.19,3.23-.9,4.33-.36.58-2.64.75-3.15.23-.87-.88-1.03-2.47-1.58-4.02,2.01-.19,3.38-.32,5.64-.53ZM57.85,387.87c1.19,2.53-1.2,6.98,4.81,6.86,5.86-.11,3.1-4.56,4.54-6.79.38.06.76.11,1.14.16-.27,2.33-.09,6.48-.88,6.68-3.19.78-6.79.78-9.98.03-.76-.18-.58-4.36-.84-6.71.41-.08.8-.16,1.21-.23ZM91.67,251.5c2.75-3.73,5.5-7.46,8.24-11.19.29.25.58.49.86.74-2.78,3.67-5.57,7.34-8.35,11.01-.25-.19-.5-.37-.75-.56ZM104.54,233.75c2.58-3.56,5.16-7.12,7.73-10.69.28.21.58.43.87.63-2.65,3.52-5.29,7.05-7.93,10.58-.22-.18-.45-.36-.67-.53ZM197.41,86.27c2.21-2.88,4.44-5.73,6.76-8.72,6.53,4.02,6.66,4.12,2.67,9.66-14.32,19.87-28.79,39.62-43.11,59.48-17.94,24.86-35.75,49.81-53.7,74.66-11.3,15.64-22.76,31.17-34.15,46.74-.27.36-.62.68-.93,1.01-.13-.36-.25-.71-.37-1.06-2.15.56-4.83.51-6.34,1.82-2.63,2.28-1.43,5.13.91,7.48-.7.59-1.08,1.02-1.55,1.3-5.7,3.47-6.27,9.66-1.54,14.33,1.16,1.15,2.11,3.1,2.14,4.71.19,10.2,0,20.4.14,30.6.04,2.98-.97,3.87-3.89,3.84-7.78-.09-7.78.03-7.77-7.75.01-17.3-.03-34.6.15-51.91.02-1.96.83-4.24,2.01-5.81,18.57-24.37,37.26-48.65,55.93-72.93,15.07-19.6,30.15-39.18,45.22-58.77,12.47-16.22,24.94-32.45,37.41-48.68ZM64.4,252.15c2.64-3.54,5.29-7.08,7.93-10.61.33.23.66.48,1,.72-2.61,3.55-5.21,7.11-7.81,10.67-.38-.26-.75-.52-1.12-.78ZM147.25,143.56c2.84-3.75,5.69-7.48,8.97-11.8.26,3.5-5.73,11.48-8.97,11.8ZM45.11,255.91c10.86-12.83,21.47-25.87,32.25-38.77,9.73-11.63,19.6-23.14,29.36-34.75,7.85-9.33,15.59-18.73,23.43-28.06,9.51-11.34,19.08-22.61,28.61-33.93,4.12-4.88,8.5-9.58,12.17-14.77,2.66-3.77,5.82-4.32,10.38-3.43-7.55,9.75-14.85,19.17-22.26,28.74-1.17-.58-2.3-1.13-3.82-1.87-3.46,4.58-7.04,9.11-10.3,13.85-.46.68.68,2.44,1.4,4.71-23.06,29.98-46.81,60.88-70.67,91.91-1.2-.57-2.12-1-3.11-1.46-.26.14-.65.24-.83.48-3.24,4.23-6.56,8.4-9.57,12.8-.58.85.11,2.57.21,3.89.31.04.61.08.92.12-2.29,3.13-4.36,6.47-6.96,9.33-1.94,2.13-1.48,6.06-5.25,6.84-.33.06-.48,1.72-.48,2.63-.05,3.92.09,7.83-.04,11.74-.08,2.39.29,4.21,3.6,4.51-4.48,1.12-3.57,4.33-3.6,7.13-.02,2.73.14,5.47-.05,8.18-.19,2.67.03,4.89,3.62,5.6-3.73.54-3.77,2.83-3.61,5.46.18,3.07-.02,6.17.06,9.25.06,2.16-.98,4.93,2.71,5.47.36.05.73,1.64.73,2.5-.15,10.12,1.66,8.61-8.43,8.76-2.61.04-3.2-1.01-3.19-3.37.08-12.1.04-24.2.04-36.3,0-13.29.06-26.57-.06-39.86-.02-2.91.83-5.07,2.73-7.33ZM53.7,273.75v13.25c-.14,0-.27,0-.41,0v-13.25c.14,0,.27,0,.41,0ZM53.81,294.26v13.39h-.47v-13.39h.47ZM53.73,314.9v13.28c-.16,0-.31,0-.48,0v-13.27c.16,0,.32-.01.48-.01ZM52.12,368.95c-1.45.36-3.06.1-4.6.1-1.3,0-2.68.24-3.89-.09-.75-.21-1.81-1.32-1.75-1.95.08-.88,1-2.34,1.67-2.4,2.82-.28,5.7-.29,8.52-.04.73.06,1.88,1.39,1.89,2.15,0,.77-1.04,2.03-1.84,2.23ZM52.56,379.95c-.19,2.3-1.6,2.28-3.27,1.35-1.27-.7-2.56-1.4-4.34-2.39v-7.26c1.97,0,3.83-.19,5.62.09.75.11,1.84,1.13,1.93,1.84.26,2.09.22,4.25.05,6.37ZM44.96,353.85c2.55,0,4.65-.63,4.74-3.8.01-.37,1.17-1.12,1.48-.98.59.27,1.33,1.03,1.36,1.62.13,3.05.24,6.12,0,9.16-.28,3.54-3.2,1.74-4.98,2.07-1.84.33-2.86-.47-2.64-2.59.18-1.74.04-3.5.04-5.48ZM41.9,347.34c.01-.45,1.15-1.2,1.79-1.24,2.68-.14,5.38-.06,8.07-.06v.96c-1.84,0-3.7.08-5.55-.02-2.14-.11-2.87.81-2.9,2.92-.04,3.75-.33,7.5-.54,11.24,0,.06-.18.13-.95.67,0-5.12-.06-9.8.08-14.48ZM41.8,372.02c.38-.02.76-.04,1.14-.06v12.69c-.32.01-.65.04-.97.06-.48-4.21-.23-8.45-.17-12.68ZM171.31,629.07c-16.33-19.57-32.72-39.08-49.05-58.64-12.22-14.64-24.38-29.32-36.57-43.98-13.78-16.57-27.6-33.12-41.29-49.76-1.1-1.35-1.92-3.38-1.93-5.1-.11-26.69-.04-53.39-.09-80.09,0-2.53.64-3.5,3.39-3.52,8.28-.08,8.28-.21,8.28,7.88,0,1.42.1,2.86-.05,4.27-.07.72-.56,1.99-.9,2.01-3.27.12-2.56,2.48-2.58,4.38-.04,3.92-.17,7.85.07,11.74.08,1.34,1.13,2.61,1.72,3.87-.54,1.22-1.69,2.63-1.73,4.07-.47,15.08-.42,15.08,1.87,16.13-.68,1.68-1.75,3.21-1.87,4.81-.27,3.78-.09,7.59-.08,11.39,0,1.97-.38,3.86,2.55,4.62,1.09.28,1.44,2.95,2.41,4.34,2.5,3.57,5.16,7.03,7.93,10.77-3.24,1.86-1.85,3.5-.27,5.48,3.03,3.77,5.8,7.76,8.79,11.82,1.21-.58,2.22-1.07,3.5-1.68,23.73,30.99,47.41,61.92,71.24,93.03-3.14,2.24-2.29,4.29-.18,6.72,2.99,3.47,5.62,7.26,8.57,11.14,2.8-2.71,4.34-1.47,6.19,1.04,6.39,8.66,13.02,17.13,19.57,25.7-3.79,1.4-7.1.44-9.49-2.41ZM53.3,446.61h.5v12.74h-.5v-12.74ZM53.28,417.98v-12.54h.48v12.6c-.16-.02-.33-.04-.48-.06ZM53.44,438.67v-12.68c.16.01.32.03.48.04v12.63c-.16,0-.33.01-.48.01ZM63.94,481c.36-.25.72-.5,1.08-.75,2.86,3.76,5.72,7.52,8.57,11.27-.35.27-.7.53-1.05.8-2.86-3.77-5.73-7.55-8.59-11.33ZM147.11,590.32c.43-.36.86-.71,1.29-1.06,2.88,3.76,5.77,7.52,8.67,11.28-.41.33-.83.66-1.23.98-3.45-3.3-5.9-7.4-8.72-11.2ZM207.85,648.4c2.24,2.96,2.11,4.64-1.12,6.24-.93.46-1.74,1.14-2.91,1.91-1.64-2.17-3.18-4.24-4.75-6.28-21.11-27.53-42.23-55.05-63.33-82.57-18.65-24.34-37.3-48.69-55.94-73.04-7.05-9.21-14.16-18.38-21.03-27.73-1.22-1.67-2.01-4.07-2.02-6.14-.15-19.22-.02-38.44-.16-57.67-.02-3.31.71-4.59,4.3-4.46,7.38.26,7.4.06,7.4,7.31,0,9.97.04,19.94-.06,29.9-.01,1.29-.34,2.95-1.17,3.81-6.2,6.37-5.77,11.48,1.84,16.19-.52.85-1.4,1.67-1.49,2.57-.16,1.65-.45,3.88.43,4.9,1,1.14,3.54,2.04,4.86,1.55,2.34-.87,3.03.43,3.97,1.72,11.95,16.63,23.86,33.3,35.84,49.92,11.21,15.56,22.51,31.07,33.74,46.62,13.39,18.54,26.74,37.1,40.12,55.64,7.13,9.89,14.14,19.87,21.48,29.59ZM91.65,482.18c.23-.18.48-.35.71-.52,2.78,3.72,5.55,7.45,8.33,11.18-.31.21-.61.43-.91.66-2.71-3.77-5.42-7.55-8.13-11.31ZM104.41,500.08c.23-.19.46-.37.69-.56,2.63,3.51,5.28,7.02,7.91,10.52-.28.21-.56.43-.83.63-2.59-3.53-5.18-7.06-7.77-10.6ZM132.28,527.72c19.99,28.5,40,56.99,60.19,85.35,2.25,3.17,1.21,5.67.21,9.08-4.02-5.48-7.84-10.63-11.58-15.84-21.82-30.25-43.63-60.52-65.36-90.84-.61-.85-.3-2.35-.43-3.54-.11-1.05.11-2.36-.43-3.13-3.07-4.34-6.32-8.56-9.58-12.92-1.3.45-2.21.76-3.1,1.07-.2-.22-.4-.44-.6-.66.64-.96,1.27-1.93,2.19-3.32-3.57-4.75-7.25-9.63-11.09-14.73-2.52,2.39-3.54.67-4.88-1.3-3.14-4.59-6.56-8.99-9.83-13.49-.75-1.03-1.4-2.14-2.04-3.12.31-.43.4-.69.58-.79,1.6-.85,4.36-1.42,4.62-2.56.64-2.79.95-6.19-.1-8.72-1.67-4.01-2.88-9.05-8.74-9.61-.53-.05-1.31-1.61-1.32-2.47-.08-15.19-.09-30.37.05-45.56.01-.86,1.55-1.72,2.39-2.56.06-.06.23-.01.35-.01,10.65.27,8.7-1.59,8.78,8.42.16,18.74-.06,37.49.08,56.23.02,2.31.82,4.95,2.12,6.84,15.75,22.8,31.62,45.51,47.54,68.2ZM106.68,404.11c-6.25,9.75-12.67,19.4-19.05,29.06-.1.14-.41.14-1.47.47,6.97-11.74,13.61-22.92,20.25-34.1.34.07.68.14,1.03.21-.23,1.47-.02,3.21-.75,4.35ZM129.57,403.85c-.71.05-1.42.08-2.13.09-.65.01-1.3.02-1.95.02-.8,0-1.62,0-2.42-.01-.79,0-1.58-.01-2.37-.01-.68,0-1.36,0-2.05.01-.85,0-1.69.01-2.54.01-.39,0-.78,0-1.17-.01-.31,0-.62,0-.93-.02,0,0,0,0,0,0t-.01,0s-.01,0-.02,0c-.04,0-.05,0-.08,0-.18,0-.36-.01-.53-.02-.39-.01-.78-.04-1.17-.06-.73-.05-1.4-1.12-2.09-1.72.63-.68,1.25-1.92,1.9-1.93,5.91-.14,11.83-.14,17.74.01.65.02,1.26,1.25,1.89,1.92-.68.6-1.35,1.67-2.06,1.72ZM130.68,396.79c-8.26-.09-16.52-.04-25.03-.04,0-7.7-.06-15.01.1-22.31.01-.68,1.46-1.9,2.26-1.92,7.7-.12,15.42-.1,23.12.07.68.01,1.89,1.35,1.91,2.1.17,6.51.13,13.04.16,19.56,0,1.7-.57,2.56-2.51,2.53ZM151.62,399.2c.04,1.99-.76,2.74-2.74,2.68-3.43-.11-6.87-.11-10.3-.02-2.06.06-3.06-.61-3.03-2.82.09-8.05,0-16.1.22-24.14.02-.84,1.56-2.29,2.46-2.34,3.77-.25,7.57-.2,11.33.07.73.05,1.9,1.55,1.94,2.43.21,4.13.09,8.28.09,12.42,0,3.91-.06,7.82.02,11.72ZM108.95,369.64c-7.08-.02-14.16,0-21.39,0-.45-5.04-.38-5.14,3.82-5.14,25.73,0,51.47.03,77.21.06,1.78,0,3.65-.26,3.67,2.54.02,2.66-1.62,2.73-3.53,2.73-19.93-.07-39.85-.13-59.78-.18ZM166.83,361.31c-1.46-.06-2.93,0-4.39,0-.02-.45-.04-.9-.06-1.35h21.17c0,4.45.1,9.01-.1,13.56-.04.69-1.44,1.87-2.23,1.89-5.68.15-11.36.11-17.05,0-.74-.01-1.46-.81-2.19-1.25.78-.45,1.53-1.24,2.33-1.29,2.6-.15,5.2-.09,7.81,0,1.93.06,2.79-.68,2.76-2.69-.15-10.63,1.25-8.53-8.05-8.88ZM157.95,395.03c-.7.68-2.04,1-3.05.92-.51-.04-1.3-1.32-1.31-2.04-.11-6.17-.14-12.33-.05-18.51.04-2.61.6-2.78,5.53-2.51.78,5.13.78,5.07,6.14,5.03,5.58-.04,11.16-.09,16.73.14,2.87.11,3.74-.98,3.65-3.7-.14-4.62-.09-9.26,0-13.88.05-2.29-.54-3.5-3.17-3.45-6.76.13-13.52-.03-20.28.14-.91.02-2.48,1.16-2.56,1.92-.33,2.87-2.39,2.49-3.93,2.07-.9-.24-2.01-1.81-2.04-2.82-.2-5.69-.04-11.39-.14-17.08-.04-2.27.7-3.15,3.08-3.1,6.05.14,12.1.13,18.14.01,4.25-.08,8.5-.37,12.75-.66,2.4-.16,3.37.68,3.35,3.22-.08,17.68-.01,35.36-.11,53.04,0,1.01-1.1,2.93-1.5,2.88-1.55-.2-4.12-.75-4.33-1.64-1.46-6.12-5.75-6.44-10.77-6.12-3.42.23-6.88.11-10.3-.15-2.52-.19-3.71.88-4.36,3.13-.33,1.13-.7,2.42-1.49,3.18ZM160.34,396.64c.05-4.63,1.04-5.71,5.14-5.74,3.66-.03,7.36.29,10.98-.08,4.21-.43,5.66,1.75,6.4,5.82h-22.52ZM193.11,406.36v-.04c-3.03-.89-6.1-1.62-9.04-2.73-1.12-.43-1.92-1.7-3.21-2.92,6.62-1.87,12.44-.82,12.25,5.65,0,0,.02,0,.03,0,.06.02.12.04.19.06-.07,0-.14-.02-.21-.03ZM247.02,423.82c-14.75-4.7-29.48-9.41-44.22-14.15-.88-.28-1.7-.79-2.55-1.2-2.3-.69-4.59-1.39-6.89-2.08.11.01.21.03.31.04.26.04.52.07.78.1.14.02.27.04.41.04.16.01.33.02.49.02.11,0,.22,0,.33-.01.11,0,.21-.02.31-.04.07,0,.14-.02.2-.04.05,0,.1-.03.16-.04.15-.05.3-.11.43-.19.04-.02.08-.05.11-.08.05-.04.1-.07.15-.11.22-.19.41-.43.56-.76.03-.06.05-.11.07-.16.12-.28.21-.62.28-1.02.02-.11.04-.23.05-.36.02-.15.04-.31.04-.48.3.17.59.34.89.51.45,1.55.9,3.09,1.35,4.64,1.04.07,2.08.15,2.5.18,1.3-2.82,2.34-5.25,3.55-7.6.26-.5,1.11-.98,1.69-.98,10.62-.06,21.25-.04,32.24.77-2.48,1.96-4.98,3.92-7.7,6.06,1.01,1.35,1.84,2.45,3,3.99,2.66-1.79,5.22-3.52,8.36-5.62.22,1.52.51,2.56.51,3.6,0,2.12-.41,4.28-.13,6.36.11.9,1.47,2.22,2.32,2.27.87.06,2.34-1.06,2.62-1.95.53-1.74.43-3.67,1.38-5.82,2.93,5.73,5.86,11.47,9.21,18.04-4.84-1.48-8.85-2.66-12.82-3.92ZM269.32,435.92c-.93-.27-2.01-.99-2.46-1.82-4.07-7.43-8.02-14.94-12.49-23.31,5.35,2.13,9.75,4.29,14.4,5.64,6.17,1.79,9.88,5.5,12.29,11.44,1.89,4.64,5.01,8.79,7.86,13.65-6.94-1.97-13.29-3.71-19.6-5.6ZM303.48,453.76c-9.58-10.4-18.04-21.57-23.5-34.74-.96-2.32-1.47-4.84-2.2-7.27.48-.19.95-.39,1.42-.59.61.88,1.39,1.69,1.78,2.66,5.73,14.21,13.85,26.89,24.14,38.22.51.57.41,1.68.6,2.54-.75-.26-1.75-.31-2.23-.83ZM348.81,482.83c-2.64-.65-5.49-.87-7.9-2.02-12.03-5.75-23.08-13-32.65-22.35-.63-.61-.8-1.67-1.2-2.53.88.21,2.02.14,2.61.67,11.44,10.47,24.1,19.04,38.52,24.9.3.12.54.38.82.58-.07.24-.14.49-.2.74ZM374.08,489.94h11.94c-1.64,2.98-7.98,3.12-11.94,0ZM387.9,492.67c.79-1.69,1.45-3.12,2.35-5.03h-18.18c-.11.83-.24,1.81-.45,3.39-5.92-1.55-11.77-3.08-17.62-4.61.04-.14.06-.27.1-.41h60.22c.01.38.03.75.04,1.13h-16.43c1.13,2.27,1.83,3.69,2.73,5.52h-12.77ZM402.56,489.86h12.2c-4.07,3.52-10.94,3.21-12.2,0ZM411.12,393.77c-.21-.41-.43-.82-.65-1.22.45-.93.71-2.02,1.38-2.73,1.37-1.46,2.92-2.74,4.46-4.02.56-.46,1.3-.7,1.96-1.05.29.7.68,1.37.85,2.09.33,1.47.01,3.47.88,4.38,7.97,8.41,16.15,16.64,24.28,24.91.65.66,1.41,1.2,2.36,2.01,1.27-1.07,2.26-1.89,3.47-2.9,1.52.97,3.05,1.95,4.59,2.93-3.42,3.49-6.6,6.74-10.02,10.23-1.18-1.44-2.27-2.76-3.33-4.03q2.93-4.31-.73-8.04c-6.97-7.08-13.99-14.12-20.9-21.26-2.43-2.5-4.64-5.18-8.62-1.29ZM426.88,475.91c-2.91,0-4.37-1.74-4.38-4.43-.01-2.71,1.55-4.31,4.09-4.44,3.14.19,4.73,1.83,4.72,4.49,0,2.65-1.54,4.39-4.44,4.38ZM428.98,479.17c-2.89,2.77-4.46,2.68-6.45-.61,2.36.22,4.52.42,6.45.61ZM428.81,464.22c-4.09-1.45-6.67,1.13-9.33,4.43-.33-3.22-.7-5.94-.82-8.67-.03-.56.77-1.44,1.38-1.68,7.09-2.83,14.23-5.55,22.17-8.63-2.42,7.68-4.76,15.07-7.08,22.48-.33-.04-.65-.06-.98-.1.14-3.99-1.84-6.59-5.34-7.83ZM439.92,465.18c2.26-6.53,4.16-13.13,4.86-20.46-4.66,2.39-8.67,4.66-12.86,6.52-4.17,1.84-8.54,3.27-13.35,5.07-.59-3.22-1.22-5.83-1.46-8.47-.06-.68,1-1.89,1.78-2.15,12.23-4.05,22.81-10.82,31.5-18.8,9.53,8.99,18.88,17.82,28.52,26.91-14.14,14.56-30.68,23.76-49.51,29.22,5.53-4.86,8.23-11.23,10.52-17.84ZM420.15,436.8c6.75-3.03,13.18-6.79,20.34-10.56.51.7,1.3,1.82,2.26,3.16-7.9,5.93-16.02,10.72-25.42,13.28-.92-3.13-.16-4.54,2.82-5.88ZM416.95,468.99c1.17,3.82,2.65,8.67,4.19,13.72-4.08.58-4.17.52-4.19-3.57-.02-3.76,0-7.52,0-10.15ZM417.23,491.27v-5.43h17.5c.07.23.14.46.21.68-5.67,1.52-11.34,3.03-17.72,4.74ZM480.22,458.79c-10.42,9.98-22.06,18.17-35.47,23.64-1.77.72-3.9.53-5.87.75,14.85-6.53,28.15-14.91,39.7-26.07.54-.52,1.53-.58,2.31-.85-.2.85-.12,2.01-.66,2.53ZM452.73,424.74c8.81-9.83,15.66-20.46,19.32-33.12,10.61,3.2,20.78,6.27,30.94,9.35,1.36.41,2.75.75,4.06,1.29.88.36,1.65,1.01,2.47,1.53-.7,1.01-1.21,2.63-2.14,2.94-3.62,1.17-4.07,3.05-2.11,6.06.36.55.4,1.58.14,2.2-5.92,13.98-14.28,26.32-24.27,36.63-9.64-9.12-18.97-17.95-28.4-26.88ZM488.75,449.74c-1.3,1.37-2.39,2.96-3.76,4.25-.61.58-1.68.66-2.54.97.26-.88.31-1.92.83-2.61,5.6-7.6,11.56-14.96,16.8-22.8,3.05-4.57,4.98-9.9,7.48-14.85.51-1.03,1.28-1.94,1.94-2.91.35.14.7.27,1.05.41-.26,1.64-.23,3.42-.85,4.92-4.98,12.15-11.84,23.11-20.95,32.62ZM524.22,430.1c-2.29,6.14-7.14,7.16-12.2,8.57-3.83,1.05-7.68,2.07-11.86,3.2,3.92-7.23,7.6-14.05,11.36-20.83.31-.55,1.03-.98,1.66-1.22,6.58-2.66,13.18-5.28,20.72-8.27-3.55,6.65-7.37,12.33-9.68,18.57ZM528.39,428.59c3.5-6.81,6.52-12.69,9.54-18.56.33.06.66.11.99.16,0,1.71.02,3.42,0,5.13-.03,1.84.19,3.3,2.66,3.16,2.39-.14,3.07-1.36,2.78-3.5-.19-1.41-.5-2.82-.51-4.23-.01-1.41.27-2.83.51-4.97,3.25,2.24,5.74,3.94,8.52,5.85,1.03-1.35,1.93-2.51,3.07-3.99-2.71-2.11-5.18-4.02-8.22-6.38,1.57-.19,2.44-.38,3.3-.38,9.14-.02,18.27-.01,27.41,0,3.66,0,5.79,2.16,6.14,5.81.11,1.17.95,2.28,1.59,3.72-18.43,5.8-37.54,11.81-57.77,18.19ZM589.63,409.19v-5.83c.31-.09.63-.17.94-.26.74,1.71,1.48,3.42,2.35,5.45-.97.19-2.08.41-3.29.64ZM595.91,340.84c-.02,18.87-.09,37.74,0,56.6.01,2.83-.86,3.72-3.66,3.7-7.95-.05-7.96.06-7.97-7.83,0-18.16,0-36.31.01-54.46v-1.69c1.45.85,2.75,2.25,4.07,2.28,2.68.05,6.47,1.84,7.54-3.05v4.47ZM602.06,405.39c-1.82.81-3.8,1.25-6,1.95-.38-4.64,1.25-6.58,5.51-6.38,1.88.09,3.72.95,5.59,1.45-1.69,1.01-3.32,2.18-5.11,2.98ZM631.69,397.6c-4.14-.17-8.3-.14-12.44-.05-2.14.05-3.05-.73-2.95-2.89.1-2.25.03-4.51.03-6.77-.58-.01-1.17-.03-1.75-.04-.06,2.16-.25,4.34-.12,6.49.15,2.5-.8,3.35-3.29,3.24-3.55-.16-7.11-.06-10.66.06-1.99.06-2.73-.74-2.72-2.72.04-17.78,0-35.56.09-53.34,0-.9,1.06-2.56,1.53-2.53,1.59.12,4.36.61,4.5,1.37,1.34,7.15,6.55,6.55,11.71,6.37,2.84-.1,5.7-.19,8.53.02,2.86.22,4.47-.85,5.16-3.61.26-1.02.64-2.16,1.35-2.85.65-.61,1.87-.98,2.74-.84.63.1,1.56,1.2,1.57,1.87.12,6.4.15,12.8-.02,19.2-.01.71-1.42,1.99-2.11,1.94-1.25-.09-3.37-.82-3.5-1.56-.38-2.26-1.56-2.59-3.43-2.58-6.52.05-13.04.09-19.56-.01-2.39-.04-3.42.69-3.35,3.24.15,4.73.11,9.48,0,14.22-.06,2.35.91,3.06,3.17,3.03,6.05-.09,12.09.01,18.14.01,4.61,0,4.61-.02,5.16-4.63,5.45-.88,5.58-.78,5.59,4.12,0,5.22-.09,10.44.04,15.65.06,2.53-.68,3.7-3.41,3.59ZM621.35,373.92c1.71.09,4.64-1.57,5.28,2.46-6.59,0-12.83.08-19.07-.11-.67-.01-1.8-1.48-1.85-2.33-.21-3.54-.21-7.11,0-10.65.05-.83,1.2-2.26,1.87-2.27,6.03-.1,12.07.05,18.1.15.15,0,.29.33,1.3,1.52-3.99,0-7.11.09-10.22-.04-2.31-.1-3.16.82-3.1,3.1.26,9.83-1.14,7.71,7.7,8.16ZM619.81,370.63c-1.64-.01-3.45.31-3.5-2.3-.06-2.58,1.64-2.42,3.35-2.41,13.04,0,26.09,0,39.13,0v.08c12.8,0,25.61-.01,38.41.02,1.87,0,4.24-.73,4.14,2.7-.09,3.16-2.25,2.48-4.02,2.46-25.84-.16-51.67-.36-77.51-.55ZM652.97,388.57h-.01c0,3.79-.09,7.58.04,11.36.08,2.39-.63,3.49-3.22,3.35-3.18-.17-6.39-.1-9.59,0-2.19.07-3.27-.61-3.24-3.01.09-7.82.06-15.64.01-23.45-.01-2.08.78-3.05,2.94-3,3.43.08,6.87.09,10.3,0,2.24-.07,2.85.98,2.8,3.03-.09,3.91-.03,7.82-.03,11.73ZM676.16,405.25c-5.65.1-11.31.04-16.96-.18-.78-.03-1.53-1.14-2.29-1.74.83-.58,1.62-1.6,2.49-1.67,2.81-.21,5.65-.08,8.47-.08h0c2.71.01,5.43-.13,8.12.09.86.07,1.64,1.13,2.45,1.72-.76.65-1.52,1.84-2.29,1.85ZM657.74,397.66c-.78-.03-2.13-1.52-2.16-2.37-.19-6.27-.06-12.56-.13-18.84-.02-2.06.9-2.68,2.81-2.63,3.79.08,7.58.02,11.38.02v.06c3.67,0,7.34.09,11-.04,2.04-.07,2.81.8,2.81,2.7,0,6.4.09,12.8-.09,19.2-.02.79-1.42,2.21-2.19,2.21-7.8.07-15.62-.03-23.43-.31ZM700.79,434.45c-6.08-9.31-12.21-18.58-18.19-27.95-.93-1.46-1.13-3.38-1.67-5.08.43-.15.85-.3,1.28-.44,6.49,11.03,12.97,22.07,19.46,33.1-.3.12-.59.25-.89.37ZM702.11,404.6c-.48,7.5-.12,15.07-.73,22.77-4.24-7.11-8.48-14.21-12.72-21.31.08-.06.15-.11.22-.16,2.77,3.4,5.53,6.8,8.81,10.82.71-4.53,1.24-8.01-1.83-10.99-2.68-2.6-5.23-5.35-8.43-8.65-.27,2.41-.43,3.75-.58,5.09-.14,0-.28,0-.41.01v-16.78c3.47,2.57,6.59,5.19,10.01,7.32,4.55,2.83,5.98,6.58,5.65,11.88ZM688.8,402.88c.28-.27.56-.54.83-.81,2.4,2.71,4.79,5.4,7.19,8.1-.37.33-.74.65-1.12.97-2.3-2.75-4.61-5.5-6.91-8.26ZM746.79,363.12c-.35,0-.7,0-1.05,0,0-2.96.07-5.92-.01-8.89-.16-5.36-.21-5.35-5.43-5.62-1.12-.06-2.24-.21-3.36-.31v-.75c2.75,0,5.5-.09,8.25.07.57.03,1.53.95,1.55,1.5.12,4.66.07,9.33.07,14.01ZM734.95,370.63c-.02-.23-.05-.46-.07-.68h11.53c.01.23.03.46.04.68h-11.49ZM743.63,382.15c-2.25-3.83-6.7,6.37-7.57-1.97-.75-7.14-.3-7.19,4.71-7.03,3.54.11,3.76.7,2.86,9ZM746.27,366.25c0,.25,0,.49.01.73h-11.39c.02-.24.04-.48.06-.73h11.31ZM736.03,352.89c.15-.98,1.14-1.82,1.74-2.71.35.11.7.21,1.04.31.03,2.94.98,4.71,4.11,5.3.69.13.9,3.91.88,6.01,0,.59-1.55,1.59-2.47,1.69-5.08.55-5.39.2-5.39-4.94,0-1.89-.19-3.81.09-5.65ZM617.32,105.96c9.46,11.39,19.04,22.66,28.52,34.03,8.27,9.9,16.45,19.88,24.7,29.81,10.21,12.3,20.44,24.58,30.67,36.87,14.39,17.3,28.81,34.58,43.11,51.96,1.03,1.25,1.73,3.2,1.74,4.82.11,26.1.06,52.21.12,78.31,0,2.32-.75,3.28-3.08,3.08-2.12-.18-4.27-.18-6.39-.29-.46-.03-.98-.09-1.35-.33-1.65-1.09-.95-9.86.62-11.07.93-.72,1.92-2.02,1.98-3.11.23-4.26.26-8.55.01-12.8-.09-1.48-1.17-2.91-1.86-4.49,2.36-1.15,2.54-1.96,1.87-16.46-.06-1.37-1.17-2.68-1.73-3.89.47-1.08,1.59-2.57,1.72-4.15.29-3.54.14-7.11.08-10.67-.04-2.24.73-4.67-2.73-5.64-1.08-.31-1.31-3.07-2.27-4.46-2.42-3.49-5.03-6.84-7.74-10.47,3.06-1.87,1.74-3.56.17-5.53-3.08-3.87-5.97-7.89-8.98-11.9-1.23.62-2.16,1.09-3.3,1.67-23.7-30.99-47.39-61.98-71.29-93.25,3.35-1.7,2.91-3.53.83-5.87-2.28-2.56-4.24-5.41-6.17-8.25-1.77-2.61-3.53-4.6-6.66-1.5-7.42-9.75-14.7-19.31-22.06-28.99,5.16-1.57,6.47-1.03,9.48,2.61ZM735.28,296.47v12.6c-.16,0-.31,0-.47,0v-12.63c.16,0,.31.01.47.02ZM734.81,288.44v-12.65h.48v12.64c-.16,0-.31,0-.48.01ZM735.11,317.08v12.63c-.16-.01-.32-.04-.48-.05v-12.56c.16,0,.31-.01.48-.02ZM680.07,533.83c-2.08,2.75-4.39,3.89-7.81,3.57-3.14-.29-6.34-.06-10.45-.06,17.57-24.29,34.49-47.68,50.55-69.87,3.62-.95,6.88-.89,8.33-2.48,1.2-1.31.25-4.58.25-7.53,1.15-1.68,2.63-4.43,4.72-6.59.87-.9,3.05-.79,4.59-.64.61.06,1.52,1.45,1.55,2.26.16,4.02.17,8.07.01,12.09-.04,1.08-.68,2.26-1.37,3.15-16.78,22.04-33.64,44.02-50.38,66.09ZM724.17,482.9c-2.79,3.67-5.58,7.33-8.37,10.99-.32-.27-.64-.55-.96-.82,2.81-3.62,5.61-7.24,8.42-10.86.3.23.6.46.9.69ZM675.17,539.73c-8.59,11.31-16.56,21.84-24.61,32.31-.55.7-1.74,1.25-2.66,1.28-3.64.15-7.29.06-11.63.06,1.92-2.89,3.43-5.33,5.11-7.66,5.56-7.79,11.23-15.5,16.75-23.31,1.35-1.92,2.79-2.89,5.24-2.74,3.62.22,7.27.06,11.82.06ZM675.54,511.4c2.63-3.44,5.25-6.87,7.88-10.31.21.16.41.31.61.46-2.58,3.5-5.16,6.99-7.73,10.49-.26-.21-.51-.42-.76-.63ZM688.1,494.11c2.72-3.62,5.43-7.25,8.15-10.87.22.16.45.31.67.47-2.64,3.67-5.28,7.33-7.92,11-.3-.2-.59-.4-.89-.6ZM726.28,386.33c-3.28.06-5.89-2.21-5.97-5.21-.07-2.73,2.83-5.69,5.67-5.8,2.73-.1,5.8,2.9,5.8,5.67s-2.53,5.28-5.5,5.33ZM728.62,391.6c.07.73-1.52,2.21-2.47,2.32-2.91.36-3.12-1.64-2.7-4.39,2.11.45,4.83-1.47,5.17,2.06ZM731.89,408.15c.05,11.24.01,22.48.01,33.72q0,5.9-5.43,5.62c-1.8-2.22-3.42-4.03-4.8-6-.68-.97-1.32-2.24-1.33-3.38-.1-11.47-.02-22.95-.11-34.43-.02-2.56.76-3.6,3.47-3.5,9.22.33,8.13-1.65,8.17,7.97ZM722.62,448.84c.05,2.95-2.52,5.54-5.6,5.63-2.93.09-5.53-2.56-5.5-5.63.03-3.17,2.11-5.23,5.33-5.28,3.32-.05,5.71,2.14,5.77,5.28ZM714.87,457.76c0,.23,0,.47-.01.7-1.44-.15-3.28.19-4.21-.58-1.01-.83-1.19-2.68-1.94-4.62,2.5,1.82,4.33,3.16,6.16,4.5ZM717.18,460.17c.56-.15,1.45.95,2.81,1.93-1.32,1.07-2.22,2.31-2.86,2.18-.91-.18-1.63-1.34-2.44-2.09.82-.72,1.55-1.77,2.48-2.02ZM730.82,396.67c-2.98.91-6.56.89-9.57.05-.93-.26-.8-4.31-.72-6.71,2.23,1.59-1.23,5.59,3.08,5.98,2.04.19,4.69.51,6.02-.55,1.12-.89.75-3.68,1.03-5.63.48.07.95.14,1.43.21-.4,2.32-.27,6.34-1.28,6.65ZM718.27,376.38v-15.04c2.43,1.02,5.06,2.98,7.7,2.98,2.67,0,5.34-1.94,8.01-3.04-.08,4.53-3.84,6.02-8.57,7.19,5.41.55,8.22,3.03,8.66,8.39-6.05-6-9.26-6.12-15.8-.49ZM715.25,279.02c-1.82,1.17-3.57,2.3-5.52,3.55-.11-4.16,1.87-5.5,5.52-3.55ZM714.87,274.84c.47-1.02,1.5-1.79,2.31-2.65.75.78,2.02,1.5,2.11,2.34.07.71-1.22,1.57-2.27,2.76-1.01-1.12-2.3-2.11-2.15-2.46ZM717.48,282.56c3,.09,5.23,2.5,5.15,5.59-.08,3.09-2.36,5.38-5.43,5.41-3.15.04-5.47-2.39-5.45-5.72.01-3.3,2.27-5.38,5.73-5.28ZM728.99,344.59h-5.3c-.3-2.65-.23-4.91,3.01-4.77,3.3.14,1.92,2.72,2.29,4.77ZM726.23,350.37c2.59.01,5.58,2.91,5.6,5.44.02,3-2.56,5.47-5.75,5.47s-5.78-2.31-5.75-5.4c.03-2.73,3.01-5.53,5.9-5.5ZM731.36,344.82c-.61-4.36-1-8.12-7.01-7.16-4.61.74-1.72,4.68-4.25,6.34.31-2.29.19-6.37,1-6.56,3.2-.75,6.84-.83,9.99.05.9.24.68,4.53.28,7.33ZM724.58,254.12c-.33.25-.66.51-.98.76-2.83-3.7-5.67-7.38-8.51-11.08.33-.25.65-.51.98-.75,2.84,3.69,5.68,7.38,8.52,11.07ZM641.66,144.64c-.43.37-.88.73-1.32,1.1-2.88-3.75-5.75-7.5-8.62-11.25.46-.36.92-.72,1.38-1.08,2.86,3.75,5.7,7.48,8.56,11.23ZM590.17,99.33c-3.25-4.51-6.37-9.13-9.88-13.43-1.88-2.31-1.66-3.58.76-4.98,1.1-.63,2.01-1.57,3.46-2.74,6.04,7.79,11.81,15.12,17.47,22.54,21.2,27.73,42.37,55.48,63.54,83.23,15.56,20.4,31.1,40.82,46.67,61.21,5.97,7.8,12.07,15.51,17.96,23.37.98,1.31,1.67,3.2,1.67,4.83.11,18.98.04,37.96.12,56.93.01,2.69-.95,3.45-3.55,3.4-8.12-.14-8.13-.04-8.12-8.09,0-8.78-.06-17.56.08-26.33.02-1.34.63-3.08,1.58-3.93,5.35-4.76,5.23-10.64-.53-14.95-.54-.41-1.08-.83-1.15-.89.53-2.28,1.36-4.16,1.3-6-.09-2.63-2.81-4.47-5.4-3.55-2.51.9-3.57-.1-4.88-1.94-12.94-18.23-25.91-36.44-38.96-54.6-27.36-38.04-54.76-76.06-82.15-114.08ZM696.32,253.17c-2.71-3.56-5.42-7.12-8.12-10.67.19-.16.37-.33.56-.5.38.35.81.65,1.11,1.05,2.38,3.2,4.73,6.42,6.46,10.12ZM684.57,235.63c-.2.15-.39.3-.59.45-2.81-3.65-5.62-7.31-8.42-10.96.28-.23.56-.46.83-.68,2.73,3.72,5.45,7.45,8.18,11.19ZM635.91,177.98c-12.74-18.24-25.45-36.5-38.33-54.65-2.16-3.05-3.4-5.9-1.24-9.93,1.8,2.34,3.59,4.54,5.25,6.84,17.57,24.39,35.14,48.8,52.68,73.22,6.29,8.75,12.52,17.54,18.73,26.34.51.71,1.2,2.11.93,2.4-2.61,2.85-.01,4.48,1.36,6.32,2.67,3.6,5.44,7.13,8.27,10.84.98-.38,1.9-.74,2.82-1.1.22.19.43.37.66.56-.61,1.05-1.22,2.11-1.97,3.38,3.03,4.07,6.02,8.32,9.29,12.33.93,1.13,2.71,1.58,4.09,2.34.22-.31.44-.63.66-.95,4.47,6.33,8.94,12.66,13.66,19.35-1.7.58-2.86.81-3.84,1.37-.75.41-1.71,1.17-1.81,1.89-.78,5.57.17,10.82,3.73,15.33.7.88,1.82,1.84,2.86,1.97,3.88.51,4.04,2.95,4.01,6.1-.14,12.93-.11,25.86-.03,38.78.02,2.76-.42,3.97-3.73,3.7-7.9-.64-7.94-.43-7.94-8.26,0-17.79-.04-35.58.06-53.37.01-2.98-.75-5.4-2.48-7.88-22.62-32.27-45.13-64.61-67.69-96.92ZM706.28,357.43c0,7.95.13,15.89-.06,23.83-.08,3.18,1.03,4.31,4.1,3.99,1.7-.18,3.44-.04,5.16-.04,0,.46-.01.93-.03,1.39-3.01-.16-6.04-.23-9.03-.61-.46-.05-1.05-1.5-1.05-2.31-.06-11.14-.01-22.29-.05-33.44,0-1.96.76-2.83,2.73-2.78,2.44.06,4.89.02,7.33.02-.02.23-.05.48-.08.72-.09.06-.19.16-.28.16q-8.76.37-8.75,9.05ZM712.17,383.39c-2.73.01-4.12-.49-4.06-3.69.18-8.76.05-17.53.07-26.29,0-.8.16-1.6.23-2.3.38-.2.59-.39.8-.4,7.88-.28,6.96-1.37,6.99,6.3.03,7.58-.14,15.17.06,22.74.09,3.25-1.44,3.62-4.11,3.64ZM658.28,526.02c15.1-21.5,30.28-42.96,45.26-64.54,1.37-1.97,2.21-4.76,2.24-7.18.22-20.16.26-40.31.16-60.47-.01-3.4.91-4.59,4.38-4.39,8.04.48,7.28-1.66,7.29,7.44,0,13.61-.04,27.23-.2,40.85,0,.87-1.15,2.33-1.97,2.49-5.41,1.07-6.96,6.12-8.44,11.14-.19.66.01,1.42-.04,2.12-.28,3.89-.46,7.68,6.14,7.38-4.92,6.97-9.06,12.99-13.43,18.84-.53.71-2.27.53-4.34.93-2.31,3-5.25,6.85-8.22,10.67-1.59,2.04-3.13,4.02.21,6.28-.21.2-.43.41-.65.61-1.06-.23-2.12-.47-3.46-.78-3.62,4.78-7.33,9.66-11.17,14.71,2.75,2.01,1.76,3.65.16,5.69-3.65,4.66-7.23,9.41-10.36,14.42-2.56,4.09-5.43,6.44-10.78,4.5,2.4-3.55,4.75-7.17,7.22-10.7ZM633.81,561.01c4.09-5.8,8.47-11.41,12.22-17.42,2.48-3.95,5.56-4.5,10.09-3.4-7.8,10.79-15.19,21.33-23.03,31.53-1.19,1.55-4.45,1.51-6.75,2.21-.23-.41-.48-.81-.71-1.21,2.73-3.91,5.44-7.83,8.19-11.71ZM596.33,614.18c8.55-11.91,17.06-23.87,25.2-36.06,2.32-3.47,5.1-2.49,8.98-2.7-11.59,16.08-22.78,31.61-34.33,47.63-1.89-3.4-1.95-5.93.15-8.86ZM587.38,653.81c-3.58,4.61-2.44,5.34-9.23-1.03,16.03-22.06,31.91-43.89,47.77-65.73,2.29-3.16,4.69-6.25,6.81-9.53,1.15-1.78,2.37-2.12,4.41-1.93,3.27.31,6.59.09,10.5.09-.8,1.2-1.4,2.24-2.12,3.18-19.37,25-38.72,50.01-58.14,74.96ZM641.28,591.65c-2.6,4.07-5.34,8.02-8.87,11.34-.38-.36-.75-.73-1.13-1.09,2.98-3.7,5.97-7.41,8.96-11.11.35.28.7.57,1.05.86ZM645.1,597.16c-9.22,10.97-18.63,21.79-27.68,32.89-2.68,3.28-5.65,3.77-9.94,2.94,7.44-9.71,14.71-19.2,22.33-29.14,2.45,2.98,3.97,2.29,5.69-.28,2.36-3.52,5.34-6.63,7.65-10.18.71-1.09.11-3.04.11-4.6-.46-.11-.91-.22-1.37-.33,3.08-4.01,6.11-8.05,9.28-11.98.41-.52,1.46-.72,2.22-.74,2.93-.09,5.87-.04,9.43-.04-6.18,7.48-11.91,14.52-17.73,21.46ZM680.94,554.27c-4.51,5.34-9.31,10.44-13.55,15.98-2.02,2.65-4.15,3.49-7.21,3.2-1.85-.18-3.74-.04-6.71-.04,4.58-6.17,8.46-11.48,12.45-16.73,3.8-5,7.68-9.94,11.6-14.83.69-.86,1.77-1.9,2.73-1.96,3.96-.22,7.95-.09,12.62-.09-4.3,5.23-8.07,9.89-11.92,14.46ZM746.19,453.89c-.17,6.52.04,13.05-.13,19.57-.04,1.5-.64,3.28-1.59,4.43-15.91,19.25-31.91,38.45-47.98,57.57-.84,1-2.46,1.75-3.77,1.84-3.53.26-7.08.09-11.6.09,10.99-14.43,21.37-28.05,31.87-41.85,1,.54,1.91,1.03,2.83,1.52.2-.05.51-.03.62-.16,3.43-4.37,6.96-8.67,10.15-13.21.58-.82-.16-2.58-.29-3.9-.31-.04-.62-.09-.93-.14,2.41-3.18,4.87-6.32,7.18-9.58.85-1.21,1.34-2.68,1.96-4.05.19-.41.21-1.25.4-1.27,5.01-.78,2.36-4.77,3.05-7.31.23-.88.02-1.89.02-2.84-.01-4.61,0-4.44,4.45-4.63,3.05-.13,3.85,1.05,3.77,3.92ZM734.89,461.13v-10.14c.13-.01.26-.03.38-.04v10.13c-.13.01-.26.03-.38.04ZM746.12,398.45c.14,15.17.02,30.35.02,45.52v4.54c-4.29-1.21-7.85-2.21-11.42-3.21-.1-.34-.2-.68-.3-1.02,4.05-.36,3.64-3,3.58-5.57-.06-3.2-.01-6.4.03-9.6.04-2.39.26-4.83-3.6-5.15,3.71-.46,3.67-2.77,3.59-5.23-.1-3.08.06-6.17-.03-9.25-.06-2.3,1-5.21-2.75-5.9-.31-.06-.67-.97-.68-1.49-.06-3.55-.14-7.11.05-10.66.04-.65,1.25-1.77,1.91-1.76,11.59.13,9.49-2.3,9.59,8.77ZM734.86,440.78v-12.66c.16.01.32.03.48.04v12.61c-.16,0-.32,0-.48.01ZM734.74,420.15v-12.67h.48v12.67h-.48ZM746.71,386.73c-.53-.05-1.08-.1-1.61-.14.3-4.22.61-8.44.91-12.65.83,4.31.95,8.57.7,12.8ZM763.61,330.97c-.09.06-.17.12-.26.19-2.71-3.29-5.4-6.58-8.2-9.98-2.77,5.82,1.22,13.07,9.7,17.99.14-1.47.28-2.84.41-4.22.14,0,.28-.01.41-.01v16.6c-5.22-3.99-10.01-7.58-14.7-11.33-.58-.47-.76-1.71-.77-2.59-.06-9.36-.04-18.72-.04-29.15,4.82,8.07,9.13,15.28,13.44,22.5ZM763.51,334.34c-.33.26-.66.53-1,.8-2.36-2.78-4.73-5.55-7.1-8.32.38-.31.77-.62,1.15-.93l6.94,8.44ZM750.88,294.05c3.28,4.71,7.26,9.1,9.58,14.24,1.57,3.49.8,8.04.38,12.32-3.4-5.89-7.13-11.63-10.05-17.75-1.16-2.42-.56-5.68-.75-8.57.28-.08.56-.16.84-.24ZM750.52,443.38c-2.34-11.39,6.54-17.77,9.95-26.57,3.67,11.6-4.24,18.36-9.95,26.57ZM765.75,402.69c-.16,0-.31,0-.48,0-.12-1.46-.24-2.92-.37-4.44-6.56,2.93-11.57,11.36-10.26,18.26,2.86-3.36,5.38-6.3,7.88-9.24.1.06.19.13.28.19-3.97,6.69-7.94,13.38-11.91,20.06-.23-.09-.46-.19-.7-.29,0-9.22-.04-18.45.04-27.68,0-.98.34-2.31,1.03-2.86,4.63-3.77,9.4-7.37,14.48-11.3v17.29ZM763.51,402.98c-2.34,2.8-4.66,5.6-6.99,8.39-.37-.31-.75-.61-1.13-.91,2.38-2.79,4.75-5.58,7.13-8.37.33.29.66.59.99.88ZM765.97,380.04c-.05.89-.77,1.98-1.51,2.56-4.46,3.48-9.01,6.84-13.56,10.26-1.34-3.84-.98-21.02.37-22.98,1.29,1.07,2.45,2.73,3.9,3.05,1.87.42,3.98-.14,5.96-.46,1.6-.26,3.17-.78,4.91-1.22,0,2.48.11,5.65-.07,8.8ZM755.44,369.99h7.47c.01.13.02.26.04.38-2.48.19-4.97.38-7.45.56-.02-.31-.04-.63-.05-.95ZM766.11,362.01c-.23,1.38-.04,2.83-.04,4.66-4.49-2.29-11.86-1.84-14.51.7-1.57-1.81-2.19-14.66-.98-23.35,3.57,2.65,6.74,5.43,10.32,7.54,4.19,2.46,6.01,5.65,5.21,10.45ZM770.32,351.28c.94,1.17,1.88,2.35,2.82,3.52-.78.46-1.55.93-2.32,1.39-.68-1.31-1.35-2.61-2.03-3.92.51-.33,1.03-.67,1.53-1ZM771.48,362.4c.56.94,1.63,1.92,1.55,2.8-.09.85-1.35,1.57-2.1,2.36-.73-.78-1.47-1.57-2.85-3.04,1.63-1.01,2.51-1.57,3.4-2.11ZM773.43,374.99h-4.34c.32-1.78.52-3.44,1.01-5.01.08-.25,2.09-.29,2.16-.08.52,1.55.77,3.19,1.17,5.08ZM770.62,386.09c-.64-.39-1.27-.78-1.92-1.17.73-1.3,1.45-2.58,2.17-3.87.73.43,1.46.85,2.19,1.28-.81,1.25-1.63,2.51-2.44,3.77ZM775.6,378.66h-5.86c0-.32.01-.64.02-.96h5.89c-.01.32-.04.64-.05.96ZM769.71,359.88c-.06-.33-.14-.66-.2-1h6.32c.02.33.04.66.06,1h-6.19Z"/>
      <path class="cls-1" d="M762.45,397.34c-2.57,1.82-4.99,3.87-7.89,6.14-1.15-6.56,1.91-10.63,10.18-14.25.81,3.2.73,5.97-2.29,8.12Z"/>
      <path class="cls-1" d="M720.73,288.18c-.32,1.42-2.34,2.45-3.61,3.65-1.24-1.34-3.25-2.57-3.47-4.06-.18-1.22,1.82-2.74,2.84-4.12,3.47.65,4.69,2.56,4.24,4.53Z"/>
      <path class="cls-1" d="M720.62,448.87c-.28,1.48-2.28,3.45-3.71,3.63-1.23.15-2.74-1.92-4.13-3.01.01-.55.03-1.1.04-1.64,1.37-.88,2.64-2.31,4.11-2.53,2.31-.36,4.1,1.48,3.69,3.56Z"/>
      <path class="cls-1" d="M100.39,329.96c-2.95-3.42-5.9-6.86-9.19-10.68-2.83,9.86,5.46,12.86,9.36,18.3.33-.06.67-.13,1-.19v-5.48c-.39-.66-.78-1.3-1.17-1.96ZM98.99,333.61c-2.4-2.96-4.79-5.93-7.19-8.89.36-.27.71-.55,1.07-.82,2.36,2.99,4.73,5.98,7.11,8.97-.33.25-.66.49-.98.74Z"/>
      <path class="cls-1" d="M279,365.4c0-.2,0-.4,0-.6"/>
      <path class="cls-1" d="M293.89,364.79v.6"/>
      <path class="cls-1" d="M474.55,302.9c-2.65-.14-4.67,2.77-3.33,5.04,1.62,2.72,3.4,5.37,5.32,7.89,1.64,2.16,4.54,1.64,5.64-.84.97-2.18-5.2-11.95-7.63-12.09ZM479.45,315.3c-.88-.61-1.47-.83-1.77-1.26-1.58-2.19-3.14-4.41-4.57-6.7-.26-.41-.06-1.65.21-1.76.61-.24,1.79-.27,2.06.1,1.72,2.38,3.3,4.85,4.77,7.38.23.4-.38,1.28-.7,2.24Z"/>
      <path class="cls-1" d="M315.49,302.86c-1.05-.32-2.94.11-3.6.92-2.07,2.54-3.89,5.33-5.46,8.21-.47.85-.19,2.68.47,3.45.68.8,2.95,1.53,3.28,1.16,2.95-3.24,5.61-6.73,8.64-10.5-1.43-1.48-2.21-2.91-3.32-3.25ZM315.73,306.22c-1.84,2.83-3.82,5.58-5.77,8.33-.11.14-.43.14-1.21.36-.14-.93-.67-2-.33-2.59,1.37-2.44,2.96-4.77,4.59-7.05.31-.43,1.27-.78,1.71-.6.5.21,1.17,1.32,1.03,1.55Z"/>
      <path class="cls-1" d="M314.4,431.81c-2.34-3.64-4.86-7.18-7.41-10.93-3.56,2.18-4.82,6.24-3.5,10.06.98,2.86,4.81,5.32,7.84,5.04,2.44-.22,4.17-2.46,3.08-4.17ZM310.26,433.68c-4.47-.14-6.44-4.59-3.99-10.47,2.19,3.21,4.07,5.86,5.74,8.62.14.21-1.15,1.87-1.74,1.85Z"/>
      <path class="cls-1" d="M485.23,426.15c-.95-1.47-2.07-2.83-3.13-4.23-.98.8-2.15,1.46-2.9,2.44-1.62,2.16-3.15,4.41-4.48,6.76-.55.98-1.04,2.95-.59,3.33,1.13.94,2.87,1.84,4.23,1.67,4.6-.56,6.87-3.51,6.91-8.22,0-.59.23-1.32-.04-1.74ZM482.37,431.6c-1.47,2.31-3.73,2.86-7.11,2.2,2.28-3.51,4.25-6.54,6.7-10.32,1.98,3.21,1.93,5.73.41,8.12Z"/>
      <path class="cls-1" d="M348.19,275.13c-5.75,0-11.29-.09-16.84.04-3.54.09-2.15,2.92-2.38,4.81-.22,1.83.28,2.93,2.44,2.92,3.54-.02,7.08.19,10.63.2,7.19,0,7.31-.17,6.14-7.97ZM345.68,280.6h-13.24c0-.14,0-.28,0-.41h13.24c0,.14,0,.27,0,.41Z"/>
      <path class="cls-1" d="M459.64,276.88c0-.22-.15-.43-.29-.82h-19.2c-.08.89-.16,1.47-.18,2.04-.12,5.08-.07,5.16,4.98,5.23,2.83.04,5.66.02,8.49.01,6.59-.01,6.35,1.52,6.19-6.47ZM456.16,278.36h-13.33c.01-.16.03-.31.04-.47h13.29v.47Z"/>
      <path class="cls-1" d="M389.85,468.23c-5.11.98-6.54,6.68-10.37,9.56.21.28.42.58.63.86h28.88c-5.16-8.86-10.54-12.08-19.14-10.42ZM394.39,470.83c-.25,0-.49-.01-.72-.02-.06,0-.13,0-.19,0,.04,0,.06-.01.1-.01.26,0,.53.01.8.04ZM390.81,471.8c-.11.1-.2.22-.29.35-.06.08-.11.16-.16.23-.03.04-.05.08-.07.11-.06.11-.12.23-.18.36-.04.09-.09.2-.12.31-.04.12-.09.24-.12.38-.04.13-.07.26-.1.41-.62,2.95-2.48,2.85-4.73,1.94.46-.77.88-1.43,1.28-2,.06-.09.13-.19.2-.27.04-.06.08-.11.12-.16.09-.12.18-.23.27-.34.11-.13.21-.25.32-.36.16-.19.33-.35.5-.49.06-.06.14-.12.2-.17.09-.08.17-.14.26-.19.06-.04.11-.08.16-.11.09-.06.16-.11.25-.16.17-.11.35-.19.53-.27.11-.06.23-.1.35-.14.09-.03.19-.06.28-.09.28-.09.58-.15.89-.19.14-.02.27-.04.41-.06.21-.02.42-.04.64-.05.11,0,.23-.01.34-.01.24-.01.48-.01.73-.01.11,0,.23,0,.35,0-.41.03-.78.11-1.12.23-.06.02-.13.04-.19.07-.14.06-.28.13-.42.21-.02.01-.04.03-.06.04-.16.09-.31.21-.46.36-.03.02-.05.05-.08.08ZM396.78,476.54c-1.77-.12-3.55-.23-5.33-.35-.16-.4-.32-.79-.48-1.18,1.05-.71,2.15-2.06,3.11-1.97,1.22.11,2.31,1.42,3.46,2.21-.26.43-.51.86-.77,1.29ZM397.34,471.2c2.71-.09,3.35.44,6.31,5.01-4.89,1.76-4.81-2.43-6.31-5.01Z"/>
      <path class="cls-1" d="M403.25,453.54c-.09-.86-1.43-2.23-2.28-2.28-4.49-.24-8.99-.26-13.48-.06-.81.04-2.21,1.52-2.19,2.3.05,1.21,1.08,3.4,1.71,3.4,2.94.04,3.15,1.6,3.14,3.89-.01,5.79.06,5.8,5.91,5.59.68-.03,1.37-.16,2.37-.29,0-1.69.04-2.98,0-4.27-.1-2.56-.4-5.12,3.55-4.94.42.02,1.38-2.23,1.27-3.35ZM396.43,461.18c-.21,1.1-1.25,2.06-1.92,3.07-.78-.92-1.56-1.84-2.72-3.22,1.18-1.35,1.86-2.88,2.76-3.02,2.51-.38,2.13,1.84,1.88,3.17ZM388.6,454.37c0-.17,0-.33,0-.51h11.31c.01.17.03.33.04.51h-11.34Z"/>
      <path class="cls-1" d="M590.12,348.46c-2.6-.08-5.12-.65-5.03,3.65.08,3.86,2.21,3.82,4.79,3.71,2.46-.1,5.16.63,5.2-3.67.05-4.22-2.31-3.84-4.96-3.68ZM589.88,353.38c-.94-.04-1.83-1.05-2.75-1.63.93-.63,1.85-1.26,3.3-2.26,1.05,1.09,1.79,1.84,2.53,2.6-1.03.47-2.08,1.34-3.08,1.29Z"/>
      <path class="cls-1" d="M591.39,339.97c-1.3.06-2.7-.25-3.85.16-.92.33-2.08,1.42-2.21,2.31-.68,4.63-.21,5.04,4.44,5.07.47,0,.95-.04,1.42,0,2.5.23,3.9-.37,3.87-3.4-.03-2.76-.69-4.29-3.67-4.14ZM589.43,345.5c-2.44.31-2.71-1.17-1.73-3.95,1.83.79,3.55,1.53,5.28,2.28-1.17.58-2.31,1.52-3.55,1.67Z"/>
      <path class="cls-1" d="M593.88,365.31c-2.36-.85-5.5-.79-7.83.14-.97.39-.68,3.94-1,6.32h10.38c-.57-2.63-.5-6.07-1.55-6.45ZM589.8,370.66c-1.13-1.08-1.89-1.82-2.66-2.55,1.03-.48,2.06-1.34,3.07-1.31.94.03,1.84,1.02,2.76,1.58-.9.65-1.8,1.3-3.17,2.28Z"/>
      <path class="cls-1" d="M595.02,360.1c-.29-3.78-.14-3.72-5.99-3.87-2.92-.07-3.75.98-3.92,3.86-.25,4.17,2.18,3.96,4.74,3.73,2.82.11,5.49.5,5.16-3.72ZM592.26,361.61c-1.38.39-3.03.38-4.41-.04-.51-.16-.53-1.89-.84-3.17h6.17c-.36,1.34-.41,3.06-.93,3.21Z"/>
      <path class="cls-1" d="M197.98,387.8c-2.6-.2-4.49.29-4.48,3.8,0,3.95,2.34,3.7,4.25,3.59,5.56.01,5.33-.02,5.65-3.72.41-4.81-3.01-3.49-5.42-3.67ZM198.62,394.16c-1.31-1.05-2.16-1.74-3.02-2.42.96-.56,1.92-1.54,2.88-1.55.98-.01,1.97.93,2.95,1.46-.8.72-1.61,1.44-2.81,2.51Z"/>
      <path class="cls-1" d="M198.75,379.76c-2.56.07-5.28-.57-5.21,3.69.05,3.71,2.11,3.95,4.86,3.8,2.54-.07,5.08.39,5.08-3.8,0-3.93-2.12-3.77-4.73-3.7ZM198.53,385.91c-1.25-1.1-2.09-1.84-2.94-2.58,1.1-.56,2.19-1.52,3.28-1.53.9,0,1.79,1.16,2.68,1.8-.87.66-1.73,1.32-3.02,2.31Z"/>
      <path class="cls-1" d="M198.62,363.39c-2.61.06-5.09-.48-5.1,3.72,0,4.03,2.13,4.08,5.06,3.76,2.55.24,4.89.64,4.91-3.57.01-4.02-2.09-3.98-4.87-3.92ZM198.34,369.05c-1.45-.07-3.55-.19-2.56-1.99.69-1.26,3.18-1.54,5.07-2.34,1.32,4.01-.26,4.43-2.51,4.32Z"/>
      <path class="cls-1" d="M193.96,373.38c-.38.14-.06,4.54.49,4.67,2.54.63,5.48,1.02,7.87.26.94-.29.86-3.82,1.48-7.1-4.04.79-7.05,1.19-9.85,2.16ZM198.72,377.75c-1.28-1.09-2.19-1.86-3.1-2.63,1.06-.44,2.14-1.28,3.18-1.22,1.05.06,2.05,1,3.08,1.55-.9.66-1.81,1.32-3.15,2.3Z"/>
      <path class="cls-1" d="M27.34,363.41c-.59,0-1.31-.15-1.74.13-.89.57-2.23,1.34-2.29,2.11-.12,1.51.31,4.33.86,4.41,3.54.57,7.18.54,10.78.71.02-2.36.05-4.73.07-7.36-2.56,0-5.12,0-7.68,0ZM32.12,368.95c-2.09,0-4.19-.32-6.27-.67-.41-.07-.97-.79-.97-1.22,0-.43.53-1.12.95-1.24,1.23-.35,2.52-.46,3.78-.66,0,.06.01.11.03.18.82,0,1.74-.24,2.43.06.7.31,1.6,1.16,1.59,1.76,0,.63-.98,1.79-1.54,1.79Z"/>
      <path class="cls-1" d="M33.64,348.98c-.45,0-.85-.12-1.12.02-1.88,1-3.75,2.02-5.59,3.08-3.82,2.19-4.19,3.22-2.89,7.77,8.61-1.4,10.37-3.32,9.6-10.87ZM25.66,356.96c-.23-.31-.46-.62-.69-.93,2.16-1.49,4.33-2.98,6.71-4.62.23,3.79-1,4.83-6.02,5.55Z"/>
      <path class="cls-1" d="M23.95,373.57c-1.2,5.42,2.5,9.57,9.6,10.99,1.3-7.06-.05-8.64-9.6-10.99ZM31.58,382.13c-2.41-1.71-4.5-3.2-6.59-4.69,4.72-.56,6.76,1,6.59,4.69Z"/>
      <path class="cls-1" d="M647.7,375.48c-.7.07-1.41,0-2.11,0v.04c-1.42,0-2.86-.17-4.23.07-.71.12-1.69.85-1.89,1.5-1.25,4.19.04,5.86,4.36,5.92,1.3.02,2.6-.09,3.88.03,2.86.26,4.27-.56,4.31-3.84.04-3.42-1.56-4.02-4.33-3.74ZM647.55,380.6c-1.21.31-2.61.31-3.82,0-.89-.22-1.61-1.15-2.41-1.75.78-.48,1.53-1.09,2.38-1.4.63-.22,1.39-.04,2.09-.04.58,0,1.24-.16,1.74.04.85.34,1.6.92,2.39,1.4-.78.61-1.49,1.55-2.37,1.77Z"/>
      <path class="cls-1" d="M136.44,352.86c.36,2.41.33,6.2,1.03,6.34,3.5.68,7.26.82,10.75.19.82-.14.97-4.01,1.5-6.53h-13.28ZM144.98,357.76c-.51.21-1.17.04-1.76.04v.09c-.83-.04-1.74.13-2.46-.19-.8-.34-1.42-1.12-2.11-1.72.68-.46,1.33-1.22,2.07-1.33,1.39-.23,2.87-.29,4.23-.01.95.19,1.76,1.07,2.63,1.64-.86.51-1.69,1.1-2.61,1.48Z"/>
      <path class="cls-1" d="M89.94,366.47h77.46c-2.29,2.05-74.35,2.26-77.46,0Z"/>
      <path class="cls-1" d="M621.23,367.48c25.74-.66,51.48.46,77.22.23,0,.42,0,.84,0,1.26h-77.22c0-.5,0-.99,0-1.49Z"/>
      <path class="cls-1" d="M32.13,393.42c-2.04-2.47-5.12-4.09-8.07-6.33-1.23,5.34,3.3,11.55,10.62,14.11-.93-3.05-1.05-5.97-2.54-7.78ZM25.06,391.67c.29-.3.58-.6.86-.9,2.15,1.84,4.3,3.68,6.45,5.52-.36.38-.71.75-1.06,1.13-2.09-1.92-4.17-3.83-6.25-5.75Z"/>
      <path class="cls-1" d="M261.27,417.63c1.85,3.29,4.12,6.29,5.32,9.67,2.6,7.26,9.04,7.69,15.44,9.73-4.34-12.66-12.12-19.85-20.76-19.4ZM265.02,420.7c8.67.33,10.25,7.23,13.41,12.85-8.47-.3-9.75-7.55-13.41-12.85Z"/>
      <path class="cls-1" d="M33.23,332.44c-10.81,8.47-10.39,7.43-9.38,13.81,9.23-4.9,11.44-8.23,9.38-13.81ZM25.66,342.63c-.22-.23-.43-.47-.65-.7,2.14-1.97,4.27-3.93,6.57-6.04.12,2.69-.83,3.72-5.92,6.74Z"/>
      <path class="cls-1" d="M517.54,421c-1.36.58-3,1.31-3.7,2.47-2.61,4.33-4.88,8.86-7.27,13.31,6.15-1.12,12.53-1.34,15.14-8.48,1.29-3.53,3.56-6.7,5.39-10.03-3.67.48-6.66,1.49-9.56,2.72ZM510.36,433.92c3.14-5.36,4.52-12.07,12.93-12.45-3.47,5.19-4.41,12.33-12.93,12.45Z"/>
      <path class="cls-1" d="M100.85,387.2c-2.79,2.1-5.12,4.1-7.68,5.73-3.49,2.21-2.84,5.13-2.06,8.35,8.28-4.41,11.15-8.37,9.73-14.08ZM92.97,397.9c-.37-.41-.75-.83-1.13-1.25,2.39-1.97,4.76-3.94,7.14-5.9.3.34.6.68.89,1.02-2.3,2.04-4.6,4.09-6.91,6.13Z"/>
      <path class="cls-1" d="M506.57,298.88c4.45,8.94,7.83,18.8,20.21,19.12-2.79-11.04-10.89-18.81-20.21-19.12ZM510.28,302.21c6.44.38,8.89,2.79,12.63,12.3-8.37-.04-9.21-7.33-12.63-12.3Z"/>
      <path class="cls-1" d="M281.56,297.56c-3.93,1.63-8.86,2.31-11.55,5.12-3.78,3.97-5.91,9.51-8.74,14.38.23.33.48.66.71.99,4.17-1.75,9.31-2.53,12.23-5.5,3.63-3.71,5.43-9.23,8.01-13.96l-.66-1.03ZM265.91,313.9c1.84-7.32,5.81-11.41,12.22-12.32-2.73,5.65-4.44,11.93-12.22,12.32Z"/>
      <path class="cls-1" d="M764.75,389.22c-8.27,3.62-11.33,7.69-10.18,14.25,2.9-2.27,5.32-4.31,7.89-6.14,3.02-2.14,3.1-4.91,2.29-8.12Z"/>
      <path class="cls-1" d="M764.12,341.8c-2.59-2.92-5.95-5.17-9.09-7.77-2.41,5.55,1.06,10.37,10.35,14.25-.42-2.49-.08-5.16-1.26-6.49ZM762.68,344.99c-2.35-2.04-4.71-4.07-7.06-6.11.32-.36.64-.73.96-1.1,2.35,2.03,4.69,4.06,7.04,6.09-.31.38-.63.75-.95,1.12Z"/>
      <path class="cls-1" d="M90.31,332.16c.41,2.91-.02,5.69,1.17,7.01,2.61,2.86,6.04,4.98,9.33,7.55,1.47-5.62-1.63-9.95-10.5-14.56ZM98.96,343.06c-2.32-1.92-4.64-3.84-6.96-5.77.31-.37.62-.74.93-1.11,2.32,1.92,4.64,3.84,6.96,5.77-.31.37-.62.74-.93,1.11Z"/>
      <path class="cls-1" d="M686.79,388.9c.37,2.31,0,4.92,1.14,6.18,2.78,3.08,6.24,5.52,9.88,8.59.85-6.99-2.85-11.82-11.02-14.77ZM695.63,399.32c-2.32-2.04-4.64-4.08-6.96-6.12.27-.31.54-.61.81-.92,2.36,1.99,5.49,3.11,6.83,6.26-.23.26-.46.52-.68.78Z"/>
      <path class="cls-1" d="M697.32,333.96c-2.51,2.02-4.85,4.21-7.49,5.93-3.23,2.11-3.16,4.81-2.2,8.68,2.98-2.24,5.46-4.02,7.85-5.92,3.15-2.53,3.57-4.55,1.84-8.69ZM689.67,344.72c-.28-.31-.58-.63-.86-.93,2.24-2.01,4.48-4.02,6.72-6.02.36.35.71.7,1.07,1.05-2.31,1.97-4.61,3.93-6.93,5.9Z"/>
      <path class="cls-1" d="M754.6,351.1c-1.54,6.72.7,9.11,10.06,10.74,1.15-5.42-3.55-10.44-10.06-10.74ZM756.25,353.06c2.78,1.86,5.08,3.39,7.38,4.92-4.76.72-7.52-1.25-7.38-4.92Z"/>
      <path class="cls-1" d="M764.5,375.09c-2.21.9-4.25,1.72-6.27,2.56-4.41,1.84-5.19,3.85-3.23,9.49,2.36-1.42,4.53-2.96,6.89-4.09,3.55-1.68,3.8-4.27,2.61-7.96ZM756.67,383.97c-.98-3.2-.29-3.81,6.81-6.05-1.07,4.08-4.71,4.03-6.81,6.05Z"/>
      <path class="cls-1" d="M91.26,349.1c-2.04,6.24-.27,8.32,9.73,11.16,1.33-5.7-1.8-9.22-9.73-11.16ZM99.21,357.28c-5.66-1.34-6.76-2.23-6.37-5.85,2.58,1.73,4.87,3.28,7.17,4.81-.26.35-.53.69-.8,1.03Z"/>
      <path class="cls-1" d="M101.03,373.55c-2.19.85-4.38,1.59-6.49,2.51-4.39,1.92-5.14,4.07-3.03,9.14,2.14-1.22,4.17-2.61,6.39-3.57,3.64-1.59,4.38-4.2,3.14-8.07ZM92.75,381.49c.29-4.19,4.07-3.57,6.55-4.81-.83,3.35-3.85,3.84-6.55,4.81Z"/>
      <path class="cls-1" d="M697.45,350.38c-8.91,3.3-10.87,5.41-10.05,11.18,9.2-.88,12.5-4.61,10.05-11.18ZM689.34,358.71c-.21-.31-.41-.63-.62-.95,2.31-1.47,4.61-2.93,7.18-4.56.14,3.63-1.4,4.77-6.56,5.51Z"/>
      <path class="cls-1" d="M696.93,379.16c-2.4-2.13-5.97-2.93-9.09-4.32-1.69,5.65,2.88,10.55,10.82,11.59-.55-2.66-.25-5.97-1.72-7.27ZM695.84,384c-2.76-1.89-5.02-3.43-7.28-4.98,5.18-.46,7.58,1.32,7.28,4.98Z"/>
      <path class="cls-1" d="M66.74,379.9c-1.31,1.03-2.68,2.94-3.92,2.86-1.31-.08-3.18-1.85-3.6-3.25-.68-2.24.82-4.16,3.27-3.84,1.49.19,2.8,1.7,4.2,2.61.02.54.04,1.07.06,1.61Z"/>
      <path class="cls-1" d="M730.19,356.81c-1.35.92-2.61,2.37-4.08,2.63-2.46.44-3.63-1.41-3.65-3.7-.02-2.45,1.6-3.94,3.84-3.53,1.44.27,2.62,1.91,3.92,2.93-.01.55-.03,1.11-.04,1.66Z"/>
      <path class="cls-1" d="M66.57,355.03c-1.29.99-2.71,2.88-3.84,2.72-1.35-.19-3.14-1.94-3.53-3.35-.62-2.25.9-3.72,3.39-3.77,2.42-.04,3.34,1.32,3.98,4.4Z"/>
      <path class="cls-1" d="M731.2,380.79c-2.29,1.88-3.46,3.58-4.88,3.84-2.21.4-3.86-1.09-3.9-3.54-.03-2.36,1.37-4.12,3.63-3.87,1.44.16,2.72,1.81,5.15,3.58Z"/>
      <path class="cls-1" d="M716.49,283.65c3.48.65,4.69,2.56,4.24,4.53-.32,1.42-2.35,2.45-3.61,3.66-1.24-1.34-3.26-2.57-3.47-4.06-.17-1.21,1.81-2.74,2.84-4.12Z"/>
      <path class="cls-1" d="M712.83,447.85c1.36-.89,2.64-2.31,4.1-2.54,2.32-.36,4.1,1.48,3.69,3.56-.29,1.48-2.28,3.46-3.71,3.63-1.23.15-2.74-1.92-4.13-3.01.02-.55.03-1.1.05-1.64Z"/>
      <path class="cls-1" d="M70.49,290.37c-.92-1.37-2.49-2.68-2.62-4.12-.19-2.11,1.42-4.21,3.65-3.64,1.44.37,3.08,2.44,3.37,3.99.2,1.07-1.75,2.55-2.74,3.84-.55-.02-1.11-.05-1.66-.07Z"/>
      <path class="cls-1" d="M70.46,451.45c-.94-1.39-2.46-2.69-2.68-4.18-.35-2.31,1.51-4.04,3.66-3.6,1.4.28,3.34,2.24,3.42,3.55.09,1.36-1.78,2.84-2.79,4.26-.54,0-1.07-.02-1.61-.03Z"/>
      <path class="cls-1" d="M362.79,475.5c-3.27-.67-5.06-2.01-4.49-4.24.38-1.49,2.32-3.27,3.82-3.54.93-.17,3.18,2.14,3.29,3.47.11,1.35-1.67,2.87-2.62,4.31Z"/>
      <path class="cls-1" d="M431.02,472.47c-1.49.94-3.05,2.69-4.46,2.58-1.28-.11-3.17-2.1-3.41-3.5-.37-2.09,1.32-4.06,3.58-3.71,1.56.24,2.9,1.89,4.33,2.9-.02.58-.03,1.15-.05,1.73Z"/>
      <path class="cls-1" d="M31.68,351.41"/>
      <path class="cls-1" d="M25.66,356.96c-.23-.31-.46-.62-.69-.93"/>
    </g>
  </g>
  <path class="cls-1" d="M620.93,401.56c-.14-.01-.29-.02-.43-.04-.14-.01-.28-.02-.42-.03h.83s.02.06.02.06Z"/>
</svg>