<svg width="553" height="334" viewBox="0 0 553 334" fill="none" xmlns="http://www.w3.org/2000/svg">
<path d="M486.517 198.724C483.292 192.712 479.936 194.952 475.899 196.373C463.423 200.772 450.726 204.538 438.114 208.558C428.475 211.627 418.836 214.686 409.217 217.821C408.213 218.149 406.855 218.731 406.512 219.55C404.69 223.863 403.328 228.378 401.405 232.645C400.653 234.309 399.099 236.22 397.484 236.766C391.196 238.91 384.741 240.578 378.337 242.363C376.944 242.752 375.344 243.4 374.087 243.046C371.716 242.383 369.732 241.109 372.301 238.222C373.78 236.559 374.94 234.617 377.09 231.624C374.597 231.776 372.715 231.315 371.721 232.054C367.204 235.416 362.965 235.178 358.413 232.17C355.147 230.016 348.748 231.219 345.922 234.036C342.45 237.499 338.867 240.851 335.334 244.249C335.39 244.755 335.445 245.26 335.496 245.766C337.429 245.912 339.437 246.479 341.279 246.135C347.295 245.002 347.229 250.463 348.324 253.365C349.48 256.434 349.202 260.307 345.685 263.073C341.204 266.597 336.853 270.419 338.115 277.316C338.312 278.393 336.717 280.304 335.481 281.067C324.529 287.802 307.83 287.064 297.918 279.227C296.606 278.19 296.036 275.47 296.112 273.569C296.263 269.828 295.153 267.067 292.453 264.433C285.524 257.673 285.362 249.983 292.024 243.147C292.836 242.312 295.824 242.479 296.98 243.324C300.154 245.639 302.269 244.446 303.813 241.777C308.819 233.131 313.674 224.399 318.413 215.606C318.943 214.625 318.847 212.684 318.206 211.809C315.915 208.684 313.26 205.828 309.622 202.986C309.738 205.6 309.778 208.214 310.005 210.818C310.172 212.744 310.813 214.641 310.863 216.562C311.055 223.767 310.989 223.656 303.677 223.944C301.87 224.014 299.503 224.545 298.408 225.769C291.983 232.969 283.833 233.656 274.875 233.717C266.791 233.773 259.983 232.382 253.972 226.578C252.256 224.925 248.557 224.854 245.781 224.899C242.128 224.955 240.74 223.686 240.831 220.066C240.982 213.917 240.871 207.759 240.871 201.606C240.371 201.409 239.872 201.212 239.372 201.019C235.108 207.451 230.843 213.887 226.579 220.318L227.76 220.677C227.553 222.857 228.053 225.572 226.932 227.053C225.857 228.479 223.097 228.626 220.503 229.541C220.276 232.726 220.538 236.503 213.574 234.233C209.097 232.777 203.521 234.698 198.096 235.133C199.196 241.013 195.734 241.519 190.939 241.139C186.059 240.755 181.124 241.023 176.208 241.064C173.851 241.079 171.868 240.836 172.206 237.661C172.529 234.627 170.743 234.278 168.224 234.334C162.951 234.46 157.632 234.658 152.423 234.031C150.985 233.859 149.875 230.901 148.876 229.566C147.023 229.344 144.712 229.435 142.744 228.651C141.962 228.337 141.2 225.582 141.714 224.818C144.112 221.299 141.805 220.642 139.221 219.823C119.287 213.473 99.3427 207.152 79.4438 200.696C74.3466 199.042 69.4413 196.787 64.3391 195.139C62.8302 194.649 60.5289 194.664 59.3278 195.503C54.4023 198.931 49.7644 202.769 44.6118 206.768C51.2834 216.309 57.5261 225.289 63.8294 234.223C77.3292 253.355 90.8139 272.502 104.44 291.549C106.342 294.208 106.504 296.251 104.839 299.072C98.7623 309.361 92.9637 319.817 86.9481 330.147C83.9958 335.213 82.9966 335.208 79.3428 330.577C60.6853 306.904 42.038 283.216 23.3855 259.539C16.6987 251.049 9.8807 242.656 3.38061 234.026C2.0382 232.246 1.23578 229.601 1.21055 227.341C0.816907 189.947 0.534294 152.547 0.448501 115.147C0.443455 112.624 1.72026 109.707 3.27463 107.623C29.4314 72.5696 55.7598 37.6421 81.9418 2.60344C83.8596 0.0400065 85.4695 -0.763911 88.4117 0.793363C93.8923 3.70061 99.4992 6.37528 105.086 9.08534C108.235 10.6123 108.856 12.1746 106.726 15.5066C86.2668 47.5167 65.9995 79.6582 45.6917 111.764C41.9724 117.64 42.3559 120.107 47.8416 124.329C51.8588 127.418 55.9011 130.502 60.1756 133.207C61.5483 134.077 63.8698 134.37 65.4342 133.88C85.9893 127.408 106.539 120.906 126.968 114.045C132.797 112.088 139.428 111.496 143.743 106.066C144.324 105.333 145.853 105.363 146.554 105.151C146.554 103.144 145.903 100.843 146.761 99.564C147.458 98.5275 150.96 97.8652 151.495 98.5022C153.352 100.697 154.452 103.528 155.416 105.323C155.441 104.939 155.406 103.3 155.689 101.723C156.239 98.6893 157.152 96.2725 161.22 97.9865C162.31 98.4466 164.293 97.7489 165.413 96.95C167.659 95.3371 169.552 93.2338 171.666 91.4338C174.709 88.84 177.818 87.5609 181.951 89.6035C183.985 90.6097 186.756 90.5844 189.123 90.3417C194.114 89.8361 199.155 91.4844 204.212 88.7541C206.574 87.4799 211.409 86.8631 211.873 92.3844C217.263 92.0001 217.742 92.5714 216.183 97.7236C215.507 96.6871 214.936 95.8124 214.331 94.8922C209.461 99.7561 209.683 99.5134 205.01 95.236C203.798 94.1287 200.725 95.0691 198.136 95.0691C196.9 89.4822 191.843 93.8506 188.472 93.0265C184.076 91.9546 180.881 94.063 179.161 98.4112C177.919 95.9388 176.874 93.8658 175.618 91.363C173.816 92.8192 172.211 94.1186 170.601 95.418C168.951 96.7528 167.296 98.0826 164.434 100.388C168.32 99.9129 171.273 102.087 173.084 97.7994C173.296 97.2938 175.789 97.3697 177.001 97.7994C177.808 98.0876 178.212 99.4932 179.13 100.909C180.569 99.2859 181.674 98.0371 183.152 96.3635C184.46 97.759 185.686 99.0736 187.77 101.303C188.739 99.2859 189.572 97.5618 190.399 95.8427C190.642 96.6365 190.884 97.4253 191.126 98.2191C194.26 98.9067 197.374 99.9988 200.538 100.186C206.079 100.509 211.656 100.277 216.935 100.277C217.904 98.8663 218.691 97.7236 219.478 96.5759C220.059 97.6073 220.629 98.6488 221.224 99.6702C222.431 101.753 223.717 103.796 224.843 105.925C225.766 107.679 226.458 109.555 227.346 111.33C227.901 112.437 228.416 113.751 229.339 114.464C232.388 116.81 233.917 119.227 230.46 122.342C234.623 125.689 239.382 125.274 245.675 121.164C249.334 127.585 255.466 124.041 260.598 124.738C261.118 124.809 262.117 123.929 262.319 123.302C264.378 116.901 266.104 120.764 267.931 123.641C269.158 118.519 273.215 120.304 276.193 120.319C277.873 120.329 279.544 121.957 281.547 123.039C282.4 121.396 283.995 117.867 286.402 123.631C286.71 124.369 288.259 125.148 289.082 125.011C293.26 124.298 298.206 127.196 301.633 122.2C302.183 121.396 304.908 122.089 306.387 122.089C310.474 116.694 314.461 110.955 318.983 105.677C321.158 103.139 324.166 101.121 327.149 99.5286C329.192 98.4365 331.837 98.482 334.951 97.8753C335.375 91.2417 342.077 92.2731 346.901 91.7473C356.465 90.7108 365.776 92.6624 374.552 96.768C375.284 97.1118 376.414 97.4758 376.576 98.0522C379.124 107.194 384.201 100.681 388.592 100.504C391.423 100.388 396.464 102.719 396.853 104.681C397.782 109.358 400.794 110.43 404.13 111.517C415.465 115.213 426.85 118.752 438.236 122.291C451.488 126.412 464.751 130.497 478.023 134.547C482.374 135.877 488.076 132.11 488.394 127.605C489.05 118.266 488.556 109.575 483.07 100.959C465.225 72.9285 448.233 44.3515 430.878 16.0021C429.111 13.1201 429.101 11.3505 432.911 10.3291C444.579 7.19942 456.232 3.98375 467.799 0.495054C470.968 -0.460546 472.618 0.47483 474.365 2.87647C495.414 31.9186 516.539 60.9102 537.599 89.9473C541.828 95.777 546.082 101.602 549.883 107.709C551.422 110.182 552.537 113.392 552.547 116.274C552.618 139.73 552.396 163.185 552.224 186.64C552.133 198.926 552.093 211.212 551.725 223.494C551.664 225.541 550.412 227.837 549.08 229.516C525.719 258.866 502.252 288.131 478.831 317.436C475.969 321.021 473.002 324.555 470.514 328.392C467.728 332.695 465.21 332.149 461.965 328.994C454.566 321.804 447.012 314.776 439.527 307.678C436.913 305.195 434.445 302.546 431.675 300.25C428.364 297.5 428.374 294.886 430.625 291.346C439.24 277.796 447.774 264.195 456.05 250.438C466.416 233.196 476.499 215.778 486.522 198.749L486.517 198.724ZM490.756 232.898C488.596 237.383 486.441 241.868 484.281 246.347C487.435 242.909 489.853 239.031 492.088 235.057C492.255 234.764 491.129 233.737 490.6 233.05C490.847 231.826 491.099 230.598 491.357 229.344C490.145 228.762 489.086 228.251 488.202 227.827C489.938 233.99 483.11 237.105 482.969 243.03C485.81 239.324 488.283 236.109 490.751 232.903L490.756 232.898ZM10.7992 100.949C4.90974 106.774 1.84138 113.17 2.01801 122.124C2.65894 155.257 2.66398 188.415 2.15932 221.552C2.01296 231.088 7.41793 236.569 12.7876 242.651C12.8078 241.817 12.6008 241.018 12.0911 240.553C4.15779 233.313 3.25444 224.03 4.15779 214.1C4.47068 210.682 4.24863 207.213 4.20321 203.765C3.92564 181.958 3.4664 160.151 3.40584 138.344C3.37051 125.527 0.448501 111.941 11.3594 101.435C12.2274 100.469 13.1711 99.564 13.9483 98.5376C26.3984 82.0801 38.8283 65.6023 51.2532 49.1295C56.0121 42.8246 60.756 36.5096 65.5099 30.1996C63.8345 30.3866 63.0068 31.2411 62.2851 32.1765C56.8852 39.1792 51.4247 46.1313 46.1409 53.2199C34.3115 69.091 22.573 85.0277 10.7992 100.939V100.949ZM509.232 240.674C511.498 236.367 513.764 232.059 516.03 227.751C514.021 227.731 512.3 228.191 511.578 229.303C498.487 249.522 484.236 268.993 472.517 290.204C476.424 287.074 479.446 283.272 482.394 279.414C486.264 274.353 490.09 269.261 493.905 264.16C495.525 261.991 497.069 259.761 498.649 257.562C502.177 251.934 505.704 246.307 509.232 240.679V240.674ZM505.371 93.2388C507.385 95.4585 509.398 97.673 512.336 100.909C511.397 98.4719 510.933 97.2635 510.13 95.1753C516.847 102.072 516.953 103.038 512.3 109.6C506.996 117.078 501.677 124.546 496.373 132.019C495.147 133.748 493.946 135.493 492.729 137.232L493.829 138.157C495.111 136.918 496.585 135.821 497.645 134.411C503.933 126.028 509.953 117.442 516.408 109.191C519.794 104.863 519.582 101.369 516.524 96.8944C503.403 77.7065 490.589 58.3063 477.635 38.9971C476.903 37.9101 475.939 36.9798 475.081 35.9736C474.647 36.2264 474.208 36.4843 473.774 36.7371C474.395 38.2236 474.824 39.8365 475.667 41.1864C482.57 52.2441 489.555 63.2512 496.514 74.2785C498.255 77.0391 499.865 79.8857 501.758 82.5351C503.322 84.7294 505.502 86.5193 506.87 88.8097C508.409 91.3934 506.744 91.9445 504.432 91.5046C503.675 90.1799 502.918 88.8552 502.161 87.5305C501.773 87.844 501.384 88.1575 500.996 88.4709C502.454 90.0586 503.913 91.6462 505.371 93.2338V93.2388ZM15.8257 211.258C14.0442 212.618 12.2072 213.917 10.5317 215.394C10.1229 215.753 9.99172 216.784 10.1835 217.361C10.3147 217.765 11.4603 218.306 11.7177 218.129C15.2453 215.778 18.6922 213.316 22.1642 210.879C21.8867 210.388 21.6091 209.898 21.3316 209.407L15.6944 211.364C14.1552 200.903 11.7126 190.483 11.3039 179.976C10.784 166.658 11.8186 153.27 12.399 139.917C12.5958 135.371 13.4487 130.856 13.9735 126.563C12.0255 126.336 9.25996 126.017 6.08561 125.653C7.66017 131.857 4.08209 138.774 9.46687 145.802C9.46687 153.487 9.4164 162.836 9.48201 172.185C9.54762 181.225 9.73434 190.265 9.87565 199.644C9.68892 199.629 8.39193 199.518 7.0142 199.401V173.59L6.05533 173.57V218.21C6.19159 218.22 6.3228 218.235 6.45906 218.245V202.339C6.96373 202.339 7.47344 202.349 7.97811 202.354V214.565C11.1222 213.24 13.4891 212.244 15.8257 211.258ZM24.955 107.168C25.5758 105.646 26.1915 104.12 26.8122 102.598C22.8506 106.506 20.2869 112.452 11.9599 109.342C29.1589 85.7305 46.1914 62.3461 63.2238 38.9618C62.7948 38.6533 62.3709 38.3449 61.942 38.0365C43.4964 62.5181 25.0509 87.0047 6.28748 111.916C14.0745 113.433 20.6301 114.576 24.6573 107.072C24.7027 106.986 24.9651 107.022 25.1317 106.996C18.6972 114.919 20.6805 123.692 22.2652 132.782C25.4244 133.116 28.3414 133.323 31.223 133.758C33.2921 134.072 36.2242 134.001 37.2033 135.295C41.0135 140.331 45.934 138.031 51.4046 139.062C42.9665 127.908 35.3259 117.761 27.5793 107.694C27.1705 107.163 25.8584 107.325 24.9601 107.168H24.955ZM85.1061 45.3324C91.1167 35.8421 97.1272 26.3468 103.365 16.4925C99.0298 14.2678 95.1893 12.2909 91.3841 10.3393C82.5071 18.5402 73.9429 26.4581 65.0658 34.659C67.9677 36.3478 69.9157 38.0213 72.1614 38.6685C75.6386 39.6646 79.3277 39.8718 82.9007 40.5797C85.4846 41.0904 85.8833 42.7033 84.5863 44.8673C71.6517 64.7225 58.6717 84.5525 45.823 104.463C43.7892 107.618 42.3408 111.158 36.4967 110.485C38.3438 112.654 39.3885 113.883 40.8823 115.637C49.4969 102.036 57.7381 89.0827 65.9187 76.0886C72.3532 65.8652 78.712 55.5912 85.1061 45.3375V45.3324ZM26.8475 222.386C26.7062 223.256 26.57 224.126 26.4287 224.995C26.8677 225.284 27.3118 225.567 27.7509 225.855C37.4152 213.402 47.0796 200.954 56.7439 188.501C56.3906 188.177 56.0374 187.853 55.6791 187.535C54.4527 188.688 53.0851 189.719 52.0354 191.013C49.3657 194.31 46.908 197.778 44.2434 201.08C38.4246 208.28 32.5301 215.414 26.6659 222.573C28.2556 220.162 29.714 217.649 31.4551 215.348C37.7231 207.092 44.0869 198.906 50.9554 189.992C46.479 190.402 42.9716 190.725 39.4591 191.049C39.4137 190.553 39.3683 190.063 39.3229 189.567C41.4526 189.37 43.6781 189.486 45.6968 188.895C47.9173 188.243 51.4954 188.895 51.3036 184.921C51.0967 180.593 50.592 176.28 50.2842 172.715H36.3252C36.6784 178.575 36.7642 184.279 37.4506 189.911C37.8492 193.188 37.0266 194.932 33.7968 195.503C31.3946 195.928 29.0226 196.59 26.6053 196.828C22.8153 197.197 21.4779 199.169 22.1693 202.779C22.5983 205.029 23.1786 207.269 23.3553 209.539C23.4612 210.884 23.3098 212.547 22.5983 213.599C18.783 219.221 18.7578 219.692 23.7186 224.399C24.7431 223.741 25.7928 223.064 26.8475 222.381V222.386ZM496.075 201.161C501.076 208.174 506.007 215.242 511.145 222.154C512.27 223.666 514.122 224.636 515.636 225.86C515.989 225.466 516.348 225.071 516.701 224.682C515.702 223.226 514.723 221.754 513.693 220.318C507.41 211.546 501.011 202.86 494.935 193.951C493.885 192.414 493.809 189.942 493.92 187.934C494.289 181.265 495 174.617 495.46 167.953C495.571 166.375 495.086 164.762 495.076 163.17C495.031 155.621 495.056 148.072 495.056 140.205C490.61 139.957 486.557 139.735 482.767 139.527C482.767 153.603 482.949 167.128 482.702 180.643C482.54 189.577 482.262 189.572 490.251 189.026C491.114 191.302 491.735 193.38 492.669 195.301C493.653 197.334 494.935 199.219 496.085 201.171C491.876 197.495 487.667 193.82 483.459 190.144C483.045 190.639 482.631 191.13 482.217 191.625C486.113 194.912 489.979 198.234 493.945 201.429C494.334 201.742 495.348 201.277 496.075 201.176V201.161ZM408.319 206.677C410.05 203.416 411.786 200.155 413.633 196.676C412.523 195.882 411.685 195.144 410.731 194.623C403.686 190.794 402.026 185.308 405.75 178.166C405.826 178.019 405.907 177.873 405.962 177.721C406.825 175.299 408.349 175.011 410.58 176.017C413.961 177.549 417.433 178.874 420.89 180.295C421.652 178.267 422.233 176.725 422.813 175.183C423.131 175.294 423.454 175.41 423.772 175.522C423.565 177.008 423.353 178.489 423.146 179.976C426.194 174.187 426.063 167.022 423.09 152.724C419.003 153.907 414.97 155.333 410.822 156.152C409.248 156.465 406.553 155.97 405.821 154.867C400.098 146.267 401.284 142.763 410.413 138.198C412.19 137.308 413.31 135.098 414.965 133.232C415.026 133.273 416.232 134.052 417.433 134.825C417.62 134.572 417.807 134.325 417.988 134.072C411.619 127.413 405.246 120.749 398.932 114.151C398.246 114.601 397.862 114.717 397.726 114.965C395.834 118.408 393.759 121.775 392.17 125.36C390.514 129.081 388.37 130.507 384.59 128.283C384.034 127.954 383.358 127.843 382.753 127.6C375.39 124.632 375.435 124.642 377.938 117.22C379.043 113.944 379.921 110.586 380.769 107.699C377.393 106.759 375.036 105.773 372.599 105.51C369.253 105.151 365.831 105.126 362.465 105.353C358.539 105.616 354.643 106.299 350.732 106.799C351.241 109.58 351.746 112.366 352.256 115.147C352.316 115.47 352.402 115.789 352.498 116.102C355.47 126.199 355.38 125.972 345.604 129.946C342.112 131.367 340.87 130.027 339.589 127.428C337.368 122.938 335.127 118.459 332.72 113.63C325.206 120.88 318.039 127.797 310.172 135.386C314.33 137.267 317.176 138.42 319.907 139.81C331.524 145.741 331.035 142.546 325.983 155.707C324.878 158.584 323.465 158.857 320.734 157.926C315.365 156.096 309.849 154.685 304.696 153.189C303.858 158.321 302.344 163.084 302.516 167.786C302.687 172.559 304.529 177.266 305.665 182.135C308.36 181.103 310.197 180.436 312.009 179.703C323.353 175.127 323.242 175.163 327.719 186.741C328.96 189.957 328.229 191.554 325.246 192.869C320.694 194.876 316.253 197.126 310.691 199.786C318.307 207.249 325.201 214.003 332.533 221.193C334.638 216.906 336.061 213.958 337.53 211.036C342.359 201.429 342.319 201.52 352.175 206.424C355.001 207.83 355.48 209.377 354.38 212.234C352.518 217.072 351.029 222.053 349.117 227.771C352.831 227.771 356.056 227.852 359.276 227.746C362.036 227.655 365.074 227.994 367.461 226.947C369.429 226.082 370.207 225.41 372.266 226.987C373.421 227.872 376.197 226.694 378.211 226.295C378.407 226.254 378.392 225.147 378.478 224.535C376.893 224.358 375.309 224.207 373.734 223.974C373.563 223.949 373.457 223.473 373.149 222.882C374.638 222.386 376.061 221.916 377.666 221.385C376.52 218.008 375.238 214.979 374.547 211.824C374.279 210.606 374.95 208.3 375.859 207.85C379.876 205.868 384.14 204.382 388.309 202.718C391.403 208.331 394.198 213.412 397.711 219.793C401.486 215.05 404.448 211.329 407.411 207.602C407.708 207.294 408.006 206.986 408.304 206.677H408.319ZM139.312 216.38C139.787 212.456 141.452 213.012 143.748 214.823C156.769 225.091 170.561 232.008 188.123 228.428C197.535 226.512 206.771 224.454 214.739 219.201C236.425 204.902 245.66 184.451 242.733 158.67C241.446 147.349 236.178 137.328 230.298 127.878C227.689 123.687 223.102 120.607 219.09 117.437C210.076 110.318 199.398 107.123 188.26 105.636C180.473 104.6 172.973 106.036 165.328 108.503C151.086 113.104 139.125 120.749 131.424 133.409C117.077 156.996 117.692 180.906 132.388 204.372C132.928 205.231 133.292 206.197 133.736 207.117C132.161 206.763 131.071 205.995 130.682 204.963C128.694 199.619 124.818 198.036 119.519 198.876C118.727 199.002 117.889 198.78 117.072 198.78C105.459 198.769 93.8419 198.775 81.4019 198.775C101.114 204.766 119.994 210.505 139.312 216.38ZM540.91 201.368V132.742C539.714 132.681 537.478 132.565 535.247 132.454C535.056 131.933 534.864 131.417 534.677 130.897C542.237 131.847 547.602 129.825 547.107 121.705C546.92 118.676 549.867 114.06 545.396 113.195C545.093 111.117 545.27 109.772 544.71 108.887C542.166 104.878 539.527 100.924 536.731 97.0916C520.88 75.3656 504.977 53.68 489.086 31.9793C488.899 31.7265 488.677 31.499 488.44 31.2917C482.58 26.2204 476.741 21.1239 470.837 16.1032C467.213 13.019 463.095 9.36848 458.452 10.0561C450.191 11.2797 442.152 14.0302 433.784 16.2043C434.607 17.7515 435.026 18.6413 435.525 19.4756C452.386 47.552 469.232 75.6386 486.179 103.659C487.784 106.314 490.07 108.559 491.241 110.015C491.417 113.109 491.553 115.556 491.69 118.004C491.947 118.024 492.199 118.044 492.457 118.059C492.603 116.643 492.749 115.223 492.926 113.504C496.494 119.288 491.392 123.267 490.393 128.561C499.376 123.09 506.89 116.967 511.528 106.385C506.158 106.385 501.309 106.294 496.464 106.415C492.543 106.511 489.646 105.293 487.647 101.622C484.518 95.8731 481.127 90.2557 477.67 84.689C468.773 70.36 459.765 56.0968 450.842 41.783C448.354 37.7938 448.879 36.7522 453.486 36.277C460.305 35.5691 467.133 34.3809 473.951 34.4416C478.533 34.4821 483.671 31.949 487.708 37.5865C503.908 60.2125 520.541 82.53 536.973 104.989C537.634 105.894 537.892 107.093 538.533 108.614C533.854 108.195 529.994 107.846 526.138 107.497C525.972 108.048 525.805 108.599 525.638 109.15C527.491 110.157 529.338 111.163 531.276 112.214C529.913 112.841 528.666 113.418 527.309 114.045C525.29 110.849 523.443 107.932 521.596 105.009C521.218 105.141 520.834 105.267 520.456 105.399C520.254 109.504 520.047 113.605 519.845 117.71C519.466 117.69 519.083 117.665 518.704 117.645L517.988 110.399C517.599 110.414 517.211 110.435 516.822 110.45V124.839C516.423 124.824 516.03 124.809 515.631 124.799V114.206L514.43 114.176V127.474C514.102 127.458 513.774 127.448 513.446 127.433C513.269 124.324 513.098 121.214 512.921 118.105C511.801 119.788 511.891 121.356 511.775 122.903C511.659 124.47 511.336 126.022 511.109 127.585L510.493 127.469C510.387 125.547 510.282 123.621 510.176 121.7C509.969 121.689 509.767 121.679 509.56 121.664C509.408 123.262 509.257 124.86 509.091 126.639C506.385 125.001 500.224 131.781 498.704 137.995C505.381 136.741 511.765 135.73 518.053 134.274C520.728 133.657 521.717 131.594 521.107 128.561C520.011 123.13 520.991 121.866 526.451 121.164C529.257 120.805 532.149 121.143 534.945 120.749C536.534 120.527 538.447 119.809 539.35 118.641C539.825 118.024 538.452 115.971 537.589 113.716C539.971 114.358 542.62 114.399 544.155 115.728C545.179 116.618 545.437 120.198 544.558 121.062C543.1 122.498 540.496 123.024 538.29 123.368C536.403 123.661 534.283 122.701 532.482 123.151C531.235 123.464 529.363 125.345 529.469 126.336C530.342 134.254 531.624 142.126 532.835 150.393H536.983V182.474C532.87 180.107 531.836 181.715 531.614 184.885C531.371 188.313 531.018 191.752 530.473 195.144C528.641 206.51 528.596 206.505 538.906 211.359C544.139 213.826 544.725 216.157 541.258 221.016C542.878 221.734 544.462 222.437 546.93 223.529V133.045C546.612 133.035 546.299 133.02 545.982 133.01V195.842C545.457 195.842 544.932 195.832 544.407 195.832V147.774C544.185 147.774 543.968 147.774 543.746 147.774V176.593C543.403 176.593 543.06 176.593 542.716 176.593V146.201C542.53 146.206 542.348 146.211 542.161 146.216V203.795C539.986 202.966 537.7 202.096 535.419 201.232C535.525 200.883 535.636 200.534 535.742 200.19C537.347 200.554 538.946 200.913 540.925 201.363L540.91 201.368ZM470.287 313.613L471.094 314.589C473.34 313.002 476.055 311.808 477.756 309.766C492.018 292.61 506.184 275.369 520.198 258.007C528.813 247.328 537.109 236.392 545.775 225.273C541.551 222.938 537.887 220.865 534.177 218.883C529.03 216.127 528.631 216.304 525.977 222.361C529.434 224.581 532.941 226.836 537.115 229.516C518.24 253.153 499.714 276.345 481.041 299.729C470.751 291.124 460.986 282.933 451.185 274.783C448.455 272.512 448.97 270.348 450.605 267.552C463.015 246.367 475.288 225.107 487.561 203.841C488.233 202.673 488.52 201.287 488.985 199.998C488.566 199.841 488.152 199.685 487.733 199.528C486.663 201.308 485.568 203.072 484.528 204.872C477.574 216.921 470.741 229.045 463.655 241.018C454.481 256.52 445.043 271.86 435.909 287.387C434.98 288.965 434.425 292.241 435.319 293.172C442.672 300.847 450.363 308.203 458.084 315.514C458.937 316.323 461.011 316.935 461.849 316.455C465.144 314.579 468.167 312.228 471.316 310.084C471.443 309.998 471.791 310.236 472.169 310.372C471.528 311.47 470.902 312.542 470.277 313.613H470.287ZM44.2383 209.483C43.885 209.711 43.5318 209.938 43.1785 210.166C45.0609 213.124 46.8424 216.147 48.8459 219.019C60.1605 235.249 71.571 251.413 82.7947 267.709C83.7183 269.049 84.3087 271.693 83.6173 272.907C78.7877 281.391 73.5644 289.648 68.4875 297.995C66.7666 300.827 65.0255 300.382 63.3046 298.051C58.48 291.503 53.837 284.814 48.8358 278.408C37.6575 264.084 26.2672 249.927 15.0787 235.613C14.1552 234.43 13.3175 231.568 13.8171 231.154C16.3555 229.04 19.3482 227.478 22.3358 225.632C21.8816 225.096 20.7411 223.767 19.4794 222.285C15.1645 225.051 11.0868 227.665 6.70635 230.471C15.4774 241.534 23.8549 252.222 32.3686 262.8C41.0741 273.615 49.9259 284.308 58.6919 295.078C60.645 297.479 62.1792 301.58 64.4804 302.055C69.2697 303.036 69.406 306.297 70.3699 309.543C70.4254 309.73 70.8796 309.796 71.4297 310.044C71.7829 309.184 72.1261 308.35 72.55 307.314C74.6898 309.048 76.6832 310.868 78.8785 312.405C83.8646 315.899 87.9726 314.832 91.0864 309.346C93.0243 305.928 94.6241 302.278 96.8799 299.092C100.741 293.647 100.054 289.284 96.0876 283.863C84.7882 268.422 74.17 252.475 63.2541 236.746C56.9407 227.645 50.5719 218.584 44.2282 209.504L44.2383 209.483ZM257.974 195.771C261.048 196.555 264.817 196.418 266.518 198.228C268.779 200.625 266.473 208.775 264.076 210.434C272.635 216.137 276.213 216.026 284.656 209.327C279.786 210.656 279.458 208.027 279.438 204.806C279.397 197.44 279.332 197.44 287.729 195.973V181.953H276.722C277.257 174.677 277.752 167.897 278.252 161.117C277.434 161.036 276.611 160.96 275.794 160.879C275.415 167.69 275.037 174.5 274.638 181.624C271.827 179.784 267.144 180.441 268.648 175.704C269.213 173.919 271.146 172.574 273.371 169.95C273.175 169.571 272.392 167.912 271.479 166.33C270.641 164.884 268.794 163.387 268.976 162.148C269.178 160.773 271.045 158.801 272.413 158.599C276.228 158.038 280.195 158.513 284.025 158.022C285.453 157.84 287.679 156.238 287.825 155.07C288.31 151.232 288.007 147.288 288.007 144.295C285.165 142.768 283.096 141.418 280.84 140.538C279.604 140.053 278.035 140.169 276.657 140.341C270.586 141.085 264.53 141.944 258.216 142.799V147.516C258.378 147.051 258.534 146.591 258.696 146.125C261.986 146.859 266.059 146.661 268.345 148.588C270.55 150.443 268.36 156.233 266.074 157.042C263.096 158.093 259.256 155.914 257.964 152.223V195.766L257.974 195.771ZM428.455 153.073V178.131C445.119 178.131 461.748 178.196 478.377 177.979C479.452 177.964 481.359 175.795 481.41 174.561C481.707 167.75 481.551 160.92 481.551 153.861H433.103V161.385C433.512 160.733 433.865 160.166 434.844 158.594V172.397C434.597 172.407 434.35 172.417 434.107 172.427C433.068 167.326 432.023 162.224 431.029 157.35C431.009 157.385 430.751 157.845 430.343 158.584C429.767 156.905 429.242 155.378 428.45 153.067L428.455 153.073ZM120.463 156.399C119.56 156.04 119.136 155.722 118.702 155.717C108.608 155.611 98.5151 155.525 88.4218 155.459C81.74 155.414 75.0532 155.52 68.3764 155.333C65.3384 155.247 64.4249 156.293 64.5662 159.327C64.8186 164.717 64.7832 170.132 64.5814 175.527C64.4501 179.01 65.7976 179.976 69.1839 179.941C84.7024 179.759 100.226 179.845 115.749 179.774C117.213 179.769 118.676 179.329 120.665 179.01C115.548 174.07 115.578 161.107 120.468 156.404L120.463 156.399ZM538.391 214.56C538.528 214.196 538.659 213.832 538.795 213.467C537.438 212.785 536.09 212.072 534.712 211.435C531.17 209.792 527.496 208.391 524.114 206.46C522.812 205.717 521.233 203.694 521.394 202.465C521.959 198.137 518.836 196.12 516.186 195.063C509.853 192.535 503.141 190.943 495.525 192.358C501.667 200.954 507.465 209.064 514.046 218.266C514.324 214.155 514.495 211.577 514.667 208.998C515.384 208.993 516.1 208.988 516.817 208.978C517.352 215.899 517.887 222.816 518.407 229.576C521.031 224.313 527.248 220.248 527.46 211.536C530.66 212.421 534.526 213.488 538.391 214.555V214.56ZM62.0833 184.552C62.0833 173.231 62.1186 160.621 62.053 148.016C62.0378 145.499 61.6644 142.981 61.3767 140.468C61.3566 140.306 60.6096 140.225 60.1807 140.099C60.5491 141.585 60.8771 142.895 61.3515 144.781C58.3841 144.553 56.0374 144.376 53.0195 144.149V185.942C55.5024 186.058 57.3495 186.149 59.5448 186.256C59.1158 187.914 58.8585 188.925 58.808 189.117C63.3954 190.72 67.8667 192.277 72.9639 194.057C72.9639 190.402 73.8369 185.386 72.7973 184.951C69.9914 183.773 66.3729 184.547 62.0883 184.547L62.0833 184.552ZM88.6034 128.894H124.056V121.674C124.399 121.664 124.743 121.654 125.086 121.644C125.242 123.626 125.399 125.613 125.55 127.565C129.673 129.961 132.716 129.167 135.482 125.153C137.299 122.509 140.049 120.496 142.436 118.266C143.748 117.043 145.742 116.209 146.413 114.732C147.2 113.003 146.877 110.768 147.034 108.756C145.822 109.545 144.626 110.359 143.395 111.117C142.577 111.623 141.75 112.144 140.862 112.487C137.122 113.944 133.458 115.865 129.572 116.623C123.935 117.72 120.301 119.702 121.598 126.346C121.291 124.207 120.978 122.074 120.584 119.328C110.117 122.458 99.9786 125.492 88.6034 128.894ZM242.829 137.035C245.09 147.572 247.381 158.25 249.677 168.928C248.643 168.408 248.572 167.604 248.663 166.82C248.764 165.945 249.016 165.086 249.198 164.221C250.591 175.774 245.141 185.831 242.531 196.504H249.804C249.804 192.232 249.642 188.313 249.894 184.425C249.98 183.085 251.06 181.781 251.777 180.512C252.71 178.864 254.406 177.342 254.588 175.638C255.012 171.593 255.012 167.447 254.633 163.392C254.421 161.112 253.73 157.8 252.176 156.961C249.324 155.424 249.899 153.386 249.809 151.257C249.733 149.462 250.066 147.627 249.824 145.868C249.137 140.776 250.616 137.712 256.354 138.132C256.45 138.137 256.581 137.616 256.818 137.035H242.829ZM21.6444 134.982C25.5506 139.431 25.0812 142.362 20.2364 143.774C21.7504 145.357 22.8708 146.49 23.9407 147.673C24.6422 148.446 25.7877 149.311 25.7575 150.105C25.7322 150.873 24.5715 151.778 23.7136 152.294C22.9616 152.744 21.9371 152.734 20.297 153.088C21.5587 157.133 22.7042 160.803 23.9154 164.686C27.5339 164.388 31.0413 164.1 35.1341 163.761V136.832C30.8142 136.241 26.57 135.654 21.6444 134.977V134.982ZM37.4556 140.938C37.0367 148.633 36.6027 156.647 36.2242 163.66C41.3769 163.306 45.8179 163.003 50.8343 162.654V142.045C46.59 141.691 42.3155 141.337 37.4556 140.938ZM74.6696 41.1612C74.1145 40.7364 73.5543 40.3117 72.9992 39.882C68.9467 44.8976 64.864 49.888 60.8468 54.9289C54.4376 62.9731 48.5582 71.5128 41.5232 78.9554C36.7087 84.0469 34.5185 90.2557 30.1127 96.5759C31.9194 95.6304 32.626 95.2562 34.1097 94.4776C31.8639 98.0826 30.1228 100.868 28.3817 103.659C28.8258 103.953 29.275 104.251 29.7191 104.544C44.7026 83.4149 59.6861 62.2855 74.6696 41.1561V41.1612ZM510.827 136.281C511.548 144.639 512.174 151.9 512.815 159.337C517.074 159.716 521.202 160.085 524.528 160.384C523.287 158.452 522 156.45 519.906 153.189C524.448 153.477 527.243 153.654 530.044 153.836C530.019 154.271 529.994 154.706 529.974 155.14C527.814 155.338 525.659 155.535 523.499 155.737C523.423 156.157 523.352 156.576 523.277 156.996C525.401 157.623 527.526 158.245 528.318 158.477C529.711 160.277 530.453 161.238 531.195 162.204C532.012 161.218 533.325 160.323 533.536 159.216C533.92 157.219 533.642 155.095 533.642 153.366C529.696 152.446 526.113 151.652 522.555 150.757C521.102 150.393 519.709 149.806 518.286 149.321C519.275 147.976 520.521 146.742 521.177 145.246C521.818 143.779 522.454 140.806 522.07 140.619C518.694 138.986 515.086 137.833 510.827 136.271V136.281ZM527.425 173.095C525.275 174.354 523.988 175.102 522.277 176.103C526.612 177.468 529.898 178.505 534.031 179.804C533.446 175.936 532.911 172.417 532.547 170.026C525.29 170.617 518.967 171.128 512.129 171.684C511.589 178.282 511.039 185.012 510.448 192.227C514.98 191.494 518.846 190.872 523.509 190.118C521.778 188.738 520.168 187.858 519.159 186.529C518.306 185.401 518.139 183.743 517.67 182.322C518.775 182.084 519.921 181.963 520.98 181.584C522.111 181.184 523.156 180.547 523.59 180.33C522.459 177.64 521.626 175.653 520.551 173.095H527.415H527.425ZM323.162 220.915C315.874 233.753 315.708 229.384 325.877 238.247C327.103 239.319 328.284 240.609 329.727 241.205C330.807 241.65 332.735 241.64 333.497 240.957C336.328 238.414 338.832 235.502 340.709 233.52C336.182 229.005 332.079 224.914 327.926 220.774C327.709 222.791 327.492 224.823 327.164 227.832C325.458 224.884 324.388 223.039 323.157 220.91L323.162 220.915ZM508.979 189.82C509.504 182.868 510.004 176.331 510.468 170.147H497.544C496.918 176.851 496.322 183.197 495.707 189.82H508.979ZM343.702 253.259C340.896 256.424 338.993 258.568 336.399 261.49V249.785C336.207 249.75 336.01 249.72 335.819 249.684C335.612 250.872 335.4 252.056 335.052 254.058C334.441 252.445 334.163 251.595 333.805 250.781C332.175 247.096 328.92 245.938 325.66 247.222C324.408 247.712 324.121 251.145 323.762 253.299C323.414 255.377 323.47 257.531 323.459 259.655C323.429 266.814 323.449 273.974 323.449 282.185C327.89 280.354 331.539 278.848 335.193 277.341C333.472 269.034 340.144 265.439 343.903 260.287C344.706 259.185 346.043 257.825 345.867 256.808C345.609 255.312 344.211 254.012 343.707 253.254L343.702 253.259ZM510.746 160.318C510.327 153.512 509.903 146.606 509.489 139.947C505.674 139.583 502.772 139.098 499.875 139.143C498.851 139.158 496.933 140.498 496.968 141.155C497.286 147.152 497.937 153.128 498.508 159.216C502.424 159.57 506.098 159.903 510.746 160.323V160.318ZM549.661 109.651C549.05 111.051 548.818 111.34 548.818 111.623C548.747 147.061 548.626 182.499 548.732 217.937C548.747 222.467 547.692 226.057 544.796 229.576C539.557 235.932 534.758 242.656 529.777 249.229C530.115 249.492 530.453 249.75 530.791 250.013C536.923 242.085 543.08 234.177 549.141 226.194C549.661 225.506 549.656 224.338 549.711 223.388C549.989 218.65 550.397 213.912 550.412 209.175C550.513 177.837 550.539 146.505 550.539 115.167C550.539 113.665 550.069 112.169 549.656 109.656L549.661 109.651ZM289.203 254.123C288.703 254.579 288.199 255.034 287.699 255.489C290 258.249 292.029 261.308 294.673 263.68C297.363 266.091 298.499 268.604 298.171 272.189C298.024 273.792 298.423 276.315 299.488 277.002C302.672 279.06 306.306 280.425 310.5 282.402V246.044H298.832C298.095 250.68 297.454 254.73 296.808 258.775C296.631 258.785 296.455 258.8 296.283 258.81C296.137 257.304 295.991 255.797 295.789 253.684C295.188 255.832 294.769 257.344 294.305 258.998C292.211 256.995 290.712 255.554 289.208 254.118L289.203 254.123ZM423.171 199.867C422.667 202.536 422.258 204.7 421.849 206.864C421.334 206.783 420.825 206.702 420.31 206.622C420.118 204.978 419.931 203.335 419.674 201.11C415.626 206.121 412.013 210.586 408.738 214.64C413.128 213.518 417.544 212.406 421.955 211.268C426.361 210.13 426.78 208.775 424.019 205.069C423.706 204.645 423.903 203.836 423.847 202.89C425.695 203.194 427.299 203.451 429.182 203.76C428.566 205.782 428.077 207.38 427.829 208.189C437.695 205.59 447.491 203.012 457.287 200.433C457.221 200.241 457.16 200.049 457.1 199.862H423.176L423.171 199.867ZM419.714 125.658C418.115 118.206 413.26 114.717 404.882 115.278C409.803 120.324 414.652 125.299 420.456 131.25C420.739 126.897 420.905 124.283 421.087 121.492C426.179 123.429 425.008 125.765 421.915 128.323C422.354 128.616 422.788 128.91 423.227 129.203C424.352 128.121 425.478 127.034 426.618 125.931C426.754 127.008 426.906 128.217 427.103 129.815H453.739C441.869 126.189 431.377 122.989 420.567 119.687C420.244 121.922 419.977 123.788 419.704 125.653L419.714 125.658ZM444.372 149.083H469.328C469.151 145.023 469.126 141.034 468.682 137.09C468.586 136.251 467.006 135.058 466.002 134.941C461.162 134.37 456.287 134.112 451.422 133.738C454.496 134.593 457.7 134.132 460.663 134.79C462.071 135.103 463.65 137.429 463.913 139.052C464.064 139.977 461.788 142.202 460.501 142.288C456.62 142.546 452.689 142.065 448.778 141.838C445.831 141.661 445.331 139.826 445.906 137.368C446.113 136.494 446.457 135.654 446.739 134.8C446.204 134.734 445.674 134.668 445.139 134.603C444.892 139.285 444.645 143.972 444.372 149.078V149.083ZM304.595 185.31C306.568 189.81 308.284 193.729 310.086 197.844C316.066 194.8 321.34 192.111 326.745 189.355C325.246 186.058 323.994 183.308 322.758 180.583C321.088 181.528 319.76 182.282 317.429 183.601C318.473 181.796 318.923 181.018 319.826 179.46C314.476 181.513 309.985 183.242 304.595 185.31ZM28.1445 195.124C30.0421 194.659 32.8127 193.981 35.876 193.228C35.4117 186.61 34.9827 180.492 34.5437 174.217C29.931 174.495 25.7877 174.748 20.5544 175.061C22.79 178.13 24.3747 180.31 26.0451 182.6C25.5203 183.005 24.844 183.293 24.5412 183.798C23.6328 185.31 22.4771 186.857 22.2551 188.506C22.1693 189.133 24.521 189.916 25.4698 190.907C26.4034 191.883 26.9687 193.213 28.1496 195.119L28.1445 195.124ZM419.755 135.872C414.895 138.91 410.388 141.09 406.81 144.305C405.553 145.438 406.215 149.184 406.709 151.596C406.931 152.693 409.081 154.382 409.999 154.18C414.991 153.083 419.871 151.475 425.175 149.933C423.383 145.281 421.809 141.196 419.76 135.872H419.755ZM26.7113 226.057C26.1814 226.578 25.6565 227.099 25.1266 227.619C28.1395 231.503 31.2079 235.345 34.1601 239.269C43.6983 251.934 53.186 264.635 62.704 277.316C65.6613 281.254 68.6389 285.173 71.6063 289.101C72.0857 288.839 72.5652 288.571 73.0446 288.308C72.4945 287.049 72.1614 285.628 71.3691 284.546C57.8491 266.071 44.2938 247.616 30.6628 229.222C29.6888 227.908 28.0436 227.094 26.7062 226.052L26.7113 226.057ZM424.912 184.011C419.84 182.261 415.586 180.643 411.226 179.4C410.211 179.111 408.223 179.759 407.739 180.588C406.22 183.212 405.2 186.129 403.863 189.218C409.167 191.858 414.062 194.295 419.588 197.045C421.405 192.591 423.035 188.592 424.907 184.006L424.912 184.011ZM469.883 184.198H442.394C442.682 187.434 443.398 190.225 443.05 192.879C442.576 196.459 444.327 196.621 446.956 196.57C451.695 196.489 456.439 196.605 461.183 196.585C467.42 196.56 468.324 195.716 469.03 189.613C469.217 188 469.535 186.397 469.888 184.198H469.883ZM314.239 115.693C313.967 115.526 313.699 115.354 313.427 115.187C311.928 118.514 310.278 121.78 309.051 125.203C308.759 126.017 309.637 127.908 310.444 128.283C311.267 128.662 313.255 128.151 313.73 127.393C318.837 119.242 330.479 116.654 331.897 106.284C330.611 104.448 329.566 102.947 328.229 101.04C324.645 104.089 321.113 107.098 317.58 110.101C317.742 110.389 317.908 110.677 318.07 110.971C318.907 110.824 319.75 110.682 320.431 110.566V117.23C319.685 115.794 319.442 115.334 319.452 115.354C318.115 117.842 316.773 120.339 315.435 122.837C315.138 122.787 314.845 122.731 314.547 122.68C314.446 120.35 314.34 118.024 314.239 115.693ZM334.724 222.402C338.852 224.014 342.667 225.511 346.911 227.169C348.996 220.95 350.883 215.313 352.927 209.21C349.586 207.997 346.765 206.975 343.944 205.949C345.105 209.943 346.679 212.856 340.936 211.981C340.452 211.905 339.604 212.785 339.271 213.407C337.832 216.071 336.525 218.807 334.724 222.397V222.402ZM125.166 133.723C124.576 133.824 123.986 133.93 123.4 134.031C125.373 140.058 124.288 141.595 118.061 141.631C116.259 141.641 114.457 141.656 112.656 141.641C106.05 141.585 105.136 140.301 106.489 133.748C103.294 138.713 103.642 144.518 102.855 150.625C106.373 150.625 109.451 150.636 112.53 150.625C118.38 150.598 122.397 147.902 124.581 142.536C124.768 142.081 125.131 141.641 125.141 141.186C125.197 138.698 125.166 136.205 125.166 133.718V133.723ZM355.743 99.4022C353.502 101.88 352.175 97.4202 350.217 99.296C347.628 92.3945 343.03 94.3815 338.569 96.2674C339.563 97.5871 340.209 99.1696 341.385 99.8724C344.025 101.45 346.911 103.649 349.727 103.7C356.888 103.821 364.07 102.896 371.246 102.385C372.478 102.299 373.709 102.163 374.94 102.052C374.991 101.546 375.036 101.04 375.087 100.535C369.687 96.5405 363.136 95.7821 356.53 94.2501C356.202 96.3989 355.94 98.123 355.743 99.4022ZM381.536 227.417C386.911 225.188 391.17 223.423 396.071 221.39C393.199 215.788 390.646 210.798 388.011 205.661C385.488 206.702 383.424 207.552 381.536 208.331V227.412V227.417ZM243.127 219.464C242.799 219.676 242.471 219.889 242.143 220.101C243.813 220.849 245.433 221.78 247.169 222.311C249.874 223.135 253.503 222.811 255.264 224.515C261.159 230.208 267.795 232.276 275.733 231.159C277.818 230.865 280.008 230.911 282.097 231.194C290.147 232.281 294.088 226.224 299.599 222.068C293.21 218.529 289.314 219.727 287.331 225.385C286.412 228.009 285.499 230.203 282.016 229.986C277.646 229.718 273.235 229.581 268.87 229.824C265.408 230.016 263.606 228.792 263.258 225.364C262.854 221.436 260.356 220.551 256.824 220.485C252.251 220.399 247.694 219.823 243.127 219.459V219.464ZM334.093 112.381C338.09 117.25 341.168 121.614 344.903 125.315C347.098 127.494 352.488 125.729 351.958 123.53C350.646 118.074 348.824 112.745 347.083 106.961C342.728 108.781 339.15 110.273 334.093 112.381ZM308.794 139.229C307.78 141.727 306.361 144.659 305.463 147.748C305.191 148.694 306.079 150.833 306.871 151.096C312.347 152.906 317.938 154.362 323.722 155.995C324.701 153.33 325.458 151.268 325.922 149.998C320.068 146.318 314.744 142.965 308.799 139.229H308.794ZM297.419 143.385C298.211 157.011 298.923 169.217 299.629 181.417L297.141 181.523C297.141 178.11 297.141 174.692 297.141 171.28C297.141 168.777 297.313 165.708 293.735 166.304C292.468 166.517 291.63 169.313 290.596 170.931C293.503 172.392 295.748 173.706 295.824 175.137C296.192 182.246 295.996 189.385 295.996 196.848C297.626 196.772 298.771 196.717 299.871 196.666C299.67 194.639 298.877 192.743 299.473 191.519C301.678 186.984 302.45 183.171 300.376 177.797C298.524 172.988 300.078 166.84 300.24 161.289C300.376 156.607 300.825 151.93 300.775 147.253C300.765 146.277 299.165 145.322 297.424 143.385H297.419ZM240.013 126.897C240.028 127.206 240.043 127.509 240.059 127.817C246.392 127.817 252.726 127.802 259.059 127.828C260.689 127.833 263.197 127.322 263.798 128.146C266.998 132.545 271.388 130.376 275.269 130.689C278.363 130.937 281.592 130.618 279.856 135.852C280.684 134.673 281.325 133.773 281.214 132.98C280.578 128.449 283.409 127.701 286.841 127.681C288.123 127.671 289.4 128.186 290.687 128.202C296.051 128.262 301.411 128.227 306.775 128.227C306.881 127.782 306.987 127.337 307.093 126.897C305.917 125.977 304.741 125.057 304.565 124.92C301.33 125.901 299.125 127.13 296.914 127.135C290.273 127.15 283.556 127.787 277.131 124.925C275.36 124.137 272.448 123.99 270.934 124.946C266.967 127.443 262.668 126.265 258.61 126.72C252.478 127.408 246.215 126.902 240.008 126.902L240.013 126.897ZM383.055 106.87C383.055 112.942 382.778 117.862 383.232 122.716C383.363 124.121 385.473 125.492 386.936 126.508C387.315 126.771 389.061 125.851 389.5 125.087C391.741 121.179 393.759 117.144 396.162 112.568C392.069 110.789 388.425 109.206 383.055 106.87ZM160.367 107.133C181.083 100.398 200.957 101.915 220.26 112.649C217.651 109.782 215.042 106.916 211.348 102.861H158.464C159.221 104.559 159.746 105.748 160.362 107.133H160.367ZM74.7049 135.932C64.1827 138.198 63.5569 139.224 65.7572 150.145C76.4965 151.439 79.3933 151.859 74.7049 135.932ZM374.567 239.602C374.673 239.977 374.784 240.351 374.89 240.725C376.308 240.396 377.777 240.199 379.144 239.709C383.883 238.01 388.481 235.269 393.33 234.713C398.185 234.152 399.76 231.841 400.481 229.187C397.09 229.384 393.563 229.242 390.171 229.869C386.31 230.582 382.737 234.223 378.544 230.375C378.039 232.387 377.585 234.177 377.115 236.048C378.281 236.129 379.437 236.205 380.593 236.286C380.668 236.594 380.739 236.908 380.815 237.216C378.73 238.01 376.651 238.804 374.567 239.597V239.602ZM100.574 184.092C92.671 184.092 85.3483 184.031 78.0307 184.188C77.3343 184.203 76.1231 185.522 76.0675 186.296C75.6335 192.743 77.5614 194.644 84.2885 194.72C85.9237 194.74 87.5588 194.699 89.1989 194.714C95.5106 194.775 99.3007 191.236 100.569 184.097L100.574 184.092ZM436.908 134.825C438.947 140.442 438.044 142.03 433.073 142.182C427.718 142.349 427.532 142.637 429.106 148.315H442.071C443.146 141.12 440.91 134.957 436.913 134.825H436.908ZM265.443 222.513C265.302 226.482 266.478 228.216 269.955 228.044C273.538 227.867 277.141 227.812 280.724 227.973C284.807 228.16 285.645 225.996 285.408 222.513H265.438H265.443ZM20.6099 162.477C15.3058 154.276 19.8529 145.509 17.0469 136.832C15.8055 138.203 14.2309 139.128 14.2057 140.094C14.0038 147.748 14.0946 155.414 14.0946 163.63C16.9611 163.124 19.2776 162.715 20.6099 162.477ZM57.1174 143.021C57.506 142.687 57.8945 142.354 58.2882 142.02C53.6705 133.546 31.5308 106.233 28.1294 106.081C38.0814 118.762 47.5994 130.891 57.1224 143.021H57.1174ZM473.517 137.085C472.75 140.134 471.74 142.778 471.559 145.478C471.478 146.722 473.073 149.215 473.809 149.174C476.272 149.048 480.309 148.648 480.839 147.248C482.959 141.631 479.86 137.753 473.517 137.085ZM95.4215 147.091C95.2246 147.071 95.0228 147.056 94.826 147.036C94.7149 145.463 94.6039 143.891 94.4273 141.403C93.6501 143.668 93.1908 145.018 92.4137 147.288C91.909 144.973 91.6365 143.709 91.3589 142.435C90.5565 144.998 89.8045 147.395 88.9113 150.236C91.8434 150.479 95.159 150.924 98.4747 150.919C99.4235 150.919 101.21 149.559 101.175 148.891C100.937 143.931 100.332 138.986 99.8171 133.723C98.1719 138.728 96.7941 142.905 95.4215 147.086V147.091ZM246.104 201.232C248.406 203.659 249.975 205.317 251.55 206.97C249.905 207.931 248.264 208.892 246.619 209.852C246.417 209.524 246.215 209.195 246.009 208.866C245.181 211.081 244.353 213.296 243.541 215.47C248.562 219.408 251.837 218.337 252.811 212.107C253.372 208.502 252.912 204.741 252.912 200.605C250.445 200.832 248.239 201.035 246.099 201.227L246.104 201.232ZM326.851 244.628C322.551 241.139 318.983 238.242 315.072 235.067C313.245 238.414 311.731 241.18 309.844 244.628H326.851ZM300.886 220.829C301.184 217.892 300.659 214.287 301.764 213.685C306.861 210.899 304.408 206.51 304.676 202.789C304.721 202.177 302.94 201.434 301.688 200.519C300.665 207.122 298.129 211.16 294.078 212.633C296.475 215.52 298.786 218.296 300.886 220.829ZM121.765 186.974L121.755 185.229H102.855C103.203 188.238 103.547 191.211 103.9 194.28H124.48C119.232 193.4 113.983 193.344 108.795 192.763C107.665 192.636 106.751 190.594 105.737 189.436C106.882 188.617 107.983 187.171 109.174 187.09C113.352 186.797 117.566 186.979 121.765 186.979V186.974ZM440.824 184.4C433.128 182.777 430.272 183.343 428.98 186.741C430.499 186.852 431.932 186.943 433.36 187.065C435.747 187.262 438.659 186.807 438.659 190.528C438.659 194.305 435.783 193.663 433.376 193.88C431.569 194.042 429.792 194.583 428.006 194.957C428.127 195.513 428.248 196.075 428.369 196.631C431.276 196.631 434.198 196.813 437.075 196.525C437.973 196.434 439.28 195.185 439.472 194.27C440.133 191.099 440.385 187.843 440.824 184.4ZM456.893 320.338L458.235 319.018C449.727 310.711 441.218 302.404 432.709 294.092L432.407 294.436C440.567 303.071 448.728 311.702 456.893 320.338ZM119.474 153.765C119.474 153.421 119.484 153.073 119.484 152.729H66.1458C66.1458 153.073 66.1458 153.421 66.1458 153.765H119.469H119.474ZM471.412 182.848C471.861 187.424 472.159 190.477 472.462 193.567C477.377 192.763 481.374 191.034 480.123 186.033C479.744 184.526 475.081 184.102 471.417 182.848H471.412ZM18.1471 115.172C14.5842 114.828 11.1928 114.272 7.81661 114.343C6.94859 114.358 5.68188 116.269 5.45983 117.473C5.3488 118.079 7.07476 119.591 8.10932 119.738C10.3349 120.051 12.6564 119.586 14.9223 119.738C18.0916 119.955 19.106 118.651 18.1522 115.172H18.1471ZM292.014 213.872C292.014 210.216 292.125 206.975 291.938 203.755C291.888 202.89 290.924 202.081 290.379 201.247C289.753 202.005 288.557 202.799 288.602 203.522C288.89 208.189 288.496 212.289 282.824 213.877H292.014V213.872ZM18.9293 190.351C18.8133 188.844 18.788 186.367 18.3439 183.965C18.2077 183.237 16.9157 182.721 16.1486 182.11C15.5733 182.893 14.4984 183.682 14.5034 184.461C14.5337 188.389 14.7457 192.328 15.1393 196.236C15.2201 197.05 16.3656 197.758 17.0167 198.517C17.6525 197.748 18.677 197.055 18.8385 196.201C19.1363 194.618 18.9243 192.935 18.9243 190.351H18.9293ZM263.798 213.978C261.981 211.91 260.25 210.176 258.842 208.214C258.373 207.562 258.893 206.278 258.66 205.358C258.277 203.826 257.656 202.349 257.131 200.853C256.551 202.425 255.632 203.957 255.466 205.575C255.188 208.28 255.39 211.036 255.39 213.983H263.793L263.798 213.978ZM477.791 152.198L477.826 150.903H443.863C443.863 151.333 443.873 151.768 443.873 152.198C449.51 152.198 455.147 152.198 460.784 152.198C466.421 152.198 472.124 152.198 477.791 152.198ZM522.691 162.098C519.946 162.098 517.448 161.809 515.076 162.229C514.041 162.411 512.653 164.004 512.563 165.055C512.477 166.011 513.769 167.776 514.733 168.008C517.312 168.625 520.042 168.61 522.691 168.848V162.098ZM287.613 166.79C286.886 165.248 291.105 159.433 283.747 159.797C275.96 160.176 281.512 166.436 279.861 168.817C280.008 168.125 280.306 166.739 280.704 164.868C283.455 165.753 287.426 162.917 287.618 166.79H287.613ZM174.477 236.144C174.306 236.614 174.129 237.09 173.957 237.56C175.421 238 176.874 238.773 178.348 238.819C192.322 239.254 194.174 238.95 195.3 236.847C188.547 235.785 181.502 236.377 174.482 236.139L174.477 236.144ZM530.281 181.958C529.913 181.584 529.545 181.21 529.176 180.836C528.303 181.548 526.814 182.155 526.658 183C525.997 186.696 525.613 190.452 525.391 194.204C525.346 195.003 526.39 195.872 526.935 196.707C527.622 195.994 528.798 195.352 528.914 194.553C529.519 190.376 529.852 186.16 530.281 181.958ZM526.385 133.961C525.315 142.591 526.648 149.205 529.529 150.251C531.084 142.677 529.893 135.882 526.385 133.961ZM90.3546 314.271C94.7503 313.138 103.097 298.192 102.28 293.788C98.0911 300.983 94.2204 307.627 90.3546 314.271ZM479.709 182.039L479.588 181.194H429.187C429.187 181.478 429.192 181.761 429.197 182.039H479.709ZM262.309 217.907C270.772 220.637 279.463 219.393 288.138 219.504C288.143 218.974 288.148 218.443 288.153 217.907H262.304H262.309ZM5.84842 229.45C10.3399 224.738 16.729 224.313 18.8032 217.34C14.0896 220 10.3803 222.093 5.84842 224.652V229.45ZM23.3502 166.178C23.7186 168.433 24.0063 170.228 24.3091 172.068C26.7315 171.76 28.7501 171.81 30.5215 171.173C31.7377 170.738 32.6108 169.348 33.6353 168.387C32.5805 167.649 31.5964 166.446 30.4509 166.274C28.2505 165.935 25.9593 166.173 23.3502 166.173V166.178ZM461.854 137.93C457.367 137.065 452.936 136.14 448.879 138.739C453.36 139.932 457.892 142.081 461.854 137.93ZM307.658 130.391C301.633 131.635 295.223 128.272 289.485 131.786C295.688 132.772 301.9 134.011 307.658 130.391ZM74.7504 182.216L74.6646 182.883H120.004C120.004 182.661 120.004 182.438 120.004 182.216H74.7453H74.7504ZM257.197 131.746C257.247 131.407 257.298 131.068 257.343 130.725H241.668C241.658 131.063 241.653 131.402 241.643 131.746H257.192H257.197ZM293.482 201.56C293.649 204.356 293.8 206.854 293.977 209.751C295.96 209.438 297.454 209.205 298.837 208.988C299.207 203.554 297.424 201.078 293.487 201.56H293.482ZM122.078 136.377C118.152 136.377 114.225 136.347 110.304 136.494C110.158 136.499 109.643 138.612 110.052 139.082C111.298 140.513 120.18 139.381 122.078 136.377ZM432.608 12.6651C432.775 13.1656 432.942 13.6611 433.108 14.1617C440.279 12.3162 447.456 10.4657 454.627 8.62018L454.107 6.72921C446.941 8.71119 439.775 10.6881 432.608 12.6701V12.6651ZM81.2303 133.814C77.2787 138.88 76.9305 148.284 80.4682 150.297C80.7206 144.882 80.9678 139.522 81.2303 133.814ZM122.017 191.044C122.017 190.624 122.017 190.204 122.012 189.785H108.23C108.23 190.204 108.23 190.624 108.235 191.044H122.017ZM98.2577 136.463C93.3019 136.463 89.2544 136.428 85.207 136.514C84.7629 136.524 84.0816 137.186 83.9756 137.651C83.8646 138.132 84.1624 138.946 84.5611 139.264C86.2921 140.665 95.7293 139.325 98.2577 136.463ZM279.599 175.865V179.395C288.027 180.471 288.345 180.269 287.871 175.264C285.236 175.456 282.622 175.643 279.599 175.865ZM499.002 126.569C498.654 126.189 498.306 125.815 497.958 125.436C492.765 129.268 487.572 133.101 482.379 136.934C482.762 137.434 483.146 137.94 483.524 138.44C488.682 134.481 493.84 130.522 498.997 126.569H499.002ZM20.5039 179.789C20.7865 179.339 21.0641 178.889 21.3467 178.439C19.4693 176.755 17.592 175.072 15.7146 173.383C14.7507 175.319 13.7868 177.261 12.5352 179.789H20.5039ZM504.417 161.526C501.5 162.244 499.29 162.659 497.211 163.422C496.857 163.549 496.787 165.905 497.044 166.001C499.002 166.734 501.076 167.159 503.479 167.776C503.797 165.642 504.024 164.135 504.417 161.526ZM259.64 130.118C259.493 132.894 259.367 135.27 259.226 137.909C260.846 137.545 262.173 137.252 263.425 136.969C263.562 132.594 262.301 130.31 259.64 130.118ZM149.824 100.575V112.937C154.048 109.545 152.312 105.788 152.449 102.517C152.474 101.95 150.869 101.313 149.824 100.575ZM483.105 77.2919C483.484 77.0644 483.867 76.8318 484.246 76.6043C480.526 70.4561 476.802 64.313 473.083 58.1648L471.967 58.8372C475.682 64.9905 479.396 71.1437 483.105 77.2919ZM426.482 185.442C424.71 189.825 423.07 193.88 421.178 198.567C425.585 193.882 427.353 189.507 426.482 185.442ZM46.5194 283.358C46.1813 283.661 45.8431 283.965 45.5 284.268C50.1328 290.199 54.7656 296.134 59.3984 302.065C59.5448 300.488 58.9695 299.406 58.2377 298.45C54.3518 293.399 50.4305 288.384 46.5194 283.358ZM210.692 227.397C206.746 228.868 203.233 230.178 198.403 231.978C210.213 232.135 210.778 231.922 210.692 227.397ZM104.743 14.1515C105.056 13.383 105.373 12.6094 105.686 11.8409C101.952 10.3696 98.2173 8.89827 94.4828 7.42695C94.2506 7.99828 94.0185 8.56962 93.7863 9.13591C97.4401 10.8095 101.089 12.483 104.743 14.1515ZM535.707 156.556C535.348 156.556 534.99 156.556 534.637 156.556V176.411C534.995 176.411 535.353 176.411 535.707 176.411V156.556ZM300.427 137.126H289.844C292.993 138.577 295.607 139.78 298.585 141.155C298.908 140.442 299.548 139.047 300.422 137.126H300.427ZM285.165 167.088C284.605 166.764 284.045 166.446 283.485 166.122C282.864 167.589 281.774 169.055 281.769 170.526C281.764 171.81 282.975 173.105 283.646 174.394C284.151 174.182 284.656 173.969 285.165 173.757V167.083V167.088ZM436.353 137.439H428.243C430.63 141.277 433.991 141.236 436.353 137.439ZM282.153 137.03C287.775 137.515 287.482 134.684 287.063 132.105C286.942 131.347 285.68 130.77 284.943 130.113C284.091 132.231 283.238 134.345 282.153 137.03ZM292.135 158.857C292.65 159.019 293.164 159.185 293.684 159.347C296.147 155.257 294.557 150.529 294.83 146.712C294.017 150.383 293.079 154.62 292.14 158.852L292.135 158.857ZM512.436 60.9102C512.785 60.6473 513.133 60.3844 513.481 60.1265C509.772 55.1918 506.063 50.252 502.353 45.3122C502.025 45.5599 501.697 45.8077 501.369 46.0554C505.058 51.0053 508.747 55.9603 512.441 60.9102H512.436ZM255.935 140.407C255.738 140.402 255.537 140.397 255.34 140.387V156.738C255.537 156.769 255.738 156.794 255.935 156.824V140.407ZM158.04 228.08C157.919 231.907 160.407 232.736 167.71 231.68C164.465 230.471 161.477 229.359 158.04 228.08ZM224.323 219.484L222.052 219.236C221.749 220.981 221.179 222.745 221.3 224.459C221.335 224.985 223.263 225.38 224.323 225.835V219.479V219.484Z" fill="white"/>
<path d="M498.649 257.556C497.988 257.854 497.327 258.148 496.671 258.446C496.353 258.183 496.035 257.92 495.722 257.657C500.228 251.994 504.73 246.332 509.237 240.674C505.709 246.301 502.182 251.929 498.654 257.556H498.649Z" fill="white"/>
<path d="M331.014 172.457C326.336 173.236 324.938 171.153 324.812 167.093C324.671 162.522 327.406 162.077 330.843 162.563C331.019 161.415 331.181 160.788 331.206 160.151C331.569 150.939 331.63 150.357 340.578 151.368C348.198 152.228 354.017 148.34 360.386 145.837C363.999 144.416 367.093 144.239 370.691 145.837C377.746 148.967 384.403 153.517 392.836 152.445C393.845 152.319 395.844 154.589 396.212 156.045C396.787 158.331 396.363 160.869 396.363 163.21C399.825 165.136 406.124 161.749 405.548 169.383C405.039 176.093 399.518 171.851 396.828 174.166C396.818 174.181 396.525 174.424 396.49 174.707C395.283 184.192 395.253 184.653 385.448 183.935C378.387 183.419 373.073 187.494 366.861 189.056C364.872 189.557 362.218 189.668 360.537 188.738C353.765 185.001 346.81 183.156 338.983 183.687C331.347 184.208 331.322 183.823 331.241 176.047C331.231 175.081 331.13 174.116 331.029 172.457H331.014ZM350.944 173.216C351.145 174.424 351.428 175.081 351.337 175.688C350.666 180.122 352.079 183.247 356.566 184.718C360.275 185.937 363.353 188.713 368.021 186.513C373.063 184.142 378.175 182.686 376.702 175.456C376.56 174.753 377.186 173.918 377.338 173.12C377.893 170.212 379.043 167.229 378.766 164.398C378.357 160.217 376.914 156.141 375.718 151.202C376.187 151.444 375.561 151.217 375.046 150.837C367.719 145.382 360.769 148.83 353.936 151.925C352.77 152.45 351.706 154.397 351.569 155.777C351.216 159.397 351.256 163.073 351.423 166.719C351.59 170.405 350.868 172.953 346.381 172.331C345.448 172.204 344.484 172.311 343.535 172.311L343.52 172.847C345.887 172.963 348.254 173.074 350.954 173.206L350.944 173.216ZM346.861 159.362C346.674 153.886 342.945 152.268 333.78 154.129V162.947C338.216 161.733 342.294 160.611 346.861 159.362ZM380.547 155.125C380.431 157.011 380.335 158.563 380.209 160.56C384.151 162.077 389.833 158.417 392.311 164.792C396.263 157.35 394.698 154.341 387.789 154.463C385.22 154.508 382.662 154.923 380.547 155.125ZM333.028 180.148C344.529 182.074 345.922 181.604 347.774 175.744C343.964 174.702 340.184 173.458 336.303 172.756C335.38 172.589 333.588 174.015 333.159 175.097C332.609 176.482 333.023 178.257 333.023 180.153L333.028 180.148ZM379.255 166.43C379.861 168.023 380.209 169.818 380.598 169.828C387.961 169.995 395.329 169.949 402.894 169.949V166.43H379.255ZM348.864 169.783C349.112 169.09 349.359 168.397 349.611 167.7C348.526 166.896 347.461 165.439 346.346 165.394C340.174 165.166 333.987 165.288 327.805 165.288C327.512 165.692 327.214 166.097 326.921 166.506C327.976 167.598 328.986 169.58 330.096 169.636C336.344 169.939 342.612 169.783 348.869 169.783H348.864ZM380.002 175.299C379.725 180.345 384.675 182.504 393.547 180.36C393.547 178.818 393.795 177.139 393.441 175.602C393.27 174.859 391.922 173.817 391.181 173.873C387.638 174.141 384.115 174.738 380.007 175.299H380.002Z" fill="white"/>
<path d="M183.067 221.794C154.629 221.733 131.142 197.995 131.01 169.18C130.869 138.277 153.458 114.539 183.268 114.266C212.494 113.993 236.662 137.62 236.712 166.505C236.768 197.702 213.326 221.86 183.067 221.799V221.794ZM183.723 219.594C212.645 219.134 234.936 195.967 234.805 166.511C234.684 138.399 211.414 116.43 182.279 116.92C154.21 117.391 132.59 140.062 133.004 168.589C133.423 197.459 155.875 220.039 183.723 219.594Z" fill="white"/>
<path d="M266.851 175.693C263.813 174.606 260.563 174.242 260.341 173.216C259.675 170.167 259.972 166.82 260.452 163.675C260.543 163.083 263.258 162.497 264.681 162.654C265.488 162.745 266.664 164.297 266.75 165.273C267.023 168.296 266.851 171.36 266.851 175.693Z" fill="white"/>
<path d="M275.027 188.368C277.923 186.579 279.241 185.244 280.765 184.935C283.328 184.415 284.449 185.759 284.429 188.581C284.408 191.513 283.308 193.146 280.517 192.54C279.014 192.211 277.797 190.553 275.022 188.368H275.027Z" fill="white"/>
<path d="M273.619 211.01C272.135 208.527 270.671 207.142 270.702 205.792C270.727 204.796 272.685 203.122 273.816 203.097C274.8 203.072 276.657 204.942 276.637 205.949C276.611 207.293 275.148 208.608 273.619 211.015V211.01Z" fill="white"/>
<path d="M277.419 191.964C275.107 193.37 273.654 194.912 272.751 194.639C271.529 194.27 270.732 192.5 269.753 191.332C270.813 190.534 271.888 189.082 272.927 189.108C274.098 189.133 275.239 190.488 277.424 191.964H277.419Z" fill="white"/>
<path d="M450.337 175.588C446.663 175.588 442.969 175.78 439.325 175.456C438.372 175.37 437.529 173.702 436.701 172.706C436.54 172.513 436.696 172.069 436.676 171.745C436.168 161.468 441.036 156.304 451.281 156.253C455.692 156.233 460.102 156.319 464.508 156.203C467.198 156.132 468.419 157.178 468.329 159.924C468.197 164.014 468.404 168.125 468.021 172.185C467.905 173.408 466.396 175.395 465.381 175.486C461.288 175.866 457.135 175.643 453.007 175.643L452.911 173.747C456.075 173.747 459.25 173.616 462.409 173.788C465.124 173.934 466.35 172.948 466.275 170.162C466.179 166.633 466.249 163.104 466.249 159.494H439.209C439.063 160.601 438.866 161.38 438.876 162.159C438.922 165.587 437.806 169.935 439.482 172.149C440.885 174.005 445.573 173.358 448.798 173.858C449.363 173.944 449.898 174.238 450.443 174.435C450.408 174.819 450.373 175.203 450.342 175.588H450.337Z" fill="white"/>
<path d="M472.568 165.262C472.522 164.509 472.548 163.184 472.336 161.895C471.781 158.502 472.8 156.444 476.555 156.404C479.946 156.368 481.092 158.047 480.875 161.344C480.647 164.772 480.854 168.23 480.854 171.678C480.854 174.904 479.068 175.551 476.116 175.652C472.906 175.764 472.603 174.055 472.573 171.729C472.548 169.762 472.568 167.79 472.568 165.262ZM478.947 166.258C478.947 166.258 478.982 166.258 478.997 166.258C478.997 164.949 479.219 163.584 478.932 162.34C478.684 161.288 477.847 160.373 477.271 159.392C476.464 160.353 475.066 161.258 474.96 162.289C474.652 165.368 474.723 168.508 474.95 171.602C475.01 172.406 476.186 173.124 476.847 173.878C477.549 173.14 478.705 172.482 478.856 171.643C479.169 169.899 478.952 168.053 478.952 166.253L478.947 166.258Z" fill="white"/>
<path d="M96.3903 177.043C92.4741 177.043 88.5478 176.896 84.6417 177.093C81.7197 177.24 80.3016 176.097 80.3723 173.215C80.4732 169.14 80.4581 165.04 80.9678 161.005C81.0939 159.999 83.0117 158.487 84.1371 158.457C92.454 158.219 100.786 158.184 109.103 158.421C110.269 158.457 111.399 160.322 112.494 161.399C112.661 161.566 112.575 162.036 112.54 162.355C112.055 167.214 113.266 173.999 110.587 176.386C107.846 178.818 101.281 176.922 96.3903 176.922C96.3903 176.962 96.3903 177.002 96.3903 177.043ZM83.2135 175.794C91.4699 175.794 99.5344 175.865 107.594 175.698C108.543 175.678 110.127 174.464 110.279 173.6C110.824 170.576 111.041 167.457 110.995 164.377C110.98 163.447 109.724 161.753 109.007 161.738C100.448 161.551 91.8786 161.617 83.2085 161.617V175.789L83.2135 175.794Z" fill="white"/>
<path d="M73.7309 177.19C73.7763 172.048 73.8722 167.31 73.7511 162.578C73.741 162.214 71.9242 161.4 71.3691 161.668C70.4304 162.123 69.2394 163.24 69.1889 164.14C68.9618 168.312 69.088 172.498 68.0181 176.957C67.6295 176.123 66.9431 175.304 66.9028 174.455C66.7261 170.865 66.8372 167.26 66.6605 163.67C66.5091 160.601 66.5697 158.361 70.8139 158.28C74.7503 158.204 76.0978 159.6 75.9514 163.291C75.8152 166.724 76.0927 170.182 75.7546 173.585C75.6183 174.95 74.3214 176.199 73.7309 177.195V177.19Z" fill="white"/>
<path d="M33.3171 121.872C34.8059 124.031 36.2947 126.19 38.384 129.214C36.1635 129.578 33.2717 130.306 33.1708 130.028C32.3129 127.631 31.9596 125.047 31.4549 122.524C32.0757 122.307 32.6964 122.089 33.3171 121.872Z" fill="white"/>
<path d="M324.549 276.066C324.549 269.468 324.565 263.133 324.544 256.793C324.529 253.086 327.28 253.921 329.414 253.784C331.736 253.638 333.699 253.966 333.669 257.025C333.623 261.1 333.664 265.176 333.654 269.256C333.633 277.214 333.24 277.538 324.549 276.071V276.066ZM326.573 274.489C328.501 273.928 329.884 273.528 331.266 273.124C330.691 271.941 329.788 270.803 329.611 269.559C329.172 266.566 329.061 263.527 328.844 260.504C328.723 258.795 328.647 257.086 328.546 255.377C327.89 255.443 327.234 255.503 326.573 255.569V274.489Z" fill="white"/>
<path d="M300.078 253.375C300.209 255.762 300.341 258.153 300.497 261.015C300.719 258.679 300.265 256.293 301.254 255.074C302.289 253.795 304.772 253.011 306.493 253.193C307.749 253.33 309.702 255.322 309.793 256.596C310.151 261.804 309.864 267.052 309.904 272.285C309.924 274.924 309.369 276.557 306.124 276.578C301.078 276.608 300.608 276.658 300.194 272.902C299.488 266.44 299.024 259.948 298.458 253.466C298.998 253.431 299.538 253.4 300.078 253.365V253.375ZM303.187 273.691C303.722 274.004 304.257 274.317 304.792 274.631C305.448 273.468 306.614 272.32 306.664 271.132C306.871 265.98 306.755 260.813 306.755 255.307H303.187V273.691Z" fill="white"/>
<path d="M454.788 187.751C457.075 187.751 459.406 187.498 461.637 187.857C462.777 188.044 464.72 189.581 464.594 190.072C464.251 191.427 463.09 193.51 462.101 193.601C457.398 194.015 452.628 194.061 447.915 193.763C446.835 193.692 445.876 191.725 444.862 190.633C446.048 189.627 447.097 188.08 448.445 187.746C450.448 187.25 452.659 187.619 454.783 187.619C454.783 187.665 454.783 187.71 454.783 187.756L454.788 187.751ZM446.961 191.477H462.853C460.108 188.054 449.565 187.983 446.961 191.477Z" fill="white"/>
<path d="M88.664 186.978C90.4454 186.978 92.3379 186.614 93.9831 187.085C95.5476 187.53 96.8597 188.854 98.2879 189.795C96.9707 191.033 95.7192 193.248 94.3313 193.334C90.1628 193.602 85.9186 193.213 81.7601 192.677C80.7861 192.55 79.146 190.518 79.3579 189.871C79.7415 188.698 81.1596 187.348 82.3758 187.069C84.3793 186.609 86.5595 186.943 88.669 186.943C88.669 186.953 88.669 186.968 88.669 186.978H88.664ZM80.877 189.355C85.4442 192.52 93.5289 192.348 96.5569 189.355H80.877Z" fill="white"/>
<path d="M135.86 167.178C135.492 142.262 154.417 118.731 184.04 119.302C212.1 119.843 232.024 141.701 231.156 169.15C230.313 195.735 209.45 216.627 182.966 216.202C155.926 215.767 135.138 193.515 135.865 167.178H135.86ZM151.394 135.451C151.303 135.537 151.207 135.623 151.116 135.709C151.873 136.614 152.57 137.575 153.402 138.409C157.091 142.115 160.866 145.73 164.495 149.497C165.464 150.503 166.539 151.879 166.655 153.168C167.185 159.033 161.881 166.122 155.946 167.709C163.48 166.051 163.339 172.073 165.222 176.062C165.499 176.648 165.58 177.331 165.867 177.912C167.331 180.825 166.685 183.13 164.303 185.35C160.468 188.919 156.824 192.691 153.165 196.443C152.191 197.444 151.449 198.673 149.925 200.69C155.739 195.245 160.533 190.573 165.565 186.179C166.847 185.062 169.102 183.975 170.566 184.323C180.16 186.619 181.951 189.177 181.916 199.224C181.901 204.078 181.916 208.926 181.916 213.78C182.38 213.77 182.839 213.76 183.304 213.75C183.304 207.607 183.556 201.448 183.213 195.325C182.981 191.159 184.464 188.813 188.391 187.736C189.955 187.307 191.53 186.73 192.943 185.941C196.783 183.803 199.68 184.9 202.37 188.075C206.22 192.62 210.278 196.999 214.245 201.448C214.84 200.872 215.436 200.296 216.031 199.719C212.574 196.21 209.168 192.651 205.65 189.198C197.894 181.583 197.959 181.649 202.607 172.022C204.01 169.12 205.781 168.013 209.052 168.149C215.633 168.427 222.228 168.23 228.824 168.23C224.393 167.198 219.917 166.9 215.501 167.264C207.341 167.942 202.077 165.52 199.988 156.687C199.12 153.011 199.458 151.004 201.916 148.607C206.372 144.264 210.657 139.734 215.532 134.749C214.376 135.143 213.851 135.168 213.563 135.441C208.84 139.971 204.161 144.552 199.423 149.062C198.56 149.881 197.439 151.044 196.46 151.019C187.321 150.822 182.572 144.891 183.485 135.643C183.899 131.457 183.556 127.2 183.556 122.422C182.698 123.211 182.309 123.398 182.309 123.595C182.209 128.019 182.148 132.438 182.087 136.862C181.971 146.15 181.901 145.978 173.488 149.704C169.905 151.292 167.669 150.706 164.979 147.884C160.755 143.45 155.961 139.562 151.404 135.446L151.394 135.451ZM226.387 165.525C225.181 155.099 222.314 146.201 214.23 137.651C210.747 141.736 207.81 145.72 204.303 149.113C201.759 151.575 201.588 153.648 202.688 156.849C204.464 162.026 206.266 166.425 213.094 164.493C213.947 164.251 215.002 164.812 215.971 164.878C219.312 165.115 222.652 165.297 226.387 165.525ZM185.151 211.176C195.759 210.089 204.232 207.273 211.388 200.316C208.905 197.702 206.826 195.422 204.646 193.237C197.243 185.805 196.874 185.709 187.709 190.881C186.554 191.533 185.327 193.197 185.267 194.451C184.994 199.77 185.151 205.114 185.151 211.176ZM226.296 170.379C222.107 170.379 218.277 170.384 214.447 170.379C205.146 170.359 204.631 170.667 201.961 179.444C201.603 180.627 201.739 182.589 202.491 183.378C206.614 187.706 211.005 191.786 215.542 196.18C222.269 188.813 225.14 180.445 226.296 170.379ZM150.965 140.229C144.929 147.763 141.437 156.116 141.835 165.934C140.947 166.162 139.978 166.41 139.009 166.657C139.045 166.946 139.075 167.229 139.11 167.517H151.792C151.802 167.239 151.818 166.961 151.828 166.683C149.779 166.587 147.73 166.496 145.681 166.4L145.711 165.191C149.314 165.191 152.948 165.469 156.501 165.07C158.257 164.873 160.957 163.745 161.341 162.471C162.38 159.023 166.377 155.534 162.961 151.727C159.393 147.748 155.244 144.289 150.96 140.229H150.965ZM180.129 210.514C180.129 205.847 179.781 201.433 180.225 197.095C180.705 192.398 179.09 189.673 174.583 188.459C173.185 188.08 171.944 187.099 170.541 186.755C169.612 186.528 168.204 186.568 167.558 187.125C163.142 190.932 158.873 194.911 154.689 198.713C160.402 205.903 171.318 210.848 180.134 210.519L180.129 210.514ZM211.131 135.077C204.606 128.707 196.874 126.436 188.835 125.041C187.947 124.889 185.888 126.634 185.792 127.635C185.363 132.104 185.191 136.64 185.484 141.114C185.585 142.646 187.048 144.947 188.37 145.366C191.53 146.367 194.548 150.296 198.171 147.267C202.627 143.541 206.665 139.309 211.126 135.067L211.131 135.077ZM141.457 170.273C142.062 179.662 145.025 187.923 151.55 195.422C155.91 191.104 160.235 187.398 163.819 183.075C166.534 179.803 161.568 170.46 157.283 170.313C152.125 170.136 146.963 170.273 141.457 170.273ZM154.926 135.638C159.594 139.977 163.571 143.849 167.75 147.495C170.45 149.851 179.887 146.019 180.044 142.454C180.286 136.943 180.109 131.412 180.109 125.526C170.576 125.916 162.855 129.05 154.926 135.638ZM138.222 170.718C139.014 180.091 141.447 188.308 146.958 195.669C144.061 187.392 141.255 179.384 138.222 170.718ZM229.299 171.916C226.271 179.904 223.394 187.489 220.412 195.341C225.67 188.343 228.32 180.678 229.299 171.916Z" fill="white"/>
<path d="M182.693 149.042C190.47 148.799 200.987 159.675 201.542 168.523C201.997 175.789 191.252 186.973 183.723 187.064C175.598 187.165 165.726 176.932 165.358 168.023C164.974 158.836 173.665 149.315 182.693 149.037V149.042ZM183.869 184.885C190.309 184.854 198.832 175.693 198.898 168.731C198.974 161.283 190.006 152.066 182.643 152.02C175.915 151.98 167.407 160.858 167.417 167.917C167.427 175.961 176.117 184.925 183.869 184.885Z" fill="white"/>
</svg>
