<?xml version="1.0" encoding="utf-8"?><svg xmlns="http://www.w3.org/2000/svg" xmlns:xlink="http://www.w3.org/1999/xlink"><symbol viewBox="0 0 600 600" id="logo-empire" xmlns="http://www.w3.org/2000/svg"><script/><path d="M487.143 110.934c-165.6 0-300 134.4-300 300s134.4 300 300 300 300-134.4 300-300-134.4-300-300-300zm-14.158 24.872c.168-.008.341.008.51 0l1.275 20.344c-17.303.825-34.144 3.349-50.382 7.462l5.038 19.834c-42.622 10.796-80.585 33.242-110.332 63.776l-14.604-14.286c-11.878 12.186-22.498 25.572-31.76 39.924l-17.092-11.289c46.68-72.177 126.195-121.14 217.347-125.765zm27.806 0c91.363 4.47 171.09 53.454 217.857 125.765l-17.092 11.289c-9.242-14.316-19.851-27.7-31.696-39.86l-14.605 14.222c-29.75-30.55-67.759-52.976-110.395-63.776l5.038-19.834c-16.238-4.113-33.08-6.637-50.383-7.462l1.276-20.344zm-13.648 89.924c8.673-.02 17.347.51 24.49 1.53l-11.161 92.857c23.46 3.421 44.028 15.7 58.227 33.355l74.49-55.867c9.048 11.271 19.305 28.954 24.68 42.346l-85.586 36.608a91.35 91.35 0 0 1 6.697 34.375c0 11.72-2.18 22.918-6.187 33.227l84.886 36.288c-5.238 13.472-15.389 31.123-24.299 42.474l-73.98-55.357c-14.18 18.06-34.984 30.67-58.737 34.184l10.97 91.326c-14.286 2.2-34.694 2.169-48.98.128l10.97-91.454c-23.77-3.516-44.557-16.167-58.738-34.248l-73.788 55.358c-9.048-11.272-19.306-28.955-24.681-42.347l85.076-36.416c-3.994-10.293-6.186-21.465-6.186-33.163 0-12.186 2.38-23.796 6.697-34.44l-85.396-36.479c5.238-13.471 15.388-31.123 24.299-42.474l74.68 55.93c14.2-17.655 34.768-29.933 58.228-33.354l-11.16-92.73c7.142-1.1 15.815-1.638 24.489-1.657zM241.99 285.168l18.367 9.056c-7.747 15.019-14.08 30.875-18.75 47.45l19.643 5.548a234.562 234.562 0 0 0-8.801 63.712c0 22.105 3.08 43.492 8.801 63.775l-19.643 5.549c4.666 16.547 11.013 32.39 18.75 47.385l-18.367 9.056c-19.398-37.711-30.357-80.465-30.357-125.765 0-45.301 10.959-88.054 30.357-125.766zm490.306 0c19.398 37.712 30.357 80.465 30.357 125.766 0 45.3-10.959 88.054-30.357 125.765l-18.367-9.056c7.74-15 14.082-30.832 18.75-47.385l-19.643-5.549c5.72-20.283 8.8-41.67 8.8-63.775 0-22.084-3.09-43.447-8.8-63.712l19.643-5.549c-4.669-16.57-11.007-32.434-18.75-47.449l18.367-9.056zM272.73 549.008c9.266 14.351 19.881 27.737 31.76 39.923l14.604-14.286c29.747 30.534 67.71 52.98 110.332 63.776l-5.038 19.834c16.238 4.113 33.08 6.637 50.382 7.462l-1.275 20.344c-91.364-4.47-171.09-53.454-217.857-125.765l17.092-11.288zm428.89 0 17.028 11.288c-46.767 72.31-126.494 121.296-217.857 125.765l-1.276-20.344c17.304-.825 34.145-3.349 50.383-7.462l-5.038-19.834c42.636-10.8 80.644-33.225 110.395-63.776l14.605 14.222a256.462 256.462 0 0 0 31.76-39.86z" style="opacity:1;fill:#000;fill-opacity:1;stroke:none;stroke-width:3;stroke-miterlimit:4;stroke-dasharray:none;stroke-dashoffset:1.8;stroke-opacity:1;display:inline" transform="translate(-187.143 -110.934)"/></symbol><symbol viewBox="0 0 65.6 65.6" style="enable-background:new 0 0 65.6 65.6" xml:space="preserve" id="spaceship" xmlns="http://www.w3.org/2000/svg"><path d="M40.7 16.7v.3c0 2.2.9 5.7 2.6 9 2.5 4.6 6.3 8.5 11.8 11.1.3.2.6.5.6.9v3c0 1.7-1.3 3-3 3h-10v2c0 1.1-.9 2-2 2h-3.1c1.3 1.3 2.1 3 2.1 5 0 2.5-2.1 6.6-6.2 12.6-.4.6-1.2.6-1.6 0-4.1-6-6.2-10.1-6.2-12.6 0-2 .8-3.7 2.1-5h-3.1c-1.1 0-2-.9-2-2v-2h-10c-1.7 0-3-1.3-3-3v-3c0-.4.2-.7.6-.9 5.5-2.6 9.3-6.4 11.8-11.1 1.7-3.3 2.6-6.8 2.6-9v-.3C25 10.2 26.5 5 29.2 1.3 29.8.5 30.7.1 31.6.1h2c1 0 1.9.5 2.4 1.2 3 3.7 4.5 8.8 4.7 15.4zM22.8 40c0-.1 0-.3.1-.4l1.9-4.8v-9.6l-.9 1.8c-2.6 4.8-6.6 8.9-12.1 11.7v2.4c0 .6.4 1 1 1h10V40zm30 2c.6 0 1-.4 1-1v-2.4c-5.6-2.8-9.6-6.8-12.1-11.7l-.9-1.8v9.6l1.9 4.8c0 .1.1.2.1.4v2h10zm-14-23c0-7.3-1.4-12.8-4.2-16.6-.2-.3-.5-.4-.8-.4h-2c-.3 0-.6.2-.8.4-2.8 3.8-4.2 9.3-4.2 16.6v15h12V19zm-1 34c0-2.8-2.2-5-5-5s-5 2.2-5 5c0 1.8 1.7 5.3 5 10.2 3.3-4.9 5-8.4 5-10.2zm-4-7h7v-5.8L39.1 36h-5.3v10zm-9-5.8V46h7V36h-5.3l-1.7 4.2zm6-29.2c-.6 0-1-.4-1-1s.4-1 1-1h4c.6 0 1 .4 1 1s-.4 1-1 1h-4z"/></symbol></svg>