<?xml version="1.0" encoding="utf-8"?><!DOCTYPE svg PUBLIC "-//W3C//DTD SVG 1.1//EN" "http://www.w3.org/Graphics/SVG/1.1/DTD/svg11.dtd"><svg xmlns="http://www.w3.org/2000/svg" xmlns:xlink="http://www.w3.org/1999/xlink"><symbol viewBox="0 0 8.1 14.2" style="enable-background:new 0 0 8.1 14.2" xml:space="preserve" id="chevron" xmlns="http://www.w3.org/2000/svg"><path d="m.3 6.3 6-6c.4-.4 1.1-.4 1.5 0 .4.4.4 1.1 0 1.5L2.5 7.1l5.3 5.3c.4.4.4 1.1 0 1.5-.4.4-1.1.4-1.5 0l-6-6c-.4-.5-.4-1.2 0-1.6z"/></symbol><symbol viewBox="0 0 52.3 52.3" style="enable-background:new 0 0 52.3 52.3" xml:space="preserve" id="cross" xmlns="http://www.w3.org/2000/svg"><path d="m49.5 952.4-23.3 23.3-23.4-23.3-2.8 2.8 23.3 23.3L0 1001.9l2.8 2.8 23.3-23.3 23.3 23.3 2.8-2.8L29 978.5l23.3-23.3-2.8-2.8z" style="fill:#ff8080" transform="translate(0 -952.362)"/></symbol><symbol viewBox="0 0 600 600" id="logo-empire" xmlns="http://www.w3.org/2000/svg"><script/><path d="M487.143 110.934c-165.6 0-300 134.4-300 300s134.4 300 300 300 300-134.4 300-300-134.4-300-300-300zm-14.158 24.872c.168-.008.341.008.51 0l1.275 20.344c-17.303.825-34.144 3.349-50.382 7.462l5.038 19.834c-42.622 10.796-80.585 33.242-110.332 63.776l-14.604-14.286c-11.878 12.186-22.498 25.572-31.76 39.924l-17.092-11.289c46.68-72.177 126.195-121.14 217.347-125.765zm27.806 0c91.363 4.47 171.09 53.454 217.857 125.765l-17.092 11.289c-9.242-14.316-19.851-27.7-31.696-39.86l-14.605 14.222c-29.75-30.55-67.759-52.976-110.395-63.776l5.038-19.834c-16.238-4.113-33.08-6.637-50.383-7.462l1.276-20.344zm-13.648 89.924c8.673-.02 17.347.51 24.49 1.53l-11.161 92.857c23.46 3.421 44.028 15.7 58.227 33.355l74.49-55.867c9.048 11.271 19.305 28.954 24.68 42.346l-85.586 36.608a91.35 91.35 0 0 1 6.697 34.375c0 11.72-2.18 22.918-6.187 33.227l84.886 36.288c-5.238 13.472-15.389 31.123-24.299 42.474l-73.98-55.357c-14.18 18.06-34.984 30.67-58.737 34.184l10.97 91.326c-14.286 2.2-34.694 2.169-48.98.128l10.97-91.454c-23.77-3.516-44.557-16.167-58.738-34.248l-73.788 55.358c-9.048-11.272-19.306-28.955-24.681-42.347l85.076-36.416c-3.994-10.293-6.186-21.465-6.186-33.163 0-12.186 2.38-23.796 6.697-34.44l-85.396-36.479c5.238-13.471 15.388-31.123 24.299-42.474l74.68 55.93c14.2-17.655 34.768-29.933 58.228-33.354l-11.16-92.73c7.142-1.1 15.815-1.638 24.489-1.657zM241.99 285.168l18.367 9.056c-7.747 15.019-14.08 30.875-18.75 47.45l19.643 5.548a234.562 234.562 0 0 0-8.801 63.712c0 22.105 3.08 43.492 8.801 63.775l-19.643 5.549c4.666 16.547 11.013 32.39 18.75 47.385l-18.367 9.056c-19.398-37.711-30.357-80.465-30.357-125.765 0-45.301 10.959-88.054 30.357-125.766zm490.306 0c19.398 37.712 30.357 80.465 30.357 125.766 0 45.3-10.959 88.054-30.357 125.765l-18.367-9.056c7.74-15 14.082-30.832 18.75-47.385l-19.643-5.549c5.72-20.283 8.8-41.67 8.8-63.775 0-22.084-3.09-43.447-8.8-63.712l19.643-5.549c-4.669-16.57-11.007-32.434-18.75-47.449l18.367-9.056zM272.73 549.008c9.266 14.351 19.881 27.737 31.76 39.923l14.604-14.286c29.747 30.534 67.71 52.98 110.332 63.776l-5.038 19.834c16.238 4.113 33.08 6.637 50.382 7.462l-1.275 20.344c-91.364-4.47-171.09-53.454-217.857-125.765l17.092-11.288zm428.89 0 17.028 11.288c-46.767 72.31-126.494 121.296-217.857 125.765l-1.276-20.344c17.304-.825 34.145-3.349 50.383-7.462l-5.038-19.834c42.636-10.8 80.644-33.225 110.395-63.776l14.605 14.222a256.462 256.462 0 0 0 31.76-39.86z" style="opacity:1;fill-opacity:1;stroke:none;stroke-width:3;stroke-miterlimit:4;stroke-dasharray:none;stroke-dashoffset:1.8;stroke-opacity:1;display:inline" transform="translate(-187.143 -110.934)"/></symbol><symbol style="enable-background:new 0 0 300 300" xml:space="preserve" viewBox="0 0 300 300" id="logo-rebel" xmlns="http://www.w3.org/2000/svg"><script/><path d="M7.42 145.986c1.765-46.793 25.479-89.951 68.83-118.47.128.048 1.251-.361.738.61-3.434 3.184-65.172 76.114-8.344 133.68 0 0 29.858 28.704 53.011 1.468 0 0 22.847-29.577-.289-74.413 0 0-5.856-14.64-26.955-23.721l16.992-18.748s14.359 6.161 25.478 22.871c0 0 .593-17.593-12.884-36.34l26.345-29.89 26.08 29.609s-11.993 16.991-12.876 36.902c0 0 8.191-13.477 25.776-23.151l16.686 18.748s-16.045 5.287-26.794 23.529c-9.242 16.902-16.357 53.05.416 75.223 0 0 18.772 26.618 51.792-1.571 0 0 60.712-54.399-6.226-133.048 0 0-3.658-3.233.449-1.476 29.586 21.54 65.012 49.946 68.67 120.837-1.444 85.966-59.012 147.334-143.074 147.334C68.934 295.968 4.95 227.283 7.42 145.986"/></symbol><symbol viewBox="0 0 65.6 65.6" style="enable-background:new 0 0 65.6 65.6" xml:space="preserve" id="spaceship" xmlns="http://www.w3.org/2000/svg"><path d="M40.7 16.7v.3c0 2.2.9 5.7 2.6 9 2.5 4.6 6.3 8.5 11.8 11.1.3.2.6.5.6.9v3c0 1.7-1.3 3-3 3h-10v2c0 1.1-.9 2-2 2h-3.1c1.3 1.3 2.1 3 2.1 5 0 2.5-2.1 6.6-6.2 12.6-.4.6-1.2.6-1.6 0-4.1-6-6.2-10.1-6.2-12.6 0-2 .8-3.7 2.1-5h-3.1c-1.1 0-2-.9-2-2v-2h-10c-1.7 0-3-1.3-3-3v-3c0-.4.2-.7.6-.9 5.5-2.6 9.3-6.4 11.8-11.1 1.7-3.3 2.6-6.8 2.6-9v-.3C25 10.2 26.5 5 29.2 1.3 29.8.5 30.7.1 31.6.1h2c1 0 1.9.5 2.4 1.2 3 3.7 4.5 8.8 4.7 15.4zM22.8 40c0-.1 0-.3.1-.4l1.9-4.8v-9.6l-.9 1.8c-2.6 4.8-6.6 8.9-12.1 11.7v2.4c0 .6.4 1 1 1h10V40zm30 2c.6 0 1-.4 1-1v-2.4c-5.6-2.8-9.6-6.8-12.1-11.7l-.9-1.8v9.6l1.9 4.8c0 .1.1.2.1.4v2h10zm-14-23c0-7.3-1.4-12.8-4.2-16.6-.2-.3-.5-.4-.8-.4h-2c-.3 0-.6.2-.8.4-2.8 3.8-4.2 9.3-4.2 16.6v15h12V19zm-1 34c0-2.8-2.2-5-5-5s-5 2.2-5 5c0 1.8 1.7 5.3 5 10.2 3.3-4.9 5-8.4 5-10.2zm-4-7h7v-5.8L39.1 36h-5.3v10zm-9-5.8V46h7V36h-5.3l-1.7 4.2zm6-29.2c-.6 0-1-.4-1-1s.4-1 1-1h4c.6 0 1 .4 1 1s-.4 1-1 1h-4z"/></symbol><symbol fill="none" viewBox="0 0 553 334" id="tiebomber" xmlns="http://www.w3.org/2000/svg"><path d="M486.517 198.724c-3.225-6.012-6.581-3.772-10.618-2.351-12.476 4.399-25.173 8.165-37.785 12.185-9.639 3.069-19.278 6.128-28.897 9.263-1.004.328-2.362.91-2.705 1.729-1.822 4.313-3.184 8.828-5.107 13.095-.752 1.664-2.306 3.575-3.921 4.121-6.288 2.144-12.743 3.812-19.147 5.597-1.393.389-2.993 1.037-4.25.683-2.371-.663-4.355-1.937-1.786-4.824 1.479-1.663 2.639-3.605 4.789-6.598-2.493.152-4.375-.309-5.369.43-4.517 3.362-8.756 3.124-13.308.116-3.266-2.154-9.665-.951-12.491 1.866-3.472 3.463-7.055 6.815-10.588 10.213.056.506.111 1.011.162 1.517 1.933.146 3.941.713 5.783.369 6.016-1.133 5.95 4.328 7.045 7.23 1.156 3.069.878 6.942-2.639 9.708-4.481 3.524-8.832 7.346-7.57 14.243.197 1.077-1.398 2.988-2.634 3.751-10.952 6.735-27.651 5.997-37.563-1.84-1.312-1.037-1.882-3.757-1.806-5.658.151-3.741-.959-6.502-3.659-9.136-6.929-6.76-7.091-14.45-.429-21.286.812-.835 3.8-.668 4.956.177 3.174 2.315 5.289 1.122 6.833-1.547a982.253 982.253 0 0 0 14.6-26.171c.53-.981.434-2.922-.207-3.797-2.291-3.125-4.946-5.981-8.584-8.823.116 2.614.156 5.228.383 7.832.167 1.926.808 3.823.858 5.744.192 7.205.126 7.094-7.186 7.382-1.807.07-4.174.601-5.269 1.825-6.425 7.2-14.575 7.887-23.533 7.948-8.084.056-14.892-1.335-20.903-7.139-1.716-1.653-5.415-1.724-8.191-1.679-3.653.056-5.041-1.213-4.95-4.833.151-6.149.04-12.307.04-18.46-.5-.197-.999-.394-1.499-.587l-12.793 19.299 1.181.359c-.207 2.18.293 4.895-.828 6.376-1.075 1.426-3.835 1.573-6.429 2.488-.227 3.185.035 6.962-6.929 4.692-4.477-1.456-10.053.465-15.478.9 1.1 5.88-2.362 6.386-7.157 6.006-4.88-.384-9.815-.116-14.731-.075-2.357.015-4.34-.228-4.002-3.403.323-3.034-1.463-3.383-3.982-3.327-5.273.126-10.592.324-15.801-.303-1.438-.172-2.548-3.13-3.547-4.465-1.853-.222-4.164-.131-6.132-.915-.782-.314-1.544-3.069-1.03-3.833 2.398-3.519.091-4.176-2.493-4.995-19.934-6.35-39.878-12.671-59.777-19.127-5.097-1.654-10.003-3.909-15.105-5.557-1.509-.49-3.81-.475-5.011.364-4.926 3.428-9.564 7.266-14.716 11.265 6.671 9.541 12.914 18.521 19.217 27.455 13.5 19.132 26.985 38.279 40.611 57.326 1.902 2.659 2.064 4.702.399 7.523-6.077 10.289-11.875 20.745-17.89 31.075-2.953 5.066-3.952 5.061-7.606.43-18.658-23.673-37.305-47.361-55.958-71.038-6.686-8.49-13.504-16.883-20.004-25.513-1.343-1.78-2.145-4.425-2.17-6.685-.394-37.394-.677-74.794-.762-112.194-.006-2.523 1.271-5.44 2.826-7.524C29.43 72.57 55.76 37.643 81.942 2.603 83.86.04 85.47-.764 88.412.793c5.48 2.908 11.087 5.582 16.674 8.292 3.149 1.527 3.77 3.09 1.64 6.422-20.46 32.01-40.727 64.151-61.034 96.257-3.72 5.876-3.336 8.343 2.15 12.565 4.017 3.089 8.06 6.173 12.334 8.878 1.372.87 3.694 1.163 5.258.673 20.555-6.472 41.105-12.974 61.534-19.835 5.829-1.957 12.46-2.549 16.775-7.979.581-.733 2.11-.703 2.811-.915 0-2.007-.651-4.308.207-5.587.697-1.036 4.199-1.699 4.734-1.062 1.857 2.195 2.957 5.026 3.921 6.821.025-.384-.01-2.023.273-3.6.55-3.034 1.463-5.45 5.531-3.736 1.09.46 3.073-.238 4.193-1.037 2.246-1.613 4.139-3.716 6.253-5.516 3.043-2.594 6.152-3.873 10.285-1.83 2.034 1.006 4.805.98 7.172.738 4.991-.506 10.032 1.142 15.089-1.588 2.362-1.274 7.197-1.89 7.661 3.63 5.39-.384 5.869.187 4.31 5.34a898.267 898.267 0 0 0-1.852-2.832c-4.87 4.864-4.648 4.621-9.321.344-1.212-1.107-4.285-.167-6.874-.167-1.236-5.587-6.293-1.218-9.664-2.043-4.396-1.071-7.591 1.037-9.311 5.385-1.242-2.472-2.287-4.545-3.543-7.048-1.802 1.456-3.407 2.756-5.017 4.055-1.65 1.335-3.305 2.665-6.167 4.97 3.886-.475 6.839 1.699 8.65-2.589.212-.505 2.705-.43 3.917 0 .807.289 1.211 1.694 2.129 3.11 1.439-1.623 2.544-2.872 4.022-4.546 1.308 1.396 2.534 2.71 4.618 4.94.969-2.017 1.802-3.741 2.629-5.46l.727 2.376c3.134.688 6.248 1.78 9.412 1.967 5.541.323 11.118.091 16.397.091.969-1.41 1.756-2.553 2.543-3.701.581 1.031 1.151 2.073 1.746 3.094 1.207 2.083 2.493 4.126 3.619 6.255.923 1.754 1.615 3.63 2.503 5.405.555 1.107 1.07 2.421 1.993 3.134 3.049 2.346 4.578 4.763 1.121 7.878 4.163 3.347 8.922 2.932 15.215-1.178 3.659 6.421 9.791 2.877 14.923 3.574.52.071 1.519-.809 1.721-1.436 2.059-6.401 3.785-2.538 5.612.339 1.227-5.122 5.284-3.337 8.262-3.322 1.68.01 3.351 1.638 5.354 2.72.853-1.643 2.448-5.172 4.855.592.308.738 1.857 1.517 2.68 1.38 4.178-.713 9.124 2.185 12.551-2.811.55-.804 3.275-.111 4.754-.111 4.087-5.395 8.074-11.134 12.596-16.412 2.175-2.538 5.183-4.556 8.166-6.148 2.043-1.093 4.688-1.047 7.802-1.654.424-6.633 7.126-5.602 11.95-6.128 9.564-1.036 18.875.915 27.651 5.021.732.344 1.862.708 2.024 1.284 2.548 9.142 7.625 2.629 12.016 2.452 2.831-.116 7.872 2.215 8.261 4.177.929 4.677 3.941 5.749 7.277 6.836 11.335 3.696 22.72 7.235 34.106 10.774a7834.66 7834.66 0 0 0 39.787 12.256c4.351 1.33 10.053-2.437 10.371-6.942.656-9.339.162-18.03-5.324-26.646-17.845-28.03-34.837-56.608-52.192-84.957-1.767-2.882-1.777-4.651 2.033-5.673 11.668-3.13 23.321-6.345 34.888-9.834 3.169-.956 4.819-.02 6.566 2.381 21.049 29.043 42.174 58.034 63.234 87.071 4.229 5.83 8.483 11.655 12.284 17.762 1.539 2.473 2.654 5.683 2.664 8.565.071 23.456-.151 46.911-.323 70.366-.091 12.286-.131 24.572-.499 36.854-.061 2.047-1.313 4.343-2.645 6.022-23.361 29.35-46.828 58.615-70.249 87.92-2.862 3.585-5.829 7.119-8.317 10.956-2.786 4.303-5.304 3.757-8.549.602-7.399-7.19-14.953-14.218-22.438-21.316-2.614-2.483-5.082-5.132-7.852-7.428-3.311-2.75-3.301-5.364-1.05-8.904 8.615-13.55 17.149-27.151 25.425-40.908 10.366-17.242 20.449-34.66 30.472-51.689l-.005-.025Zm4.239 34.174c-2.16 4.485-4.315 8.97-6.475 13.449 3.154-3.438 5.572-7.316 7.807-11.29.167-.293-.959-1.32-1.488-2.007.247-1.224.499-2.452.757-3.706l-3.155-1.517c1.736 6.163-5.092 9.278-5.233 15.203 2.841-3.706 5.314-6.921 7.782-10.127l.005-.005ZM10.799 100.949c-5.89 5.825-8.958 12.221-8.781 21.175.64 33.133.646 66.291.141 99.428-.146 9.536 5.259 15.017 10.629 21.099.02-.834-.187-1.633-.697-2.098-7.933-7.24-8.837-16.523-7.933-26.453.313-3.418.09-6.887.045-10.335-.277-21.807-.737-43.614-.797-65.421-.035-12.817-2.957-26.403 7.953-36.909.868-.966 1.812-1.871 2.59-2.897 12.45-16.458 24.88-32.936 37.304-49.408 4.76-6.305 9.503-12.62 14.257-18.93-1.676.187-2.503 1.041-3.225 1.976-5.4 7.003-10.86 13.955-16.144 21.044-11.83 15.871-23.568 31.808-35.342 47.719v.01Zm498.433 139.725 6.798-12.923c-2.009-.02-3.73.44-4.452 1.552-13.091 20.219-27.342 39.69-39.061 60.901 3.907-3.13 6.929-6.932 9.877-10.79 3.87-5.061 7.696-10.153 11.511-15.254 1.62-2.169 3.164-4.399 4.744-6.598l10.583-16.883v-.005Zm-3.861-147.435c2.014 2.22 4.027 4.434 6.965 7.67-.939-2.437-1.403-3.646-2.206-5.734 6.717 6.897 6.823 7.863 2.17 14.425-5.304 7.478-10.623 14.946-15.927 22.419-1.226 1.729-2.427 3.474-3.644 5.213l1.1.925c1.282-1.239 2.756-2.336 3.816-3.746 6.288-8.383 12.308-16.969 18.763-25.22 3.386-4.328 3.174-7.822.116-12.297-13.121-19.188-25.935-38.588-38.889-57.897-.732-1.087-1.696-2.017-2.554-3.023-.434.252-.873.51-1.307.763.621 1.487 1.05 3.1 1.893 4.45 6.903 11.057 13.888 22.064 20.847 33.091 1.741 2.761 3.351 5.608 5.244 8.257 1.564 2.194 3.744 3.984 5.112 6.275 1.539 2.583-.126 3.135-2.438 2.695l-2.271-3.974-1.165.94 4.375 4.763v.005ZM15.826 211.258c-1.782 1.36-3.619 2.659-5.294 4.136-.41.359-.54 1.39-.348 1.967.13.404 1.276.945 1.534.768 3.527-2.351 6.974-4.813 10.446-7.25l-.832-1.472-5.638 1.957c-1.539-10.461-3.981-20.881-4.39-31.388-.52-13.318.515-26.706 1.095-40.059.197-4.546 1.05-9.061 1.575-13.354-1.949-.227-4.714-.546-7.888-.91 1.574 6.204-2.004 13.121 3.38 20.149 0 7.685-.05 17.034.016 26.383.066 9.04.252 18.08.394 27.459l-2.862-.243V173.59l-.959-.02v44.64c.137.01.268.025.404.035v-15.906c.505 0 1.014.01 1.52.015v12.211c3.143-1.325 5.51-2.321 7.847-3.307Zm9.129-104.09c.62-1.522 1.237-3.048 1.857-4.57-3.961 3.908-6.525 9.854-14.852 6.744l51.264-70.38c-.43-.309-.853-.617-1.282-.926a607284.765 607284.765 0 0 0-55.655 73.88c7.788 1.517 14.343 2.66 18.37-4.844.046-.086.308-.05.475-.076-6.435 7.923-4.452 16.696-2.867 25.786 3.16.334 6.076.541 8.958.976 2.07.314 5.001.243 5.98 1.537 3.81 5.036 8.731 2.736 14.202 3.767-8.438-11.154-16.08-21.301-23.826-31.368-.409-.531-1.72-.369-2.619-.526h-.005Zm60.151-61.836c6.01-9.49 12.021-18.985 18.259-28.84-4.335-2.224-8.176-4.201-11.98-6.153-8.878 8.201-17.442 16.12-26.32 24.32 2.903 1.689 4.85 3.362 7.096 4.01 3.478.996 7.167 1.203 10.74 1.91 2.584.511 2.982 2.124 1.685 4.288-12.934 19.855-25.914 39.685-38.763 59.596-2.034 3.155-3.482 6.695-9.326 6.022l4.385 5.152c8.615-13.601 16.856-26.554 25.037-39.548 6.434-10.224 12.793-20.498 19.187-30.752v-.005ZM26.848 222.386c-.142.87-.278 1.74-.42 2.609.44.289.884.572 1.323.86 9.664-12.453 19.329-24.901 28.993-37.354-.353-.324-.707-.648-1.065-.966-1.226 1.153-2.594 2.184-3.644 3.478-2.67 3.297-5.127 6.765-7.792 10.067-5.818 7.2-11.713 14.334-17.577 21.493 1.59-2.411 3.048-4.924 4.79-7.225 6.267-8.256 12.63-16.442 19.5-25.356-4.477.41-7.984.733-11.497 1.057l-.136-1.482c2.13-.197 4.355-.081 6.374-.672 2.22-.652 5.798 0 5.607-3.974-.207-4.328-.712-8.641-1.02-12.206H36.325c.353 5.86.44 11.564 1.126 17.196.398 3.277-.424 5.021-3.654 5.592-2.402.425-4.774 1.087-7.192 1.325-3.79.369-5.127 2.341-4.436 5.951.43 2.25 1.01 4.49 1.186 6.76.106 1.345-.045 3.008-.757 4.06-3.815 5.622-3.84 6.093 1.12 10.8a995.614 995.614 0 0 0 3.13-2.018v.005Zm469.227-21.225c5.001 7.013 9.932 14.081 15.07 20.993 1.125 1.512 2.977 2.482 4.491 3.706.353-.394.712-.789 1.065-1.178-.999-1.456-1.978-2.928-3.008-4.364-6.283-8.772-12.682-17.458-18.758-26.367-1.05-1.537-1.126-4.009-1.015-6.017.369-6.669 1.08-13.317 1.54-19.981.111-1.578-.374-3.191-.384-4.783-.045-7.549-.02-15.098-.02-22.965-4.446-.248-8.499-.47-12.289-.678 0 14.076.182 27.601-.065 41.116-.162 8.934-.44 8.929 7.549 8.383.863 2.276 1.484 4.354 2.418 6.275.984 2.033 2.266 3.918 3.416 5.87l-12.626-11.027-1.242 1.481c3.896 3.287 7.762 6.609 11.728 9.804.389.313 1.403-.152 2.13-.253v-.015Zm-87.756 5.516c1.731-3.261 3.467-6.522 5.314-10.001-1.11-.794-1.948-1.532-2.902-2.053-7.045-3.829-8.705-9.315-4.981-16.457.076-.147.157-.293.212-.445.863-2.422 2.387-2.71 4.618-1.704 3.381 1.532 6.853 2.857 10.31 4.278l1.923-5.112c.318.111.641.227.959.339-.207 1.486-.419 2.967-.626 4.454 3.048-5.789 2.917-12.954-.056-27.252-4.087 1.183-8.12 2.609-12.268 3.428-1.574.313-4.269-.182-5.001-1.285-5.723-8.6-4.537-12.104 4.592-16.669 1.777-.89 2.897-3.1 4.552-4.966.061.041 1.267.82 2.468 1.593.187-.253.374-.5.555-.753-6.369-6.659-12.742-13.323-19.056-19.921-.686.45-1.07.566-1.206.814-1.892 3.443-3.967 6.81-5.556 10.395-1.656 3.721-3.8 5.147-7.58 2.923-.556-.329-1.232-.44-1.837-.683-7.363-2.968-7.318-2.958-4.815-10.38 1.105-3.276 1.983-6.634 2.831-9.521-3.376-.94-5.733-1.926-8.17-2.189-3.346-.359-6.768-.384-10.134-.157-3.926.263-7.822.946-11.733 1.446.509 2.781 1.014 5.567 1.524 8.348.06.323.146.642.242.955 2.972 10.097 2.882 9.87-6.894 13.844-3.492 1.421-4.734.081-6.015-2.518-2.221-4.49-4.462-8.969-6.869-13.798-7.514 7.25-14.681 14.167-22.548 21.756 4.158 1.881 7.004 3.034 9.735 4.424 11.617 5.931 11.128 2.736 6.076 15.897-1.105 2.877-2.518 3.15-5.249 2.219-5.369-1.83-10.885-3.241-16.038-4.737-.838 5.132-2.352 9.895-2.18 14.597.171 4.773 2.013 9.48 3.149 14.349 2.695-1.032 4.532-1.699 6.344-2.432 11.344-4.576 11.233-4.54 15.71 7.038 1.241 3.216.51 4.813-2.473 6.128-4.552 2.007-8.993 4.257-14.555 6.917 7.616 7.463 14.51 14.217 21.842 21.407 2.105-4.287 3.528-7.235 4.997-10.157 4.829-9.607 4.789-9.516 14.645-4.612 2.826 1.406 3.305 2.953 2.205 5.81-1.862 4.838-3.351 9.819-5.263 15.537 3.714 0 6.939.081 10.159-.025 2.76-.091 5.798.248 8.185-.799 1.968-.865 2.746-1.537 4.805.04 1.155.885 3.931-.293 5.945-.692.196-.041.181-1.148.267-1.76-1.585-.177-3.169-.328-4.744-.561-.171-.025-.277-.501-.585-1.092 1.489-.496 2.912-.966 4.517-1.497-1.146-3.377-2.428-6.406-3.119-9.561-.268-1.218.403-3.524 1.312-3.974 4.017-1.982 8.281-3.468 12.45-5.132 3.094 5.613 5.889 10.694 9.402 17.075 3.775-4.743 6.737-8.464 9.7-12.191l.893-.925h.015Zm-269.007 9.703c.475-3.924 2.14-3.368 4.436-1.557 13.021 10.268 26.813 17.185 44.375 13.605 9.412-1.916 18.648-3.974 26.616-9.227 21.686-14.299 30.921-34.75 27.994-60.531-1.287-11.321-6.555-21.342-12.435-30.792-2.609-4.191-7.196-7.271-11.208-10.441-9.014-7.119-19.692-10.314-30.83-11.801-7.787-1.036-15.287.4-22.932 2.867-14.242 4.601-26.203 12.246-33.904 24.906-14.347 23.587-13.732 47.497.964 70.963.54.859.904 1.825 1.348 2.745-1.575-.354-2.665-1.122-3.054-2.154-1.988-5.344-5.864-6.927-11.163-6.087-.792.126-1.63-.096-2.447-.096-11.613-.011-23.23-.005-35.67-.005 19.712 5.991 38.592 11.73 57.91 17.605Zm401.598-15.012v-68.626c-1.196-.061-3.432-.177-5.663-.288-.191-.521-.383-1.037-.57-1.557 7.56.95 12.925-1.072 12.43-9.192-.187-3.029 2.76-7.645-1.711-8.51-.303-2.078-.126-3.423-.686-4.308-2.544-4.009-5.183-7.963-7.979-11.795-15.851-21.726-31.754-43.412-47.645-65.113a4.402 4.402 0 0 0-.646-.687c-5.86-5.072-11.699-10.168-17.603-15.189-3.624-3.084-7.742-6.735-12.385-6.047-8.261 1.224-16.3 3.974-24.668 6.148.823 1.547 1.242 2.437 1.741 3.272 16.861 28.076 33.707 56.163 50.654 84.183 1.605 2.655 3.891 4.9 5.062 6.356.176 3.094.312 5.541.449 7.989.257.02.509.04.767.055l.469-4.555c3.568 5.784-1.534 9.763-2.533 15.057 8.983-5.471 16.497-11.594 21.135-22.176-5.37 0-10.219-.091-15.064.03-3.921.096-6.818-1.122-8.817-4.793-3.129-5.749-6.52-11.366-9.977-16.933-8.897-14.329-17.905-28.592-26.828-42.906-2.488-3.99-1.963-5.03 2.644-5.506 6.819-.708 13.647-1.896 20.465-1.835 4.582.04 9.72-2.493 13.757 3.145 16.2 22.625 32.833 44.943 49.265 67.402.661.905.919 2.104 1.56 3.625-4.679-.419-8.539-.768-12.395-1.117l-.5 1.653c1.853 1.007 3.7 2.013 5.638 3.064-1.363.627-2.61 1.204-3.967 1.831-2.019-3.196-3.866-6.113-5.713-9.036-.378.132-.762.258-1.14.39-.202 4.105-.409 8.206-.611 12.311-.379-.02-.762-.045-1.141-.065l-.716-7.246c-.389.015-.777.036-1.166.051v14.389c-.399-.015-.792-.03-1.191-.04v-10.593l-1.201-.03v13.298c-.328-.016-.656-.026-.984-.041-.177-3.109-.348-6.219-.525-9.328-1.12 1.683-1.03 3.251-1.146 4.798-.116 1.567-.439 3.119-.666 4.682l-.616-.116-.317-5.769c-.207-.011-.409-.021-.616-.036-.152 1.598-.303 3.196-.469 4.975-2.706-1.638-8.867 5.142-10.387 11.356 6.677-1.254 13.061-2.265 19.349-3.721 2.675-.617 3.664-2.68 3.054-5.713-1.096-5.431-.116-6.695 5.344-7.397 2.806-.359 5.698-.021 8.494-.415 1.589-.222 3.502-.94 4.405-2.108.475-.617-.898-2.67-1.761-4.925 2.382.642 5.031.683 6.566 2.012 1.024.89 1.282 4.47.403 5.334-1.458 1.436-4.062 1.962-6.268 2.306-1.887.293-4.007-.667-5.808-.217-1.247.313-3.119 2.194-3.013 3.185.873 7.918 2.155 15.79 3.366 24.057h4.148v32.081c-4.113-2.367-5.147-.759-5.369 2.411-.243 3.428-.596 6.867-1.141 10.259-1.832 11.366-1.877 11.361 8.433 16.215 5.233 2.467 5.819 4.798 2.352 9.657 1.62.718 3.204 1.421 5.672 2.513v-90.484c-.318-.01-.631-.025-.948-.035v62.832c-.525 0-1.05-.01-1.575-.01v-48.058h-.661v28.819h-1.03v-30.392l-.555.015v57.579a3502.31 3502.31 0 0 0-6.742-2.563c.106-.349.217-.698.323-1.042 1.605.364 3.204.723 5.183 1.173l-.015.005Zm-70.623 112.245.807.976c2.246-1.587 4.961-2.781 6.662-4.823 14.262-17.156 28.428-34.397 42.442-51.759 8.615-10.679 16.911-21.615 25.577-32.734-4.224-2.335-7.888-4.408-11.598-6.39-5.147-2.756-5.546-2.579-8.2 3.478 3.457 2.22 6.964 4.475 11.138 7.155-18.875 23.637-37.401 46.829-56.074 70.213-10.29-8.605-20.055-16.796-29.856-24.946-2.73-2.271-2.215-4.435-.58-7.231 12.41-21.185 24.683-42.445 36.956-63.711.672-1.168.959-2.554 1.424-3.843l-1.252-.47c-1.07 1.78-2.165 3.544-3.205 5.344-6.954 12.049-13.787 24.173-20.873 36.146-9.174 15.502-18.612 30.842-27.746 46.369-.929 1.578-1.484 4.854-.59 5.785 7.353 7.675 15.044 15.031 22.765 22.342.853.809 2.927 1.421 3.765.941 3.295-1.876 6.318-4.227 9.467-6.371.127-.086.475.152.853.288l-1.892 3.241h.01ZM44.238 209.483l-1.06.683c1.883 2.958 3.664 5.981 5.668 8.853 11.315 16.23 22.725 32.394 33.949 48.69.923 1.34 1.514 3.984.822 5.198-4.83 8.484-10.053 16.741-15.13 25.088-1.72 2.832-3.462 2.387-5.182.056-4.825-6.548-9.468-13.237-14.47-19.643-11.178-14.324-22.568-28.481-33.756-42.795-.924-1.183-1.761-4.045-1.262-4.459 2.538-2.114 5.531-3.676 8.519-5.522-.454-.536-1.595-1.865-2.857-3.347-4.314 2.766-8.392 5.38-12.773 8.186 8.771 11.063 17.149 21.751 25.663 32.329 8.705 10.815 17.557 21.508 26.323 32.278 1.953 2.401 3.487 6.502 5.788 6.977 4.79.981 4.926 4.242 5.89 7.488.055.187.51.253 1.06.501l1.12-2.73c2.14 1.734 4.133 3.554 6.329 5.091 4.986 3.494 9.094 2.427 12.207-3.059 1.938-3.418 3.538-7.068 5.794-10.254 3.861-5.445 3.174-9.808-.792-15.229-11.3-15.441-21.918-31.388-32.834-47.117-6.313-9.101-12.682-18.162-19.026-27.242l.01-.021Zm213.736-13.712c3.074.784 6.843.647 8.544 2.457 2.261 2.397-.045 10.547-2.442 12.206 8.559 5.703 12.137 5.592 20.58-1.107-4.87 1.329-5.198-1.3-5.218-4.521-.041-7.366-.106-7.366 8.291-8.833v-14.02h-11.007c.535-7.276 1.03-14.056 1.53-20.836-.818-.081-1.641-.157-2.458-.238-.379 6.811-.757 13.621-1.156 20.745-2.811-1.84-7.494-1.183-5.99-5.92.565-1.785 2.498-3.13 4.723-5.754-.196-.379-.979-2.038-1.892-3.62-.838-1.446-2.685-2.943-2.503-4.182.202-1.375 2.069-3.347 3.437-3.549 3.815-.561 7.782-.086 11.612-.577 1.428-.182 3.654-1.784 3.8-2.952.485-3.838.182-7.782.182-10.775-2.842-1.527-4.911-2.877-7.167-3.757-1.236-.485-2.805-.369-4.183-.197-6.071.744-12.127 1.603-18.441 2.458v4.717c.162-.465.318-.925.48-1.391 3.29.734 7.363.536 9.649 2.463 2.205 1.855.015 7.645-2.271 8.454-2.978 1.051-6.818-1.128-8.11-4.819v43.543l.01.005Zm170.481-42.698v25.058c16.664 0 33.293.065 49.922-.152 1.075-.015 2.982-2.184 3.033-3.418.297-6.811.141-13.641.141-20.7h-48.448v7.524c.409-.652.762-1.219 1.741-2.791v13.803l-.737.03c-1.039-5.101-2.084-10.203-3.078-15.077-.02.035-.278.495-.686 1.234l-1.893-5.517.005.006Zm-307.992 3.326c-.903-.359-1.327-.677-1.761-.682a7642.733 7642.733 0 0 0-30.28-.258c-6.682-.045-13.369.061-20.046-.126-3.038-.086-3.951.96-3.81 3.994.253 5.39.217 10.805.015 16.2-.13 3.483 1.217 4.449 4.603 4.414 15.518-.182 31.042-.096 46.565-.167 1.464-.005 2.927-.445 4.916-.764-5.117-4.94-5.087-17.903-.197-22.606l-.005-.005Zm417.928 58.161c.137-.364.268-.728.404-1.093-1.357-.682-2.705-1.395-4.083-2.032-3.542-1.643-7.216-3.044-10.598-4.975-1.302-.743-2.881-2.766-2.72-3.995.565-4.328-2.558-6.345-5.208-7.402-6.333-2.528-13.045-4.12-20.661-2.705 6.142 8.596 11.94 16.706 18.521 25.908.278-4.111.449-6.689.621-9.268.717-.005 1.433-.01 2.15-.02.535 6.921 1.07 13.838 1.59 20.598 2.624-5.263 8.841-9.328 9.053-18.04 3.2.885 7.066 1.952 10.931 3.019v.005ZM62.083 184.552c0-11.321.036-23.931-.03-36.536-.015-2.517-.389-5.035-.676-7.548-.02-.162-.767-.243-1.196-.369.368 1.486.696 2.796 1.17 4.682a4831.82 4831.82 0 0 0-8.331-.632v41.793c2.482.116 4.33.207 6.525.314-.43 1.658-.687 2.669-.737 2.861 4.587 1.603 9.059 3.16 14.156 4.94 0-3.655.873-8.671-.167-9.106-2.806-1.178-6.424-.404-10.709-.404l-.005.005Zm26.52-55.658h35.453v-7.22l1.03-.03c.156 1.982.313 3.969.464 5.921 4.123 2.396 7.166 1.602 9.932-2.412 1.817-2.644 4.567-4.657 6.954-6.887 1.312-1.223 3.306-2.057 3.977-3.534.787-1.729.464-3.964.621-5.976-1.212.789-2.408 1.603-3.639 2.361-.818.506-1.645 1.027-2.533 1.37-3.74 1.457-7.404 3.378-11.29 4.136-5.637 1.097-9.271 3.079-7.974 9.723-.307-2.139-.62-4.272-1.014-7.018l-31.98 9.566Zm154.226 8.141c2.261 10.537 4.552 21.215 6.848 31.893-1.034-.52-1.105-1.324-1.014-2.108.101-.875.353-1.734.535-2.599 1.393 11.553-4.057 21.61-6.667 32.283h7.273c0-4.272-.162-8.191.09-12.079.086-1.34 1.166-2.644 1.883-3.913.933-1.648 2.629-3.17 2.811-4.874.424-4.045.424-8.191.045-12.246-.212-2.28-.903-5.592-2.457-6.431-2.852-1.537-2.277-3.575-2.367-5.704-.076-1.795.257-3.63.015-5.389-.687-5.092.792-8.156 6.53-7.736.096.005.227-.516.464-1.097h-13.989Zm-221.185-2.053c3.907 4.449 3.437 7.38-1.408 8.792 1.514 1.583 2.635 2.716 3.705 3.899.701.773 1.847 1.638 1.817 2.432-.026.768-1.186 1.673-2.044 2.189-.752.45-1.777.44-3.417.794l3.618 11.598c3.619-.298 7.126-.586 11.22-.925v-26.929c-4.32-.591-8.565-1.178-13.49-1.855v.005Zm15.812 5.956c-.42 7.695-.853 15.709-1.232 22.722 5.153-.354 9.594-.657 14.61-1.006v-20.609c-4.244-.354-8.519-.708-13.378-1.107ZM74.67 41.161c-.555-.425-1.116-.85-1.67-1.279-4.053 5.016-8.136 10.006-12.153 15.047-6.41 8.044-12.289 16.584-19.324 24.026-4.814 5.092-7.005 11.3-11.41 17.62 1.806-.945 2.513-1.319 3.997-2.097-2.246 3.605-3.987 6.39-5.728 9.181l1.337.885 44.95-63.388v.005Zm436.157 95.12 1.988 23.056c4.259.379 8.387.748 11.713 1.047l-4.622-7.195c4.542.288 7.337.465 10.138.647-.025.435-.05.87-.07 1.304-2.16.198-4.315.395-6.475.597-.076.42-.147.839-.222 1.259 2.124.627 4.249 1.249 5.041 1.481 1.393 1.8 2.135 2.761 2.877 3.727.817-.986 2.13-1.881 2.341-2.988.384-1.997.106-4.121.106-5.85-3.946-.92-7.529-1.714-11.087-2.609-1.453-.364-2.846-.951-4.269-1.436.989-1.345 2.235-2.579 2.891-4.075.641-1.467 1.277-4.44.893-4.627-3.376-1.633-6.984-2.786-11.243-4.348v.01Zm16.598 36.814c-2.15 1.259-3.437 2.007-5.148 3.008 4.335 1.365 7.621 2.402 11.754 3.701-.585-3.868-1.12-7.387-1.484-9.778-7.257.591-13.58 1.102-20.418 1.658l-1.681 20.543c4.532-.733 8.398-1.355 13.061-2.109-1.731-1.38-3.341-2.26-4.35-3.589-.853-1.128-1.02-2.786-1.489-4.207 1.105-.238 2.251-.359 3.31-.738 1.131-.4 2.176-1.037 2.61-1.254-1.131-2.69-1.964-4.677-3.039-7.235h6.874Zm-204.263 47.82c-7.288 12.838-7.454 8.469 2.715 17.332 1.226 1.072 2.407 2.362 3.85 2.958 1.08.445 3.008.435 3.77-.248 2.831-2.543 5.335-5.455 7.212-7.437l-12.783-12.746c-.217 2.017-.434 4.049-.762 7.058-1.706-2.948-2.776-4.793-4.007-6.922l.005.005Zm185.817-31.095c.525-6.952 1.025-13.489 1.489-19.673h-12.924c-.626 6.704-1.222 13.05-1.837 19.673h13.272Zm-165.277 63.439c-2.806 3.165-4.709 5.309-7.303 8.231v-11.705c-.192-.035-.389-.065-.58-.101-.207 1.188-.419 2.372-.767 4.374-.611-1.613-.889-2.463-1.247-3.277-1.63-3.685-4.885-4.843-8.145-3.559-1.252.49-1.539 3.923-1.898 6.077-.348 2.078-.292 4.232-.303 6.356-.03 7.159-.01 14.319-.01 22.53l11.744-4.844c-1.721-8.307 4.951-11.902 8.71-17.054.803-1.102 2.14-2.462 1.964-3.479-.258-1.496-1.656-2.796-2.16-3.554l-.005.005Zm167.044-92.941c-.419-6.806-.843-13.712-1.257-20.371-3.815-.364-6.717-.849-9.614-.804-1.024.015-2.942 1.355-2.907 2.012.318 5.997.969 11.973 1.54 18.061l12.238 1.107v-.005Zm38.915-50.667c-.611 1.4-.843 1.689-.843 1.972-.071 35.438-.192 70.876-.086 106.314.015 4.53-1.04 8.12-3.936 11.639-5.239 6.356-10.038 13.08-15.019 19.653.338.263.676.521 1.014.784 6.132-7.928 12.289-15.836 18.35-23.819.52-.688.515-1.856.57-2.806.278-4.738.686-9.476.701-14.213.101-31.338.127-62.67.127-94.008 0-1.502-.47-2.998-.883-5.511l.005-.005ZM289.203 254.123c-.5.456-1.004.911-1.504 1.366 2.301 2.76 4.33 5.819 6.974 8.191 2.69 2.411 3.826 4.924 3.498 8.509-.147 1.603.252 4.126 1.317 4.813 3.184 2.058 6.818 3.423 11.012 5.4v-36.358h-11.668c-.737 4.636-1.378 8.686-2.024 12.731-.177.01-.353.025-.525.035-.146-1.506-.292-3.013-.494-5.126-.601 2.148-1.02 3.66-1.484 5.314-2.094-2.003-3.593-3.444-5.097-4.88l-.005.005Zm133.968-54.256-1.322 6.997-1.539-.242c-.192-1.644-.379-3.287-.636-5.512-4.048 5.011-7.661 9.476-10.936 13.53 4.39-1.122 8.806-2.234 13.217-3.372 4.406-1.138 4.825-2.493 2.064-6.199-.313-.424-.116-1.233-.172-2.179 1.848.304 3.452.561 5.335.87-.616 2.022-1.105 3.62-1.353 4.429 9.866-2.599 19.662-5.177 29.458-7.756-.066-.192-.127-.384-.187-.571h-33.924l-.005.005Zm-3.457-74.209c-1.599-7.452-6.454-10.941-14.832-10.38l15.574 15.972c.283-4.353.449-6.967.631-9.758 5.092 1.937 3.921 4.273.828 6.831.439.293.873.587 1.312.88 1.125-1.082 2.251-2.169 3.391-3.272.136 1.077.288 2.286.485 3.884h26.636c-11.87-3.626-22.362-6.826-33.172-10.128-.323 2.235-.59 4.101-.863 5.966l.01.005Zm24.658 23.425h24.956c-.177-4.06-.202-8.049-.646-11.993-.096-.839-1.676-2.032-2.68-2.149-4.84-.571-9.715-.829-14.58-1.203 3.074.855 6.278.394 9.241 1.052 1.408.313 2.987 2.639 3.25 4.262.151.925-2.125 3.15-3.412 3.236-3.881.258-7.812-.223-11.723-.45-2.947-.177-3.447-2.012-2.872-4.47.207-.874.551-1.714.833-2.568l-1.6-.197c-.247 4.682-.494 9.369-.767 14.475v.005ZM304.595 185.31c1.973 4.5 3.689 8.419 5.491 12.534 5.98-3.044 11.254-5.733 16.659-8.489-1.499-3.297-2.751-6.047-3.987-8.772l-5.329 3.018c1.044-1.805 1.494-2.583 2.397-4.141-5.35 2.053-9.841 3.782-15.231 5.85Zm-276.45 9.814c1.897-.465 4.668-1.143 7.731-1.896l-1.332-19.011c-4.613.278-8.756.531-13.99.844 2.236 3.069 3.82 5.249 5.491 7.539-.525.405-1.201.693-1.504 1.198-.908 1.512-2.064 3.059-2.286 4.708-.086.627 2.266 1.41 3.215 2.401.933.976 1.499 2.306 2.68 4.212l-.005.005Zm391.61-59.252c-4.86 3.038-9.367 5.218-12.945 8.433-1.257 1.133-.595 4.879-.101 7.291.222 1.097 2.372 2.786 3.29 2.584 4.992-1.097 9.872-2.705 15.176-4.247-1.792-4.652-3.366-8.737-5.415-14.061h-.005ZM26.711 226.057c-.53.521-1.054 1.042-1.584 1.562 3.013 3.884 6.08 7.726 9.033 11.65 9.538 12.665 19.026 25.366 28.544 38.047 2.957 3.938 5.935 7.857 8.902 11.785.48-.262.96-.53 1.439-.793-.55-1.259-.884-2.68-1.676-3.762-13.52-18.475-27.075-36.93-40.706-55.324-.974-1.314-2.62-2.128-3.957-3.17l.005.005Zm398.201-42.046c-5.072-1.75-9.326-3.368-13.686-4.611-1.015-.289-3.003.359-3.487 1.188-1.519 2.624-2.539 5.541-3.876 8.63l15.725 7.827c1.817-4.454 3.447-8.453 5.319-13.039l.005.005Zm44.971.187h-27.489c.288 3.236 1.004 6.027.656 8.681-.474 3.58 1.277 3.742 3.906 3.691 4.739-.081 9.483.035 14.227.015 6.237-.025 7.141-.869 7.847-6.972.187-1.613.505-3.216.858-5.415h-.005Zm-155.644-68.505c-.272-.167-.54-.339-.812-.506-1.499 3.327-3.149 6.593-4.376 10.016-.292.814.586 2.705 1.393 3.08.823.379 2.811-.132 3.286-.89 5.107-8.151 16.749-10.739 18.167-21.109-1.286-1.836-2.331-3.337-3.668-5.244-3.584 3.049-7.116 6.058-10.649 9.061.162.288.328.576.49.87.837-.147 1.68-.289 2.361-.405v6.664a291.659 291.659 0 0 0-.979-1.876c-1.337 2.488-2.679 4.985-4.017 7.483-.297-.05-.59-.106-.888-.157-.101-2.33-.207-4.656-.308-6.987Zm20.485 106.709c4.128 1.612 7.943 3.109 12.187 4.767 2.085-6.219 3.972-11.856 6.016-17.959-3.341-1.213-6.162-2.235-8.983-3.261 1.161 3.994 2.735 6.907-3.008 6.032-.484-.076-1.332.804-1.665 1.426-1.439 2.664-2.746 5.4-4.547 8.99v.005Zm-209.558-88.679c-.59.101-1.18.207-1.766.308 1.973 6.027.888 7.564-5.339 7.6-1.802.01-3.604.025-5.405.01-6.606-.056-7.52-1.34-6.167-7.893-3.195 4.965-2.847 10.77-3.634 16.877 3.518 0 6.596.011 9.675 0 5.85-.027 9.867-2.723 12.051-8.089.187-.455.55-.895.56-1.35.056-2.488.025-4.981.025-7.468v.005Zm230.577-34.32c-2.241 2.477-3.568-1.983-5.526-.107-2.589-6.902-7.187-4.915-11.648-3.029.994 1.32 1.64 2.903 2.816 3.605 2.64 1.578 5.526 3.777 8.342 3.828 7.161.121 14.343-.804 21.519-1.315 1.232-.086 2.463-.222 3.694-.333.051-.506.096-1.012.147-1.517-5.4-3.995-11.951-4.753-18.557-6.285-.328 2.149-.59 3.873-.787 5.152Zm25.793 128.014 14.535-6.027c-2.872-5.602-5.425-10.592-8.06-15.729l-6.475 2.67v19.086Zm-138.409-7.953-.984.637c1.67.748 3.29 1.679 5.026 2.21 2.705.824 6.334.5 8.095 2.204 5.895 5.693 12.531 7.761 20.469 6.644 2.085-.294 4.275-.248 6.364.035 8.05 1.087 11.991-4.97 17.502-9.126-6.389-3.539-10.285-2.341-12.268 3.317-.919 2.624-1.832 4.818-5.315 4.601-4.37-.268-8.781-.405-13.146-.162-3.462.192-5.264-1.032-5.612-4.46-.404-3.928-2.902-4.813-6.434-4.879-4.573-.086-9.13-.662-13.697-1.026v.005Zm90.966-107.083c3.997 4.869 7.075 9.233 10.81 12.934 2.195 2.179 7.585.414 7.055-1.785-1.312-5.456-3.134-10.785-4.875-16.569-4.355 1.82-7.933 3.312-12.99 5.42Zm-25.299 26.848c-1.014 2.498-2.433 5.43-3.331 8.519-.272.946.616 3.085 1.408 3.348 5.476 1.81 11.067 3.266 16.851 4.899.979-2.665 1.736-4.727 2.2-5.997-5.854-3.68-11.178-7.033-17.123-10.769h-.005Zm-11.375 4.156c.792 13.626 1.504 25.832 2.21 38.032l-2.488.106V171.28c0-2.503.172-5.572-3.406-4.976-1.267.213-2.105 3.009-3.139 4.627 2.907 1.461 5.152 2.775 5.228 4.206.368 7.109.172 14.248.172 21.711l3.875-.182c-.201-2.027-.994-3.923-.398-5.147 2.205-4.535 2.977-8.348.903-13.722-1.852-4.809-.298-10.957-.136-16.508.136-4.682.585-9.359.535-14.036-.01-.976-1.61-1.931-3.351-3.868h-.005Zm-57.406-16.488.046.92c6.333 0 12.667-.015 19 .011 1.63.005 4.138-.506 4.739.318 3.2 4.399 7.59 2.23 11.471 2.543 3.094.248 6.323-.071 4.587 5.163.828-1.179 1.469-2.079 1.358-2.872-.636-4.531 2.195-5.279 5.627-5.299 1.282-.01 2.559.505 3.846.521 5.364.06 10.724.025 16.088.025l.318-1.33-2.528-1.977c-3.235.981-5.44 2.21-7.651 2.215-6.641.015-13.358.652-19.783-2.21-1.771-.788-4.683-.935-6.197.021-3.967 2.497-8.266 1.319-12.324 1.774-6.132.688-12.395.182-18.602.182l.005-.005Zm143.042-20.027c0 6.072-.277 10.992.177 15.846.131 1.405 2.241 2.776 3.704 3.792.379.263 2.125-.657 2.564-1.421 2.241-3.908 4.259-7.943 6.662-12.519-4.093-1.779-7.737-3.362-13.107-5.698Zm-222.688.263c20.716-6.735 40.59-5.218 59.893 5.516-2.609-2.867-5.218-5.733-8.912-9.788h-52.884c.757 1.698 1.282 2.887 1.898 4.272h.005Zm-85.662 28.799c-10.522 2.266-11.148 3.292-8.948 14.213 10.74 1.294 13.636 1.714 8.948-14.213Zm299.862 103.67c.106.375.217.749.323 1.123 1.418-.329 2.887-.526 4.254-1.016 4.739-1.699 9.337-4.44 14.186-4.996 4.855-.561 6.43-2.872 7.151-5.526-3.391.197-6.918.055-10.31.682-3.861.713-7.434 4.354-11.627.506-.505 2.012-.959 3.802-1.429 5.673 1.166.081 2.322.157 3.478.238.075.308.146.622.222.93-2.085.794-4.164 1.588-6.248 2.381v.005Zm-273.993-55.51c-7.903 0-15.226-.061-22.543.096-.697.015-1.908 1.334-1.964 2.108-.433 6.447 1.494 8.348 8.222 8.424 1.635.02 3.27-.021 4.91-.006 6.312.061 10.102-3.478 11.37-10.617l.005-.005Zm336.334-49.267c2.039 5.617 1.136 7.205-3.835 7.357-5.355.167-5.541.455-3.967 6.133h12.965c1.075-7.195-1.161-13.358-5.158-13.49h-.005Zm-171.465 87.688c-.141 3.969 1.035 5.703 4.512 5.531 3.583-.177 7.186-.232 10.769-.071 4.083.187 4.921-1.977 4.684-5.46h-19.97.005ZM20.61 162.477c-5.304-8.201-.757-16.968-3.563-25.645-1.242 1.371-2.816 2.296-2.841 3.262-.202 7.654-.111 15.32-.111 23.536 2.866-.506 5.183-.915 6.515-1.153Zm36.507-19.456c.389-.334.778-.667 1.171-1.001-4.617-8.474-26.757-35.787-30.159-35.939 9.952 12.681 19.47 24.81 28.993 36.94h-.005Zm416.4-5.936c-.767 3.049-1.777 5.693-1.958 8.393-.081 1.244 1.514 3.737 2.25 3.696 2.463-.126 6.5-.526 7.03-1.926 2.12-5.617-.979-9.495-7.322-10.163ZM95.421 147.091c-.196-.02-.398-.035-.595-.055l-.399-5.633c-.777 2.265-1.236 3.615-2.013 5.885-.505-2.315-.778-3.579-1.055-4.853-.802 2.563-1.554 4.96-2.448 7.801 2.932.243 6.248.688 9.564.683.949 0 2.735-1.36 2.7-2.028-.238-4.96-.843-9.905-1.358-15.168-1.645 5.005-3.023 9.182-4.395 13.363v.005Zm150.683 54.141c2.302 2.427 3.871 4.085 5.446 5.738-1.645.961-3.286 1.922-4.931 2.882-.202-.328-.404-.657-.61-.986l-2.468 6.604c5.021 3.938 8.296 2.867 9.27-3.363.561-3.605.101-7.366.101-11.502-2.467.227-4.673.43-6.813.622l.005.005Zm80.747 43.396c-4.3-3.489-7.868-6.386-11.779-9.561-1.827 3.347-3.341 6.113-5.228 9.561h17.007Zm-25.965-23.799c.298-2.937-.227-6.542.878-7.144 5.097-2.786 2.644-7.175 2.912-10.896.045-.612-1.736-1.355-2.988-2.27-1.023 6.603-3.559 10.641-7.61 12.114 2.397 2.887 4.708 5.663 6.808 8.196Zm-179.121-33.855-.01-1.745h-18.9c.348 3.009.692 5.982 1.045 9.051h20.58c-5.248-.88-10.497-.936-15.685-1.517-1.13-.127-2.044-2.169-3.058-3.327 1.145-.819 2.246-2.265 3.437-2.346 4.178-.293 8.392-.111 12.591-.111v-.005Zm319.059-2.574c-7.696-1.623-10.552-1.057-11.844 2.341 1.519.111 2.952.202 4.38.324 2.387.197 5.299-.258 5.299 3.463 0 3.777-2.876 3.135-5.283 3.352-1.807.162-3.584.703-5.37 1.077l.363 1.674c2.907 0 5.829.182 8.706-.106.898-.091 2.205-1.34 2.397-2.255.661-3.171.913-6.427 1.352-9.87Zm16.069 135.938 1.342-1.32c-8.508-8.307-17.017-16.614-25.526-24.926l-.302.344c8.16 8.635 16.321 17.266 24.486 25.902ZM119.474 153.765c0-.344.01-.692.01-1.036H66.146v1.036h53.328Zm351.938 29.083 1.05 10.719c4.915-.804 8.912-2.533 7.661-7.534-.379-1.507-5.042-1.931-8.706-3.185h-.005ZM18.147 115.172c-3.563-.344-6.954-.9-10.33-.829-.868.015-2.135 1.926-2.357 3.13-.111.606 1.615 2.118 2.65 2.265 2.225.313 4.546-.152 6.812 0 3.17.217 4.184-1.087 3.23-4.566h-.005Zm273.867 98.7c0-3.656.111-6.897-.076-10.117-.05-.865-1.014-1.674-1.559-2.508-.626.758-1.822 1.552-1.777 2.275.288 4.667-.106 8.767-5.778 10.355h9.19v-.005ZM18.929 190.351c-.116-1.507-.141-3.984-.585-6.386-.136-.728-1.428-1.244-2.195-1.855-.576.783-1.65 1.572-1.646 2.351.03 3.928.243 7.867.636 11.775.081.814 1.227 1.522 1.878 2.281.636-.769 1.66-1.462 1.822-2.316.297-1.583.085-3.266.085-5.85h.005Zm244.869 23.627c-1.817-2.068-3.548-3.802-4.956-5.764-.469-.652.051-1.936-.182-2.856-.383-1.532-1.004-3.009-1.529-4.505-.58 1.572-1.499 3.104-1.665 4.722-.278 2.705-.076 5.461-.076 8.408h8.403l.005-.005Zm213.993-61.78.035-1.295h-33.963c0 .43.01.865.01 1.295H477.791Zm44.9 9.9c-2.745 0-5.243-.289-7.615.131-1.035.182-2.423 1.775-2.513 2.826-.086.956 1.206 2.721 2.17 2.953 2.579.617 5.309.602 7.958.84v-6.75Zm-235.078 4.692c-.727-1.542 3.492-7.357-3.866-6.993-7.787.379-2.235 6.639-3.886 9.02.147-.692.445-2.078.843-3.949 2.751.885 6.722-1.951 6.914 1.922h-.005Zm-113.136 69.354c-.171.47-.348.946-.52 1.416 1.464.44 2.917 1.213 4.391 1.259 13.974.435 15.826.131 16.952-1.972-6.753-1.062-13.798-.47-20.818-.708l-.005.005Zm355.804-54.186-1.105-1.122c-.873.712-2.362 1.319-2.518 2.164-.661 3.696-1.045 7.452-1.267 11.204-.045.799.999 1.668 1.544 2.503.687-.713 1.863-1.355 1.979-2.154.605-4.177.938-8.393 1.367-12.595Zm-3.896-47.997c-1.07 8.63.263 15.244 3.144 16.29 1.555-7.574.364-14.369-3.144-16.29Zm-436.03 180.31c4.395-1.133 12.742-16.079 11.925-20.483-4.189 7.195-8.06 13.839-11.925 20.483Zm389.354-132.232-.121-.845h-50.401c0 .284.005.567.01.845h50.512Zm-217.4 35.868c8.463 2.73 17.154 1.486 25.829 1.597l.015-1.597h-25.849.005ZM5.849 229.45c4.49-4.712 10.88-5.137 12.954-12.11l-12.955 7.312v4.798Zm17.501-63.272c.369 2.255.656 4.05.96 5.89 2.422-.308 4.44-.258 6.212-.895 1.216-.435 2.089-1.825 3.113-2.786-1.054-.738-2.039-1.941-3.184-2.113-2.2-.339-4.492-.101-7.1-.101v.005Zm438.504-28.248c-4.487-.865-8.918-1.79-12.975.809 4.481 1.193 9.013 3.342 12.975-.809Zm-154.196-7.539c-6.025 1.244-12.435-2.119-18.173 1.395 6.203.986 12.415 2.225 18.173-1.395ZM74.75 182.216l-.085.667h45.339v-.667H74.745h.005Zm182.447-50.47c.05-.339.101-.678.146-1.021h-15.675c-.01.338-.015.677-.025 1.021h15.554Zm36.285 69.814c.167 2.796.318 5.294.495 8.191 1.983-.313 3.477-.546 4.86-.763.37-5.434-1.413-7.91-5.35-7.428h-.005Zm-171.404-65.183c-3.926 0-7.853-.03-11.774.117-.146.005-.661 2.118-.252 2.588 1.246 1.431 10.128.299 12.026-2.705Zm310.53-123.712c.167.5.334.996.5 1.497l21.519-5.542-.52-1.89c-7.166 1.981-14.332 3.958-21.499 5.94v-.005ZM81.23 133.814c-3.951 5.066-4.3 14.47-.762 16.483.253-5.415.5-10.775.762-16.483Zm40.787 57.23c0-.42 0-.84-.005-1.259H108.23c0 .419 0 .839.005 1.259h13.782Zm-23.76-54.581c-4.955 0-9.003-.035-13.05.051-.444.01-1.125.672-1.231 1.137-.111.481.186 1.295.585 1.613 1.731 1.401 11.168.061 13.697-2.801ZM279.6 175.865v3.53c8.428 1.076 8.746.874 8.272-4.131-2.635.192-5.249.379-8.272.601Zm219.403-49.296c-.348-.38-.696-.754-1.044-1.133l-15.579 11.498c.383.5.767 1.006 1.145 1.506 5.158-3.959 10.316-7.918 15.473-11.871h.005Zm-478.498 53.22c.282-.45.56-.9.843-1.35-1.878-1.684-3.755-3.367-5.632-5.056-.964 1.936-1.928 3.878-3.18 6.406h7.969Zm483.913-18.263c-2.917.718-5.127 1.133-7.206 1.896-.354.127-.424 2.483-.167 2.579 1.958.733 4.032 1.158 6.435 1.775.318-2.134.545-3.641.938-6.25ZM259.64 130.118l-.414 7.791c1.62-.364 2.947-.657 4.199-.94.137-4.375-1.124-6.659-3.785-6.851Zm-109.816-29.543v12.362c4.224-3.392 2.488-7.149 2.625-10.42.025-.567-1.58-1.204-2.625-1.942Zm333.281-23.283 1.141-.688c-3.72-6.148-7.444-12.291-11.163-18.44l-1.116.673c3.715 6.153 7.429 12.307 11.138 18.455Zm-56.623 108.15c-1.772 4.383-3.412 8.438-5.304 13.125 4.407-4.685 6.175-9.06 5.304-13.125ZM46.519 283.358c-.338.303-.676.607-1.019.91 4.633 5.931 9.266 11.866 13.898 17.797.147-1.577-.429-2.659-1.16-3.615-3.886-5.051-7.807-10.066-11.719-15.092Zm164.173-55.961-12.289 4.581c11.81.157 12.375-.056 12.289-4.581ZM104.743 14.152l.943-2.311-11.203-4.414c-.232.571-.465 1.143-.697 1.709 3.654 1.674 7.303 3.347 10.957 5.016Zm430.964 142.404h-1.07v19.855h1.07v-19.855Zm-235.28-19.43h-10.583c3.149 1.451 5.763 2.654 8.741 4.029.323-.713.963-2.108 1.837-4.029h.005Zm-15.262 29.962c-.56-.324-1.12-.642-1.68-.966-.621 1.467-1.711 2.933-1.716 4.404-.005 1.284 1.206 2.579 1.877 3.868.505-.212 1.01-.425 1.519-.637v-6.674.005Zm151.188-29.649h-8.11c2.387 3.838 5.748 3.797 8.11 0Zm-154.2-.409c5.622.485 5.329-2.346 4.91-4.925-.121-.758-1.383-1.335-2.12-1.992-.852 2.118-1.705 4.232-2.79 6.917Zm9.982 21.827c.515.162 1.029.328 1.549.49 2.463-4.09.873-8.818 1.146-12.635-.813 3.671-1.751 7.908-2.69 12.14l-.005.005ZM512.436 60.91c.349-.263.697-.526 1.045-.783-3.709-4.935-7.418-9.875-11.128-14.815l-.984.743c3.689 4.95 7.378 9.905 11.072 14.855h-.005Zm-256.501 79.497c-.197-.005-.398-.01-.595-.02v16.351c.197.031.398.056.595.086v-16.417ZM158.04 228.08c-.121 3.827 2.367 4.656 9.67 3.6a25602.42 25602.42 0 0 0-9.67-3.6Zm66.283-8.596-2.271-.248c-.303 1.745-.873 3.509-.752 5.223.035.526 1.963.921 3.023 1.376v-6.356.005Z" fill="#fff"/><path d="M498.649 257.556c-.661.298-1.322.592-1.978.89-.318-.263-.636-.526-.949-.789 4.506-5.663 9.008-11.325 13.515-16.983l-10.583 16.882h-.005ZM331.014 172.457c-4.678.779-6.076-1.304-6.202-5.364-.141-4.571 2.594-5.016 6.031-4.53.176-1.148.338-1.775.363-2.412.363-9.212.424-9.794 9.372-8.783 7.62.86 13.439-3.028 19.808-5.531 3.613-1.421 6.707-1.598 10.305 0 7.055 3.13 13.712 7.68 22.145 6.608 1.009-.126 3.008 2.144 3.376 3.6.575 2.286.151 4.824.151 7.165 3.462 1.926 9.761-1.461 9.185 6.173-.509 6.71-6.03 2.468-8.72 4.783-.01.015-.303.258-.338.541-1.207 9.485-1.237 9.946-11.042 9.228-7.061-.516-12.375 3.559-18.587 5.121-1.989.501-4.643.612-6.324-.318-6.772-3.737-13.727-5.582-21.554-5.051-7.636.521-7.661.136-7.742-7.64-.01-.966-.111-1.931-.212-3.59h-.015Zm19.93.759c.201 1.208.484 1.865.393 2.472-.671 4.434.742 7.559 5.229 9.03 3.709 1.219 6.787 3.995 11.455 1.795 5.042-2.371 10.154-3.827 8.681-11.057-.142-.703.484-1.538.636-2.336.555-2.908 1.705-5.891 1.428-8.722-.409-4.181-1.852-8.257-3.048-13.196.469.242-.157.015-.672-.365-7.327-5.455-14.277-2.007-21.11 1.088-1.166.525-2.23 2.472-2.367 3.852-.353 3.62-.313 7.296-.146 10.942.167 3.686-.555 6.234-5.042 5.612-.933-.127-1.897-.02-2.846-.02l-.015.536c2.367.116 4.734.227 7.434.359l-.01.01Zm-4.083-13.854c-.187-5.476-3.916-7.094-13.081-5.233v8.818c4.436-1.214 8.514-2.336 13.081-3.585Zm33.686-4.237c-.116 1.886-.212 3.438-.338 5.435 3.942 1.517 9.624-2.143 12.102 4.232 3.952-7.442 2.387-10.451-4.522-10.329-2.569.045-5.127.46-7.242.662Zm-47.519 25.023c11.501 1.926 12.894 1.456 14.746-4.404-3.81-1.042-7.59-2.286-11.471-2.988-.923-.167-2.715 1.259-3.144 2.341-.55 1.385-.136 3.16-.136 5.056l.005-.005Zm46.227-13.718c.606 1.593.954 3.388 1.343 3.398 7.363.167 14.731.121 22.296.121v-3.519h-23.639Zm-30.391 3.353c.248-.693.495-1.386.747-2.083-1.085-.804-2.15-2.261-3.265-2.306-6.172-.228-12.359-.106-18.541-.106-.293.404-.591.809-.884 1.218 1.055 1.092 2.065 3.074 3.175 3.13 6.248.303 12.516.147 18.773.147h-.005Zm31.138 5.516c-.277 5.046 4.673 7.205 13.545 5.061 0-1.542.248-3.221-.106-4.758-.171-.743-1.519-1.785-2.26-1.729-3.543.268-7.066.865-11.174 1.426h-.005ZM183.067 221.794c-28.438-.061-51.925-23.799-52.057-52.614-.141-30.903 22.448-54.641 52.258-54.914 29.226-.273 53.394 23.354 53.444 52.239.056 31.197-23.386 55.355-53.645 55.294v-.005Zm.656-2.2c28.922-.46 51.213-23.627 51.082-53.083-.121-28.112-23.391-50.081-52.526-49.591-28.069.471-49.689 23.142-49.275 51.669.419 28.87 22.871 51.45 50.719 51.005ZM266.851 175.693c-3.038-1.087-6.288-1.451-6.51-2.477-.666-3.049-.369-6.396.111-9.541.091-.592 2.806-1.178 4.229-1.021.807.091 1.983 1.643 2.069 2.619.273 3.023.101 6.087.101 10.42ZM275.027 188.368c2.896-1.789 4.214-3.124 5.738-3.433 2.563-.52 3.684.824 3.664 3.646-.021 2.932-1.121 4.565-3.912 3.959-1.503-.329-2.72-1.987-5.495-4.172h.005ZM273.619 211.01c-1.484-2.483-2.948-3.868-2.917-5.218.025-.996 1.983-2.67 3.114-2.695.984-.025 2.841 1.845 2.821 2.852-.026 1.344-1.489 2.659-3.018 5.066v-.005ZM277.419 191.964c-2.312 1.406-3.765 2.948-4.668 2.675-1.222-.369-2.019-2.139-2.998-3.307 1.06-.798 2.135-2.25 3.174-2.224 1.171.025 2.312 1.38 4.497 2.856h-.005ZM450.337 175.588c-3.674 0-7.368.192-11.012-.132-.953-.086-1.796-1.754-2.624-2.75-.161-.193-.005-.637-.025-.961-.508-10.277 4.36-15.441 14.605-15.492 4.411-.02 8.821.066 13.227-.05 2.69-.071 3.911.975 3.821 3.721-.132 4.09.075 8.201-.308 12.261-.116 1.223-1.625 3.21-2.64 3.301-4.093.38-8.246.157-12.374.157l-.096-1.896c3.164 0 6.339-.131 9.498.041 2.715.146 3.941-.84 3.866-3.626-.096-3.529-.026-7.058-.026-10.668h-27.04c-.146 1.107-.343 1.886-.333 2.665.046 3.428-1.07 7.776.606 9.99 1.403 1.856 6.091 1.209 9.316 1.709.565.086 1.1.38 1.645.577-.035.384-.07.768-.101 1.153h-.005ZM472.568 165.262c-.046-.753-.02-2.078-.232-3.367-.555-3.393.464-5.451 4.219-5.491 3.391-.036 4.537 1.643 4.32 4.94-.228 3.428-.021 6.886-.021 10.334 0 3.226-1.786 3.873-4.738 3.974-3.21.112-3.513-1.597-3.543-3.923-.025-1.967-.005-3.939-.005-6.467Zm6.379.996h.05c0-1.309.222-2.674-.065-3.918-.248-1.052-1.085-1.967-1.661-2.948-.807.961-2.205 1.866-2.311 2.897-.308 3.079-.237 6.219-.01 9.313.06.804 1.236 1.522 1.897 2.276.702-.738 1.858-1.396 2.009-2.235.313-1.744.096-3.59.096-5.39l-.005.005ZM96.39 177.043c-3.916 0-7.842-.147-11.748.05-2.922.147-4.34-.996-4.27-3.878.101-4.075.086-8.175.596-12.21.126-1.006 2.044-2.518 3.17-2.548 8.316-.238 16.648-.273 24.965-.036 1.166.036 2.296 1.901 3.391 2.978.167.167.081.637.046.956-.485 4.859.726 11.644-1.953 14.031-2.741 2.432-9.306.536-14.197.536v.121Zm-13.177-1.249c8.257 0 16.321.071 24.381-.096.949-.02 2.533-1.234 2.685-2.098.545-3.024.762-6.143.716-9.223-.015-.93-1.271-2.624-1.988-2.639-8.559-.187-17.128-.121-25.799-.121v14.172l.005.005ZM73.73 177.19c.046-5.142.142-9.88.021-14.612-.01-.364-1.827-1.178-2.382-.91-.939.455-2.13 1.572-2.18 2.472-.227 4.172-.101 8.358-1.17 12.817-.39-.834-1.076-1.653-1.116-2.502-.177-3.59-.066-7.195-.243-10.785-.15-3.069-.09-5.309 4.154-5.39 3.936-.076 5.284 1.32 5.137 5.011-.136 3.433.142 6.891-.196 10.294-.137 1.365-1.434 2.614-2.024 3.61v-.005ZM33.317 121.872c1.489 2.159 2.978 4.318 5.067 7.342-2.22.364-5.112 1.092-5.213.814-.858-2.397-1.211-4.981-1.716-7.504l1.862-.652ZM324.549 276.066c0-6.598.016-12.933-.005-19.273-.015-3.707 2.736-2.872 4.87-3.009 2.322-.146 4.285.182 4.255 3.241-.046 4.075-.005 8.151-.015 12.231-.021 7.958-.414 8.282-9.105 6.815v-.005Zm2.024-1.577c1.928-.561 3.311-.961 4.693-1.365-.575-1.183-1.478-2.321-1.655-3.565-.439-2.993-.55-6.032-.767-9.055-.121-1.709-.197-3.418-.298-5.127-.656.066-1.312.126-1.973.192v18.92ZM300.078 253.375l.419 7.64c.222-2.336-.232-4.722.757-5.941 1.035-1.279 3.518-2.063 5.239-1.881 1.256.137 3.209 2.129 3.3 3.403.358 5.208.071 10.456.111 15.689.02 2.639-.535 4.272-3.78 4.293-5.046.03-5.516.08-5.93-3.676-.706-6.462-1.17-12.954-1.736-19.436.54-.035 1.08-.066 1.62-.101v.01Zm3.109 20.316 1.605.94c.656-1.163 1.822-2.311 1.872-3.499.207-5.152.091-10.319.091-15.825h-3.568v18.384ZM454.788 187.751c2.287 0 4.618-.253 6.849.106 1.14.187 3.083 1.724 2.957 2.215-.343 1.355-1.504 3.438-2.493 3.529-4.703.414-9.473.46-14.186.162-1.08-.071-2.039-2.038-3.053-3.13 1.186-1.006 2.235-2.553 3.583-2.887 2.003-.496 4.214-.127 6.338-.127v.137l.005-.005Zm-7.827 3.726h15.892c-2.745-3.423-13.288-3.494-15.892 0ZM88.664 186.978c1.781 0 3.674-.364 5.32.107 1.564.445 2.876 1.769 4.304 2.71-1.317 1.238-2.569 3.453-3.957 3.539-4.168.268-8.412-.121-12.57-.657-.975-.127-2.615-2.159-2.403-2.806.383-1.173 1.802-2.523 3.018-2.802 2.003-.46 4.183-.126 6.293-.126v.035h-.005Zm-7.787 2.377c4.567 3.165 12.652 2.993 15.68 0h-15.68Z" fill="#fff"/><path d="M135.86 167.178c-.368-24.916 18.557-48.447 48.18-47.876 28.06.541 47.984 22.399 47.116 49.848-.843 26.585-21.706 47.477-48.19 47.052-27.04-.435-47.828-22.687-47.101-49.024h-.005Zm15.534-31.727c-.091.086-.187.172-.278.258.757.905 1.454 1.866 2.286 2.7 3.689 3.706 7.464 7.321 11.093 11.088.969 1.006 2.044 2.382 2.16 3.671.53 5.865-4.774 12.954-10.709 14.541 7.534-1.658 7.393 4.364 9.276 8.353.277.586.358 1.269.645 1.85 1.464 2.913.818 5.218-1.564 7.438-3.835 3.569-7.479 7.341-11.138 11.093-.974 1.001-1.716 2.23-3.24 4.247 5.814-5.445 10.608-10.117 15.64-14.511 1.282-1.117 3.537-2.204 5.001-1.856 9.594 2.296 11.385 4.854 11.35 14.901-.015 4.854 0 9.702 0 14.556l1.388-.03c0-6.143.252-12.302-.091-18.425-.232-4.166 1.251-6.512 5.178-7.589 1.564-.429 3.139-1.006 4.552-1.795 3.84-2.138 6.737-1.041 9.427 2.134 3.85 4.545 7.908 8.924 11.875 13.373l1.786-1.729c-3.457-3.509-6.863-7.068-10.381-10.521-7.756-7.615-7.691-7.549-3.043-17.176 1.403-2.902 3.174-4.009 6.445-3.873 6.581.278 13.176.081 19.772.081a43.01 43.01 0 0 0-13.323-.966c-8.16.678-13.424-1.744-15.513-10.577-.868-3.676-.53-5.683 1.928-8.08 4.456-4.343 8.741-8.873 13.616-13.858-1.156.394-1.681.419-1.969.692-4.723 4.53-9.402 9.111-14.14 13.621-.863.819-1.984 1.982-2.963 1.957-9.139-.197-13.888-6.128-12.975-15.376.414-4.186.071-8.443.071-13.221-.858.789-1.247.976-1.247 1.173-.1 4.424-.161 8.843-.222 13.267-.116 9.288-.186 9.116-8.599 12.842-3.583 1.588-5.819 1.002-8.509-1.82-4.224-4.434-9.018-8.322-13.575-12.438l-.01.005Zm74.993 30.074c-1.206-10.426-4.073-19.324-12.157-27.874-3.483 4.085-6.42 8.069-9.927 11.462-2.544 2.462-2.715 4.535-1.615 7.736 1.776 5.177 3.578 9.576 10.406 7.644.853-.242 1.908.319 2.877.385 3.341.237 6.681.419 10.416.647Zm-41.236 45.651c10.608-1.087 19.081-3.903 26.237-10.86-2.483-2.614-4.562-4.894-6.742-7.079-7.403-7.432-7.772-7.528-16.937-2.356-1.155.652-2.382 2.316-2.442 3.57-.273 5.319-.116 10.663-.116 16.725Zm41.145-40.797c-4.189 0-8.019.005-11.849 0-9.301-.02-9.816.288-12.486 9.065-.358 1.183-.222 3.145.53 3.934 4.123 4.328 8.514 8.408 13.051 12.802 6.727-7.367 9.598-15.735 10.754-25.801Zm-75.331-30.15c-6.036 7.534-9.528 15.887-9.13 25.705l-2.826.723c.036.289.066.572.101.86h12.682c.01-.278.026-.556.036-.834-2.049-.096-4.098-.187-6.147-.283l.03-1.209c3.603 0 7.237.278 10.79-.121 1.756-.197 4.456-1.325 4.84-2.599 1.039-3.448 5.036-6.937 1.62-10.744-3.568-3.979-7.717-7.438-12.001-11.498h.005Zm29.164 70.285c0-4.667-.348-9.081.096-13.419.48-4.697-1.135-7.422-5.642-8.636-1.398-.379-2.639-1.36-4.042-1.704-.929-.227-2.337-.187-2.983.37-4.416 3.807-8.685 7.786-12.869 11.588 5.713 7.19 16.629 12.135 25.445 11.806l-.005-.005Zm31.002-75.437c-6.525-6.37-14.257-8.641-22.296-10.036-.888-.152-2.947 1.593-3.043 2.594-.429 4.469-.601 9.005-.308 13.479.101 1.532 1.564 3.833 2.886 4.252 3.16 1.001 6.178 4.93 9.801 1.901 4.456-3.726 8.494-7.958 12.955-12.2l.005.01Zm-69.674 35.196c.605 9.389 3.568 17.65 10.093 25.149 4.36-4.318 8.685-8.024 12.269-12.347 2.715-3.272-2.251-12.615-6.536-12.762-5.158-.177-10.32-.04-15.826-.04Zm13.469-34.635c4.668 4.339 8.645 8.211 12.824 11.857 2.7 2.356 12.137-1.476 12.294-5.041.242-5.511.065-11.042.065-16.928-9.533.39-17.254 3.524-25.183 10.112Zm-16.704 35.08c.792 9.373 3.225 17.59 8.736 24.951-2.897-8.277-5.703-16.285-8.736-24.951Zm91.077 1.198a39991.31 39991.31 0 0 1-8.887 23.425c5.258-6.998 7.908-14.663 8.887-23.425Z" fill="#fff"/><path d="M182.693 149.042c7.777-.243 18.294 10.633 18.849 19.481.455 7.266-10.29 18.45-17.819 18.541-8.125.101-17.997-10.132-18.365-19.041-.384-9.187 8.307-18.708 17.335-18.986v.005Zm1.176 35.843c6.44-.031 14.963-9.192 15.029-16.154.076-7.448-8.892-16.665-16.255-16.711-6.728-.04-15.236 8.838-15.226 15.897.01 8.044 8.7 17.008 16.452 16.968Z" fill="#fff"/></symbol></svg>